<?xml version="1.0" encoding="UTF-8" standalone="no"?>
<svg
   xmlns:dc="http://purl.org/dc/elements/1.1/"
   xmlns:cc="http://creativecommons.org/ns#"
   xmlns:rdf="http://www.w3.org/1999/02/22-rdf-syntax-ns#"
   xmlns:svg="http://www.w3.org/2000/svg"
   xmlns="http://www.w3.org/2000/svg"
   id="svg40"
   viewBox="0 0 666.39625 667"
   style="clip-rule:evenodd;fill-rule:evenodd;image-rendering:optimizeQuality;shape-rendering:geometricPrecision;text-rendering:geometricPrecision"
   version="1.1"
   height="0.66666102in"
   width="0.66666102in"
   xml:space="preserve"><metadata
   id="metadata44"><rdf:RDF><cc:Work
       rdf:about=""><dc:format>image/svg+xml</dc:format><dc:type
         rdf:resource="http://purl.org/dc/dcmitype/StillImage" /></cc:Work></rdf:RDF></metadata>
 <defs
   id="defs7">
  <style
   id="style2"
   type="text/css">
   <![CDATA[
    .str0 {stroke:#00A859;stroke-width:15.2756}
    .fil0 {fill:none}
    .fil1 {fill:#00A859}
   ]]>
  </style>
   <clipPath
   id="id0">
    <path
   id="path4"
   d="M 73,0 H 740 V 667 H 73 Z" />
   </clipPath>
 </defs>
 <g
   transform="translate(-73.368285)"
   id="Layer_x0020_1">
  <metadata
   id="CorelCorpID_0Corel-Layer" />
  <g
   id="g10">
  </g>
  <g
   id="g35"
   clip-path="url(#id0)">
   <g
   id="g33">
    <g
   id="_2322839345872">
     <path
   style="fill:none;stroke:#00a859;stroke-width:15.27560043"
   id="path12"
   d="m 232,26 z m 77,257 v -74 h 37 36 v -39 c 0,-21 0,-39 0,-39 1,-1 -16,-1 -36,-1 l -38,-1 v -5 c 0,-3 0,-9 -1,-14 -6,-47 -32,-75 -75,-84 -5,-1 -14,-3 -18,-3 l -9,-1 1,173 v 173 l 3,12 c 6,31 19,55 38,73 28,26 65,38 120,39 h 16 v -43 c 0,-23 0,-43 -1,-43 0,0 -4,0 -8,-1 -4,0 -12,-1 -18,-2 -10,-1 -13,-2 -19,-4 -11,-6 -22,-20 -26,-36 -2,-6 -2,-13 -2,-80 z"
   class="fil0 str0" />
     <path
   style="fill:none;stroke:#00a859;stroke-width:15.27560043"
   id="path14"
   d="m 482,133 z m 3,197 v 78 h -36 l -36,-1 v 43 42 h 85 86 l -1,-138 c 0,-138 0,-139 -2,-147 -5,-18 -12,-29 -22,-40 -17,-18 -41,-29 -77,-34 -16,-3 -68,-4 -69,-2 0,1 0,19 0,40 v 39 l 15,1 c 34,1 50,11 56,34 1,6 1,19 1,85 z"
   class="fil0 str0" />
     <polygon
   style="fill:#00a859"
   id="polygon16"
   points="170,543 184,543 184,535 184,527 148,527 112,527 112,535 112,543 126,543 140,543 140,596 140,648 148,648 156,648 156,596 156,543 "
   class="fil1" />
     <path
   style="fill:#00a859"
   id="path18"
   d="m 214,552 z m -16,35 v 61 h 8 8 v -28 -28 l 3,-3 c 6,-9 20,-9 26,0 2,3 2,6 2,31 l 1,28 h 8 7 v -26 c 0,-14 0,-28 -1,-31 -1,-10 -7,-19 -15,-23 -4,-2 -13,-3 -18,-1 -2,1 -6,3 -8,6 l -5,4 v -25 -25 h -8 -8 z"
   class="fil1" />
     <path
   style="fill:#00a859"
   id="path20"
   d="m 338,567 z m -13,-3 c -21,-1 -40,14 -43,36 -4,19 7,38 24,47 7,2 8,3 17,3 9,0 11,-1 16,-3 3,-1 7,-4 8,-5 2,-2 3,-3 3,-3 0,0 0,2 0,5 v 4 h 8 8 v -34 c 0,-19 0,-36 0,-39 v -5 h -8 c -7,0 -8,0 -8,3 1,3 0,3 -4,-1 -2,-2 -6,-4 -8,-5 -3,-2 -8,-3 -13,-3 z m -27,43 c 0,-13 8,-24 21,-26 12,-2 24,4 29,15 2,3 2,17 1,22 -5,13 -24,20 -37,13 -9,-5 -14,-13 -14,-24 z"
   class="fil1" />
     <path
   style="fill:#00a859"
   id="path22"
   d="m 389,610 v 38 h 8 8 v -39 -39 h -7 c -4,0 -8,0 -8,1 -1,0 -1,18 -1,39 z"
   class="fil1" />
     <path
   style="fill:#00a859"
   id="path24"
   d="m 395,560 c 4,1 10,-1 13,-6 1,-4 1,-5 0,-8 -1,-2 -3,-5 -5,-6 -5,-3 -9,-3 -14,2 -5,6 -2,15 6,18 z"
   class="fil1" />
     <path
   style="fill:#00a859"
   id="path26"
   d="m 428,527 v 60 61 h 8 8 v -4 -5 l 5,4 c 7,5 14,8 25,7 7,0 10,-1 15,-4 9,-4 16,-12 21,-20 3,-7 3,-8 3,-19 0,-11 0,-12 -3,-19 -5,-9 -12,-16 -21,-20 -5,-3 -8,-4 -15,-4 -11,0 -17,2 -25,8 l -5,3 v -24 -24 h -8 z m 16,80 c 0,-13 8,-23 21,-26 11,-3 25,4 30,15 3,5 3,17 0,22 -5,10 -14,15 -25,15 -15,0 -26,-11 -26,-26 z"
   class="fil1" />
     <path
   style="fill:#00a859"
   id="path28"
   d="m 536,589 c -14,29 9,63 41,61 8,0 15,-3 20,-8 l 4,-3 v 5 4 h 8 8 v -39 -39 h -8 c -8,0 -8,0 -8,3 v 2 l -4,-3 c -2,-2 -5,-4 -8,-5 -5,-3 -18,-4 -25,-2 -11,3 -23,13 -28,24 z m 29,43 c -10,-5 -16,-14 -16,-25 0,-11 5,-19 14,-23 6,-3 17,-4 22,-2 5,2 12,9 14,14 3,5 3,17 0,23 -2,5 -10,11 -15,13 -5,2 -15,2 -19,0 z"
   class="fil1" />
     <path
   style="fill:#00a859"
   id="path30"
   d="m 639,587 v 61 h 8 8 v -28 -28 l 3,-4 c 5,-6 12,-8 20,-4 7,3 7,5 7,37 v 27 h 8 9 l -1,-31 v -31 l -3,-5 c -5,-10 -11,-14 -22,-15 -8,0 -13,2 -18,8 l -3,3 v -25 -25 h -8 -8 z"
   class="fil1" />
    </g>
   </g>
  </g>
  <polygon
   style="fill:none"
   id="polygon37"
   points="740,667 73,667 73,0 740,0 "
   class="fil0" />
 </g>
</svg>