<?xml version="1.0" encoding="UTF-8" standalone="no"?>
<svg
   xmlns:dc="http://purl.org/dc/elements/1.1/"
   xmlns:cc="http://creativecommons.org/ns#"
   xmlns:rdf="http://www.w3.org/1999/02/22-rdf-syntax-ns#"
   xmlns:svg="http://www.w3.org/2000/svg"
   xmlns="http://www.w3.org/2000/svg"
   id="svg47"
   viewBox="0 0 812.26412 667"
   style="clip-rule:evenodd;fill-rule:evenodd;image-rendering:optimizeQuality;shape-rendering:geometricPrecision;text-rendering:geometricPrecision"
   version="1.1"
   height="0.66666102in"
   width="0.81258684in"
   xml:space="preserve"><metadata
   id="metadata51"><rdf:RDF><cc:Work
       rdf:about=""><dc:format>image/svg+xml</dc:format><dc:type
         rdf:resource="http://purl.org/dc/dcmitype/StillImage" /></cc:Work></rdf:RDF></metadata>
 <defs
   id="defs7">
  <style
   id="style2"
   type="text/css">
   <![CDATA[
    .str1 {stroke:#00A859;stroke-width:1.38583;stroke-opacity:0.301961}
    .str0 {stroke:#00A859;stroke-width:10.4134}
    .fil3 {fill:none}
    .fil5 {fill:none}
    .fil0 {fill:#00A859}
    .fil2 {fill:white}
    .fil4 {fill:#FEFEFE;fill-rule:nonzero}
    .fil1 {fill:#00A859;fill-rule:nonzero}
   ]]>
  </style>
   <clipPath
   id="id0">
    <path
   id="path4"
   d="M 0,0 H 813 V 667 H 0 Z" />
   </clipPath>
 </defs>
 <g
   transform="translate(-0.3682849)"
   id="Layer_x0020_1">
  <metadata
   id="CorelCorpID_0Corel-Layer" />
  <g
   id="g10">
  </g>
  <g
   id="g42"
   clip-path="url(#id0)">
   <g
   id="g40">
    <g
   id="_2357509301120">
     <path
   style="fill:#00a859"
   d="M 380,81 731,279 451,657 101,459 c 0,0 -13,-40 0,-72 0,0 14,-5 16,-8 2,-2 190,-200 263,-298 z"
   class="fil0"
   id="path21" />
     <polygon
   style="fill:#00a859;fill-rule:nonzero"
   points="377,10 730,205 449,582 97,385 "
   class="fil1"
   id="polygon25" />
     <path
   style="fill:#ffffff"
   d="M 449,640 718,278 V 222 L 449,581 115,396 v 51 c 0,5 0,10 4,12 l 330,180 v 1 z"
   class="fil2"
   id="path211" />
     <line
   style="fill:none"
   y2="622"
   x2="450"
   y1="604"
   x1="417"
   class="fil3"
   id="line219" />
     <line
   style="fill:none"
   y2="636"
   x2="450"
   y1="618"
   x1="417"
   class="fil3"
   id="line221" />
     <line
   style="fill:none"
   y2="614"
   x2="450"
   y1="602"
   x1="426"
   class="fil3"
   id="line223" />
     <line
   style="fill:none"
   y2="628"
   x2="450"
   y1="616"
   x1="426"
   class="fil3"
   id="line225" />
     <line
   style="fill:none"
   y2="607"
   x2="450"
   y1="580"
   x1="471"
   class="fil3"
   id="line227" />
     <line
   style="fill:none"
   y2="607"
   x2="450"
   y1="589"
   x1="417"
   class="fil3"
   id="line229" />
     <line
   style="fill:none"
   y2="614"
   x2="450"
   y1="598"
   x1="461"
   class="fil3"
   id="line231" />
     <line
   style="fill:none"
   y2="622"
   x2="450"
   y1="594"
   x1="471"
   class="fil3"
   id="line233" />
     <line
   style="fill:none"
   y2="628"
   x2="450"
   y1="602"
   x1="471"
   class="fil3"
   id="line235" />
     <line
   style="fill:none"
   y2="636"
   x2="450"
   y1="613"
   x1="466"
   class="fil3"
   id="line237" />
     <line
   style="fill:none"
   y2="598"
   x2="450"
   y1="572"
   x1="471"
   class="fil3"
   id="line239" />
     <line
   style="fill:none"
   y2="598"
   x2="450"
   y1="580"
   x1="417"
   class="fil3"
   id="line241" />
     <polygon
   style="fill:#fefefe;fill-rule:nonzero"
   points="379,30 707,212 446,561 119,379 "
   class="fil4"
   id="polygon25_0" />
     <g
   id="g29">
      <path
   style="fill:#00a859"
   d="m 412,368 c 0,-2 1,-5 3,-6 7,-11 13,-8 13,-2 2,2 -1,8 -4,11 -3,1 -9,-2 -12,-3 z m 4,-203 c 68,0 122,56 122,125 0,68 -54,125 -122,125 -67,0 -121,-57 -121,-125 0,-69 54,-125 121,-125 z m 27,108 v 0 c 6,-1 11,-9 14,-10 -2,4 1,4 1,4 3,2 5,-4 2,-6 -5,-3 -6,5 -11,6 0,-4 2,-7 2,-11 -2,-4 -8,-3 -8,0 -1,2 3,4 3,5 2,2 0,6 -3,12 z m -22,-33 v 0 c 6,-2 9,-8 12,-8 0,3 1,5 1,5 5,0 5,-5 3,-6 -4,-3 -7,3 -12,4 2,-4 2,-7 2,-9 0,-6 -5,-5 -6,-1 0,3 1,4 3,4 0,3 0,6 -3,11 z m 1,-35 v 0 c 0,0 -1,0 -3,0 -3,-3 8,-8 11,-9 -21,3 -15,21 -8,9 z m 17,13 v 0 c -8,11 -14,-6 9,-9 -5,2 -15,6 -12,9 0,2 3,0 3,0 z m 32,20 v 0 c 0,0 -2,0 -2,0 -5,-1 5,-7 8,-9 -19,6 -11,18 -6,9 z m 19,55 v 0 c 0,0 -1,0 -3,0 -3,-3 6,-8 8,-9 -18,4 -11,18 -5,9 z m -65,2 v 0 c 0,0 -1,0 -3,0 -3,-3 8,-8 11,-8 -20,1 -15,17 -8,8 z m 29,6 v 0 c 0,0 -2,0 -2,0 -4,-3 6,-9 8,-11 -21,6 -12,20 -6,11 z m 17,42 v 0 c 0,0 -4,2 -4,0 -4,-1 8,-7 10,-9 -22,3 -14,20 -6,9 z m 22,32 v 0 c 0,0 -3,0 -3,0 -4,-3 8,-7 9,-9 -21,3 -13,18 -6,9 z m -63,9 v 0 c 0,0 -3,0 -3,0 -5,-3 6,-7 7,-9 -18,3 -12,20 -4,9 z m -38,11 v 0 c 0,0 -1,0 -3,0 -4,-5 6,-9 8,-11 -18,5 -9,20 -5,11 z m -75,-75 v 0 c 0,0 -1,0 -3,0 -3,-1 5,-7 6,-9 -16,5 -7,17 -3,9 z m -4,-47 v 0 c 0,0 -3,0 -3,0 -3,-4 6,-7 9,-9 -18,2 -14,17 -6,9 z m 19,29 v 0 c 5,-1 8,-6 11,-7 0,3 1,4 1,4 5,0 5,-4 3,-6 -4,-3 -7,3 -12,5 2,-3 2,-6 2,-10 0,-4 -5,-3 -5,0 -1,2 2,4 2,5 0,2 0,5 -2,9 z m 160,12 v 0 c 1,2 1,2 1,3 -1,2 -3,2 -3,2 0,-2 0,-3 2,-5 z m 27,14 v 0 l -5,12 c -1,3 -3,8 -6,9 v -6 c -15,14 -25,31 -44,46 -6,6 -10,11 -18,12 6,-6 14,-14 20,-20 12,-13 30,-32 42,-45 5,-6 2,-6 11,-8 z m -77,8 v 0 c 1,0 6,0 7,0 2,1 2,4 2,6 v 3 c 0,0 1,0 3,0 1,0 1,0 3,0 1,3 0,9 0,10 -11,3 -6,-1 -8,-9 h -7 c -2,-1 -2,-6 -2,-7 0,-2 2,-3 2,-3 z m -69,-86 v 0 c -2,3 -2,8 0,11 1,0 4,0 6,0 1,3 0,6 1,11 2,1 5,1 8,1 0,-4 0,-12 0,-13 -2,0 -3,1 -8,0 0,-2 2,-7 0,-10 -1,0 -6,0 -7,0 z m 70,-65 v 0 c 5,1 8,3 12,6 l 22,12 c 3,3 7,6 10,6 -3,-4 -27,-19 -32,-21 -1,-2 -3,-3 -6,-3 -1,-2 -3,-2 -4,0 v 0 z m -54,27 v 0 c 2,0 2,2 2,2 0,1 0,1 -2,3 0,-2 -1,-5 0,-5 z m -54,66 v 0 c 0,1 -1,7 -3,4 0,0 -1,-1 -1,-1 0,-5 4,-5 7,-5 3,0 18,9 21,11 3,1 9,5 11,6 -3,2 -12,-3 -18,-6 -3,-2 -5,-3 -8,-5 -3,-1 -6,-3 -9,-4 z m 32,108 v 0 c 3,-5 3,-8 3,-9 -2,-2 -3,-3 -3,-6 1,-3 6,-5 6,1 0,3 0,6 -2,9 5,-1 8,-7 12,-4 2,3 2,7 -3,6 0,0 -1,-2 -1,-5 -3,2 -6,6 -12,8 z m 1,-69 v 0 c 2,-3 2,-3 5,-4 1,3 1,4 0,7 -2,0 -3,-1 -5,-3 z m -7,-68 v 0 c -3,0 -5,3 -9,3 0,-2 6,-9 1,-11 -4,-1 -6,3 -3,6 0,2 -3,9 -3,9 5,-1 11,-4 14,-6 1,-1 1,0 1,0 0,11 8,-6 -1,-1 z m 126,7 v 0 c 0,2 2,2 2,4 0,6 -5,3 -6,0 z m -87,92 v 0 c 1,1 3,1 3,1 3,2 4,3 6,3 3,0 3,-1 1,-3 -7,-1 -3,-7 -1,-4 4,4 6,-2 -2,-3 -4,0 -3,3 -4,6 -2,0 -2,-2 -5,0 z M 334,247 v 0 c 0,0 -3,0 -3,0 -5,-3 7,-7 9,-7 -20,0 -14,16 -6,7 z m 91,67 v 0 c 2,2 6,3 8,3 6,3 6,3 9,3 -3,-3 -6,-3 -9,-4 -6,-3 -5,-3 -8,-2 z m 82,-97 v 0 c -40,-52 -113,-59 -164,-20 -48,41 -57,116 -18,168 40,50 112,59 164,18 51,-40 58,-116 18,-166 z m -18,38 v 0 c -2,0 -6,1 -8,3 -1,3 0,6 3,6 6,3 11,-4 5,-9 z m -115,56 v 0 c -1,2 -6,2 -7,5 -3,1 0,4 3,6 6,3 9,-5 4,-11 z m 11,-94 v 0 c -5,1 -20,0 -24,-2 -3,0 -8,-1 -11,-1 3,1 8,1 11,3 7,1 9,3 16,3 2,0 2,0 3,0 2,0 2,0 3,0 0,0 0,0 2,0 v 0 c 1,3 0,3 0,5 3,-2 4,-4 4,-7 2,-1 5,-3 6,-4 2,-3 -6,-9 -9,-2 -1,2 -1,3 -1,5 z m 87,111 v 0 c -6,8 -9,9 -17,12 0,0 0,0 0,0 -1,0 8,-9 9,-9 3,-3 5,-6 8,-11 -3,-1 -8,-1 -12,-4 3,0 12,3 14,3 10,-9 25,-26 34,-38 5,-5 8,-9 14,-8 v 0 c -2,6 -8,15 -11,20 v -6 l -30,32 c 2,1 5,1 6,0 0,-2 2,-5 3,-6 3,-2 11,1 5,7 -3,2 -3,0 -8,3 -1,0 0,-1 -3,-1 -1,0 -3,0 -4,0 -2,0 -6,5 -8,6 z m -87,-29 v 0 c 3,2 1,3 0,5 -2,-2 -2,-3 0,-5 z m -66,-62 v 0 c 4,-3 10,-5 16,-6 8,-2 2,0 15,4 14,5 41,6 50,11 0,1 0,4 0,6 0,9 0,29 -6,35 -3,-2 -8,-2 -12,-5 -24,-13 -30,-22 -59,-26 -12,0 -12,-13 -4,-19 z m 79,-51 v 0 c -4,0 -12,0 -15,4 -3,0 -7,3 -6,6 0,3 3,0 6,3 -1,1 -6,1 -7,1 -9,0 -5,-3 -14,-1 -9,1 -18,4 -21,12 -1,3 -3,4 -1,7 3,11 54,20 61,19 -1,-5 -1,-41 -3,-51 v 0 z m -63,35 v 0 c 2,4 2,4 2,5 -2,2 -5,2 -6,3 -9,2 -17,6 -20,14 -3,7 -1,17 8,20 1,0 6,0 6,1 -9,9 -15,17 -15,26 1,12 10,20 18,27 -8,13 -15,29 7,32 5,2 11,2 17,2 l 9,1 c 9,2 15,3 24,10 3,1 16,9 18,10 0,2 0,3 -2,5 v 6 c -1,9 11,18 18,18 12,0 23,-15 33,-24 9,-11 20,-20 29,-31 6,-4 11,-10 15,-16 6,-5 11,-11 17,-16 0,2 -2,3 0,6 1,-3 4,-7 6,-10 l 3,-11 c -2,2 -5,0 -6,3 -23,23 -44,47 -65,69 -3,3 -24,26 -26,26 -4,1 -22,-10 -16,-22 1,-1 3,0 4,0 20,3 32,-23 18,-26 -3,0 -6,0 -9,2 -7,3 -10,9 -15,14 -1,0 -10,-5 -12,-7 -15,-7 -24,-12 -42,-12 -43,0 -27,-26 -22,-26 3,0 40,28 55,10 5,-5 8,-16 11,-17 1,1 0,3 1,4 2,-1 2,-3 2,-4 l 1,-12 c -1,0 -3,0 -6,1 -1,2 -1,2 -3,3 -3,8 -6,17 -10,23 -3,6 -6,2 -9,2 -2,0 -3,-2 -5,-2 -3,-1 -6,-1 -9,-3 -6,-2 -16,-6 -19,-9 3,-3 9,-5 13,-5 12,0 8,-1 9,-7 3,1 11,3 14,3 1,0 3,0 4,1 0,2 0,2 0,3 3,0 3,-1 3,-4 5,-2 8,-3 8,-8 -2,-3 -5,-3 -8,-1 -4,3 -3,4 -3,6 -3,1 -7,0 -10,0 -8,-2 -6,0 -9,-3 -11,-2 -8,0 -9,7 -3,2 -11,3 -15,5 -5,1 -17,-14 -18,-23 -2,-8 0,-14 6,-21 3,-3 4,-5 9,-3 19,3 31,19 48,24 3,1 7,3 10,1 9,-4 14,-15 14,-25 0,-2 0,0 0,-2 3,-6 0,44 1,52 0,1 2,6 2,7 0,2 -14,16 -17,19 -3,1 -6,3 -7,4 1,0 6,-1 7,-1 5,-3 9,-6 14,-9 1,-2 4,-6 6,-8 4,2 13,12 25,6 8,-6 18,-18 23,-24 10,-11 21,-23 32,-34 3,-3 6,-9 10,-12 0,2 0,2 0,3 0,2 0,2 2,5 3,-5 7,-19 9,-23 -5,0 -9,6 -12,9 -3,5 -8,8 -11,14 -18,18 -35,36 -53,54 -3,4 -4,4 -7,4 -5,-2 -8,-4 -11,-10 l 44,-45 c 1,3 0,4 1,6 3,-3 9,-18 9,-21 -4,1 -3,0 -7,4 -17,17 -33,35 -50,50 -3,-4 -1,-16 -1,-21 0,-9 -2,-37 0,-40 6,5 12,13 12,22 1,3 1,6 1,7 2,0 5,-1 6,-4 3,-2 2,-3 2,-5 -2,-15 6,-24 16,-35 l 2,5 c 1,-2 6,-14 6,-15 -18,3 -23,22 -30,28 -6,-7 -11,-10 -17,-13 -1,-2 -1,-3 -1,-5 l -3,-41 c 0,-4 -2,-11 -2,-15 v 0 c 11,1 83,46 89,59 2,3 0,6 -4,6 -8,0 -26,-4 -34,0 2,2 5,0 6,2 3,0 3,0 5,0 1,0 1,0 3,0 h 11 c 1,0 1,0 1,0 0,0 0,0 2,0 3,0 9,0 13,-2 6,-3 8,-6 5,-12 -11,-12 -79,-55 -92,-58 -5,-1 -12,6 -14,8 0,0 -10,0 -13,0 -5,1 -9,1 -14,6 -1,2 -3,5 -4,5 -15,1 -33,7 -32,25 v 0 z"
   class="fil0"
   id="_1" />
     </g>
     <path
   style="fill:#00a859;stroke:#00a859;stroke-width:10.4133997"
   d="M 387,91 644,233 439,507 183,363 Z m 1,5 v 0 L 190,361 438,500 637,235 Z"
   class="fil0 str0"
   id="path209" />
     <path
   style="fill:#00a859"
   d="m 152,427 c -4,8 -7,15 -10,26 -15,57 -59,52 -59,52 0,0 19,17 47,4 0,0 -14,11 -31,12 0,0 52,21 61,-37 4,-24 7,-38 11,-46 l -19,-11 z"
   class="fil0"
   id="path213" />
     <line
   style="fill:none"
   y2="433"
   x2="145"
   y1="415"
   x1="112"
   class="fil3"
   id="line215" />
     <line
   style="fill:none"
   y2="460"
   x2="166"
   y1="442"
   x1="133"
   class="fil3"
   id="line217" />
     <line
   style="fill:none;stroke:#00a859;stroke-width:1.38583004;stroke-opacity:0.30196102"
   id="line35"
   y2="652"
   x2="450"
   y1="578"
   x1="450"
   class="fil5 str1" />
     <line
   style="fill:none;stroke:#00a859;stroke-width:1.38583004;stroke-opacity:0.30196102"
   id="line37"
   y2="290"
   x2="718"
   y1="216"
   x1="718"
   class="fil5 str1" />
    </g>
   </g>
  </g>
  <polygon
   style="fill:none"
   id="polygon44"
   points="813,667 0,667 0,0 813,0 "
   class="fil3" />
 </g>
</svg>