<?xml version="1.0" encoding="UTF-8" standalone="no"?>
<svg
   xmlns:dc="http://purl.org/dc/elements/1.1/"
   xmlns:cc="http://creativecommons.org/ns#"
   xmlns:rdf="http://www.w3.org/1999/02/22-rdf-syntax-ns#"
   xmlns:svg="http://www.w3.org/2000/svg"
   xmlns="http://www.w3.org/2000/svg"
   id="svg39"
   viewBox="0 0 812.26412 667"
   style="clip-rule:evenodd;fill-rule:evenodd;image-rendering:optimizeQuality;shape-rendering:geometricPrecision;text-rendering:geometricPrecision"
   version="1.1"
   height="0.66666102in"
   width="0.81258684in"
   xml:space="preserve"><metadata
   id="metadata43"><rdf:RDF><cc:Work
       rdf:about=""><dc:format>image/svg+xml</dc:format><dc:type
         rdf:resource="http://purl.org/dc/dcmitype/StillImage" /></cc:Work></rdf:RDF></metadata>
 <defs
   id="defs7">
  <style
   id="style2"
   type="text/css">
   <![CDATA[
    .fil0 {fill:none}
    .fil5 {fill:#00A859}
    .fil2 {fill:#E62129}
    .fil3 {fill:#E84C53}
    .fil6 {fill:#F9FBFC}
    .fil4 {fill:#FEFEFE}
    .fil1 {fill:white}
   ]]>
  </style>
   <clipPath
   id="id0">
    <path
   id="path4"
   d="M 0,0 H 813 V 667 H 0 Z" />
   </clipPath>
 </defs>
 <g
   transform="translate(-0.3682849)"
   id="Layer_x0020_1">
  <metadata
   id="CorelCorpID_0Corel-Layer" />
  <g
   id="g10">
  </g>
  <g
   id="g30"
   clip-path="url(#id0)">
   <g
   id="g28">
    <g
   id="_2323006649584">
     <rect
   style="fill:none"
   id="rect12"
   height="710"
   width="866"
   y="-32"
   x="-26"
   class="fil0" />
     <path
   style="fill:#ffffff"
   d="m 238,77 c 3,-2 7,-5 11,-6 l 24,-14 c 4,-2 8,-3 11,-6 l 41,-15 c 14,-4 25,-7 38,-10 9,-1 16,-2 24,-2 6,0 11,-1 18,-1 19,0 35,0 55,2 l 7,1 c 4,2 6,2 9,2 5,1 9,3 15,4 8,3 18,5 27,8 l 26,12 3,2 c 7,2 15,7 20,11 5,2 9,5 11,7 l 18,11 33,29 c 9,7 15,13 21,22 l 1,2 21,26 c 4,8 9,16 14,25 l 2,5 c 5,10 10,23 14,32 1,3 1,4 2,9 4,11 6,23 9,35 6,31 7,72 2,103 -1,4 -1,5 -1,10 -2,12 -5,26 -7,38 l -3,9 c -2,6 -6,12 -8,19 -5,14 -13,26 -20,39 l -4,5 -2,6 c -8,9 -15,18 -22,26 -2,1 -2,1 -3,2 l -9,11 c -5,4 -8,9 -12,13 l -20,17 -6,5 -2,1 -3,3 c -11,10 -27,19 -39,27 -21,10 -49,21 -72,24 -11,3 -21,4 -33,5 -3,0 -7,0 -9,0 l -27,2 c -56,0 -82,-4 -130,-29 -25,-10 -48,-24 -68,-41 -3,-3 -6,-7 -11,-9 l -22,-24 c 0,-1 -1,-1 -1,-2 l -3,-4 c 0,0 -1,-1 -2,-2 -5,-5 -9,-13 -14,-18 l -13,-22 c -5,-10 -13,-20 -16,-31 -7,-15 -13,-28 -17,-44 -7,-32 -7,-52 -7,-87 v 0 c 0,-12 1,-23 1,-36 1,-5 1,-11 3,-16 1,-5 1,-11 3,-14 2,-5 3,-11 4,-15 l 2,-8 c 6,-15 12,-31 20,-45 l 7,-13 c 5,-8 12,-18 18,-28 l 9,-9 1,-2 6,-9 c 1,-1 1,-1 3,-2 2,-3 7,-7 9,-11 h 2 l 5,-5 C 213,96 225,87 238,77 Z M 86,270 83,287 c 0,10 -1,19 -1,28 v 39 0 c 0,13 1,27 2,38 3,15 8,27 11,41 4,12 9,23 14,35 9,20 21,39 35,57 6,10 14,20 22,29 l 10,10 c 5,5 10,10 16,16 l 2,1 c 8,7 16,15 25,20 l 6,3 32,20 c 10,5 20,11 30,15 l 12,5 c 4,1 10,2 15,5 21,5 36,10 58,12 4,0 6,0 9,1 10,2 18,0 28,2 l 20,-2 c 2,0 6,0 10,0 6,0 11,-1 18,-2 l 18,-4 c 5,-1 10,-2 16,-3 21,-5 40,-13 59,-20 10,-5 17,-10 27,-15 19,-11 36,-22 52,-37 l 28,-29 c 10,-11 20,-23 30,-35 4,-8 7,-14 11,-19 5,-10 10,-18 14,-27 1,-3 2,-4 2,-8 7,-14 13,-28 18,-44 1,-7 4,-15 6,-23 6,-37 6,-71 2,-108 0,-5 -1,-12 -2,-17 -2,-6 -2,-12 -3,-17 -11,-39 -22,-63 -42,-97 -5,-10 -20,-29 -28,-38 -8,-10 -17,-20 -26,-28 L 636,88 620,73 613,70 603,60 C 594,55 587,50 578,44 566,37 556,32 544,26 l -7,-2 C 526,19 512,15 499,10 497,10 494,9 492,9 486,8 481,7 475,5 L 457,3 C 446,2 433,0 419,0 c -16,0 -37,0 -53,3 -20,2 -31,5 -49,10 -19,6 -36,12 -52,21 -11,5 -21,10 -31,17 -20,14 -35,25 -52,41 l -6,7 c -8,6 -14,15 -21,21 -9,13 -17,23 -25,35 -10,16 -19,36 -28,53 -4,12 -9,25 -14,36 v 5 l -1,3 c 0,3 -1,5 -1,8 -2,5 -2,7 -2,10 z"
   class="fil1"
   id="path12" />
     <path
   style="fill:#e62129"
   d="m 420,391 c 7,35 10,75 6,110 -4,21 -12,31 -31,43 -10,5 -17,8 -32,8 -14,0 -45,-28 -46,-34 0,-3 1,-17 1,-24 v -20 c 0,-1 3,-1 3,-5 0,-7 0,-17 0,-24 l 1,-39 c 0,-15 3,-41 -14,-28 -13,11 -28,47 -32,62 0,5 -2,6 -2,7 -8,34 -13,73 -21,102 -4,7 -9,19 -18,19 -23,0 -37,-36 -40,-55 l -3,-8 c -1,-8 -3,-21 -3,-31 0,-55 6,-48 23,-54 6,0 14,-4 14,-9 0,-8 -7,-15 -10,-19 -4,-6 -10,-10 -14,-14 -7,-6 -13,-7 -17,4 -3,7 -7,23 -3,31 0,3 0,5 3,5 0,7 -3,8 -7,12 -7,5 -11,10 -19,16 -2,1 -4,1 -5,3 l -19,11 c -8,6 -28,14 -31,21 4,0 7,-1 10,-4 13,-3 24,-10 34,-15 l 6,-3 c 34,-19 21,-10 21,4 v 14 c 0,13 6,38 9,53 l 1,8 c 3,6 4,11 6,16 7,18 27,46 48,46 1,0 8,-1 13,-4 2,0 5,-3 7,-7 7,-14 10,-31 14,-47 3,-18 7,-41 10,-58 3,-7 4,-11 5,-18 2,-10 12,-38 19,-43 0,3 -3,5 -3,9 -3,21 -4,44 -4,65 0,24 0,41 10,59 1,5 5,9 7,12 7,7 12,13 21,18 27,14 61,-4 78,-27 11,-17 14,-29 18,-49 2,-2 2,-5 2,-7 h 1 c 0,1 3,2 3,7 10,21 18,42 40,56 12,7 22,9 36,9 16,0 29,-9 37,-21 13,-22 13,-58 7,-85 -4,-10 -5,-22 -8,-32 -4,-11 -7,-19 -11,-31 l -2,-3 c -1,-11 -7,-19 -7,-28 3,0 9,4 10,9 3,1 4,1 6,1 1,-6 -3,-14 -6,-20 -3,-7 -18,-39 -28,-45 -10,7 -12,15 -12,28 v 0 c 0,16 5,38 9,55 3,9 5,16 7,25 7,24 23,68 27,86 3,10 0,16 -12,18 -14,6 -45,-1 -55,-11 -10,-17 -17,-37 -21,-55 -3,-17 -1,-36 -3,-54 0,-3 -3,-13 -4,-16 l -2,-17 c -1,-4 -4,-10 -4,-15 -1,-7 -10,-36 -15,-41 -2,4 -2,5 -3,10 -13,28 -13,29 -6,58 z m -211,10 c 7,0 9,8 3,11 -3,0 -7,-6 -7,-9 0,-2 1,-2 4,-2 z m -25,-2 z m 5,-3 c 14,0 10,10 3,10 -3,0 -8,-3 -8,-7 0,-3 4,-3 5,-3 z"
   class="fil2"
   id="path14" />
     <path
   style="fill:#e84c53"
   d="m 787,391 c 7,-41 7,-80 3,-121 0,-7 -3,-14 -3,-21 -1,-7 -1,-13 -3,-20 C 771,185 759,156 736,117 729,106 713,83 703,75 694,63 685,51 672,42 L 671,39 651,22 645,18 631,7 c -8,-7 -17,-13 -28,-20 -13,-7 -26,-14 -37,-18 l -10,-5 c -11,-5 -28,-10 -42,-14 -3,0 -5,-1 -9,-1 -7,-2 -13,-5 -20,-6 l -21,-1 c -13,-3 -27,-5 -42,-5 -17,0 -43,0 -63,5 -21,2 -35,5 -56,10 -20,7 -42,14 -59,25 -12,6 -25,13 -35,20 -24,14 -40,28 -61,45 l -7,9 c -8,8 -16,17 -23,25 -11,13 -19,27 -28,40 -11,18 -24,40 -31,62 -4,12 -11,26 -16,40 v 6 l -1,4 c 0,3 -2,7 -2,10 -2,4 -2,5 -2,8 l -2,21 c -1,12 -1,23 -1,33 v 44 0 c 0,14 0,28 1,45 4,16 9,30 13,44 6,14 10,29 16,43 11,22 25,45 39,66 9,10 17,22 26,31 l 11,13 c 6,6 13,13 18,16 l 3,4 c 9,7 20,16 30,23 l 6,4 37,23 c 11,5 24,10 36,15 l 12,6 c 5,1 11,3 18,6 23,7 41,9 65,14 5,0 7,0 12,1 10,2 21,0 31,2 l 24,-2 c 3,0 8,0 10,0 8,0 14,-1 21,-1 l 20,-5 c 7,-1 13,-2 20,-5 22,-4 45,-14 66,-23 12,-6 23,-10 33,-15 21,-13 42,-27 61,-46 l 31,-31 c 13,-13 24,-28 34,-41 4,-7 8,-14 13,-23 5,-10 12,-20 15,-31 2,-1 5,-3 5,-7 7,-17 14,-33 18,-51 3,-8 6,-17 7,-28 z"
   class="fil3"
   id="path16" />
     <path
   style="fill:#fefefe"
   d="m 740,396 c 6,-37 6,-72 4,-108 -1,-6 -3,-12 -3,-18 -1,-5 -2,-11 -3,-16 -11,-39 -21,-63 -41,-97 -6,-10 -20,-31 -27,-38 C 660,109 651,99 641,91 L 639,88 623,73 617,70 605,60 C 598,55 589,50 581,44 571,37 560,31 547,26 l -6,-2 C 529,19 515,15 504,10 499,10 498,9 496,9 489,8 485,7 478,5 L 461,3 C 449,2 436,0 424,0 c -16,0 -38,0 -56,3 -18,2 -28,5 -48,10 -18,6 -36,12 -52,21 -10,5 -21,10 -30,17 -20,14 -35,25 -52,41 l -7,7 c -7,6 -13,13 -19,21 -9,11 -18,23 -25,35 -10,16 -20,36 -26,53 -6,12 -11,25 -14,36 l -1,5 -1,3 c 0,3 -1,5 -1,8 -3,3 -3,7 -3,10 l -2,17 c 0,10 0,19 0,28 v 39 0 c 0,12 0,25 1,37 4,15 7,27 11,40 4,12 10,24 15,36 8,21 20,40 33,57 7,11 15,20 23,28 l 9,12 c 5,5 11,10 16,14 l 3,3 c 7,6 16,13 26,20 l 5,3 32,19 c 10,6 20,11 31,15 l 11,3 c 5,3 10,5 15,7 21,5 37,8 58,12 2,0 5,0 9,1 9,1 18,0 28,1 h 20 c 2,-1 7,-1 9,-1 7,0 13,-1 18,-1 l 17,-5 c 5,-1 11,-1 17,-2 20,-5 41,-14 60,-22 8,-3 18,-9 26,-14 18,-11 37,-23 53,-37 l 28,-29 c 11,-11 19,-23 28,-36 5,-7 8,-12 13,-18 5,-9 10,-17 12,-27 1,-3 3,-4 5,-7 5,-14 11,-29 15,-44 4,-7 5,-16 6,-23 z"
   class="fil4"
   id="path18" />
     <path
   style="fill:#00a859"
   d="m 801,394 c 10,-40 10,-81 4,-122 0,-7 -1,-14 -1,-22 -3,-5 -4,-12 -4,-19 C 787,187 776,160 752,120 745,109 729,88 720,76 709,66 701,54 688,44 L 686,41 667,25 661,20 647,8 C 638,1 630,-3 618,-9 607,-16 594,-23 582,-29 l -9,-2 c -13,-8 -28,-13 -42,-17 -5,0 -7,0 -12,-2 -5,-1 -12,-3 -20,-3 l -18,-4 c -13,-1 -30,-4 -44,-4 -18,0 -42,0 -61,4 -22,4 -37,7 -58,13 -18,5 -40,14 -58,22 -13,6 -25,13 -35,20 -23,14 -41,29 -61,46 l -7,10 c -9,8 -16,15 -23,24 -11,12 -20,27 -28,41 -12,18 -23,41 -30,61 -6,14 -13,27 -17,41 l -2,4 v 6 c -1,1 -1,5 -1,8 -1,4 -1,7 -1,11 l -3,20 c -2,10 -2,22 -2,31 v 46 0 c 0,14 0,30 2,44 4,18 10,29 13,46 5,15 11,26 15,40 11,24 26,47 40,67 8,12 18,22 27,31 l 10,13 c 5,5 12,12 18,18 l 3,1 c 10,9 20,16 28,23 l 7,6 39,21 c 9,6 22,13 35,16 l 13,5 c 4,2 10,5 17,6 22,7 41,10 66,16 3,0 7,0 10,0 12,1 21,1 33,1 h 22 c 3,0 9,-1 10,-1 7,0 15,-2 23,-2 l 18,-4 c 8,-2 13,-2 20,-3 23,-7 47,-14 68,-25 10,-5 22,-10 31,-16 22,-13 42,-27 61,-43 l 33,-32 c 11,-11 23,-28 31,-43 6,-7 11,-14 14,-21 6,-8 13,-20 16,-30 3,-4 3,-5 4,-8 7,-17 14,-34 20,-50 1,-11 3,-18 4,-29 z"
   class="fil5"
   id="path20" />
     <path
   style="fill:#fefefe"
   d="m 225,323 c 7,4 22,-5 29,-9 l 12,-7 c 1,-1 3,-1 3,-3 -5,0 -9,2 -12,3 -4,2 -8,2 -11,4 l -6,3 c -5,2 -13,6 -15,9 z"
   class="fil4"
   id="path24" />
     <path
   style="fill:#fefefe"
   d="m 219,279 c 0,3 0,3 4,3 7,4 38,4 48,4 -2,-2 -5,-2 -10,-4 -8,-2 -29,-7 -36,-5 -5,2 -5,2 -6,2 z"
   class="fil4"
   id="path26" />
     <path
   style="fill:#fefefe"
   d="m 219,301 c 4,3 27,6 27,-2 0,-5 -16,-2 -20,-2 -3,0 -6,2 -7,4 z"
   class="fil4"
   id="path28" />
     <path
   style="fill:#f9fbfc"
   d="m 123,292 c 0,4 10,1 14,-5 1,-3 1,-3 1,-7 0,-7 -15,2 -15,12 z"
   class="fil6"
   id="path30" />
     <path
   style="fill:#fefefe"
   d="m 184,399 c 0,4 5,7 8,7 7,0 11,-10 -3,-10 -1,0 -5,0 -5,3 z"
   class="fil4"
   id="path32" />
     <path
   style="fill:#ffffff"
   d="m 249,83 c 0,7 15,13 15,2 0,-5 -15,-5 -15,-2 z"
   class="fil1"
   id="path34" />
     <path
   style="fill:#fefefe"
   d="m 205,403 c 0,3 4,9 7,9 6,-3 4,-11 -3,-11 -3,0 -4,0 -4,2 z"
   class="fil4"
   id="path36" />
     <path
   style="fill:#fefefe"
   d="m 409,603 c 7,0 13,6 17,12 3,5 7,9 7,17 3,0 4,-3 4,-8 4,-8 10,-24 20,-24 4,0 6,3 6,7 0,10 -15,3 -19,17 -1,6 0,20 -1,27 -6,15 -10,-2 -13,-8 -1,-3 -1,-6 -3,-9 -1,0 -4,-5 -5,-5 -3,-6 -13,-7 -16,-19 0,-1 0,-7 3,-7 z m 93,-249 c 0,-13 2,-20 12,-27 10,3 25,38 28,45 3,5 7,13 6,19 -3,0 -3,0 -6,-2 -3,-3 -7,-7 -10,-10 0,12 3,20 7,30 0,2 2,3 2,3 4,11 7,21 11,33 3,8 4,18 7,31 7,25 7,62 -6,83 -8,13 -21,22 -37,22 -14,0 -24,-2 -36,-9 -22,-14 -30,-34 -40,-57 0,-2 -3,-4 -3,-7 h -1 c 0,3 0,5 -2,9 -4,20 -7,32 -20,48 -15,24 -51,42 -76,28 -9,-5 -14,-11 -21,-20 -2,-2 -6,-7 -7,-9 -10,-20 -10,-39 -10,-60 0,-23 1,-44 4,-65 0,-4 3,-6 3,-9 -10,3 -17,32 -19,43 -1,4 -2,11 -5,17 -3,18 -7,41 -10,59 -4,16 -7,32 -14,46 -2,4 -5,7 -7,8 -5,0 -12,3 -13,3 -21,0 -41,-27 -48,-45 -2,-5 -3,-10 -6,-17 -1,-5 -1,-6 -1,-9 -3,-13 -9,-38 -9,-51 v -14 c 0,-14 13,-23 -21,-4 -2,0 -4,0 -6,1 -10,7 -23,13 -34,17 -3,3 -6,3 -10,3 3,-7 23,-17 31,-21 l 17,-10 c 3,-2 3,-3 7,-4 8,-6 12,-10 19,-17 4,-3 6,-5 6,-10 -2,0 -2,-2 -2,-5 -4,-9 0,-24 3,-34 4,-8 10,-7 17,-1 3,1 10,9 14,13 3,3 9,13 9,18 0,7 -7,10 -13,12 -17,5 -23,-3 -23,53 0,10 2,22 3,30 0,4 0,6 3,9 3,18 17,53 38,53 11,0 16,-9 20,-19 8,-29 13,-67 21,-100 0,-1 0,-5 2,-7 4,-17 18,-53 32,-62 17,-14 14,11 14,27 l -1,37 c 0,10 0,18 0,25 0,3 -3,3 -3,7 v 20 c 0,4 -1,20 -1,24 1,5 29,33 46,33 15,0 22,-4 32,-9 19,-10 27,-21 31,-44 4,-35 1,-73 -6,-107 -7,-30 -7,-30 6,-58 1,-5 1,-6 3,-10 4,5 14,34 15,41 0,4 3,8 4,14 0,6 2,11 2,16 1,5 1,12 4,18 2,18 0,35 3,54 4,18 8,37 21,52 10,12 41,20 55,14 12,-4 13,-9 12,-18 -4,-18 -20,-62 -27,-88 -2,-8 -6,-15 -7,-24 -4,-17 -9,-38 -9,-55 v 0 z m -248,-6 c 0,-7 15,-5 15,-1 0,11 -15,11 -15,1 z m -56,-5 c 8,0 7,12 4,14 -7,0 -7,-14 -4,-14 z m 522,-17 c 0,0 -7,-3 -7,2 0,9 29,5 29,9 0,4 -14,11 -19,13 l -20,8 c -21,11 -11,0 -8,-3 7,-14 -7,-15 8,-35 5,-6 10,-13 17,-13 8,0 9,19 0,19 v 0 z M 101,272 Z m 336,-22 c 3,0 4,2 6,3 8,12 7,44 -2,44 -4,0 -5,0 -11,-4 -1,-1 -3,-4 -8,-4 0,4 0,5 -2,10 -6,2 -15,2 -20,-2 -5,-10 -3,-27 -3,-38 v 0 c 2,6 9,38 16,27 3,-4 3,-13 3,-16 3,-10 0,-18 6,-21 4,0 4,3 4,7 3,9 3,26 14,26 4,0 0,-10 -4,-16 0,-3 0,-6 -2,-8 0,-2 0,-8 3,-8 z m -159,15 c 0,2 5,7 -2,7 -3,0 -10,-13 -10,-19 7,-1 5,-1 15,-1 7,0 -3,7 -3,13 z m -177,7 c 3,-5 5,-6 6,-7 1,-5 4,-6 4,-9 5,-10 3,-11 3,-20 2,-1 2,-1 7,-1 2,0 6,1 6,3 6,7 -13,25 -20,28 -1,1 -1,4 -6,6 z m 115,-13 c 0,-1 0,-1 2,-1 l 9,-6 c 6,-3 10,-6 15,-7 5,-3 24,-10 31,-10 -2,3 -14,8 -20,10 -1,1 -4,4 -7,4 -9,4 -20,10 -30,10 z m 316,-6 c 7,3 1,3 9,3 12,2 -2,24 -13,10 -7,-13 4,-37 10,-50 1,-1 1,-2 3,-5 0,-2 1,-3 4,-3 0,8 -4,16 -6,23 -4,7 -7,15 -7,22 v 0 z M 212,238 c 1,0 1,0 1,-2 6,-4 22,-11 27,-14 l 7,-4 c 6,-3 20,-9 27,-9 -3,5 -8,7 -14,9 l -30,14 c -4,0 -12,6 -18,6 z m 7,-27 c -6,0 -1,-9 0,-10 0,-2 1,-4 4,-6 0,-1 2,-5 3,-5 4,0 11,7 11,11 0,6 -14,10 -18,10 z m -82,-9 c 0,9 10,34 17,36 3,-3 3,-6 3,-10 0,-3 0,-3 0,-6 0,-6 -2,-23 0,-30 10,2 11,17 11,26 0,11 -4,24 8,41 0,4 2,4 5,6 l 7,12 c 0,3 0,3 0,9 -4,0 -4,-4 -7,-6 -3,-3 -5,-5 -6,-7 -1,4 -4,13 -4,16 0,5 3,12 0,17 -2,7 -2,8 -7,10 -3,2 -10,4 -14,4 -13,0 -9,-13 -22,-13 -15,-1 -21,21 -10,34 17,20 56,-4 71,-20 7,-7 10,-10 10,-17 0,-4 0,-3 -1,-4 -2,1 -2,0 -3,6 -6,7 -7,10 -14,17 -3,0 -5,3 -6,4 -4,3 -16,8 -20,8 0,-2 13,-14 16,-17 l 13,-11 c 1,-1 1,-1 4,-3 7,-7 3,2 3,-24 0,-13 0,-59 0,-69 1,-3 0,-7 1,-10 0,-7 0,-9 4,-11 0,4 0,4 2,5 1,7 4,23 5,33 0,4 0,18 2,25 0,3 0,29 0,36 1,4 0,3 1,5 6,-2 7,-21 21,-21 12,0 15,0 26,2 4,0 6,0 8,2 l 25,5 c 4,2 9,4 14,5 -3,5 -5,7 -5,13 0,16 5,11 -12,18 -10,5 -19,10 -30,16 -6,3 -27,16 -30,17 -3,-1 -7,-10 -11,-14 -2,-2 -6,-7 -6,-10 -1,-4 0,-7 -10,0 l -11,8 c -14,13 -43,40 -62,23 -17,-11 -17,-47 -12,-62 2,-4 3,-7 7,-10 3,-4 7,-9 9,-13 3,-8 1,-15 3,-15 10,0 11,12 11,19 0,7 -1,19 4,27 5,7 16,5 19,0 11,-17 -10,-55 -22,-66 -1,-2 -2,-3 -2,-6 -6,-3 -19,-17 -24,-17 0,-8 0,-8 4,-18 1,2 10,7 17,-12 4,-8 0,-17 8,-22 5,2 9,11 5,22 -3,7 -13,10 -13,17 v 0 z m 39,-12 c -5,0 -1,0 -2,-2 0,-1 -3,0 2,-3 l 16,-11 c 7,-1 20,-9 27,-9 -6,9 -38,25 -43,25 z m 149,42 c 0,-7 3,-7 10,-11 7,-5 24,-13 33,-17 3,-2 4,-2 8,-3 14,-6 36,-14 50,-20 15,-6 35,-14 51,-20 l 69,-21 c 3,-1 10,-3 14,-1 3,0 2,0 3,1 l -134,52 c -3,0 -6,2 -7,2 -13,5 -27,10 -37,15 -12,5 -20,7 -31,13 -8,2 -23,13 -29,10 v 0 z M 624,68 c 4,7 16,45 19,52 1,6 2,11 4,14 3,6 3,12 4,14 1,10 7,25 7,32 -1,0 -1,0 -4,-2 -3,-3 -10,-11 -11,-13 -3,-2 -6,-9 -10,-11 0,11 7,70 10,84 0,14 2,42 2,55 2,7 5,33 5,42 l 7,84 c 0,7 0,9 0,16 l 3,56 c 0,24 -3,34 -8,56 0,11 -7,42 -12,48 -3,-7 -7,-58 -7,-65 0,-6 0,-6 0,-10 v -26 c -2,-18 -3,-34 -3,-52 l -2,-17 c 0,-6 0,-12 0,-16 l -2,-37 c 0,-1 -2,-3 -2,-7 0,-3 0,-4 0,-8 0,-13 -1,-22 -1,-34 l -5,-34 c 0,-5 0,-12 0,-17 l -2,-50 c 0,-4 -2,-6 -2,-8 l -3,-26 c 0,-6 0,-13 -1,-15 0,-6 0,-13 -1,-19 l -5,-41 c 0,-4 3,-17 6,-23 1,-5 4,-8 6,-12 1,-3 2,-9 8,-10 z m -365,41 c -19,0 -15,-20 -12,-31 l 7,-15 c 5,5 20,19 20,27 0,12 -7,19 -15,19 z m 22,58 c 2,-6 23,-16 30,-20 l 18,-7 c 42,-17 83,-34 127,-48 15,-4 29,-10 46,-16 3,0 7,-1 10,-3 6,-2 13,-4 20,-5 6,-2 37,-10 41,-7 -3,2 -13,7 -17,8 -11,6 -24,9 -35,13 -14,7 -41,14 -57,20 -13,4 -24,8 -37,11 -5,4 -13,6 -18,7 -3,3 -4,3 -9,4 -17,6 -55,20 -72,27 l -31,14 c -4,2 -10,3 -16,2 v 0 z M 363,21 c 0,-1 0,-1 0,-3 2,0 2,-3 3,-3 7,0 31,29 34,39 0,1 0,4 2,8 3,4 5,14 -2,14 -5,0 -3,-8 -7,-15 C 386,46 363,28 363,21 Z M 8,321 c 0,47 0,73 10,118 5,20 13,38 22,58 5,13 12,27 22,40 l 17,29 c 5,9 12,16 18,26 2,1 2,1 3,3 1,1 1,1 4,4 0,1 0,1 2,3 l 29,30 c 6,5 10,9 13,12 28,24 58,41 92,57 64,31 97,38 172,38 l 36,-3 c 3,-1 8,-1 13,-1 16,-1 29,-3 44,-6 30,-3 68,-18 95,-32 17,-10 38,-22 52,-36 2,0 2,-3 5,-3 1,-1 3,-1 3,-2 4,-2 5,-5 7,-6 l 27,-26 c 5,-4 9,-9 15,-15 l 13,-13 c 1,-1 1,-1 4,-3 9,-12 19,-22 26,-35 2,-4 4,-6 5,-7 2,-4 5,-6 6,-9 10,-14 20,-32 27,-51 3,-8 7,-17 10,-28 0,-3 1,-4 1,-9 6,-17 10,-35 13,-52 0,-4 0,-8 0,-11 7,-41 4,-98 -1,-138 -5,-17 -9,-32 -13,-49 -2,-3 -2,-5 -3,-9 -6,-14 -11,-32 -18,-42 -2,-5 -3,-6 -6,-9 -3,-11 -10,-21 -16,-32 L 730,78 c -1,-2 -1,-3 -1,-3 C 720,63 711,55 701,46 L 657,7 633,-9 c -3,-4 -9,-5 -15,-8 -7,-6 -18,-13 -28,-14 -1,-3 -1,-3 -3,-5 l -34,-14 c -12,-6 -25,-8 -37,-13 -7,-1 -12,-2 -19,-2 -5,0 -7,-3 -12,-3 -3,-2 -7,-2 -10,-2 -27,-3 -48,-3 -73,-3 -9,0 -16,0 -23,0 -11,2 -23,3 -34,5 -16,3 -34,7 -50,11 l -53,21 c -7,2 -10,5 -16,7 l -31,19 c -6,3 -11,7 -17,10 -16,11 -31,25 -45,39 l -8,5 c 0,0 -2,0 -2,2 -3,3 -9,9 -12,15 -3,1 -3,1 -4,2 l -8,10 c -2,2 -2,2 -2,3 L 84,90 c -8,13 -15,26 -22,37 l -10,17 c -10,19 -19,38 -27,60 l -3,10 c -1,7 -4,11 -6,18 -1,7 -1,14 -2,21 -3,7 -3,13 -5,22 0,15 -1,31 -1,46 v 0 z"
   class="fil4"
   id="path22" />
    </g>
   </g>
  </g>
  <polygon
   style="fill:none"
   id="polygon32"
   points="813,667 0,667 0,0 813,0 "
   class="fil0" />
 </g>
 <g
   transform="translate(-0.3682849)"
   id="Layer_x0020_1_0">
  <metadata
   id="CorelCorpID_1Corel-Layer" />
  <g
   id="g36">
  </g>
 </g>
</svg>