<?xml version="1.0" encoding="UTF-8" standalone="no"?>
<svg
   xmlns:dc="http://purl.org/dc/elements/1.1/"
   xmlns:cc="http://creativecommons.org/ns#"
   xmlns:rdf="http://www.w3.org/1999/02/22-rdf-syntax-ns#"
   xmlns:svg="http://www.w3.org/2000/svg"
   xmlns="http://www.w3.org/2000/svg"
   id="svg19"
   viewBox="0 0 617.44059 405.00001"
   style="clip-rule:evenodd;fill-rule:evenodd;image-rendering:optimizeQuality;shape-rendering:geometricPrecision;text-rendering:geometricPrecision"
   version="1.1"
   height="0.40479419in"
   width="0.61768591in"
   xml:space="preserve"><metadata
   id="metadata23"><rdf:RDF><cc:Work
       rdf:about=""><dc:format>image/svg+xml</dc:format><dc:type
         rdf:resource="http://purl.org/dc/dcmitype/StillImage" /></cc:Work></rdf:RDF></metadata>
 <defs
   id="defs4">
  <style
   id="style2"
   type="text/css">
   <![CDATA[
    .fil0 {fill:#00A859}
   ]]>
  </style>
 </defs>
 <g
   transform="translate(-101.36828,-142)"
   id="Layer_x0020_1">
  <metadata
   id="CorelCorpID_0Corel-Layer" />
  <g
   id="_2357516369056">
   <g
   id="g15">
    <path
   style="fill:#00a859"
   id="path7"
   d="M 666,142 H 154 c -29,0 -53,24 -53,53 v 298 c 0,30 24,54 53,54 h 512 c 29,0 53,-24 53,-54 V 195 c 0,-29 -24,-53 -53,-53 z m -512,15 h 512 c 21,0 38,17 38,38 v 34 H 117 v -34 c 0,-21 16,-38 37,-38 z M 666,531 H 154 c -21,0 -37,-17 -37,-38 V 267 h 587 v 226 c 0,21 -17,38 -38,38 z"
   class="fil0" />
    <path
   style="fill:#00a859"
   id="path9"
   d="m 289,354 h -92 c -17,0 -31,14 -31,31 v 36 c 0,17 14,31 31,31 h 92 c 17,0 30,-14 30,-31 v -36 c 0,-17 -13,-31 -30,-31 z m 15,67 c 0,8 -7,15 -15,15 h -92 c -8,0 -15,-7 -15,-15 v -36 c 0,-8 7,-15 15,-15 h 92 c 8,0 15,7 15,15 z"
   class="fil0" />
    <path
   style="fill:#00a859"
   id="path11"
   d="M 648,354 H 392 c -4,0 -8,4 -8,8 0,4 4,8 8,8 h 256 c 4,0 8,-4 8,-8 0,-4 -4,-8 -8,-8 z"
   class="fil0" />
    <path
   style="fill:#00a859"
   id="path13"
   d="M 515,415 H 392 c -4,0 -8,4 -8,8 0,5 4,8 8,8 h 123 c 4,0 8,-3 8,-8 0,-4 -4,-8 -8,-8 z"
   class="fil0" />
   </g>
  </g>
 </g>
</svg>