<?xml version="1.0" encoding="UTF-8" standalone="no"?>
<svg
   xmlns:dc="http://purl.org/dc/elements/1.1/"
   xmlns:cc="http://creativecommons.org/ns#"
   xmlns:rdf="http://www.w3.org/1999/02/22-rdf-syntax-ns#"
   xmlns:svg="http://www.w3.org/2000/svg"
   xmlns="http://www.w3.org/2000/svg"
   id="svg29"
   viewBox="0 0 494.38264 454.34599"
   style="clip-rule:evenodd;fill-rule:evenodd;image-rendering:optimizeQuality;shape-rendering:geometricPrecision;text-rendering:geometricPrecision"
   version="1.1"
   height="0.45401618in"
   width="0.49404544in"
   xml:space="preserve"><metadata
   id="metadata33"><rdf:RDF><cc:Work
       rdf:about=""><dc:format>image/svg+xml</dc:format><dc:type
         rdf:resource="http://purl.org/dc/dcmitype/StillImage" /></cc:Work></rdf:RDF></metadata>
 <defs
   id="defs4">
  <style
   id="style2"
   type="text/css">
   <![CDATA[
    .str0 {stroke:#EF494F;stroke-width:13.8858}
    .fil0 {fill:none}
    .fil1 {fill:none;fill-rule:nonzero}
    .fil3 {fill:#FEFEFE}
    .fil2 {fill:#EF494F}
   ]]>
  </style>
 </defs>
 <g
   transform="translate(4.3513694,-2.596928)"
   id="Layer_x0020_1">
  <metadata
   id="CorelCorpID_0Corel-Layer" />
  <g
   id="_2388737102624">
   <polygon
   style="fill:none;stroke:#ef494f;stroke-width:13.88580036"
   id="polygon7"
   points="442,185 442,450 378,450 378,233 428,170 "
   class="fil0 str0" />
   <polygon
   style="fill:none;stroke:#ef494f;stroke-width:13.88580036"
   id="polygon9"
   points="360,449 297,449 294,328 360,252 "
   class="fil0 str0" />
   <path
   style="fill:none;stroke:#ef494f;stroke-width:13.88580036"
   id="path11"
   d="m 276,346 v 103 h -66 v -83 c 0,0 14,14 34,9 21,-6 31,-32 32,-29 z"
   class="fil0 str0" />
   <polygon
   style="fill:none;stroke:#ef494f;stroke-width:13.88580036"
   id="polygon13"
   points="128,450 125,273 191,350 191,450 "
   class="fil0 str0" />
   <polygon
   style="fill:none;stroke:#ef494f;stroke-width:13.88580036"
   id="polygon15"
   points="39,449 41,354 106,286 106,449 "
   class="fil0 str0" />
   <path
   style="fill:none;stroke:#ef494f;stroke-width:13.88580036"
   id="path17"
   d="m 3,302 c 35,-41 79,-77 114,-118 6,-5 11,-5 17,-1 l 93,116 c 6,3 11,4 17,-1 l 156,-194 26,31 -181,209 c -5,5 -11,6 -18,1 L 132,242 c -5,-7 -12,-8 -19,0 L 31,328 C 20,329 7,327 3,302 Z"
   class="fil0 str0" />
   <polygon
   style="fill:none;stroke:#ef494f;stroke-width:13.88580036"
   id="polygon19"
   points="447,162 413,119 378,76 429,71 480,64 464,113 "
   class="fil0 str0" />
   <g
   id="g23">
    <path
   style="fill:none;fill-rule:nonzero;stroke:#ef494f;stroke-width:13.88580036"
   d="m 140,75 v 0 c -17,48 12,100 57,117 16,7 34,5 51,4 38,-7 68,-39 76,-77 C 332,78 306,34 267,17 251,9 234,9 216,10 181,17 150,42 140,75 Z"
   class="fil1 str0"
   id="path48_1" />
    <path
   style="fill:#ef494f"
   d="m 201,146 z m 39,-90 v -9 h -16 v 9 c -12,3 -27,10 -30,24 -4,14 6,28 18,32 11,3 20,4 29,8 -3,8 -12,8 -18,7 -9,-3 -16,-7 -22,-11 -4,7 -8,16 -11,23 l 11,7 c 6,2 14,3 23,5 v 10 c 4,0 10,0 16,0 v -10 c 10,-3 22,-7 27,-14 6,-13 6,-29 -3,-36 -11,-9 -24,-7 -35,-11 -5,-1 -3,-5 -5,-8 13,-4 24,-1 33,6 4,-8 7,-16 10,-23 -8,-6 -19,-7 -27,-9 z"
   class="fil2"
   id="path52_3" />
   </g>
   <polygon
   style="fill:#fefefe"
   id="polygon25"
   points="414,139 440,111 422,95 417,97 400,115 "
   class="fil3" />
  </g>
 </g>
</svg>