<?xml version="1.0" encoding="utf-8"?>
<!-- Generator: Adobe Illustrator 16.0.0, SVG Export Plug-In . SVG Version: 6.00 Build 0)  -->
<!DOCTYPE svg PUBLIC "-//W3C//DTD SVG 1.1//EN" "http://www.w3.org/Graphics/SVG/1.1/DTD/svg11.dtd">
<svg version="1.1" id="Layer_1" xmlns="http://www.w3.org/2000/svg" xmlns:xlink="http://www.w3.org/1999/xlink" x="0px" y="0px"
	 width="800px" height="600px" viewBox="0 0 800 600" enable-background="new 0 0 800 600" xml:space="preserve">
<g>
	<path fill="#009245" d="M680.163,47.355H119.837c-26.831,0-48.583,21.074-48.583,47.076v411.135
		c0,26.004,21.752,47.078,48.583,47.078h560.326c26.82,0,48.583-21.074,48.583-47.078V94.432
		C728.746,68.43,706.983,47.355,680.163,47.355z M679.51,518.503H120.48V304.096H679.51V518.503z M679.51,168.961H120.48V77.165
		H679.51V168.961z"/>
	<rect x="158.344" y="425.529" fill="#009245" width="91.8" height="48.647"/>
	<rect x="290.158" y="425.529" fill="#009245" width="128.677" height="48.647"/>
	<path fill="#009245" d="M549.409,474.177c-35.571,0-64.519-28.933-64.519-64.505c0-35.575,28.947-64.511,64.519-64.511
		c35.572,0,64.501,28.936,64.501,64.511C613.91,445.244,584.981,474.177,549.409,474.177z M549.409,351.389
		c-32.128,0-58.271,26.143-58.271,58.283c0,32.129,26.144,58.275,58.271,58.275c32.131,0,58.267-26.146,58.267-58.275
		C607.676,377.531,581.54,351.389,549.409,351.389z"/>
	<g>
		<path fill="#009245" d="M518.503,409.466v22.343h-8.988v-53.861h18.533c5.991,0,10.629,1.356,13.908,4.071
			c3.28,2.712,4.92,6.586,4.92,11.613c0,2.787-0.721,5.188-2.164,7.198c-1.442,2.008-3.546,3.617-6.309,4.823
			c3.036,0.963,5.224,2.528,6.568,4.699c1.341,2.173,2.016,4.86,2.016,8.068v4.473c0,1.58,0.198,3.12,0.591,4.626
			c0.394,1.502,1.048,2.648,1.962,3.438v0.851h-9.249c-0.987-0.813-1.614-2.083-1.888-3.809c-0.27-1.726-0.405-3.453-0.405-5.179
			v-4.328c0-2.763-0.795-4.96-2.385-6.587c-1.591-1.627-3.756-2.44-6.494-2.44H518.503z M518.503,402.253h9.063
			c3.6,0,6.229-0.692,7.879-2.072c1.653-1.381,2.479-3.489,2.479-6.325c0-2.715-0.813-4.841-2.443-6.381
			c-1.626-1.541-4.104-2.314-7.433-2.314h-9.545V402.253z"/>
		<path fill="#009245" d="M591.86,413.128c0,5.823-1.37,10.52-4.106,14.094c-2.739,3.576-6.549,5.364-11.432,5.364
			c-2.269,0-4.28-0.408-6.03-1.221c-1.75-0.813-3.257-2.008-4.514-3.59V447.2h-8.989v-55.417h7.585l0.887,5.027
			c1.281-1.87,2.831-3.3,4.643-4.288c1.813-0.987,3.914-1.478,6.307-1.478c4.936,0,8.773,1.956,11.523,5.858
			c2.751,3.911,4.127,9.062,4.127,15.446V413.128z M582.907,412.35c0-4.091-0.771-7.439-2.313-10.042
			c-1.54-2.6-3.841-3.902-6.897-3.902c-1.875,0-3.465,0.401-4.774,1.201c-1.306,0.803-2.353,1.918-3.144,3.349v18.09
			c0.791,1.405,1.838,2.486,3.144,3.233c1.31,0.755,2.923,1.13,4.847,1.13c3.059,0,5.347-1.13,6.863-3.385
			c1.516-2.257,2.275-5.221,2.275-8.896V412.35z"/>
	</g>
</g>
</svg>
