<?xml version="1.0" encoding="utf-8"?>
<!-- Generator: Adobe Illustrator 16.0.0, SVG Export Plug-In . SVG Version: 6.00 Build 0)  -->
<!DOCTYPE svg PUBLIC "-//W3C//DTD SVG 1.1//EN" "http://www.w3.org/Graphics/SVG/1.1/DTD/svg11.dtd">
<svg version="1.1" id="Layer_1" xmlns="http://www.w3.org/2000/svg" xmlns:xlink="http://www.w3.org/1999/xlink" x="0px" y="0px"
	 width="800px" height="600px" viewBox="0 0 800 600" enable-background="new 0 0 800 600" xml:space="preserve">
<g>
	<polygon fill="#009245" points="559.948,35.787 425.244,38.378 289.251,296.118 377.313,294.825 240.046,564.213 559.948,217.116 
		442.087,219.708 	"/>
	<path fill="#009245" d="M525.457,97.682l-9.396,14.66C578.834,151.309,620.74,220.839,620.74,300
		c0,121.718-99.022,220.743-220.74,220.743c-33.756,0-65.749-7.641-94.389-21.245l-12.291,13.34
		c32.116,16.164,68.338,25.326,106.68,25.326c131.325,0,238.164-106.839,238.164-238.164
		C638.164,214.69,593.052,139.752,525.457,97.682z"/>
	<path fill="#009245" d="M179.26,300c0-121.294,98.337-220.022,219.474-220.711l9.105-17.255c-2.611-0.084-5.21-0.198-7.839-0.198
		c-131.324,0-238.164,106.84-238.164,238.164c0,82.798,42.495,155.831,106.795,198.523l7.946-15.595
		C217.901,443.212,179.26,376.034,179.26,300z"/>
</g>
</svg>
