<?xml version="1.0" encoding="utf-8"?>
<!-- Generator: Adobe Illustrator 16.0.0, SVG Export Plug-In . SVG Version: 6.00 Build 0)  -->
<!DOCTYPE svg PUBLIC "-//W3C//DTD SVG 1.1//EN" "http://www.w3.org/Graphics/SVG/1.1/DTD/svg11.dtd">
<svg version="1.1" id="Layer_1" xmlns="http://www.w3.org/2000/svg" xmlns:xlink="http://www.w3.org/1999/xlink" x="0px" y="0px"
	 width="800px" height="600px" viewBox="0 0 800 600" enable-background="new 0 0 800 600" xml:space="preserve">
<g>
	<g>
		<g>
			<path fill="#009245" d="M633.528,341.911c-11.675-0.366-20.845-10.136-20.474-21.81c4.036-127.384-96.305-234.3-223.68-238.346
				c-11.682-0.371-20.847-10.134-20.476-21.816c0.364-11.678,10.136-20.848,21.813-20.473
				c150.705,4.778,269.416,131.265,264.634,281.973C654.974,333.113,645.211,342.287,633.528,341.911z"/>
		</g>
		<g>
			<path fill="#009245" d="M565.106,345.656c-11.667-0.366-20.841-10.138-20.475-21.814c2.944-92.82-70.175-170.722-162.979-173.66
				c-11.687-0.377-20.855-10.139-20.48-21.82c0.373-11.676,10.14-20.844,21.818-20.481c116.136,3.689,207.622,101.172,203.931,217.3
				C586.558,336.86,576.793,346.036,565.106,345.656z"/>
		</g>
		<g>
			<path fill="#009245" d="M494.497,355.231c-11.678-0.372-20.842-10.138-20.473-21.819c1.903-60.191-45.509-110.712-105.7-112.625
				c-11.683-0.368-20.853-10.138-20.476-21.816c0.369-11.682,10.136-20.848,21.813-20.476
				c83.518,2.651,149.304,72.749,146.653,156.257C515.942,346.429,506.18,355.6,494.497,355.231z"/>
		</g>
	</g>
	<path fill="#009245" d="M589.349,429.73c0,0-62.782-28.592-87.088-41.339c-24.294-12.727-37.345-0.394-37.345-0.394
		s-16.448,21.1-28.012,36.212c-11.561,15.104-25.887,7.04-25.887,7.04s-42.804-26.715-81.164-66.555
		c-45.42-47.188-61.125-68.737-61.125-68.737s-8.485-14.067,6.27-26.07c14.767-12.005,42.869-36.716,42.869-36.716
		s11.953-13.41-1.486-37.324C302.928,171.931,272.5,110.02,272.5,110.02s-15.592-38-64.799,0.136
		c-49.207,38.139-63.776,44.315-63.169,86.767c0.626,43.863,11.122,119.541,115.598,224.821
		c115.312,116.205,202.371,134.873,246.109,138.456c38.836,3.183,48.193-15.385,84.864-65.693
		C627.782,444.202,589.349,429.73,589.349,429.73z"/>
</g>
</svg>
