<?xml version="1.0" encoding="utf-8"?>
<!-- Generator: Adobe Illustrator 16.0.0, SVG Export Plug-In . SVG Version: 6.00 Build 0)  -->
<!DOCTYPE svg PUBLIC "-//W3C//DTD SVG 1.1//EN" "http://www.w3.org/Graphics/SVG/1.1/DTD/svg11.dtd">
<svg version="1.1" id="Layer_1" xmlns="http://www.w3.org/2000/svg" xmlns:xlink="http://www.w3.org/1999/xlink" x="0px" y="0px"
	 width="800px" height="600px" viewBox="0 0 800 600" enable-background="new 0 0 800 600" xml:space="preserve">
<g>
	<polygon fill="#009245" points="115.838,201.273 115.838,248.568 176.537,248.568 176.537,325.023 225.401,325.023 
		225.401,248.568 574.588,248.568 574.588,325.023 623.473,325.023 623.473,248.568 684.162,248.568 684.162,201.273 	"/>
	<polygon fill="#009245" points="306.595,174.076 379.904,174.076 379.904,29.828 334.975,29.828 	"/>
	<polygon fill="#009245" points="500.7,174.076 427.394,174.076 427.394,29.828 472.322,29.828 	"/>
	<polygon fill="#009245" points="236.292,570.172 379.904,570.172 379.904,287.586 291.892,287.586 	"/>
	<polygon fill="#009245" points="570.994,570.172 427.394,570.172 427.394,287.586 515.395,287.586 	"/>
</g>
</svg>
