<?xml version="1.0" encoding="utf-8"?>
<!-- Generator: Adobe Illustrator 16.0.0, SVG Export Plug-In . SVG Version: 6.00 Build 0)  -->
<!DOCTYPE svg PUBLIC "-//W3C//DTD SVG 1.1//EN" "http://www.w3.org/Graphics/SVG/1.1/DTD/svg11.dtd">
<svg version="1.1" id="Layer_1" xmlns="http://www.w3.org/2000/svg" xmlns:xlink="http://www.w3.org/1999/xlink" x="0px" y="0px"
	 width="800px" height="600px" viewBox="0 0 800 600" enable-background="new 0 0 800 600" xml:space="preserve">
<g>
	<path fill="#009245" d="M160.294,257.958V262v299v4.751h479.412V561V262v-4.042H160.294z M485.112,372.116v-1.558
		c-3.913-27.366-3.913-28.142,14.846-43.767c1.558-1.565,2.35-2.353,3.916-3.922l2.332-1.552l3.151,19.541v4.691
		c2.323,35.167,6.244,92.996-17.994,119.562l-2.335,3.126v-3.92c0-6.238,0-12.479,0-17.966
		C489.028,422.137,489.028,396.342,485.112,372.116z M390.563,359.611c-3.911-17.195-1.567-20.322,7.823-29.699
		c1.533-1.569,3.892-3.892,6.224-7.043l1.563-1.552l1.569,2.345c5.462,10.152,4.697,30.475,4.697,53.138
		c-0.793,24.233-1.572,51.592,8.576,53.145c0.808,0,2.371,0,3.137,0c4.696,0,7.812-1.553,10.95-4.692
		c11.717-14.838,5.463-56.271,3.898-65.642c-3.898-17.195-2.334-20.322,7.818-29.699c1.575-1.569,3.91-3.892,6.266-7.043
		l1.549-1.552l1.569,2.345c5.471,10.152,4.679,30.475,4.679,52.368c0,2.323,0,3.893,0,6.238c0,1.57,0,5.474,0,16.406
		c0,7.838,0,18.772,0,25.797c0,20.317-19.536,35.954-35.943,35.954c-9.381,0-16.406-4.697-20.329-14.074
		c-4.69,12.516-13.279,14.074-18.741,14.074c-12.508,0-28.924-12.504-34.395-25.796c-4.676,10.159-12.505,16.419-22.657,16.419
		c-12.505,0-24.996-8.583-28.135-19.529c-1.582-5.472-2.347-17.2,12.508-27.371c2.329-1.552,4.682-3.115,7.803-4.691
		c21.103-13.268,21.103-24.991,21.896-32.039c1.542-7.025,8.586-7.808,8.586-7.808l0.787,1.565
		c7.037,9.382,7.817,21.092,8.582,32.039c0.802,12.51,2.374,24.232,9.378,32.833c2.368,2.346,6.267,3.898,10.957,3.898
		c5.474,0,10.933-2.347,10.933-7.038C393.688,404.943,395.24,381.493,390.563,359.611z"/>
	<path fill="#009245" d="M319.432,418.999c6.27,7.049,12.505,7.825,15.629,7.825c1.562,0,3.908-0.776,4.688-1.57
		c3.911-2.345,6.252-14.838,4.682-20.311C335.061,407.276,326.466,411.984,319.432,418.999z"/>
</g>
<g>
	<path fill="#009245" d="M559.432,90.053h-83.138c2.361,7.522,3.639,15.521,3.639,23.813c0,25.995-12.521,49.114-31.848,63.652
		h36.253c7.025,0,12.487,5.473,12.487,11.721c0,7.05-5.462,12.504-12.487,12.504H316.312c-7.029,0-12.491-5.454-12.491-12.504
		c0-6.248,5.462-11.721,12.491-11.721h36.25c-19.333-14.538-31.863-37.657-31.863-63.652c0-8.292,1.278-16.291,3.641-23.813h-87.876
		l-26.284,57.94L163.35,251.22l-3.056,6.737h479.412L559.432,90.053z"/>
	<path fill="#009245" d="M476.294,90.053c-10.144-32.308-40.356-55.804-75.967-55.804c-35.61,0-65.839,23.496-75.988,55.804
		c-2.363,7.522-3.641,15.521-3.641,23.813c0,25.995,12.53,49.114,31.863,63.652c13.317,10.014,29.86,15.958,47.766,15.958
		c17.906,0,34.446-5.944,47.758-15.958c19.327-14.538,31.848-37.657,31.848-63.652C479.933,105.574,478.655,97.576,476.294,90.053z
		 M400.327,185.786c-12.059,0-23.426-2.999-33.419-8.267c-22.867-12.056-38.501-36.059-38.501-63.652
		c0-39.666,32.268-71.933,71.92-71.933c39.655,0,71.91,32.267,71.91,71.933c0,27.593-15.628,51.596-38.492,63.652
		C423.753,182.787,412.387,185.786,400.327,185.786z"/>
</g>
<g>
	<path fill="#009245" d="M362.185,113.611v27.577h-11.096V74.714h22.874c7.396,0,13.118,1.673,17.166,5.022
		c4.048,3.348,6.071,8.127,6.071,14.336c0,3.439-0.889,6.399-2.671,8.88c-1.779,2.48-4.376,4.467-7.785,5.958
		c3.745,1.187,6.446,3.121,8.106,5.797c1.656,2.68,2.488,5.998,2.488,9.955v5.523c0,1.949,0.242,3.851,0.729,5.706
		c0.486,1.858,1.294,3.273,2.422,4.247v1.051h-11.416c-1.219-1.004-1.992-2.572-2.329-4.703c-0.333-2.13-0.501-4.261-0.501-6.392
		v-5.342c0-3.407-0.981-6.118-2.943-8.126c-1.963-2.008-4.634-3.013-8.014-3.013H362.185z M362.185,104.709h11.185
		c4.441,0,7.686-0.852,9.724-2.557c2.04-1.705,3.061-4.306,3.061-7.807c0-3.348-1.005-5.974-3.016-7.875
		c-2.008-1.903-5.066-2.854-9.175-2.854h-11.778V104.709z"/>
	<path fill="#009245" d="M452.719,118.131c0,7.184-1.689,12.982-5.068,17.395c-3.379,4.413-8.081,6.62-14.108,6.62
		c-2.8,0-5.281-0.503-7.441-1.506c-2.161-1.005-4.02-2.48-5.57-4.429v23.97h-11.096V91.788h9.361l1.095,6.209
		c1.582-2.313,3.493-4.079,5.729-5.296c2.238-1.217,4.831-1.826,7.785-1.826c6.088,0,10.826,2.413,14.222,7.235
		c3.394,4.825,5.092,11.179,5.092,19.063V118.131z M441.669,117.174c0-5.052-0.951-9.185-2.854-12.396
		c-1.902-3.211-4.742-4.816-8.514-4.816c-2.314,0-4.276,0.495-5.892,1.482c-1.611,0.99-2.905,2.368-3.88,4.132v22.326
		c0.975,1.734,2.269,3.067,3.88,3.994c1.615,0.929,3.607,1.393,5.981,1.393c3.775,0,6.599-1.393,8.469-4.177
		c1.873-2.785,2.809-6.445,2.809-10.98V117.174z"/>
</g>
</svg>
