<?xml version="1.0" encoding="utf-8"?>
<!-- Generator: Adobe Illustrator 16.0.0, SVG Export Plug-In . SVG Version: 6.00 Build 0)  -->
<!DOCTYPE svg PUBLIC "-//W3C//DTD SVG 1.1//EN" "http://www.w3.org/Graphics/SVG/1.1/DTD/svg11.dtd">
<svg version="1.1" id="Layer_1" xmlns="http://www.w3.org/2000/svg" xmlns:xlink="http://www.w3.org/1999/xlink" x="0px" y="0px"
	 width="800px" height="600px" viewBox="0 0 800 600" enable-background="new 0 0 800 600" xml:space="preserve">
<path fill="#009245" d="M557.35,383.389c-0.085-1.425-0.225-2.859-0.327-4.285c-0.236-3.027-0.498-6.068-0.837-9.124
	c-0.187-1.652-0.403-3.303-0.618-4.962c-0.385-2.938-0.809-5.881-1.285-8.844c-0.272-1.632-0.525-3.265-0.815-4.906
	c-0.573-3.215-1.22-6.441-1.894-9.678c-0.282-1.351-0.528-2.691-0.826-4.052c-1.023-4.604-2.121-9.229-3.328-13.861
	c-0.029-0.104-0.068-0.217-0.086-0.319c-1.192-4.53-2.477-9.068-3.827-13.606c-0.414-1.38-0.864-2.769-1.284-4.155
	c-1.023-3.313-2.074-6.622-3.182-9.941c-0.513-1.559-1.038-3.105-1.572-4.662c-1.109-3.217-2.242-6.435-3.415-9.641
	c-0.546-1.491-1.087-2.981-1.651-4.475c-1.332-3.563-2.709-7.118-4.117-10.662c-0.42-1.062-0.824-2.121-1.254-3.18
	c-3.771-9.352-7.785-18.626-11.977-27.788c-0.52-1.127-1.041-2.242-1.558-3.369c-1.597-3.44-3.208-6.864-4.839-10.259
	c-0.639-1.313-1.277-2.627-1.917-3.93c-1.594-3.272-3.196-6.519-4.829-9.744c-0.617-1.228-1.236-2.465-1.865-3.696
	c-1.85-3.617-3.713-7.202-5.588-10.757c-0.376-0.713-0.751-1.435-1.126-2.147c-2.344-4.407-4.7-8.769-7.07-13.063
	c-0.009-0.029-0.03-0.056-0.048-0.086c-2.272-4.125-4.55-8.179-6.837-12.183c-0.604-1.06-1.204-2.091-1.813-3.141
	c-1.704-2.983-3.421-5.927-5.128-8.825c-0.712-1.22-1.427-2.431-2.137-3.629c-1.624-2.738-3.235-5.432-4.851-8.096
	c-0.705-1.17-1.407-2.335-2.11-3.488c-1.716-2.805-3.405-5.552-5.092-8.262c-0.552-0.883-1.098-1.783-1.65-2.654
	c-2.186-3.487-4.342-6.911-6.462-10.23c-0.582-0.902-1.146-1.755-1.72-2.647c-1.527-2.381-3.045-4.735-4.546-7.015
	c-0.909-1.388-1.782-2.72-2.683-4.069c-1.096-1.661-2.186-3.311-3.254-4.916c-1.005-1.51-1.989-2.972-2.974-4.425
	c-0.864-1.276-1.708-2.531-2.55-3.771c-1.087-1.604-2.168-3.188-3.219-4.718c-0.494-0.732-0.984-1.426-1.471-2.139
	c-16.45-23.84-27.723-38.255-27.723-38.255S242.249,247.166,242.231,396.49c-0.01,52.286,20.745,94.021,53.465,121.442
	c-0.102-0.025-0.203-0.047-0.309-0.083c0.592,0.496,1.248,0.917,1.849,1.404c1.995,1.633,4.052,3.181,6.134,4.701
	c1.762,1.284,3.535,2.542,5.354,3.761c2.11,1.396,4.26,2.739,6.436,4.032c1.95,1.163,3.939,2.261,5.944,3.339
	c2.176,1.162,4.372,2.298,6.614,3.355c2.164,1.023,4.367,1.974,6.59,2.891c2.215,0.929,4.418,1.849,6.68,2.672
	c2.41,0.883,4.869,1.651,7.332,2.42c2.197,0.687,4.361,1.399,6.594,1.988c2.71,0.725,5.485,1.305,8.256,1.887
	c2.089,0.449,4.153,0.956,6.271,1.322c3.209,0.552,6.471,0.929,9.754,1.304c1.764,0.204,3.508,0.506,5.291,0.654
	c5.102,0.442,10.277,0.686,15.512,0.686c87.135,0,157.794-61.044,157.772-157.775C557.77,392.167,557.61,387.787,557.35,383.389z
	 M295.388,455.698c-17.066,0-30.893-24.545-30.893-54.817c0-30.274,13.826-54.81,30.893-54.81c17.053,0,30.883,24.535,30.883,54.81
	C326.271,431.153,312.44,455.698,295.388,455.698z"/>
</svg>
