<?xml version="1.0" encoding="utf-8"?>
<!-- Generator: Adobe Illustrator 16.0.0, SVG Export Plug-In . SVG Version: 6.00 Build 0)  -->
<!DOCTYPE svg PUBLIC "-//W3C//DTD SVG 1.1//EN" "http://www.w3.org/Graphics/SVG/1.1/DTD/svg11.dtd">
<svg version="1.1" id="Layer_1" xmlns="http://www.w3.org/2000/svg" xmlns:xlink="http://www.w3.org/1999/xlink" x="0px" y="0px"
	 width="800px" height="600px" viewBox="0 0 800 600" enable-background="new 0 0 800 600" xml:space="preserve">
<path fill="#009245" d="M635.057,149.485c-13.965-11.339-62.793-50.724-91.514-70.586c-41.938-29.004-82.107-1.551-101.412,11.641
	c-9.951,6.801-21.631,15.252-31.32,22.375c-1.895-3-4.465-6.516-7.959-10.631c-4.713-5.547-14.188-15.661-24.693-21.063
	c-20.621-10.61-35.455-15.138-49.604-15.138c-10.025,0-19.98,2.367-30.428,7.235c-21.227,9.886-82.207,60.004-99.219,74.141
	L31.02,149.663V407.25l141.492-1.786c9.02,10.308,31.525,35.307,59.072,60.623c48.971,45.01,88.744,67.831,118.215,67.831
	c0.002,0,0.008,0,0.012,0h0.174c42.539-0.129,101.672-18.906,158.176-50.229c23.178-12.848,72.725-43.046,93.527-76.611H768.98
	V149.485H635.057z M114.768,366.051H74.586V325.02h40.182V366.051z M583.734,381.367c-3.621,16.678-32.449,47.464-88.699,78.645
	c-51.908,28.775-107.52,46.721-145.133,46.835h-0.098c-0.002,0-0.004,0-0.008,0c-21.799,0-57.205-21.489-99.699-60.51
	c-33.971-31.194-60.848-62.904-61.117-63.22l-4.123-4.881l-38.789,0.489V175.227l62.813-0.824l3.693-3.092
	c30.621-25.631,81.719-66.343,96.982-73.453c6.887-3.209,12.924-4.703,18.998-4.703c9.555,0,20.684,3.63,37.221,12.138
	c8.553,4.399,19.557,17.509,22.811,23.113c-3.094,13.353-26.229,31.937-45.012,47.025c-17.352,13.94-33.742,27.107-41.852,40.515
	c-14.309,23.66-6.262,58.003,9.393,76.245c17.822,20.802,44.895,28.213,64.285,28.213c6.604,0,12.051-0.884,16.188-2.626
	c24.537-10.31,61.033-42.358,96.309-74.3c2.547-2.306,4.922-4.458,7.084-6.402c24.211,10.293,48.01,33.102,66.209,63.73
	C578.729,330.321,587.789,362.696,583.734,381.367z M653.932,380.007h-42.629c2.619-25.346-7.293-60.132-26.842-93.029
	c-23.291-39.199-55.455-67.742-88.244-78.313l-7.301-2.353l-5.77,5.052c-3.568,3.125-8.133,7.259-13.42,12.045
	c-23.141,20.952-66.188,59.931-88.551,69.379c-0.516,0.163-2.434,0.544-5.775,0.544c-10.271,0-31.043-3.95-43.734-18.764
	c-10.18-11.862-13.475-33.543-6.779-44.615c5.631-9.312,20.887-21.567,35.641-33.419c19.438-15.613,39.344-31.619,49.176-49.063
	c7.381-5.546,30.563-22.868,47.703-34.581c27.936-19.091,48.465-27.13,70.738-11.726c32.164,22.242,92.926,71.839,93.535,72.337
	l3.738,3.054h28.514V380.007z M724.146,366.051h-40.184V325.02h40.184V366.051z"/>
</svg>
