<?xml version="1.0" encoding="utf-8"?>
<!-- Generator: Adobe Illustrator 16.0.0, SVG Export Plug-In . SVG Version: 6.00 Build 0)  -->
<!DOCTYPE svg PUBLIC "-//W3C//DTD SVG 1.1//EN" "http://www.w3.org/Graphics/SVG/1.1/DTD/svg11.dtd">
<svg version="1.1" id="Layer_1" xmlns="http://www.w3.org/2000/svg" xmlns:xlink="http://www.w3.org/1999/xlink" x="0px" y="0px"
	 width="800px" height="600px" viewBox="0 0 800 600" enable-background="new 0 0 800 600" xml:space="preserve">
<g>
	<g>
		<path fill="#009245" d="M615.946,523.85c-18.436-0.579-32.919-16.007-32.331-34.441
			c6.373-201.159-152.083-369.998-353.231-376.387c-18.445-0.586-32.918-16.003-32.334-34.452
			c0.576-18.44,16.007-32.922,34.447-32.331c237.988,7.547,425.453,207.291,417.902,445.282
			C649.811,509.954,634.393,524.444,615.946,523.85z"/>
	</g>
	<g>
		<path fill="#009245" d="M507.896,529.766c-18.429-0.58-32.911-16.011-32.335-34.451
			c4.649-146.579-110.814-269.598-257.368-274.237c-18.458-0.596-32.934-16.011-32.344-34.459
			c0.59-18.438,16.012-32.914,34.454-32.343c183.398,5.826,327.87,159.766,322.041,343.15
			C541.769,515.873,526.353,530.361,507.896,529.766z"/>
	</g>
	<g>
		<path fill="#009245" d="M396.392,544.884c-18.441-0.586-32.912-16.008-32.329-34.456c3.003-95.052-71.866-174.832-166.919-177.854
			c-18.447-0.582-32.932-16.009-32.335-34.449c0.583-18.449,16.006-32.924,34.448-32.337
			c131.887,4.187,235.773,114.883,231.59,246.756C430.257,530.982,414.839,545.467,396.392,544.884z"/>
	</g>
	<path fill="#009245" d="M298.938,481.354c-1.303,41.29-35.842,73.689-77.14,72.388c-41.271-1.308-73.698-35.845-72.38-77.13
		c1.303-41.288,35.848-73.697,77.132-72.383C267.845,405.535,300.255,440.065,298.938,481.354z"/>
</g>
</svg>
