<?xml version="1.0" encoding="utf-8"?>
<!-- Generator: Adobe Illustrator 16.0.0, SVG Export Plug-In . SVG Version: 6.00 Build 0)  -->
<!DOCTYPE svg PUBLIC "-//W3C//DTD SVG 1.1//EN" "http://www.w3.org/Graphics/SVG/1.1/DTD/svg11.dtd">
<svg version="1.1" id="Layer_1" xmlns="http://www.w3.org/2000/svg" xmlns:xlink="http://www.w3.org/1999/xlink" x="0px" y="0px"
	 width="800px" height="600px" viewBox="0 0 800 600" enable-background="new 0 0 800 600" xml:space="preserve">
<g>
	<path fill="#009245" d="M461.022,151.199c0,70.188-56.897,127.096-127.095,127.096c-70.194,0-127.095-56.908-127.095-127.096
		c0-70.186,56.901-127.094,127.095-127.094C404.125,24.105,461.022,81.014,461.022,151.199z"/>
	<g>
		<path fill="#009245" d="M373.284,313.232c-17.202,3.402-32.267,4.227-39.357,4.227c-19.182,0-122.297-7.924-122.297-78.328
			c-39.964,19.991-74.742,63.143-74.742,132.686s0,136.688,0,136.688h197.04h75.707
			C380.001,457.541,366.644,387.514,373.284,313.232z"/>
	</g>
	<path fill="#009245" d="M661.102,310.713c-74.913-13.968-72.688-70.469-72.688-70.469h-65.71h-65.708
		c0,0,2.223,56.501-72.69,70.469c-14.761,150.939,53.807,261.404,138.398,265.182C607.299,572.117,675.863,461.652,661.102,310.713z
		 M612.327,435.133h-61.149v62.563h-56.944v-62.563h-61.153v-53.779h61.153v-62.91h56.944v62.91h61.149V435.133z"/>
</g>
</svg>
