<?xml version="1.0" encoding="UTF-8" standalone="no"?>
<svg
   xmlns:dc="http://purl.org/dc/elements/1.1/"
   xmlns:cc="http://creativecommons.org/ns#"
   xmlns:rdf="http://www.w3.org/1999/02/22-rdf-syntax-ns#"
   xmlns:svg="http://www.w3.org/2000/svg"
   xmlns="http://www.w3.org/2000/svg"
   id="svg108"
   viewBox="0 0 812.26412 667"
   style="clip-rule:evenodd;fill-rule:evenodd;image-rendering:optimizeQuality;shape-rendering:geometricPrecision;text-rendering:geometricPrecision"
   version="1.1"
   height="0.66666102in"
   width="0.81258684in"
   xml:space="preserve"><metadata
   id="metadata112"><rdf:RDF><cc:Work
       rdf:about=""><dc:format>image/svg+xml</dc:format><dc:type
         rdf:resource="http://purl.org/dc/dcmitype/StillImage" /></cc:Work></rdf:RDF></metadata>
 <defs
   id="defs7">
  <style
   id="style2"
   type="text/css">
   <![CDATA[
    .str0 {stroke:#00A859;stroke-width:13.8858}
    .str1 {stroke:#00A859;stroke-width:13.8937;stroke-linecap:round;stroke-linejoin:round}
    .fil1 {fill:none}
    .fil4 {fill:#F9FBFC}
    .fil3 {fill:#00A859}
    .fil0 {fill:#F9FBFC}
    .fil2 {fill:white}
   ]]>
  </style>
   <clipPath
   id="id0">
    <path
   id="path4"
   d="M 0,0 H 813 V 667 H 0 Z" />
   </clipPath>
 </defs>
 <g
   transform="translate(-0.3682849)"
   id="Layer_x0020_1">
  <metadata
   id="CorelCorpID_0Corel-Layer" />
  <g
   id="g10">
  </g>
  <g
   id="g103"
   clip-path="url(#id0)">
   <g
   id="g101">
    <g
   id="_2323003420816">
     <g
   id="g66">
      <path
   style="fill:#f9fbfc;stroke:#00a859;stroke-width:13.88580036"
   id="path12"
   d="M 662,650 H 70 V 481 c 0,-36 30,-65 66,-65 h 461 c 36,0 65,29 65,65 z"
   class="fil0 str0" />
      <path
   style="fill:none;stroke:#00a859;stroke-width:13.88580036"
   id="path14"
   d="m 155,350 c 0,-91 97,-213 216,-213 120,0 217,122 217,213 m -433,0 z"
   class="fil1 str0" />
      <g
   id="g26">
       <path
   style="fill:#ffffff;stroke:#00a859;stroke-width:13.88580036"
   id="path16"
   d="M 629,612 H 548 V 498 c 0,-17 13,-31 30,-31 h 21 c 16,0 30,14 30,31 z"
   class="fil2 str0" />
       <path
   style="fill:#ffffff;stroke:#00a859;stroke-width:13.88580036"
   id="path18"
   d="M 518,612 H 437 V 498 c 0,-17 13,-31 30,-31 h 21 c 16,0 30,14 30,31 z"
   class="fil2 str0" />
       <path
   style="fill:#ffffff;stroke:#00a859;stroke-width:13.88580036"
   id="path20"
   d="M 407,612 H 326 V 498 c 0,-17 13,-31 30,-31 h 20 c 17,0 31,14 31,31 z"
   class="fil2 str0" />
       <path
   style="fill:#ffffff;stroke:#00a859;stroke-width:13.88580036"
   id="path22"
   d="M 296,612 H 214 V 498 c 0,-17 14,-31 31,-31 h 20 c 17,0 31,14 31,31 z"
   class="fil2 str0" />
       <path
   style="fill:#ffffff;stroke:#00a859;stroke-width:13.88580036"
   id="path24"
   d="M 185,612 H 103 V 498 c 0,-17 14,-31 31,-31 h 20 c 17,0 31,14 31,31 z"
   class="fil2 str0" />
      </g>
      <g
   id="g56">
       <rect
   style="fill:#00a859"
   id="rect28"
   height="65.996002"
   width="433.056"
   y="348"
   x="154"
   class="fil3" />
       <rect
   style="fill:#f9fbfc"
   id="rect30"
   height="49.275398"
   width="20.776899"
   y="356"
   x="544"
   class="fil4" />
       <rect
   style="fill:#f9fbfc"
   id="rect32"
   height="49.275398"
   width="20.776899"
   y="356"
   x="511"
   class="fil4" />
       <rect
   style="fill:#f9fbfc"
   id="rect34"
   height="49.275398"
   width="20.776899"
   y="356"
   x="477"
   class="fil0" />
       <rect
   style="fill:#f9fbfc"
   id="rect36"
   height="49.275398"
   width="20.776899"
   y="356"
   x="444"
   class="fil4" />
       <rect
   style="fill:#f9fbfc"
   id="rect38"
   height="49.275398"
   width="20.776899"
   y="356"
   x="410"
   class="fil4" />
       <rect
   style="fill:#f9fbfc"
   id="rect40"
   height="49.275398"
   width="20.776899"
   y="356"
   x="377"
   class="fil4" />
       <rect
   style="fill:#f9fbfc"
   id="rect42"
   height="49.275398"
   width="20.776899"
   y="356"
   x="343"
   class="fil4" />
       <rect
   style="fill:#f9fbfc"
   id="rect44"
   height="49.275398"
   width="20.776899"
   y="356"
   x="310"
   class="fil4" />
       <rect
   style="fill:#f9fbfc"
   id="rect46"
   height="49.275398"
   width="20.776899"
   y="356"
   x="276"
   class="fil4" />
       <rect
   style="fill:#f9fbfc"
   id="rect48"
   height="49.275398"
   width="20.776899"
   y="356"
   x="242"
   class="fil4" />
       <rect
   style="fill:#f9fbfc"
   id="rect50"
   height="49.275398"
   width="20.776899"
   y="356"
   x="209"
   class="fil4" />
       <rect
   style="fill:#f9fbfc"
   id="rect52"
   height="49.275398"
   width="20.776899"
   y="356"
   x="175"
   class="fil4" />
       <rect
   style="fill:#00a859"
   id="rect54"
   height="16.6973"
   width="462.90601"
   y="334"
   x="138"
   class="fil3" />
      </g>
      <g
   id="g64">
       <path
   style="fill:#00a859"
   id="path58"
   d="m 376,140 c -3,0 -6,-3 -6,-6 V 83 c 0,-4 3,-7 6,-7 4,0 7,3 7,7 v 51 c 0,3 -3,6 -7,6 z"
   class="fil3" />
       <rect
   style="fill:#00a859"
   id="rect60"
   height="25.892099"
   width="43.4319"
   y="120"
   x="355"
   class="fil3" />
       <path
   style="fill:#00a859"
   id="path62"
   d="M 370,63 C 355,46 354,21 366,3 c -3,2 -6,4 -10,7 -20,18 -22,48 -4,69 17,20 48,22 68,4 3,-2 6,-5 8,-9 -19,10 -43,6 -58,-11 z"
   class="fil3" />
      </g>
     </g>
     <g
   id="g98">
      <circle
   style="fill:#ffffff"
   id="circle68"
   r="142"
   cy="521"
   cx="601"
   class="fil2" />
      <g
   id="g72">
       <path
   style="fill:#00a859"
   id="path70"
   d="m 601,399 c 67,0 122,54 122,122 0,67 -55,122 -122,122 -68,0 -123,-55 -123,-122 0,-68 55,-122 123,-122 z m 0,-20 c -79,0 -142,63 -142,142 0,78 63,141 142,141 78,0 141,-63 141,-141 0,-79 -63,-142 -141,-142 z"
   class="fil3" />
      </g>
      <g
   id="_1743178758016">
       <path
   style="fill:#00a859"
   id="path74"
   d="m 601,407 c -3,0 -5,3 -5,6 v 5 c 0,2 2,5 5,5 2,0 5,-3 5,-5 v -5 c 0,-3 -3,-6 -5,-6 z"
   class="fil3" />
       <path
   style="fill:#00a859"
   id="path76"
   d="m 601,618 c -3,0 -5,3 -5,4 v 6 c 0,2 2,5 5,5 2,0 5,-3 5,-5 v -6 c 0,-1 -3,-4 -5,-4 z"
   class="fil3" />
       <path
   style="fill:#00a859"
   id="path78"
   d="m 708,515 h -5 c -3,0 -5,2 -5,5 0,3 2,5 5,5 h 5 c 3,0 5,-2 5,-5 0,-3 -2,-5 -5,-5 z"
   class="fil3" />
       <path
   style="fill:#00a859"
   id="path80"
   d="m 498,515 h -5 c -3,0 -5,2 -5,5 0,3 2,5 5,5 h 5 c 3,0 5,-2 5,-5 0,-3 -2,-5 -5,-5 z"
   class="fil3" />
       <path
   style="fill:#00a859"
   id="path82"
   d="m 673,440 -3,4 c -2,2 -2,5 0,7 1,1 2,1 3,1 2,0 3,0 4,-1 l 3,-4 c 2,-2 2,-5 0,-7 -2,-1 -5,-1 -7,0 z"
   class="fil3" />
       <path
   style="fill:#00a859"
   id="path84"
   d="m 525,589 -4,4 c -2,2 -2,5 0,7 1,1 2,1 4,1 1,0 2,0 3,-1 l 4,-4 c 2,-2 2,-5 0,-7 -2,-2 -5,-2 -7,0 z"
   class="fil3" />
       <path
   style="fill:#00a859"
   id="path86"
   d="m 677,589 c -2,-2 -5,-2 -7,0 -2,2 -2,5 0,7 l 3,4 c 1,1 3,1 4,1 1,0 2,0 3,-1 2,-2 2,-5 0,-7 z"
   class="fil3" />
       <path
   style="fill:#00a859"
   id="path88"
   d="m 528,440 c -2,-1 -5,-1 -7,0 -2,2 -2,5 0,7 l 4,4 c 1,1 2,1 3,1 1,0 3,0 4,-1 2,-2 2,-5 0,-7 z"
   class="fil3" />
      </g>
      <g
   id="_1743178751232">
       <line
   style="fill:none;stroke:#00a859;stroke-width:13.89369965;stroke-linecap:round;stroke-linejoin:round"
   id="line91"
   y2="521"
   x2="546"
   y1="521"
   x1="585"
   class="fil1 str1" />
       <line
   style="fill:none;stroke:#00a859;stroke-width:13.89369965;stroke-linecap:round;stroke-linejoin:round"
   id="line93"
   y2="453"
   x2="600"
   y1="507"
   x1="600"
   class="fil1 str1" />
       <circle
   style="fill:none;stroke:#00a859;stroke-width:13.89369965;stroke-linecap:round;stroke-linejoin:round"
   id="circle95"
   r="15"
   cy="521"
   cx="600"
   class="fil1 str1" />
      </g>
     </g>
    </g>
   </g>
  </g>
  <polygon
   style="fill:none"
   id="polygon105"
   points="813,667 0,667 0,0 813,0 "
   class="fil1" />
 </g>
</svg>