<?xml version="1.0" encoding="UTF-8" standalone="no"?>
<svg
   xmlns:dc="http://purl.org/dc/elements/1.1/"
   xmlns:cc="http://creativecommons.org/ns#"
   xmlns:rdf="http://www.w3.org/1999/02/22-rdf-syntax-ns#"
   xmlns:svg="http://www.w3.org/2000/svg"
   xmlns="http://www.w3.org/2000/svg"
   id="svg25"
   viewBox="0 0 812.26412 667"
   style="clip-rule:evenodd;fill-rule:evenodd;image-rendering:optimizeQuality;shape-rendering:geometricPrecision;text-rendering:geometricPrecision"
   version="1.1"
   height="0.66666102in"
   width="0.81258684in"
   xml:space="preserve"><metadata
   id="metadata29"><rdf:RDF><cc:Work
       rdf:about=""><dc:format>image/svg+xml</dc:format><dc:type
         rdf:resource="http://purl.org/dc/dcmitype/StillImage" /></cc:Work></rdf:RDF></metadata>
 <defs
   id="defs7">
  <style
   id="style2"
   type="text/css">
   <![CDATA[
    .str0 {stroke:#00A859;stroke-width:18.0551}
    .fil0 {fill:none}
    .fil1 {fill:white}
   ]]>
  </style>
   <clipPath
   id="id0">
    <path
   id="path4"
   d="M 0,0 H 813 V 667 H 0 Z" />
   </clipPath>
 </defs>
 <g
   transform="translate(-0.3682849)"
   id="Layer_x0020_1">
  <metadata
   id="CorelCorpID_0Corel-Layer" />
  <g
   id="g10">
  </g>
  <g
   id="g20"
   clip-path="url(#id0)">
   <g
   id="g18">
    <g
   id="_2357462700336">
     <path
   style="fill:none;stroke:#00a859;stroke-width:18.05509949"
   d="m 152,374 h 164 c 24,0 43,20 43,43 v 164 c 0,23 -19,42 -43,42 H 152 c -23,0 -42,-19 -42,-42 V 417 c 0,-23 19,-43 42,-43 z"
   class="fil0 str0"
   id="path18" />
     <path
   style="fill:#ffffff;stroke:#00a859;stroke-width:18.05509949"
   d="m 475,374 h 164 c 23,0 42,20 42,43 v 164 c 0,23 -19,42 -42,42 H 475 c -24,0 -42,-19 -42,-42 V 417 c 0,-23 18,-43 42,-43 z"
   class="fil1 str0"
   id="path20" />
     <path
   style="fill:#ffffff;stroke:#00a859;stroke-width:18.05509949"
   d="M 415,166 531,50 c 16,-17 43,-17 60,0 l 116,116 c 16,16 16,43 0,60 L 591,341 c -17,17 -44,17 -60,0 L 415,226 c -16,-17 -16,-44 0,-60 z"
   class="fil1 str0"
   id="path22" />
     <path
   style="fill:none;stroke:#00a859;stroke-width:18.05509949"
   d="m 152,72 h 164 c 24,0 43,19 43,42 v 164 c 0,23 -19,43 -43,43 H 152 c -23,0 -42,-20 -42,-43 V 114 c 0,-23 19,-42 42,-42 z"
   class="fil0 str0"
   id="path24" />
     <path
   style="fill:#ffffff;stroke:#00a859;stroke-width:18.05509949"
   d="m 522,188 31,-31 c 4,-5 12,-5 16,0 l 31,31 c 4,4 4,11 0,16 l -31,30 c -4,5 -12,5 -16,0 l -31,-30 c -4,-5 -4,-12 0,-16 z"
   class="fil1 str0"
   id="path22_0" />
    </g>
   </g>
  </g>
  <polygon
   style="fill:none"
   id="polygon22"
   points="813,667 0,667 0,0 813,0 "
   class="fil0" />
 </g>
</svg>