<?xml version="1.0" encoding="UTF-8" standalone="no"?>
<svg
   xmlns:dc="http://purl.org/dc/elements/1.1/"
   xmlns:cc="http://creativecommons.org/ns#"
   xmlns:rdf="http://www.w3.org/1999/02/22-rdf-syntax-ns#"
   xmlns:svg="http://www.w3.org/2000/svg"
   xmlns="http://www.w3.org/2000/svg"
   id="svg12"
   viewBox="0 0 468.3386 453"
   style="clip-rule:evenodd;fill-rule:evenodd;image-rendering:optimizeQuality;shape-rendering:geometricPrecision;text-rendering:geometricPrecision"
   version="1.1"
   height="0.45267117in"
   width="0.46865955in"
   xml:space="preserve"><metadata
   id="metadata16"><rdf:RDF><cc:Work
       rdf:about=""><dc:format>image/svg+xml</dc:format><dc:type
         rdf:resource="http://purl.org/dc/dcmitype/StillImage" /></cc:Work></rdf:RDF></metadata>
 <defs
   id="defs4">
  <style
   id="style2"
   type="text/css">
   <![CDATA[
    .fil0 {fill:#94C40F}
   ]]>
  </style>
 </defs>
 <g
   transform="translate(-12.341049,-8)"
   id="Layer_x0020_1">
  <metadata
   id="CorelCorpID_0Corel-Layer" />
  <path
   style="fill:#94c40f"
   id="path7"
   d="m 60,340 c -3,6 -32,57 -32,82 0,22 17,39 39,39 21,0 39,-17 39,-39 0,-25 -29,-76 -33,-82 -1,-2 -4,-4 -6,-4 -3,0 -6,2 -7,4 z m 7,106 c -13,0 -24,-11 -24,-24 0,-14 14,-43 24,-62 10,19 23,48 23,62 0,13 -10,24 -23,24 z m 0,0 z"
   class="fil0" />
  <path
   style="fill:#94c40f"
   id="path9"
   d="m 473,102 h -47 c -4,0 -8,3 -8,8 v 23 H 313 L 302,92 c -1,-3 -4,-6 -8,-6 H 270 V 55 h 54 C 337,55 348,45 348,32 348,19 337,8 324,8 H 168 c -13,0 -23,11 -23,24 0,13 10,23 23,23 h 55 v 31 h -24 c -4,0 -7,3 -8,6 l -12,41 H 114 C 57,133 12,179 12,235 v 62 c 0,4 3,8 8,8 h 94 c 4,0 7,-4 7,-8 v -31 c 0,-13 11,-24 24,-24 h 9 c 7,36 41,63 83,63 h 19 c 41,0 76,-27 83,-63 h 79 v 24 c 0,4 4,8 8,8 h 47 c 4,0 8,-4 8,-8 V 110 c 0,-5 -4,-8 -8,-8 z M 160,32 c 0,-5 4,-8 8,-8 h 156 c 5,0 8,3 8,8 0,4 -3,7 -8,7 H 168 c -4,0 -8,-3 -8,-7 z m 78,23 h 16 V 86 H 238 Z M 106,266 v 23 H 28 v -54 c 0,-48 38,-86 86,-86 h 61 l -22,78 h -8 c -22,0 -39,17 -39,39 z m 150,23 h -19 c -38,0 -68,-26 -69,-58 l 36,-129 h 84 l 36,129 c 0,32 -31,58 -68,58 z m 84,-62 -22,-78 h 100 v 78 z m 125,31 H 434 V 118 h 31 z m 0,0 z"
   class="fil0" />
 </g>
</svg>