<?xml version="1.0" encoding="UTF-8" standalone="no"?>
<svg
   xmlns:dc="http://purl.org/dc/elements/1.1/"
   xmlns:cc="http://creativecommons.org/ns#"
   xmlns:rdf="http://www.w3.org/1999/02/22-rdf-syntax-ns#"
   xmlns:svg="http://www.w3.org/2000/svg"
   xmlns="http://www.w3.org/2000/svg"
   id="svg20"
   viewBox="0 0 309.57261 435.10102"
   style="clip-rule:evenodd;fill-rule:evenodd;image-rendering:optimizeQuality;shape-rendering:geometricPrecision;text-rendering:geometricPrecision"
   version="1.1"
   height="0.43509328in"
   width="0.30988032in"
   xml:space="preserve"><metadata
   id="metadata24"><rdf:RDF><cc:Work
       rdf:about=""><dc:format>image/svg+xml</dc:format><dc:type
         rdf:resource="http://purl.org/dc/dcmitype/StillImage" /></cc:Work></rdf:RDF></metadata>
 <defs
   id="defs4">
  <style
   id="style2"
   type="text/css">
   <![CDATA[
    .str0 {stroke:#5CA47A;stroke-width:13.8858}
    .str2 {stroke:#5CA47A;stroke-width:13.8858}
    .str1 {stroke:#5CA47A;stroke-width:13.8898}
    .fil0 {fill:none}
    .fil2 {fill:none;fill-rule:nonzero}
    .fil3 {fill:#5CA47A}
    .fil1 {fill:white}
    .fil4 {fill:white;fill-rule:nonzero}
   ]]>
  </style>
 </defs>
 <g
   transform="translate(-13.22555,-10.037425)"
   id="Layer_x0020_1">
  <metadata
   id="CorelCorpID_0Corel-Layer" />
  <g
   id="_2388740453744">
   <path
   style="fill:none;stroke:#5ca47a;stroke-width:13.88580036"
   id="path7"
   d="m 136,313 -16,84 c 0,0 -14,21 -27,22 -13,0 -16,3 -16,3 v 16 l 96,-2 v 0 l 72,2 v -17 c 0,0 -3,-2 -13,-2 -10,-1 -21,-23 -21,-23 l -12,-83 c 0,0 -5,2 -11,5 -6,2 -18,2 -18,2 v 0 c -5,0 -14,0 -20,-2 -8,-3 -14,-5 -14,-5 z"
   class="fil0 str0" />
   <path
   style="fill:#ffffff;stroke:#5ca47a;stroke-width:13.88580036"
   id="path9"
   d="m 101,304 c 0,0 -40,-5 -49,-12 -10,-8 -32,-31 -32,-59 0,-28 12,-52 24,-59 11,-6 11,-6 11,-6 0,0 -22,-29 -9,-51 7,-13 7,-15 12,-21 9,-10 22,-15 32,-15 15,0 15,0 15,0 0,0 -3,-40 26,-54 23,-11 32,-10 34,-10 3,0 12,-1 36,10 29,14 27,54 27,54 0,0 0,0 16,0 10,0 23,5 32,15 6,6 6,8 13,21 13,22 -9,51 -9,51 0,0 0,0 11,6 13,7 25,31 25,59 0,28 -22,51 -33,59 -10,7 -51,12 -51,12 v 0 c 0,0 0,0 -20,12 -15,10 -37,15 -45,16 v 1 c 0,0 -1,0 -2,-1 -1,1 -2,1 -2,1 v -1 c -8,-2 -28,-6 -43,-16 -19,-12 -19,-12 -19,-12 z"
   class="fil1 str0" />
   <g
   id="g16">
    <path
   style="fill:none;fill-rule:nonzero;stroke:#5ca47a;stroke-width:13.88980007"
   d="m 96,140 v 0 c -10,27 7,57 33,67 9,4 20,3 30,2 22,-4 39,-22 43,-44 6,-24 -10,-50 -32,-59 -10,-5 -20,-5 -30,-4 -20,3 -38,19 -44,38 z"
   class="fil2 str1"
   id="path48" />
    <path
   style="fill:#5ca47a"
   d="m 130,181 z m 23,-53 v -6 h -8 v 6 c -8,2 -16,6 -18,14 -2,8 3,17 10,19 6,1 12,2 17,4 -2,5 -7,5 -11,4 -5,-1 -9,-4 -13,-6 -1,4 -4,9 -5,13 l 5,5 c 4,0 9,1 14,2 v 6 c 3,0 6,0 9,0 v -6 c 6,-2 13,-3 16,-8 3,-7 3,-16 -2,-21 -6,-5 -14,-4 -20,-6 -2,-1 -2,-4 -2,-5 6,-2 13,-1 19,3 1,-4 3,-9 5,-13 -4,-3 -11,-4 -16,-5 z"
   class="fil3"
   id="path52" />
    <path
   style="fill:none;fill-rule:nonzero;stroke:#5ca47a;stroke-width:13.88580036"
   d="m 148,190 v 0 c -10,27 7,57 34,67 9,4 19,3 29,2 22,-4 39,-22 44,-44 5,-24 -10,-50 -33,-59 -9,-5 -19,-5 -30,-5 -20,4 -38,19 -44,39 z"
   class="fil2 str2"
   id="path48_1" />
    <path
   style="fill:#ffffff;fill-rule:nonzero;stroke:#5ca47a;stroke-width:13.88580036"
   d="m 148,190 v 0 c -10,27 7,57 34,67 9,4 19,3 29,2 22,-4 39,-22 44,-44 5,-24 -10,-50 -33,-59 -9,-5 -19,-5 -30,-5 -20,4 -38,19 -44,39 z"
   class="fil4 str2"
   id="path48_1_0" />
    <path
   style="fill:#5ca47a"
   d="m 183,228 z m 23,-52 v -6 h -9 v 6 c -7,2 -15,5 -17,14 -3,8 3,16 10,18 6,2 12,2 17,5 -2,4 -7,4 -11,4 -5,-2 -9,-4 -13,-7 -1,5 -4,10 -6,14 l 6,4 c 4,1 9,2 14,3 v 6 c 2,0 6,0 9,0 v -7 c 6,-1 13,-3 16,-8 4,-7 4,-16 -2,-20 -6,-6 -14,-4 -20,-7 -3,0 -2,-3 -3,-4 7,-3 14,-1 19,3 2,-4 4,-9 6,-13 -5,-3 -11,-4 -16,-5 z"
   class="fil3"
   id="path52_3" />
   </g>
  </g>
 </g>
</svg>