<?xml version="1.0" encoding="UTF-8" standalone="no"?>
<svg
   xmlns:dc="http://purl.org/dc/elements/1.1/"
   xmlns:cc="http://creativecommons.org/ns#"
   xmlns:rdf="http://www.w3.org/1999/02/22-rdf-syntax-ns#"
   xmlns:svg="http://www.w3.org/2000/svg"
   xmlns="http://www.w3.org/2000/svg"
   id="svg41"
   viewBox="0 0 394.68677 394.99998"
   style="clip-rule:evenodd;fill-rule:evenodd;image-rendering:optimizeQuality;shape-rendering:geometricPrecision;text-rendering:geometricPrecision"
   version="1.1"
   height="0.39467886in"
   width="0.39467886in"
   xml:space="preserve"><metadata
   id="metadata45"><rdf:RDF><cc:Work
       rdf:about=""><dc:format>image/svg+xml</dc:format><dc:type
         rdf:resource="http://purl.org/dc/dcmitype/StillImage" /></cc:Work></rdf:RDF></metadata>
 <defs
   id="defs4">
  <style
   id="style2"
   type="text/css">
   <![CDATA[
    .fil0 {fill:#5CA47A}
   ]]>
  </style>
 </defs>
 <g
   transform="translate(-5.158721,-19)"
   id="Layer_x0020_1">
  <metadata
   id="CorelCorpID_0Corel-Layer" />
  <g
   id="_2388737106528">
   <g
   id="g37">
    <path
   style="fill:#5ca47a"
   id="path7"
   d="m 281,256 c 0,-43 -35,-79 -79,-79 -43,0 -79,36 -79,79 0,44 36,79 79,79 44,0 79,-35 79,-79 z m -145,0 c 0,-36 30,-66 66,-66 37,0 66,30 66,66 0,37 -29,66 -66,66 -36,0 -66,-29 -66,-66 z"
   class="fil0" />
    <path
   style="fill:#5ca47a"
   id="path9"
   d="m 333,128 c -1,-2 -3,-4 -5,-4 H 301 V 98 c 0,-4 -3,-7 -6,-7 h -27 c -3,0 -6,3 -6,7 v 26 H 143 V 98 c 0,-4 -3,-7 -7,-7 h -26 c -4,0 -7,3 -7,7 v 26 H 77 c -2,0 -5,2 -6,4 L 5,253 c 0,1 0,2 0,3 v 132 c 0,4 3,7 6,7 h 20 v 13 c 0,3 3,6 7,6 h 46 c 3,0 6,-3 6,-6 v -13 h 224 v 13 c 0,3 3,6 7,6 h 46 c 4,0 7,-3 7,-6 v -13 h 19 c 4,0 7,-3 7,-7 V 256 c 0,-1 0,-2 -1,-3 z m 54,253 h -20 c -4,0 -7,3 -7,7 v 13 h -32 v -13 c 0,-4 -3,-7 -7,-7 H 84 c -4,0 -7,3 -7,7 v 13 H 44 v -13 c 0,-4 -3,-7 -6,-7 H 18 V 263 h 92 v -7 c 0,-51 41,-92 92,-92 v -13 c -55,0 -101,43 -105,99 H 22 L 81,138 h 29 c 4,0 7,-3 7,-7 v -26 h 13 v 26 c 0,4 3,7 6,7 h 132 c 4,0 7,-3 7,-7 v -26 h 13 v 26 c 0,4 3,7 7,7 h 29 l 59,112 h -88 v 6 c 0,51 -42,92 -93,93 v 13 c 56,0 102,-44 105,-99 h 80 z"
   class="fil0" />
    <rect
   style="fill:#5ca47a"
   id="rect11"
   height="13.1817"
   width="13.1817"
   y="210"
   x="169"
   class="fil0" />
    <rect
   style="fill:#5ca47a"
   id="rect13"
   height="13.1817"
   width="13.1817"
   y="210"
   x="196"
   class="fil0" />
    <rect
   style="fill:#5ca47a"
   id="rect15"
   height="13.1817"
   width="13.1817"
   y="210"
   x="222"
   class="fil0" />
    <rect
   style="fill:#5ca47a"
   id="rect17"
   height="13.1817"
   width="13.1817"
   y="236"
   x="169"
   class="fil0" />
    <rect
   style="fill:#5ca47a"
   id="rect19"
   height="13.1817"
   width="13.1817"
   y="236"
   x="196"
   class="fil0" />
    <rect
   style="fill:#5ca47a"
   id="rect21"
   height="13.1817"
   width="13.1817"
   y="236"
   x="222"
   class="fil0" />
    <rect
   style="fill:#5ca47a"
   id="rect23"
   height="13.1817"
   width="13.1817"
   y="263"
   x="169"
   class="fil0" />
    <rect
   style="fill:#5ca47a"
   id="rect25"
   height="13.1817"
   width="13.1817"
   y="263"
   x="196"
   class="fil0" />
    <rect
   style="fill:#5ca47a"
   id="rect27"
   height="13.1817"
   width="13.1817"
   y="263"
   x="222"
   class="fil0" />
    <rect
   style="fill:#5ca47a"
   id="rect29"
   height="13.1817"
   width="13.1817"
   y="289"
   x="169"
   class="fil0" />
    <rect
   style="fill:#5ca47a"
   id="rect31"
   height="13.1817"
   width="13.1817"
   y="289"
   x="196"
   class="fil0" />
    <rect
   style="fill:#5ca47a"
   id="rect33"
   height="13.1817"
   width="13.1817"
   y="289"
   x="222"
   class="fil0" />
    <path
   style="fill:#5ca47a"
   id="path35"
   d="M 398,54 365,21 c -1,-1 -3,-2 -5,-2 H 44 c -2,0 -3,1 -5,2 L 7,54 c -2,1 -2,3 -2,5 v 46 c 0,3 3,6 6,6 h 73 c 3,0 6,-3 6,-6 V 78 h 224 v 27 c 0,3 3,6 7,6 h 72 c 4,0 7,-3 7,-6 V 59 c 0,-2 -1,-4 -2,-5 z M 387,98 H 328 V 72 c 0,-4 -3,-7 -7,-7 H 84 c -4,0 -7,3 -7,7 V 98 H 18 V 61 L 47,32 h 311 l 29,29 z"
   class="fil0" />
   </g>
  </g>
 </g>
</svg>