<?xml version="1.0" encoding="UTF-8" standalone="no"?>
<svg
   xmlns:dc="http://purl.org/dc/elements/1.1/"
   xmlns:cc="http://creativecommons.org/ns#"
   xmlns:rdf="http://www.w3.org/1999/02/22-rdf-syntax-ns#"
   xmlns:svg="http://www.w3.org/2000/svg"
   xmlns="http://www.w3.org/2000/svg"
   id="svg24"
   viewBox="0 0 667 832.24594"
   style="clip-rule:evenodd;fill-rule:evenodd;image-rendering:optimizeQuality;shape-rendering:geometricPrecision;text-rendering:geometricPrecision"
   version="1.1"
   height="0.83257663in"
   width="0.66666102in"
   xml:space="preserve"><metadata
   id="metadata28"><rdf:RDF><cc:Work
       rdf:about=""><dc:format>image/svg+xml</dc:format><dc:type
         rdf:resource="http://purl.org/dc/dcmitype/StillImage" /></cc:Work></rdf:RDF></metadata>
 <defs
   id="defs7">
  <style
   id="style2"
   type="text/css">
   <![CDATA[
    .str0 {stroke:#00A859;stroke-width:13.8858}
    .fil2 {fill:none}
    .fil0 {fill:#00A859}
    .fil1 {fill:white}
   ]]>
  </style>
   <clipPath
   id="id0">
    <path
   id="path4"
   d="M 0,0 H 667 V 833 H 0 Z" />
   </clipPath>
 </defs>
 <g
   transform="translate(0,-0.3773357)"
   id="Layer_x0020_1">
  <metadata
   id="CorelCorpID_0Corel-Layer" />
  <g
   id="g10">
  </g>
  <g
   id="g19"
   clip-path="url(#id0)">
   <g
   id="g17">
    <g
   id="_3049202048304">
     <path
   style="fill:#00a859"
   id="path12"
   d="M 474,398 273,260 c -15,-11 -28,-4 -28,14 v 285 c 0,19 13,25 28,15 L 474,435 c 15,-10 15,-27 0,-37 z"
   class="fil0" />
     <path
   style="fill:#ffffff;stroke:#00a859;stroke-width:13.88580036"
   id="path14"
   d="M 216,607 V 227 c 0,-24 18,-33 38,-19 l 267,184 c 20,13 20,36 0,50 L 254,626 c -20,13 -38,5 -38,-19 z M 333,99 C 158,99 16,241 16,417 16,592 158,734 333,734 509,734 651,592 651,417 651,241 509,99 333,99 Z"
   class="fil1 str0" />
    </g>
   </g>
  </g>
  <polygon
   style="fill:none"
   id="polygon21"
   points="667,833 0,833 0,0 667,0 "
   class="fil2" />
 </g>
</svg>