<?xml version="1.0" encoding="UTF-8" standalone="no"?>
<svg
   xmlns:dc="http://purl.org/dc/elements/1.1/"
   xmlns:cc="http://creativecommons.org/ns#"
   xmlns:rdf="http://www.w3.org/1999/02/22-rdf-syntax-ns#"
   xmlns:svg="http://www.w3.org/2000/svg"
   xmlns="http://www.w3.org/2000/svg"
   id="svg23"
   viewBox="0 0 613.78351 653.56955"
   style="clip-rule:evenodd;fill-rule:evenodd;image-rendering:optimizeQuality;shape-rendering:geometricPrecision;text-rendering:geometricPrecision"
   version="1.1"
   height="0.6532374in"
   width="0.61402738in"
   xml:space="preserve"><metadata
   id="metadata27"><rdf:RDF><cc:Work
       rdf:about=""><dc:format>image/svg+xml</dc:format><dc:type
         rdf:resource="http://purl.org/dc/dcmitype/StillImage" /></cc:Work></rdf:RDF></metadata>
 <defs
   id="defs4">
  <style
   id="style2"
   type="text/css">
   <![CDATA[
    .str0 {stroke:#00A859;stroke-width:10.4134}
    .str1 {stroke:#00A859;stroke-width:10.4173}
    .fil1 {fill:#00A859}
    .fil3 {fill:#00A859}
    .fil0 {fill:white}
    .fil2 {fill:white;fill-rule:nonzero}
   ]]>
  </style>
 </defs>
 <g
   transform="translate(-115.28879,-1.6390817)"
   id="Layer_x0020_1">
  <metadata
   id="CorelCorpID_0Corel-Layer" />
  <g
   id="_2357465597872">
   <polygon
   style="fill:#ffffff;stroke:#00a859;stroke-width:10.4133997"
   points="123,266 216,61 411,61 416,61 623,61 721,266 416,266 411,266 "
   class="fil0 str0"
   id="polygon37" />
   <g
   id="g12">
    <path
   style="fill:#00a859"
   id="path8"
   d="m 315,168 h 215 c 9,0 16,7 16,15 v 0 c 0,9 -7,16 -16,16 H 315 c -9,0 -16,-7 -16,-16 v 0 c 0,-8 7,-15 16,-15 z"
   class="fil1" />
    <path
   style="fill:#ffffff;fill-rule:nonzero;stroke:#00a859;stroke-width:10.41730022"
   d="m 522,107 c -1,17 -2,34 -11,46 -7,9 -14,18 -23,25 H 367 c -13,-11 -24,-25 -30,-41 -9,-28 -9,-57 7,-81 17,-33 57,-51 95,-49 19,4 41,12 54,27 17,13 24,32 29,51 0,8 0,16 0,22 z"
   class="fil2 str1"
   id="path50_2" />
    <path
   style="fill:#00a859"
   d="M 391,157 Z M 439,45 V 34 h -18 v 11 c -16,5 -34,12 -38,30 -6,17 7,35 22,40 13,3 26,5 36,9 -4,10 -15,10 -23,9 -11,-2 -20,-9 -27,-13 -4,9 -9,19 -14,28 l 14,9 c 7,2 17,4 28,7 v 12 c 5,0 14,0 20,0 v -13 c 13,-4 28,-9 34,-19 9,-13 9,-34 -4,-43 -13,-11 -30,-9 -43,-14 -5,-1 -4,-6 -5,-10 15,-5 28,-1 40,8 5,-10 8,-20 12,-29 -9,-6 -22,-8 -34,-11 z"
   class="fil3"
   id="path52_3" />
   </g>
   <rect
   style="fill:#ffffff;stroke:#00a859;stroke-width:10.41730022"
   height="384"
   width="600"
   y="266"
   x="121"
   class="fil0 str1"
   id="rect51" />
   <g
   id="g19">
    <path
   style="fill:#00a859"
   id="path15"
   d="m 562,383 v -6 l -4,-25 -3,2 c -2,2 -3,3 -5,5 -24,20 -24,21 -19,56 v 2 c 5,31 5,64 5,95 0,7 0,15 0,23 v 5 l 3,-4 c 31,-34 26,-108 23,-153 z"
   class="fil3" />
    <path
   style="fill:#00a859"
   id="path17"
   d="m 500,430 c 0,-3 0,-5 0,-8 0,-28 1,-54 -6,-67 l -2,-3 -2,2 c -3,4 -6,7 -8,9 -13,12 -15,16 -10,38 2,12 10,65 -5,84 -4,4 -8,6 -14,6 v 0 c -1,0 -3,0 -4,0 -13,-2 -12,-37 -11,-68 0,-29 1,-55 -6,-68 l -2,-3 -2,2 c -3,4 -6,7 -8,9 -12,12 -15,16 -10,38 6,28 4,58 2,81 0,6 -7,9 -14,9 -6,0 -11,-2 -14,-5 -9,-11 -11,-26 -12,-42 -1,-14 -2,-29 -11,-41 l -1,-2 c 0,0 -9,1 -11,10 -1,9 -1,24 -28,41 -4,2 -7,4 -10,6 -19,13 -18,28 -16,35 4,14 20,25 36,25 13,0 23,-8 29,-21 7,17 28,33 44,33 7,0 18,-2 24,-18 5,12 14,18 26,18 21,0 46,-20 46,-46 0,-9 0,-23 0,-33 0,-14 0,-19 0,-21 z m -155,55 c -1,1 -4,2 -6,2 -4,0 -12,-1 -20,-10 9,-9 20,-15 32,-18 2,7 -1,23 -6,26 z"
   class="fil3" />
   </g>
  </g>
 </g>
</svg>