<?xml version="1.0" encoding="UTF-8" standalone="no"?>
<svg
   xmlns:dc="http://purl.org/dc/elements/1.1/"
   xmlns:cc="http://creativecommons.org/ns#"
   xmlns:rdf="http://www.w3.org/1999/02/22-rdf-syntax-ns#"
   xmlns:svg="http://www.w3.org/2000/svg"
   xmlns="http://www.w3.org/2000/svg"
   id="svg36"
   viewBox="0 0 677.99998 683"
   style="clip-rule:evenodd;fill-rule:evenodd;image-rendering:optimizeQuality;shape-rendering:geometricPrecision;text-rendering:geometricPrecision"
   version="1.1"
   height="0.68333101in"
   width="0.67832857in"
   xml:space="preserve"><metadata
   id="metadata40"><rdf:RDF><cc:Work
       rdf:about=""><dc:format>image/svg+xml</dc:format><dc:type
         rdf:resource="http://purl.org/dc/dcmitype/StillImage" /></cc:Work></rdf:RDF></metadata>
 <defs
   id="defs9">
  <style
   id="style2"
   type="text/css">
   <![CDATA[
    .fil5 {fill:#11623A}
    .fil2 {fill:#E62129}
    .fil3 {fill:#E84C53}
    .fil6 {fill:#FEE28F}
    .fil4 {fill:#FEFEFE}
    .fil1 {fill:white}
    .fil0 {fill:url(#id0);fill-opacity:0.600000}
   ]]>
  </style>
  <radialGradient
   fy="287"
   fx="358.01599"
   r="341.66501"
   cy="287"
   cx="358.01599"
   gradientTransform="matrix(1.37296,0,0,1.38391,-134,-110)"
   gradientUnits="userSpaceOnUse"
   id="id0">
   <stop
   id="stop4"
   style="stop-opacity:1; stop-color:white"
   offset="0" />
   <stop
   id="stop6"
   style="stop-opacity:1; stop-color:#2CC970"
   offset="1" />
  </radialGradient>
 </defs>
 <g
   transform="translate(-5)"
   id="Layer_x0020_1">
  <metadata
   id="CorelCorpID_0Corel-Layer" />
  <path
   style="fill:url(#id0);fill-opacity:0.6"
   d="M 683,342 C 683,153 532,0 344,0 157,0 5,153 5,342 5,530 157,683 344,683 532,683 683,530 683,342 Z"
   class="fil0"
   id="circle17" />
  <path
   style="fill:#ffffff"
   id="path13"
   d="m 214,154 c 2,-2 5,-4 8,-5 l 18,-10 c 3,-2 6,-3 9,-5 l 30,-11 c 10,-3 19,-5 29,-7 6,-1 12,-2 18,-2 4,0 8,-1 13,-1 14,0 26,0 41,2 l 6,1 c 2,1 4,1 6,1 4,1 7,2 11,3 7,2 14,4 21,6 l 19,9 3,1 c 4,2 11,6 15,8 3,2 6,4 8,6 l 13,8 25,22 c 6,5 11,10 16,16 l 1,2 15,20 c 3,5 7,12 10,18 l 2,4 c 4,7 8,17 10,24 1,2 1,3 2,6 3,9 5,18 7,27 4,23 5,54 2,77 -1,3 -1,4 -1,7 -2,10 -4,20 -6,29 l -2,6 c -2,5 -4,10 -6,15 -4,10 -9,20 -15,29 l -3,4 -2,4 c -5,7 -11,14 -16,20 -1,1 -1,1 -2,2 l -7,8 c -3,3 -6,6 -9,9 l -15,13 -4,4 -2,1 -2,2 c -8,7 -20,14 -30,20 -15,7 -36,16 -53,18 -9,2 -16,3 -25,4 -2,0 -5,0 -7,0 l -20,1 c -42,0 -61,-3 -97,-21 -19,-8 -36,-19 -51,-31 -3,-3 -5,-5 -8,-7 l -17,-18 c 0,-1 -1,-1 -1,-2 l -2,-2 c 0,0 -1,-1 -2,-2 -3,-4 -6,-9 -10,-13 l -10,-17 c -4,-7 -9,-15 -12,-23 -5,-11 -9,-21 -12,-33 -6,-24 -6,-39 -6,-65 v 0 c 0,-9 1,-18 1,-27 1,-4 1,-8 2,-12 1,-4 1,-8 3,-11 1,-4 2,-8 3,-11 l 1,-6 c 4,-11 9,-23 15,-34 l 5,-9 c 4,-7 9,-14 14,-21 l 6,-7 1,-2 5,-6 c 1,-1 1,-1 2,-2 2,-2 5,-5 7,-8 h 1 l 4,-4 c 8,-8 17,-15 27,-22 z m -114,144 -2,13 c 0,7 -1,14 -1,21 v 29 0 c 0,10 1,20 2,29 2,11 5,20 8,30 3,9 7,18 10,27 7,15 16,29 26,43 5,7 11,14 17,21 l 7,7 c 4,4 8,8 12,12 l 2,1 c 6,6 12,11 19,15 l 4,3 24,15 c 8,3 15,8 23,11 l 9,3 c 3,1 7,2 11,4 16,4 27,7 43,9 3,0 5,0 7,1 7,1 14,0 21,1 l 15,-1 c 2,0 5,0 7,0 5,0 9,-1 14,-2 l 13,-2 c 4,-1 8,-2 12,-3 16,-4 31,-9 45,-15 7,-4 13,-7 20,-11 14,-8 27,-17 39,-28 l 21,-21 c 8,-8 15,-18 22,-27 3,-5 6,-10 9,-14 3,-7 7,-14 10,-20 1,-2 2,-3 2,-6 5,-11 9,-21 13,-33 1,-6 3,-11 4,-18 5,-27 5,-52 2,-80 0,-4 -1,-9 -2,-13 -1,-5 -1,-9 -2,-13 -8,-29 -16,-47 -31,-72 -4,-8 -15,-22 -21,-29 -6,-7 -13,-15 -20,-21 l -2,-2 -12,-11 -5,-3 -8,-7 c -6,-4 -12,-8 -18,-12 -9,-5 -17,-9 -26,-13 l -5,-2 c -8,-4 -19,-7 -28,-10 -2,0 -4,-1 -6,-1 -4,-1 -8,-2 -13,-3 l -13,-2 c -8,-1 -18,-2 -28,-2 -12,0 -28,0 -40,2 -15,2 -23,4 -37,8 -14,4 -27,9 -39,15 -8,4 -16,8 -23,13 -15,10 -26,19 -39,31 l -5,5 c -5,5 -10,11 -15,16 -7,9 -13,17 -19,26 -7,12 -14,27 -21,40 -3,9 -7,18 -10,27 v 3 l -1,3 c 0,2 -1,4 -1,6 -1,3 -1,5 -1,7 z"
   class="fil1" />
  <path
   style="fill:#e62129"
   id="path15"
   d="m 349,378 c 4,20 6,42 3,62 -2,12 -6,18 -17,24 -6,3 -10,5 -18,5 -8,0 -25,-16 -26,-19 0,-2 1,-10 1,-14 v -11 c 0,-1 1,-1 1,-3 0,-4 0,-10 0,-14 l 1,-21 c 0,-9 2,-23 -8,-16 -7,6 -16,26 -18,35 0,2 -1,3 -1,4 -5,19 -7,41 -12,57 -2,4 -5,11 -10,11 -13,0 -21,-20 -23,-31 l -1,-4 c -1,-5 -2,-12 -2,-18 0,-31 3,-27 13,-30 3,0 8,-3 8,-6 0,-4 -4,-8 -6,-10 -2,-3 -5,-6 -8,-8 -4,-3 -7,-4 -9,2 -2,4 -4,13 -2,18 0,1 0,2 2,2 0,4 -2,5 -4,7 -4,3 -7,6 -11,9 -1,1 -2,1 -3,2 l -10,6 c -5,3 -16,8 -18,12 3,0 4,-1 6,-2 7,-2 13,-6 19,-9 l 3,-2 c 19,-10 12,-5 12,3 v 8 c 0,7 3,21 5,29 l 1,5 c 1,3 2,6 3,9 4,10 15,26 27,26 1,0 5,-1 7,-2 2,0 3,-2 4,-4 4,-8 6,-18 8,-27 2,-10 4,-23 6,-32 1,-4 2,-7 3,-11 1,-5 6,-21 10,-24 0,2 -1,3 -1,5 -2,12 -3,25 -3,37 0,13 0,23 6,33 1,3 3,5 4,7 4,4 7,7 12,10 15,8 34,-2 44,-15 6,-10 8,-17 10,-28 1,-1 1,-2 1,-4 h 1 c 0,1 1,2 1,4 6,12 11,24 23,32 7,4 12,5 20,5 9,0 16,-5 21,-12 7,-12 7,-33 4,-48 -2,-6 -3,-12 -5,-18 -2,-6 -4,-11 -6,-17 l -1,-2 c -1,-6 -4,-11 -4,-16 2,0 5,3 6,5 1,1 2,1 3,1 1,-3 -2,-8 -3,-11 -2,-4 -11,-23 -16,-26 -6,4 -7,9 -7,16 v 0 c 0,9 3,22 5,31 2,5 3,9 4,14 4,13 13,38 15,48 2,6 0,9 -6,11 -8,3 -26,-1 -31,-7 -6,-9 -10,-20 -12,-31 -2,-9 -1,-20 -2,-30 0,-2 -1,-7 -2,-9 l -1,-9 c -1,-3 -2,-6 -2,-9 -1,-4 -6,-20 -9,-23 -1,2 -1,3 -2,5 -7,16 -7,17 -3,33 z m -119,6 c 4,0 5,4 2,6 -2,0 -4,-3 -4,-5 0,-1 1,-1 2,-1 z m -14,-1 z m 3,-2 c 8,0 6,6 2,6 -2,0 -5,-2 -5,-4 0,-2 2,-2 3,-2 z"
   class="fil2" />
  <path
   style="fill:#e84c53"
   id="path17"
   d="m 556,378 c 4,-23 4,-45 1,-68 0,-4 -1,-8 -1,-12 -1,-4 -1,-7 -2,-11 -7,-25 -14,-41 -27,-63 -4,-6 -13,-19 -18,-24 -6,-6 -11,-13 -18,-18 l -1,-2 -11,-9 -3,-3 -8,-6 c -5,-4 -10,-7 -16,-11 -7,-4 -14,-8 -21,-11 l -5,-2 c -7,-3 -16,-6 -24,-8 -2,0 -3,-1 -5,-1 -4,-1 -7,-2 -11,-3 l -12,-1 c -7,-1 -15,-2 -24,-2 -10,0 -24,0 -35,2 -12,2 -20,3 -32,6 -11,4 -23,8 -33,14 -7,3 -14,7 -20,11 -13,8 -22,16 -34,26 l -4,5 c -5,4 -9,9 -13,14 -6,7 -11,15 -16,22 -6,11 -13,23 -17,35 -3,7 -7,15 -9,23 v 3 l -1,2 c 0,2 -1,4 -1,6 -1,2 -1,3 -1,5 l -1,12 c -1,6 -1,12 -1,18 v 25 0 c 0,8 0,16 1,25 2,9 5,17 7,25 3,8 6,16 9,24 6,13 14,25 22,37 5,6 10,12 15,18 l 6,7 c 3,3 7,7 10,9 l 2,2 c 5,4 11,9 17,13 l 3,2 21,13 c 6,3 13,6 20,9 l 7,3 c 3,1 6,2 10,3 13,4 23,6 37,8 2,0 4,0 6,1 6,1 12,0 18,1 l 13,-1 c 2,0 5,0 6,0 5,0 8,-1 12,-1 l 11,-2 c 4,-1 7,-2 11,-3 13,-3 26,-8 38,-13 6,-3 12,-6 18,-9 12,-7 24,-15 34,-25 l 18,-18 c 7,-7 13,-16 19,-23 2,-4 5,-8 7,-13 3,-5 7,-11 9,-17 1,-1 2,-2 2,-4 4,-10 8,-19 11,-29 1,-5 3,-10 4,-16 z"
   class="fil3" />
  <path
   style="fill:#fefefe"
   id="path19"
   d="m 590,392 c 5,-27 5,-53 3,-80 -1,-5 -2,-9 -2,-14 -1,-4 -2,-8 -3,-12 -8,-29 -15,-47 -30,-72 -5,-8 -15,-23 -21,-29 -7,-7 -13,-15 -21,-21 l -2,-2 -12,-11 -4,-3 -9,-7 c -5,-4 -12,-8 -18,-12 -8,-5 -16,-10 -25,-13 l -5,-2 c -9,-4 -19,-7 -28,-10 -3,0 -4,-1 -6,-1 -5,-1 -8,-2 -13,-3 l -13,-2 c -9,-1 -18,-2 -28,-2 -12,0 -28,0 -41,2 -14,2 -22,4 -36,8 -14,4 -27,9 -39,15 -8,4 -16,8 -23,13 -15,10 -26,19 -39,31 l -5,5 c -5,5 -10,10 -15,16 -6,8 -13,17 -18,26 -8,12 -15,27 -20,40 -4,9 -8,18 -10,27 l -1,3 -1,3 c 0,2 -1,4 -1,6 -1,2 -1,5 -1,7 l -2,13 c 0,7 0,14 0,21 v 29 0 c 0,9 0,19 1,28 2,11 5,20 8,30 3,9 7,18 11,27 6,16 15,30 25,43 5,8 11,14 17,21 l 7,8 c 4,4 8,8 12,11 l 2,2 c 6,5 12,10 19,15 l 4,3 24,14 c 8,4 15,8 23,11 l 9,3 c 3,1 7,3 11,4 15,4 27,7 43,9 2,0 4,0 7,1 7,1 14,0 21,1 h 15 c 2,-1 5,-1 7,-1 5,0 9,-1 13,-1 l 13,-3 c 4,-1 8,-1 13,-2 15,-4 31,-10 44,-16 7,-3 14,-7 20,-11 14,-8 28,-17 40,-28 l 21,-21 c 8,-8 14,-18 21,-27 4,-5 6,-9 9,-14 4,-6 8,-13 10,-20 1,-2 2,-3 3,-5 4,-11 9,-22 12,-33 2,-6 3,-12 4,-18 z"
   class="fil4" />
  <path
   style="fill:#11623a"
   d="m 97,361 v -29 c 0,-7 1,-14 1,-21 l 2,-13 c 0,-2 0,-4 1,-7 0,-2 1,-4 1,-6 0,-1 0,-2 1,-3 0,-1 0,-2 0,-3 3,-9 7,-18 10,-27 6,-13 13,-28 20,-40 6,-9 12,-17 19,-26 5,-5 10,-11 15,-16 l 5,-5 c 13,-12 24,-21 39,-31 7,-5 15,-9 23,-13 12,-6 25,-11 39,-15 14,-4 22,-6 37,-8 12,-2 28,-2 40,-2 10,0 20,1 28,2 l 13,2 c 5,1 9,2 13,3 2,0 4,1 6,1 9,3 20,6 28,10 l 5,2 c 9,4 17,8 26,13 6,4 12,8 18,12 3,3 6,5 8,7 2,1 3,2 5,3 l 12,11 c 0,1 1,1 2,2 7,6 14,14 20,21 6,7 17,21 21,29 15,25 23,43 31,72 1,4 1,8 2,13 1,4 2,9 2,13 3,28 3,53 -2,80 -1,7 -3,12 -4,18 -4,12 -8,22 -13,33 0,3 -1,4 -2,6 -3,6 -7,13 -10,20 -3,4 -6,9 -9,14 -7,9 -14,19 -22,27 l -21,21 c -12,11 -25,20 -39,28 -7,4 -13,7 -20,11 -14,6 -29,11 -45,15 -4,1 -8,2 -12,3 l -13,2 c -5,1 -9,2 -14,2 -2,0 -5,0 -7,0 l -15,1 c -7,-1 -14,0 -21,-1 -2,-1 -4,-1 -7,-1 -16,-2 -27,-5 -43,-9 -4,-2 -8,-3 -11,-4 l -9,-3 c -8,-3 -15,-8 -23,-11 l -24,-15 c -1,-1 -2,-2 -4,-3 -7,-4 -13,-9 -19,-15 -1,0 -1,-1 -2,-1 -4,-4 -8,-8 -12,-12 l -7,-7 c -6,-7 -12,-14 -17,-21 -10,-14 -19,-28 -26,-43 -3,-9 -7,-18 -10,-27 -3,-10 -6,-19 -8,-30 -1,-9 -2,-19 -2,-29 v 0 z m 239,241 c 3,0 5,0 8,0 2,0 4,0 7,0 3,0 6,0 8,0 3,0 5,-1 8,-1 3,0 6,0 8,0 6,0 18,-1 22,-2 5,-1 9,-1 13,-3 14,-4 24,-7 39,-14 25,-11 44,-24 66,-41 4,-3 7,-7 11,-10 2,-2 4,-4 6,-6 l 8,-8 c 1,-2 2,-3 3,-5 2,-1 3,-2 4,-4 2,-3 5,-6 7,-9 1,-2 2,-3 3,-5 l 12,-20 c 7,-12 14,-25 18,-38 2,-4 3,-8 5,-12 0,-2 0,-2 1,-3 0,-1 0,-2 0,-4 1,-2 2,-4 2,-6 4,-13 9,-42 9,-56 0,-5 1,-10 0,-15 v -16 c 0,-2 -1,-5 -1,-7 0,-7 -2,-14 -3,-21 -1,-9 -4,-17 -6,-26 -1,-2 -2,-4 -2,-6 -1,-2 -2,-4 -2,-6 -4,-13 -10,-25 -16,-36 l -3,-5 c -3,-7 -7,-12 -11,-18 0,-1 -1,-1 -1,-2 l -24,-30 -11,-12 c -1,-1 -2,-1 -3,-2 l -19,-16 -24,-16 -16,-9 c -7,-4 -14,-7 -22,-10 -15,-6 -33,-12 -50,-15 -18,-3 -39,-2 -58,-2 -20,0 -40,2 -56,7 -9,2 -16,5 -24,8 l -19,8 c -1,1 -2,1 -3,1 -1,1 -1,1 -1,1 l -30,17 -26,18 c 0,1 -1,2 -2,2 -3,3 -5,6 -8,8 -2,2 -11,11 -14,14 l -5,7 c -2,1 -3,2 -4,4 -15,18 -26,38 -36,59 -3,7 -5,14 -8,20 l -6,22 c -4,15 -6,32 -7,48 v 31 l 3,29 c 3,16 6,28 12,44 0,1 0,1 1,2 l 3,9 c 2,5 4,10 7,15 0,1 0,1 1,2 l 2,5 c 1,2 2,3 3,5 4,8 9,15 14,22 4,5 8,11 12,16 l 4,4 c 1,1 1,1 2,2 0,1 1,1 2,2 1,2 2,3 3,4 l 7,7 c 4,5 9,9 14,13 7,6 16,14 24,19 6,4 11,8 17,11 10,5 21,10 31,14 10,5 22,8 33,11 11,3 22,5 34,5 3,0 5,1 8,1 5,0 10,0 16,0 v 0 z"
   class="fil5"
   id="path20" />
  <path
   style="fill:#fee28f"
   id="path22"
   d="m 564,380 c 5,-23 5,-46 2,-69 0,-4 -1,-8 -1,-12 -1,-3 -2,-7 -2,-11 -7,-25 -14,-40 -27,-62 -4,-7 -13,-19 -18,-25 -6,-6 -11,-13 -18,-18 l -1,-2 -11,-9 -3,-3 -8,-6 c -5,-4 -10,-7 -16,-10 -7,-4 -14,-8 -21,-11 l -5,-2 c -7,-4 -16,-7 -24,-9 -2,0 -4,0 -6,-1 -3,-1 -7,-2 -11,-2 l -11,-2 c -7,-1 -16,-2 -24,-2 -11,0 -24,0 -35,2 -12,2 -20,4 -32,7 -11,3 -23,8 -33,13 -7,3 -14,7 -20,11 -13,8 -23,16 -34,26 l -4,5 c -5,5 -9,9 -13,14 -6,7 -11,15 -16,23 -6,10 -13,23 -17,34 -3,8 -7,15 -9,23 l -1,3 v 3 c -1,1 -1,3 -1,5 -1,2 -1,4 -1,6 l -1,11 c -1,6 -1,12 -1,18 v 25 0 c 0,8 0,17 1,25 2,10 5,17 7,26 3,8 6,15 9,23 6,13 14,26 22,37 5,7 10,13 15,18 l 6,7 c 3,3 7,7 10,10 l 2,1 c 5,5 11,9 16,13 l 4,3 21,12 c 6,3 13,7 20,9 l 7,3 c 3,1 6,2 10,3 13,4 23,6 37,9 2,0 4,0 6,0 6,1 12,1 18,1 h 13 c 2,0 5,-1 6,-1 4,0 8,-1 12,-1 l 11,-2 c 4,-1 7,-1 11,-2 13,-4 26,-8 38,-14 6,-3 12,-6 18,-9 12,-7 23,-15 34,-24 l 18,-18 c 7,-7 13,-16 18,-24 3,-4 6,-8 8,-12 3,-5 7,-11 9,-17 1,-2 1,-3 2,-5 4,-9 8,-19 11,-28 1,-6 2,-10 3,-16 z"
   class="fil6" />
  <path
   style="fill:#11623a"
   d="m 343,498 c 4,0 7,3 9,6 2,3 4,6 4,10 2,0 3,-2 3,-4 2,-5 5,-14 11,-14 2,0 3,2 3,4 0,6 -8,2 -10,10 -1,3 0,11 -1,15 -3,8 -6,-2 -7,-5 -1,-2 -1,-3 -2,-5 -1,0 -2,-3 -3,-3 -2,-3 -7,-4 -9,-10 0,-1 0,-4 2,-4 z m 52,-141 c 0,-7 1,-11 7,-15 5,2 14,22 16,26 1,2 4,7 3,10 -2,0 -2,0 -3,-1 -2,-1 -4,-4 -6,-5 0,6 2,11 4,16 0,1 1,2 1,2 2,6 4,12 6,18 2,5 3,11 4,18 4,14 4,35 -3,47 -5,7 -12,12 -21,12 -8,0 -13,-1 -20,-5 -12,-8 -17,-19 -23,-32 0,-1 -1,-2 -1,-4 h -1 c 0,2 0,3 -1,5 -2,11 -4,18 -11,27 -9,14 -29,24 -43,16 -5,-3 -8,-6 -12,-11 -1,-2 -3,-4 -4,-6 -6,-11 -6,-21 -6,-33 0,-13 1,-25 3,-37 0,-2 1,-3 1,-5 -5,2 -9,18 -10,24 -1,3 -2,7 -3,10 -2,10 -4,23 -6,33 -2,9 -4,18 -8,26 -1,2 -2,4 -4,5 -2,0 -6,1 -7,1 -12,0 -23,-15 -27,-25 -1,-3 -2,-6 -3,-10 -1,-2 -1,-3 -1,-5 -2,-7 -5,-21 -5,-28 v -8 c 0,-8 7,-13 -12,-3 -1,0 -2,0 -3,1 -6,4 -13,7 -19,10 -2,1 -3,1 -6,1 2,-4 13,-9 18,-12 l 9,-5 c 2,-1 2,-2 4,-3 4,-3 7,-5 11,-9 2,-2 3,-3 3,-6 -1,0 -1,-1 -1,-2 -2,-6 0,-14 2,-19 2,-5 5,-4 9,-1 2,1 6,5 8,7 2,2 5,7 5,10 0,4 -4,6 -7,7 -10,3 -13,-2 -13,30 0,6 1,12 2,17 0,2 0,3 1,5 2,10 10,30 22,30 6,0 9,-6 11,-11 5,-16 7,-38 12,-56 0,-1 0,-3 1,-4 2,-10 10,-30 18,-35 10,-8 8,6 8,15 l -1,21 c 0,5 0,10 0,14 0,2 -1,2 -1,4 v 11 c 0,3 -1,11 -1,14 1,2 17,18 26,18 8,0 12,-2 18,-5 11,-5 15,-12 17,-24 3,-20 1,-42 -3,-61 -4,-17 -4,-17 3,-33 1,-2 1,-3 2,-5 2,3 8,19 9,23 0,2 1,5 2,8 0,3 1,6 1,9 1,3 1,7 2,10 1,10 0,20 2,30 2,11 5,21 12,30 5,6 23,11 31,8 6,-3 7,-6 6,-11 -2,-10 -11,-35 -15,-49 -1,-5 -3,-9 -4,-14 -2,-9 -5,-21 -5,-31 v 0 z m -139,-3 c 0,-4 8,-3 8,-1 0,7 -8,7 -8,1 z m -32,-3 c 5,0 4,7 2,8 -4,0 -4,-8 -2,-8 z m 294,-10 c 0,0 -4,-1 -4,2 0,5 16,2 16,5 0,2 -8,6 -10,7 l -11,5 c -12,6 -7,0 -5,-2 4,-8 -4,-9 5,-20 2,-3 5,-7 9,-7 4,0 5,10 0,10 v 0 z M 170,311 Z m 189,-12 c 1,0 2,1 3,2 5,6 4,24 -1,24 -2,0 -3,0 -6,-2 -1,-1 -2,-2 -5,-2 0,2 0,3 -1,5 -3,2 -9,2 -11,-1 -3,-5 -2,-15 -2,-21 v 0 c 1,3 5,21 9,15 2,-2 2,-7 2,-9 1,-5 0,-10 3,-12 2,0 2,2 2,4 2,5 2,15 8,15 3,0 0,-6 -2,-9 0,-2 0,-3 -1,-5 0,-1 0,-4 2,-4 z m -90,8 c 0,2 3,4 -1,4 -2,0 -6,-7 -6,-10 4,-1 3,-1 9,-1 4,0 -2,4 -2,7 z m -99,4 c 1,-2 2,-3 3,-4 1,-2 2,-3 2,-5 3,-5 2,-6 2,-11 1,-1 1,-1 4,-1 1,0 3,1 3,2 3,4 -7,14 -11,16 -1,1 -1,2 -3,3 z m 64,-7 c 0,-1 0,-1 1,-1 l 6,-3 c 3,-2 5,-3 8,-4 3,-2 13,-6 17,-6 -1,2 -8,5 -11,6 -1,1 -2,2 -4,2 -5,3 -11,6 -17,6 z m 178,-3 c 4,1 1,1 5,1 7,1 -1,14 -7,6 -4,-7 2,-21 5,-28 1,-1 1,-2 2,-3 0,-1 1,-2 2,-2 0,5 -2,9 -3,13 -2,4 -4,9 -4,13 v 0 z m -180,-9 c 1,0 1,0 1,-1 3,-2 12,-6 15,-8 l 4,-2 c 3,-2 11,-5 15,-5 -2,2 -5,4 -8,5 l -17,8 c -2,0 -7,3 -10,3 z m 4,-15 c -3,0 -1,-5 0,-6 0,-1 1,-2 2,-3 0,-1 1,-3 2,-3 2,0 6,4 6,6 0,3 -8,6 -10,6 z m -46,-5 c 0,5 5,19 9,20 2,-2 2,-3 2,-6 0,-1 0,-1 0,-3 0,-3 -1,-13 0,-17 5,1 6,10 6,15 0,6 -2,13 5,23 0,2 1,2 2,3 l 4,7 c 0,2 0,2 0,5 -2,0 -2,-2 -4,-3 -1,-2 -2,-3 -3,-4 -1,2 -2,7 -2,9 0,3 1,7 0,9 -1,4 -1,5 -4,6 -2,1 -6,2 -8,2 -7,0 -5,-7 -12,-7 -9,-1 -12,12 -6,19 10,11 31,-2 40,-11 4,-4 6,-6 6,-10 0,-2 0,-1 -1,-2 -1,1 -1,0 -2,3 -3,4 -4,6 -8,10 -1,0 -2,1 -3,2 -2,2 -9,5 -11,5 0,-2 7,-8 9,-10 l 7,-6 c 1,-1 1,-1 2,-2 4,-4 2,1 2,-13 0,-7 0,-34 0,-39 1,-2 0,-4 1,-6 0,-4 0,-5 2,-6 0,2 0,2 1,3 1,4 2,13 3,18 0,3 0,11 1,15 0,1 0,16 0,20 1,2 0,1 1,3 3,-2 4,-12 12,-12 6,0 8,0 14,1 2,0 3,0 5,1 l 13,3 c 3,1 6,2 8,3 -1,2 -2,4 -2,7 0,9 2,6 -7,10 -6,3 -11,6 -17,9 -3,2 -15,9 -17,10 -1,-1 -4,-6 -6,-8 -1,-1 -3,-4 -3,-6 -1,-2 0,-4 -6,0 l -6,5 c -8,7 -24,22 -35,13 -10,-7 -10,-27 -7,-35 1,-3 2,-4 4,-6 2,-2 4,-5 5,-7 2,-5 1,-9 2,-9 5,0 6,7 6,11 0,4 -1,11 2,15 3,4 9,3 11,0 6,-9 -6,-31 -12,-37 -1,-1 -2,-2 -2,-3 -3,-2 -10,-10 -13,-10 0,-5 0,-5 2,-10 1,1 6,4 10,-7 2,-4 0,-9 4,-12 3,1 5,6 3,12 -2,4 -7,6 -7,10 v 0 z m 22,-7 c -3,0 -1,0 -2,-1 0,-1 -1,0 2,-2 l 9,-6 c 4,-1 11,-5 15,-5 -3,5 -22,14 -24,14 v 0 z m 84,24 c 0,-4 1,-4 5,-7 4,-2 14,-7 19,-9 1,-1 2,-1 4,-2 8,-3 20,-8 28,-11 9,-3 20,-8 29,-11 l 39,-12 c 2,-1 6,-2 8,-1 2,0 1,0 2,1 l -76,29 c -2,0 -3,1 -4,1 -7,3 -15,6 -21,9 -6,2 -11,4 -17,7 -4,1 -13,7 -16,6 v 0 z m 168,-93 c 2,4 9,26 10,30 1,3 2,6 3,8 1,3 1,6 2,8 1,5 4,13 4,17 -1,0 -1,0 -2,-1 -2,-1 -6,-6 -7,-7 -1,-1 -3,-5 -5,-6 0,6 4,39 5,47 0,8 2,24 2,31 1,4 2,18 2,24 l 4,47 c 0,4 0,5 0,9 l 2,32 c 0,13 -2,19 -4,31 0,6 -4,24 -7,27 -2,-4 -4,-33 -4,-37 0,-3 0,-3 0,-5 v -15 c -1,-10 -2,-19 -2,-29 l -1,-10 c 0,-3 0,-6 0,-9 l -1,-20 c 0,-1 -1,-2 -1,-4 0,-2 0,-3 0,-5 0,-7 -1,-12 -1,-19 l -2,-19 c 0,-3 0,-7 0,-10 l -2,-28 c 0,-2 -1,-3 -1,-5 l -1,-14 c 0,-3 0,-7 -1,-9 0,-3 0,-7 -1,-10 l -2,-23 c 0,-3 1,-10 3,-13 1,-3 2,-5 3,-7 1,-2 2,-5 5,-6 v 0 z m -206,23 c -10,0 -8,-11 -6,-17 l 4,-8 c 2,2 11,10 11,15 0,6 -4,10 -9,10 z m 13,33 c 1,-3 13,-9 17,-11 l 10,-4 c 23,-10 46,-19 71,-27 9,-3 17,-6 26,-9 2,0 4,-1 6,-2 3,-1 7,-2 11,-3 3,-1 21,-5 23,-4 -1,2 -7,4 -9,5 -7,3 -14,5 -20,7 -8,4 -23,8 -32,11 -7,3 -14,5 -21,7 -3,2 -7,3 -10,4 -2,1 -3,1 -5,2 -10,3 -31,11 -41,15 l -17,8 c -3,1 -6,2 -9,1 v 0 z m 46,-82 c 0,-1 0,-1 0,-2 1,0 1,-1 2,-1 4,0 17,16 19,21 0,1 0,3 1,5 1,2 3,8 -1,8 -3,0 -2,-5 -4,-9 -4,-8 -17,-18 -17,-22 z M 117,339 c 0,26 0,41 6,66 3,11 7,22 12,33 3,7 7,15 12,22 l 10,17 c 3,5 7,9 10,14 1,1 1,1 2,2 1,1 1,1 2,2 0,1 0,1 1,2 l 17,17 c 3,3 5,5 7,7 16,13 33,23 52,32 36,17 54,21 96,21 l 21,-1 c 2,-1 4,-1 7,-1 9,-1 16,-2 25,-3 17,-2 38,-11 53,-19 10,-5 22,-12 30,-20 1,0 1,-1 2,-1 1,-1 2,-1 2,-2 2,-1 3,-2 4,-3 l 15,-14 c 3,-3 6,-6 9,-9 l 7,-7 c 1,-1 1,-1 2,-2 5,-7 11,-13 15,-20 1,-2 2,-3 3,-4 1,-2 2,-3 3,-5 6,-8 11,-18 15,-28 2,-5 4,-10 6,-16 0,-2 1,-3 1,-5 3,-10 5,-20 7,-30 0,-2 0,-4 0,-6 4,-23 2,-55 -1,-77 -2,-10 -5,-19 -7,-28 -1,-2 -1,-3 -2,-5 -3,-8 -6,-18 -10,-24 -1,-2 -2,-3 -3,-5 -2,-6 -6,-12 -9,-18 l -15,-19 c -1,-1 -1,-2 -1,-2 -5,-6 -10,-11 -16,-16 l -25,-22 -13,-9 c -2,-2 -5,-3 -8,-5 -4,-3 -11,-7 -16,-8 -1,-1 -1,-1 -2,-2 l -19,-8 c -7,-3 -14,-5 -21,-7 -4,-1 -7,-2 -11,-2 -2,0 -4,-1 -6,-1 -2,-1 -4,-1 -6,-1 -15,-2 -27,-2 -41,-2 -5,0 -9,0 -13,0 -6,1 -13,2 -19,3 -9,1 -19,4 -28,6 l -30,12 c -4,1 -6,2 -9,4 l -18,10 c -3,2 -6,4 -9,6 -9,6 -18,14 -26,22 l -4,3 c 0,0 -1,0 -1,1 -2,2 -5,5 -7,8 -1,1 -1,1 -2,2 l -5,5 c -1,1 -1,1 -1,2 l -7,8 c -5,7 -9,14 -13,21 l -5,9 c -6,11 -11,22 -15,34 l -2,5 c -1,4 -2,7 -3,11 -1,4 -1,8 -2,12 -1,4 -1,7 -2,12 0,8 -1,17 -1,26 v 0 z"
   class="fil5"
   id="path16" />
  <path
   style="fill:#11623a"
   d="m 77,337 c 0,-3 0,-5 0,-7 1,-4 0,-11 1,-16 0,-3 0,-5 1,-7 0,-3 0,-6 0,-8 3,-14 7,-31 12,-45 l 7,-18 c 4,-8 8,-16 12,-24 9,-16 20,-31 32,-45 5,-7 11,-14 18,-19 l 6,-6 c 1,-1 1,-1 2,-2 l 11,-9 c 7,-5 13,-10 19,-14 l 29,-16 c 18,-8 30,-14 51,-19 l 27,-5 c 18,-2 27,-2 45,-2 17,0 35,2 51,6 2,0 3,0 4,0 10,2 20,5 29,8 8,3 15,6 23,10 18,9 35,19 50,32 l 23,18 c 3,4 7,7 10,10 1,1 1,2 2,3 5,5 11,11 15,17 3,4 5,6 7,10 13,18 28,49 36,71 3,11 6,21 8,32 l 3,26 c 0,1 0,3 0,4 1,6 1,14 1,20 0,2 0,2 0,4 0,3 0,5 -1,8 0,3 0,11 -1,15 0,6 -1,10 -2,15 -1,9 -2,19 -5,28 0,1 -1,2 -1,3 -3,11 -8,24 -12,34 -1,2 -2,4 -3,6 l -2,6 c -1,1 -2,3 -3,5 l -6,11 c -1,1 -2,3 -3,5 -8,11 -15,23 -25,33 -5,6 -14,17 -20,22 l -13,11 c -2,2 -3,3 -5,4 -12,10 -26,19 -40,26 -14,8 -37,18 -54,22 -1,0 -1,1 -3,1 -16,4 -33,7 -50,8 -10,1 -21,1 -31,1 l -19,-2 c -10,-1 -20,-3 -29,-5 -12,-3 -23,-6 -35,-10 -1,-1 -1,-1 -3,-2 -6,-2 -12,-4 -17,-7 l -22,-12 c -10,-7 -20,-12 -29,-20 l -9,-8 c -5,-3 -16,-14 -19,-18 -1,-1 -1,-1 -2,-2 l -4,-5 c -11,-11 -20,-24 -29,-38 l -3,-5 C 107,467 102,458 98,449 88,426 84,409 79,384 l -1,-15 c -1,-5 -1,-10 -1,-16 -1,-2 0,-5 -1,-8 v -8 0 z M 316,48 c -5,0 -10,10 -16,10 0,0 -2,-1 -3,-1 -1,0 -2,-1 -3,-2 l -3,-2 c -8,-5 -10,11 -19,11 -5,0 -11,-7 -16,-3 -3,3 -5,12 -9,12 -8,0 -12,-8 -19,1 -6,8 -1,10 -11,9 -11,-1 -13,-5 -16,7 -1,4 -1,8 -6,8 -4,0 -8,-1 -12,-1 -8,0 -4,17 -12,17 -12,0 -15,-3 -17,8 0,3 0,7 -2,9 -3,3 -7,1 -11,2 -9,2 -4,11 -10,16 -4,3 -16,3 -16,9 0,7 5,14 -4,16 -2,1 -5,1 -7,2 -8,2 -4,8 -4,16 0,7 -16,6 -16,13 0,12 5,14 -6,19 -14,7 -3,13 -3,20 0,6 -15,7 -15,13 0,6 12,12 5,18 -4,3 -10,7 -10,11 0,6 11,9 3,17 v 1 c 0,0 0,0 0,0 l -2,2 c -7,6 -6,8 -2,15 8,12 3,9 -7,21 2,3 6,7 9,10 6,8 -6,13 -6,20 0,4 11,8 11,11 1,3 -2,6 -3,8 -2,2 -6,8 -3,11 2,2 12,6 12,9 0,7 -6,11 -6,17 0,4 15,6 15,12 0,5 -7,11 -2,17 3,3 12,4 12,10 0,5 -4,12 1,16 1,1 2,1 4,2 9,4 7,9 8,18 0,4 2,6 6,7 3,0 8,0 9,3 3,7 -5,16 7,18 3,1 9,1 11,2 5,5 0,17 7,19 4,1 9,0 12,1 3,2 3,6 4,10 1,9 9,5 17,8 7,3 4,17 10,17 17,0 16,-8 20,12 1,1 1,3 1,4 4,0 7,-1 10,-2 3,-1 8,-3 10,-1 4,2 5,15 9,15 5,0 8,-4 13,-5 7,0 10,13 17,13 5,0 10,-7 15,-1 1,0 1,0 1,1 l 8,11 9,-6 c 2,-2 7,-6 9,-6 0,1 1,2 2,4 l 3,4 c 1,1 1,2 2,3 5,6 7,3 12,-1 1,-1 5,-6 6,-7 2,0 11,11 14,13 2,-1 3,-2 4,-3 1,-1 2,-2 3,-3 9,-9 9,-6 18,1 2,1 3,2 5,2 3,0 10,-10 14,-10 5,0 9,5 14,5 5,0 9,-11 14,-11 2,0 6,2 8,2 7,3 8,3 12,-4 1,-1 2,-1 2,-3 3,-5 1,-5 15,-1 6,2 6,2 9,-4 5,-9 2,-12 13,-9 9,3 12,2 14,-8 2,-11 20,0 23,-11 1,-5 0,-11 6,-11 4,0 7,1 12,1 5,0 5,-7 5,-11 1,-7 3,-7 10,-8 5,-1 10,-1 11,-6 1,-6 -2,-10 3,-13 4,-3 9,-2 13,-5 4,-3 -1,-16 5,-19 2,-1 6,-1 8,-2 7,-1 5,-5 5,-16 0,-1 0,-1 1,-2 1,-1 1,-1 2,-2 2,-2 6,-3 10,-4 9,-5 -4,-17 3,-22 5,-3 16,-3 12,-12 -2,-4 -3,-8 -3,-13 0,-1 2,-1 4,-2 17,-8 5,-13 5,-23 0,-4 6,-7 9,-10 l 1,-1 c 4,-6 -9,-12 -5,-18 3,-5 10,-8 12,-12 l -9,-11 c -2,-1 -3,-2 -4,-4 2,-1 5,-5 7,-7 l 7,-8 c -2,-3 -12,-12 -12,-14 l 12,-13 -7,-6 c -1,-1 -3,-2 -4,-3 -1,-2 -3,-3 -3,-5 0,-4 7,-10 7,-14 0,-3 -5,-6 -7,-8 -4,-3 -7,-9 -2,-14 5,-7 3,-7 -4,-12 -4,-4 -7,-3 -7,-7 0,-8 8,-15 -1,-19 -12,-6 -13,-5 -9,-14 0,-2 1,-5 2,-7 0,-9 -17,-4 -17,-11 0,-15 7,-16 -9,-20 -5,-1 -7,-4 -7,-9 0,-17 -12,-8 -17,-16 -2,-4 0,-10 -3,-14 -2,-3 -9,-2 -13,-3 -11,-3 0,-19 -14,-19 -6,0 -12,1 -14,-7 -3,-13 -10,-6 -18,-9 -3,-1 -4,-2 -5,-5 -1,-2 -2,-4 -3,-6 -3,-8 -9,-3 -17,-3 -9,0 -4,-18 -20,-12 -5,2 -8,4 -11,-1 -4,-6 -3,-14 -12,-10 -13,5 -12,8 -19,-2 -6,-10 -8,-6 -18,-1 -1,1 -2,2 -4,2 -6,0 -8,-15 -17,-9 -1,0 -2,1 -3,2 -2,1 -5,3 -8,3 -3,0 -11,-9 -14,-11 -4,4 -7,10 -12,12 -7,2 -12,-8 -16,-8 v 0 z"
   class="fil5"
   id="path18" />
  <path
   style="fill:#11623a"
   d="m 239,340 c 4,2 13,-3 17,-5 l 6,-4 c 1,-1 2,-1 2,-2 -3,0 -5,1 -7,2 -2,1 -4,1 -6,2 l -3,2 c -3,1 -7,3 -9,5 z"
   class="fil5"
   id="path26" />
  <path
   style="fill:#11623a"
   d="m 236,315 c 0,2 0,2 2,2 4,2 22,2 27,2 -1,-1 -3,-1 -5,-2 -5,-1 -17,-4 -21,-3 -2,1 -2,1 -3,1 z"
   class="fil5"
   id="path24" />
  <path
   style="fill:#11623a"
   d="m 236,328 c 2,1 15,3 15,-2 0,-2 -9,-1 -11,-1 -2,0 -3,1 -4,3 z"
   class="fil5"
   id="path29" />
  <path
   style="fill:#11623a"
   d="m 178,321 c 0,3 6,1 8,-2 1,-2 1,-2 1,-4 0,-4 -9,1 -9,6 z"
   class="fil5"
   id="path28" />
  <path
   style="fill:#11623a"
   d="m 216,383 c 0,2 3,4 5,4 4,0 6,-6 -2,-6 -1,0 -3,0 -3,2 z"
   class="fil5"
   id="path30" />
  <path
   style="fill:#11623a"
   d="m 253,205 c 0,4 8,7 8,1 0,-3 -8,-3 -8,-1 z"
   class="fil5"
   id="path32" />
  <path
   style="fill:#11623a"
   d="m 228,385 c 0,2 2,5 4,5 3,-2 2,-6 -2,-6 -1,0 -2,0 -2,1 z"
   class="fil5"
   id="path34" />
 </g>
</svg>