<?xml version="1.0" encoding="UTF-8" standalone="no"?>
<svg
   xmlns:dc="http://purl.org/dc/elements/1.1/"
   xmlns:cc="http://creativecommons.org/ns#"
   xmlns:rdf="http://www.w3.org/1999/02/22-rdf-syntax-ns#"
   xmlns:svg="http://www.w3.org/2000/svg"
   xmlns="http://www.w3.org/2000/svg"
   id="svg156"
   viewBox="0 0 688.00002 683"
   style="clip-rule:evenodd;fill-rule:evenodd;image-rendering:optimizeQuality;shape-rendering:geometricPrecision;text-rendering:geometricPrecision"
   version="1.1"
   height="0.68333101in"
   width="0.68833345in"
   xml:space="preserve"><metadata
   id="metadata160"><rdf:RDF><cc:Work
       rdf:about=""><dc:format>image/svg+xml</dc:format><dc:type
         rdf:resource="http://purl.org/dc/dcmitype/StillImage" /></cc:Work></rdf:RDF></metadata>
 <defs
   id="defs21">
  <style
   id="style2"
   type="text/css">
   <![CDATA[
    .fil74 {fill:none}
    .fil75 {fill:#FEFEFE}
    .fil1 {fill:#003333}
    .fil2 {fill:#014221}
    .fil76 {fill:#EB6B71}
    .fil72 {fill:white}
    .fil3 {fill:#11623A;fill-rule:nonzero}
    .fil4 {fill:#13643A;fill-rule:nonzero}
    .fil5 {fill:#15663A;fill-rule:nonzero}
    .fil6 {fill:#16673B;fill-rule:nonzero}
    .fil7 {fill:#18693B;fill-rule:nonzero}
    .fil8 {fill:#1A6B3B;fill-rule:nonzero}
    .fil9 {fill:#1A6D3B;fill-rule:nonzero}
    .fil10 {fill:#1C6E3B;fill-rule:nonzero}
    .fil11 {fill:#1D703B;fill-rule:nonzero}
    .fil12 {fill:#1F703B;fill-rule:nonzero}
    .fil13 {fill:#1F723B;fill-rule:nonzero}
    .fil14 {fill:#21723B;fill-rule:nonzero}
    .fil15 {fill:#21743B;fill-rule:nonzero}
    .fil16 {fill:#23753B;fill-rule:nonzero}
    .fil17 {fill:#23753D;fill-rule:nonzero}
    .fil18 {fill:#24773D;fill-rule:nonzero}
    .fil19 {fill:#26773D;fill-rule:nonzero}
    .fil20 {fill:#26793D;fill-rule:nonzero}
    .fil21 {fill:#28793D;fill-rule:nonzero}
    .fil22 {fill:#287B3D;fill-rule:nonzero}
    .fil23 {fill:#2A7C3D;fill-rule:nonzero}
    .fil24 {fill:#2A7E3D;fill-rule:nonzero}
    .fil25 {fill:#2B7E3D;fill-rule:nonzero}
    .fil26 {fill:#2D803D;fill-rule:nonzero}
    .fil27 {fill:#2F823D;fill-rule:nonzero}
    .fil28 {fill:#2F833D;fill-rule:nonzero}
    .fil29 {fill:#31833F;fill-rule:nonzero}
    .fil30 {fill:#31853F;fill-rule:nonzero}
    .fil31 {fill:#33853F;fill-rule:nonzero}
    .fil32 {fill:#34873F;fill-rule:nonzero}
    .fil33 {fill:#36893F;fill-rule:nonzero}
    .fil34 {fill:#388A3F;fill-rule:nonzero}
    .fil35 {fill:#388C3F;fill-rule:nonzero}
    .fil36 {fill:#3A8C3F;fill-rule:nonzero}
    .fil37 {fill:#3B8E3F;fill-rule:nonzero}
    .fil38 {fill:#3B903F;fill-rule:nonzero}
    .fil39 {fill:#3D913F;fill-rule:nonzero}
    .fil40 {fill:#3D933F;fill-rule:nonzero}
    .fil41 {fill:#3F9341;fill-rule:nonzero}
    .fil42 {fill:#3F9541;fill-rule:nonzero}
    .fil43 {fill:#419541;fill-rule:nonzero}
    .fil44 {fill:#429741;fill-rule:nonzero}
    .fil45 {fill:#449941;fill-rule:nonzero}
    .fil46 {fill:#449A41;fill-rule:nonzero}
    .fil47 {fill:#469A42;fill-rule:nonzero}
    .fil48 {fill:#469C42;fill-rule:nonzero}
    .fil49 {fill:#489C42;fill-rule:nonzero}
    .fil50 {fill:#499E42;fill-rule:nonzero}
    .fil51 {fill:#4BA042;fill-rule:nonzero}
    .fil52 {fill:#4BA142;fill-rule:nonzero}
    .fil53 {fill:#4DA342;fill-rule:nonzero}
    .fil54 {fill:#4FA542;fill-rule:nonzero}
    .fil55 {fill:#50A542;fill-rule:nonzero}
    .fil56 {fill:#50A742;fill-rule:nonzero}
    .fil57 {fill:#52A842;fill-rule:nonzero}
    .fil58 {fill:#54AA44;fill-rule:nonzero}
    .fil59 {fill:#56AC44;fill-rule:nonzero}
    .fil60 {fill:#57AE44;fill-rule:nonzero}
    .fil61 {fill:#59AF44;fill-rule:nonzero}
    .fil62 {fill:#5BB144;fill-rule:nonzero}
    .fil63 {fill:#5DB344;fill-rule:nonzero}
    .fil64 {fill:#5DB544;fill-rule:nonzero}
    .fil65 {fill:#5EB644;fill-rule:nonzero}
    .fil66 {fill:#60B644;fill-rule:nonzero}
    .fil67 {fill:#60B844;fill-rule:nonzero}
    .fil68 {fill:#62B846;fill-rule:nonzero}
    .fil69 {fill:#62BA46;fill-rule:nonzero}
    .fil70 {fill:#64BA46;fill-rule:nonzero}
    .fil71 {fill:#64BC46;fill-rule:nonzero}
    .fil73 {fill:url(#id1)}
    .fil0 {fill:url(#id2);fill-opacity:0.600000}
   ]]>
  </style>
     <clipPath
   id="id0">
      <path
   id="path4"
   d="m 345,217 c 45,0 81,37 81,82 0,45 -36,82 -81,82 -45,0 -81,-37 -81,-82 0,-45 36,-82 81,-82 z" />
     </clipPath>
  <linearGradient
   y2="433.996"
   x2="63.755901"
   y1="505.42099"
   x1="10.1102"
   gradientUnits="userSpaceOnUse"
   id="id1">
   <stop
   id="stop7"
   style="stop-opacity:1; stop-color:#009BCA"
   offset="0" />
   <stop
   id="stop9"
   style="stop-opacity:1; stop-color:#47B8D9"
   offset="0.54902" />
   <stop
   id="stop11"
   style="stop-opacity:1; stop-color:#47B8D9"
   offset="0.560784" />
   <stop
   id="stop13"
   style="stop-opacity:1; stop-color:#8ED6E9"
   offset="1" />
  </linearGradient>
  <radialGradient
   fy="287"
   fx="358.01599"
   r="341.66501"
   cy="287"
   cx="358.01599"
   gradientTransform="matrix(1.37296,0,0,1.38391,-134,-110)"
   gradientUnits="userSpaceOnUse"
   id="id2">
   <stop
   id="stop16"
   style="stop-opacity:1; stop-color:white"
   offset="0" />
   <stop
   id="stop18"
   style="stop-opacity:1; stop-color:#2CC970"
   offset="1" />
  </radialGradient>
 </defs>
 <g
   transform="translate(5)"
   id="Layer_x0020_1">
  <metadata
   id="CorelCorpID_0Corel-Layer" />
  <path
   style="fill:url(#id2);fill-opacity:0.6"
   d="M 683,342 C 683,153 532,0 344,0 157,0 5,153 5,342 5,530 157,683 344,683 532,683 683,530 683,342 Z"
   class="fil0"
   id="circle17" />
  <g
   id="_1743178407264">
   <path
   style="fill:#003333"
   d="M 373,641 638,291 V 237 L 373,584 43,405 v 49 c 0,5 0,10 4,12 l 325,174 z"
   class="fil1"
   id="path19" />
   <path
   style="fill:#014221"
   d="M 306,108 646,295 375,652 36,465 c 0,0 -12,-38 0,-68 0,0 14,-5 16,-8 2,-2 184,-189 254,-281 z"
   class="fil2"
   id="path21" />
   <path
   style="fill:#003333"
   d="m 44,402 v 49 c 0,5 -1,10 4,12 l 4,2 c -3,-2 -3,-7 -3,-11 v -49 c 0,-2 -3,-2 -5,-3 z"
   class="fil1"
   id="path23" />
   <g
   id="g205">
    <polygon
   style="fill:#11623a;fill-rule:nonzero"
   points="306,40 646,226 375,584 36,397 "
   class="fil3"
   id="polygon25" />
    <path
   style="fill:#11623a;fill-rule:nonzero"
   d="m 469,383 c -51,92 -149,134 -219,95 -71,-39 -87,-146 -37,-238 50,-91 149,-134 219,-94 71,39 87,146 37,237 z"
   class="fil3"
   id="path27" />
    <path
   style="fill:#13643a;fill-rule:nonzero"
   d="m 467,382 c -50,91 -147,133 -216,94 -70,-39 -86,-144 -37,-235 50,-90 147,-133 217,-93 70,39 86,144 36,234 z"
   class="fil4"
   id="path29" />
    <path
   style="fill:#13643a;fill-rule:nonzero"
   d="m 466,381 c -50,90 -145,131 -214,93 -69,-38 -85,-142 -36,-232 49,-89 145,-131 214,-92 69,38 85,142 36,231 z"
   class="fil4"
   id="path31" />
    <path
   style="fill:#15663a;fill-rule:nonzero"
   d="m 464,380 c -48,89 -143,130 -211,92 -69,-38 -84,-141 -36,-230 49,-87 144,-129 212,-90 68,38 84,141 35,228 z"
   class="fil5"
   id="path33" />
    <path
   style="fill:#16673b;fill-rule:nonzero"
   d="m 463,380 c -48,88 -142,128 -209,90 -68,-37 -83,-139 -35,-227 48,-87 142,-128 209,-89 67,37 83,139 35,226 z"
   class="fil6"
   id="path35" />
    <path
   style="fill:#16673b;fill-rule:nonzero"
   d="m 462,379 c -48,87 -141,126 -207,89 -67,-37 -82,-137 -35,-224 48,-86 140,-126 207,-89 67,37 82,138 35,224 z"
   class="fil6"
   id="path37" />
    <path
   style="fill:#18693b;fill-rule:nonzero"
   d="m 460,378 c -47,86 -139,125 -204,89 -66,-37 -81,-136 -34,-222 47,-85 138,-125 204,-88 66,37 81,136 34,221 z"
   class="fil7"
   id="path39" />
    <path
   style="fill:#18693b;fill-rule:nonzero"
   d="m 459,377 c -47,85 -137,124 -202,88 -65,-36 -80,-135 -34,-219 47,-84 137,-124 202,-87 65,36 80,134 34,218 z"
   class="fil7"
   id="path41" />
    <path
   style="fill:#1a6b3b;fill-rule:nonzero"
   d="m 457,376 c -46,84 -135,122 -199,87 -65,-36 -79,-133 -34,-217 46,-82 136,-122 200,-85 64,36 79,133 33,215 z"
   class="fil8"
   id="path43" />
    <path
   style="fill:#1a6b3b;fill-rule:nonzero"
   d="m 456,376 c -46,82 -134,120 -197,85 -64,-35 -78,-131 -33,-214 45,-82 133,-120 197,-84 63,35 78,131 33,213 z"
   class="fil8"
   id="path45" />
    <path
   style="fill:#1a6d3b;fill-rule:nonzero"
   d="m 454,375 c -44,82 -132,119 -194,84 -63,-35 -77,-129 -33,-211 45,-81 132,-119 195,-83 63,35 77,129 32,210 z"
   class="fil9"
   id="path47" />
    <path
   style="fill:#1c6e3b;fill-rule:nonzero"
   d="m 453,374 c -44,81 -130,118 -192,83 -62,-34 -76,-127 -32,-208 44,-80 130,-118 192,-82 62,34 76,127 32,207 z"
   class="fil10"
   id="path49" />
    <path
   style="fill:#1c6e3b;fill-rule:nonzero"
   d="m 451,373 c -43,80 -128,116 -189,82 -61,-33 -75,-126 -32,-205 44,-79 129,-116 190,-82 61,34 75,127 31,205 z"
   class="fil10"
   id="path51" />
    <path
   style="fill:#1d703b;fill-rule:nonzero"
   d="m 450,372 c -43,79 -127,115 -187,82 -60,-34 -74,-125 -31,-204 43,-77 126,-114 187,-80 60,34 74,125 31,202 z"
   class="fil11"
   id="path53" />
    <path
   style="fill:#1f703b;fill-rule:nonzero"
   d="m 449,372 c -43,77 -126,113 -185,80 -60,-33 -73,-123 -31,-201 43,-76 125,-113 185,-79 59,33 73,123 31,200 z"
   class="fil12"
   id="path55" />
    <path
   style="fill:#1f723b;fill-rule:nonzero"
   d="m 447,371 c -42,77 -123,111 -182,79 -59,-33 -72,-121 -30,-198 41,-76 123,-111 182,-78 58,33 72,121 30,197 z"
   class="fil13"
   id="path57" />
    <path
   style="fill:#21723b;fill-rule:nonzero"
   d="m 446,370 c -42,76 -122,110 -180,78 -58,-32 -71,-120 -30,-195 41,-75 122,-109 180,-77 58,32 71,119 30,194 z"
   class="fil14"
   id="path59" />
    <path
   style="fill:#21743b;fill-rule:nonzero"
   d="m 444,369 c -41,75 -120,109 -177,77 -57,-31 -70,-118 -30,-192 41,-74 121,-108 178,-76 57,31 70,118 29,191 z"
   class="fil15"
   id="path61" />
    <path
   style="fill:#23753b;fill-rule:nonzero"
   d="m 443,368 c -40,74 -119,108 -175,76 -56,-31 -69,-116 -29,-190 40,-72 118,-106 175,-74 56,31 69,116 29,188 z"
   class="fil16"
   id="path63" />
    <path
   style="fill:#23753d;fill-rule:nonzero"
   d="m 441,368 c -39,72 -116,105 -172,75 -56,-31 -68,-115 -29,-188 40,-71 117,-104 173,-74 55,31 68,115 28,187 z"
   class="fil17"
   id="path65" />
    <path
   style="fill:#24773d;fill-rule:nonzero"
   d="m 440,367 c -39,71 -115,104 -170,74 -55,-31 -67,-113 -28,-185 39,-71 115,-103 170,-73 54,31 67,113 28,184 z"
   class="fil18"
   id="path67" />
    <path
   style="fill:#26773d;fill-rule:nonzero"
   d="m 438,366 c -38,71 -113,103 -167,73 -54,-30 -66,-112 -28,-182 39,-70 114,-102 168,-72 54,30 66,112 27,181 z"
   class="fil19"
   id="path69" />
    <path
   style="fill:#26793d;fill-rule:nonzero"
   d="m 437,365 c -38,70 -112,101 -165,72 -53,-30 -65,-110 -27,-179 38,-69 111,-101 165,-71 53,29 65,110 27,178 z"
   class="fil20"
   id="path71" />
    <path
   style="fill:#28793d;fill-rule:nonzero"
   d="m 436,365 c -38,68 -111,99 -163,70 -52,-29 -64,-108 -27,-177 37,-67 110,-98 163,-69 52,29 64,108 27,176 z"
   class="fil21"
   id="path73" />
    <path
   style="fill:#287b3d;fill-rule:nonzero"
   d="m 434,364 c -37,67 -108,98 -160,69 -51,-28 -63,-106 -27,-174 37,-66 109,-97 160,-68 52,28 64,106 27,173 z"
   class="fil22"
   id="path75" />
    <path
   style="fill:#2a7c3d;fill-rule:nonzero"
   d="m 433,363 c -36,66 -107,97 -158,68 -51,-28 -62,-105 -26,-171 36,-65 107,-96 157,-67 51,28 63,105 27,170 z"
   class="fil23"
   id="path77" />
    <path
   style="fill:#2a7c3d;fill-rule:nonzero"
   d="m 431,362 c -35,66 -105,95 -155,68 -50,-28 -61,-104 -26,-169 36,-65 105,-94 155,-67 50,28 62,104 26,168 z"
   class="fil23"
   id="path79" />
    <path
   style="fill:#2a7e3d;fill-rule:nonzero"
   d="m 430,361 c -35,65 -104,94 -153,67 -49,-28 -60,-102 -25,-166 35,-64 103,-93 152,-66 50,28 61,102 26,165 z"
   class="fil24"
   id="path81" />
    <path
   style="fill:#2b7e3d;fill-rule:nonzero"
   d="m 428,361 c -34,63 -101,92 -150,65 -48,-27 -59,-100 -25,-164 35,-62 102,-91 150,-64 49,27 60,100 25,163 z"
   class="fil25"
   id="path83" />
    <path
   style="fill:#2d803d;fill-rule:nonzero"
   d="m 427,360 c -34,62 -100,90 -148,64 -47,-26 -58,-98 -24,-161 34,-61 100,-89 147,-63 48,26 59,98 25,160 z"
   class="fil26"
   id="path85" />
    <path
   style="fill:#2d803d;fill-rule:nonzero"
   d="m 426,359 c -34,61 -99,89 -146,63 -47,-26 -57,-97 -24,-158 33,-60 99,-88 145,-62 47,26 58,97 25,157 z"
   class="fil26"
   id="path87" />
    <path
   style="fill:#2f823d;fill-rule:nonzero"
   d="m 424,358 c -33,60 -97,88 -143,62 -46,-25 -56,-95 -23,-155 32,-60 96,-87 142,-61 46,25 57,95 24,154 z"
   class="fil27"
   id="path89" />
    <path
   style="fill:#2f833d;fill-rule:nonzero"
   d="m 423,357 c -33,60 -95,87 -141,61 -45,-26 -55,-93 -23,-151 32,-60 95,-87 140,-62 46,26 56,94 24,152 z"
   class="fil28"
   id="path91" />
    <path
   style="fill:#31833f;fill-rule:nonzero"
   d="m 421,357 c -31,58 -93,84 -138,60 -44,-26 -54,-92 -23,-150 32,-58 94,-84 138,-60 45,25 55,92 23,150 z"
   class="fil29"
   id="path93" />
    <path
   style="fill:#31853f;fill-rule:nonzero"
   d="m 420,356 c -31,57 -92,83 -136,59 -43,-25 -53,-91 -22,-147 31,-57 92,-83 135,-59 44,24 54,91 23,147 z"
   class="fil30"
   id="path95" />
    <path
   style="fill:#33853f;fill-rule:nonzero"
   d="m 418,355 c -30,56 -90,82 -133,58 -42,-25 -52,-89 -22,-144 31,-56 90,-82 133,-58 43,24 53,89 22,144 z"
   class="fil31"
   id="path97" />
    <path
   style="fill:#34873f;fill-rule:nonzero"
   d="m 417,354 c -30,55 -89,80 -131,57 -42,-24 -51,-87 -21,-141 30,-55 88,-80 130,-57 42,23 52,87 22,141 z"
   class="fil32"
   id="path99" />
    <path
   style="fill:#34873f;fill-rule:nonzero"
   d="m 416,353 c -30,55 -87,79 -129,56 -41,-24 -50,-85 -21,-138 30,-55 87,-79 128,-56 41,23 51,85 22,138 z"
   class="fil32"
   id="path101" />
    <path
   style="fill:#36893f;fill-rule:nonzero"
   d="m 414,353 c -29,53 -85,77 -125,54 -41,-23 -50,-83 -21,-136 28,-53 85,-77 125,-54 41,22 50,83 21,136 z"
   class="fil33"
   id="path103" />
    <path
   style="fill:#36893f;fill-rule:nonzero"
   d="m 413,352 c -29,52 -84,75 -123,53 -40,-23 -49,-82 -21,-133 28,-52 83,-76 123,-54 40,22 49,83 21,134 z"
   class="fil33"
   id="path105" />
    <path
   style="fill:#388a3f;fill-rule:nonzero"
   d="m 411,351 c -28,51 -82,74 -120,53 -39,-23 -48,-81 -21,-131 28,-51 82,-74 121,-53 39,22 48,81 20,131 z"
   class="fil34"
   id="path107" />
    <path
   style="fill:#388c3f;fill-rule:nonzero"
   d="m 410,350 c -27,50 -80,73 -118,52 -38,-22 -47,-79 -20,-128 27,-50 80,-73 118,-52 38,21 47,79 20,128 z"
   class="fil35"
   id="path109" />
    <path
   style="fill:#3a8c3f;fill-rule:nonzero"
   d="m 408,349 c -26,49 -78,72 -115,51 -38,-22 -46,-77 -20,-125 27,-50 79,-72 116,-51 37,21 46,77 19,125 z"
   class="fil36"
   id="path111" />
    <path
   style="fill:#3b8e3f;fill-rule:nonzero"
   d="m 407,349 c -26,48 -77,69 -113,49 -37,-21 -45,-76 -19,-123 26,-48 77,-69 113,-49 37,20 45,76 19,123 z"
   class="fil37"
   id="path113" />
    <path
   style="fill:#3b903f;fill-rule:nonzero"
   d="m 405,348 c -25,47 -75,68 -110,48 -36,-21 -44,-74 -19,-120 26,-47 75,-68 111,-48 36,19 44,74 18,120 z"
   class="fil38"
   id="path115" />
    <path
   style="fill:#3b903f;fill-rule:nonzero"
   d="m 404,347 c -25,45 -73,67 -108,46 -35,-19 -43,-71 -18,-116 24,-46 73,-67 108,-47 35,19 43,72 18,117 z"
   class="fil38"
   id="path117" />
    <path
   style="fill:#3d913f;fill-rule:nonzero"
   d="m 403,346 c -25,44 -72,65 -106,46 -34,-19 -42,-70 -18,-114 24,-45 72,-66 106,-47 34,19 42,71 18,115 z"
   class="fil39"
   id="path119" />
    <path
   style="fill:#3d933f;fill-rule:nonzero"
   d="m 401,345 c -24,43 -70,64 -103,45 -34,-19 -41,-69 -17,-111 23,-44 70,-64 103,-46 33,19 41,69 17,112 z"
   class="fil40"
   id="path121" />
    <path
   style="fill:#3f9341;fill-rule:nonzero"
   d="m 400,345 c -24,42 -69,62 -101,43 -33,-18 -40,-67 -17,-109 23,-43 68,-62 101,-44 32,18 40,68 17,110 z"
   class="fil41"
   id="path123" />
    <path
   style="fill:#3f9541;fill-rule:nonzero"
   d="m 398,344 c -22,41 -66,61 -98,42 -32,-18 -39,-65 -17,-106 23,-42 67,-61 99,-43 32,18 39,66 16,107 z"
   class="fil42"
   id="path125" />
    <path
   style="fill:#419541;fill-rule:nonzero"
   d="m 397,343 c -22,40 -65,59 -96,41 -31,-17 -38,-63 -16,-103 22,-41 65,-59 96,-42 31,17 38,64 16,104 z"
   class="fil43"
   id="path127" />
    <path
   style="fill:#429741;fill-rule:nonzero"
   d="m 395,342 c -21,39 -63,58 -93,40 -30,-16 -37,-61 -16,-100 22,-40 64,-58 94,-41 30,16 37,62 15,101 z"
   class="fil44"
   id="path129" />
    <path
   style="fill:#429741;fill-rule:nonzero"
   d="m 394,341 c -21,38 -62,57 -91,39 -30,-16 -36,-60 -15,-98 21,-38 61,-56 91,-40 29,17 36,62 15,99 z"
   class="fil44"
   id="path131" />
    <path
   style="fill:#449941;fill-rule:nonzero"
   d="m 393,341 c -21,36 -61,54 -89,38 -29,-16 -35,-59 -15,-96 20,-38 60,-54 89,-39 28,16 35,60 15,97 z"
   class="fil45"
   id="path133" />
    <path
   style="fill:#449a41;fill-rule:nonzero"
   d="m 391,340 c -20,36 -58,52 -86,37 -28,-16 -34,-57 -14,-93 19,-37 58,-53 86,-38 28,16 34,58 14,94 z"
   class="fil46"
   id="path135" />
    <path
   style="fill:#469a42;fill-rule:nonzero"
   d="m 390,339 c -20,35 -57,51 -84,36 -27,-15 -33,-55 -14,-90 19,-36 57,-52 84,-37 27,15 33,56 14,91 z"
   class="fil47"
   id="path137" />
    <path
   style="fill:#469c42;fill-rule:nonzero"
   d="m 388,338 c -18,34 -55,50 -81,35 -26,-15 -32,-54 -14,-87 19,-35 56,-51 82,-36 26,14 32,54 13,88 z"
   class="fil48"
   id="path139" />
    <path
   style="fill:#489c42;fill-rule:nonzero"
   d="m 387,337 c -18,33 -54,48 -79,34 -25,-14 -31,-52 -13,-85 18,-33 53,-48 79,-34 25,15 31,53 13,85 z"
   class="fil49"
   id="path141" />
    <path
   style="fill:#499e42;fill-rule:nonzero"
   d="m 385,337 c -17,31 -51,46 -76,32 -25,-13 -30,-50 -13,-82 18,-32 52,-47 77,-33 24,14 30,51 12,83 z"
   class="fil50"
   id="path143" />
    <path
   style="fill:#499e42;fill-rule:nonzero"
   d="m 384,336 c -17,31 -50,45 -74,31 -24,-13 -29,-48 -12,-79 17,-32 50,-46 74,-33 23,15 29,50 12,81 z"
   class="fil50"
   id="path145" />
    <path
   style="fill:#4ba042;fill-rule:nonzero"
   d="m 382,335 c -16,30 -48,43 -71,31 -23,-13 -28,-48 -12,-77 17,-31 49,-44 72,-32 23,14 28,48 11,78 z"
   class="fil51"
   id="path147" />
    <path
   style="fill:#4ba142;fill-rule:nonzero"
   d="m 381,334 c -16,29 -47,42 -69,30 -22,-13 -27,-46 -11,-74 15,-30 46,-43 69,-31 22,13 27,47 11,75 z"
   class="fil52"
   id="path149" />
    <path
   style="fill:#4ba142;fill-rule:nonzero"
   d="m 380,333 c -16,28 -45,41 -67,29 -21,-12 -26,-44 -11,-72 15,-28 45,-41 67,-29 21,13 26,45 11,72 z"
   class="fil52"
   id="path151" />
    <path
   style="fill:#4da342;fill-rule:nonzero"
   d="m 378,333 c -15,26 -43,38 -64,27 -20,-11 -25,-42 -11,-69 15,-27 44,-40 64,-28 21,12 26,43 11,70 z"
   class="fil53"
   id="path153" />
    <path
   style="fill:#4da342;fill-rule:nonzero"
   d="m 377,332 c -14,25 -42,37 -62,26 -20,-11 -24,-40 -10,-66 14,-27 42,-38 61,-27 20,12 25,41 11,67 z"
   class="fil53"
   id="path155" />
    <path
   style="fill:#4fa542;fill-rule:nonzero"
   d="m 375,331 c -13,25 -40,36 -59,25 -19,-10 -23,-39 -10,-63 14,-25 40,-37 59,-25 19,10 24,39 10,63 z"
   class="fil54"
   id="path157" />
    <path
   style="fill:#50a542;fill-rule:nonzero"
   d="m 374,330 c -13,24 -39,35 -57,25 -18,-11 -22,-38 -9,-61 13,-24 38,-36 56,-25 19,11 23,38 10,61 z"
   class="fil55"
   id="path159" />
    <path
   style="fill:#50a742;fill-rule:nonzero"
   d="m 372,329 c -12,23 -36,33 -54,24 -17,-10 -21,-36 -9,-59 13,-22 37,-33 54,-23 18,10 22,36 9,58 z"
   class="fil56"
   id="path161" />
    <path
   style="fill:#52a842;fill-rule:nonzero"
   d="m 371,329 c -12,21 -35,31 -52,22 -16,-9 -20,-34 -8,-56 12,-21 35,-32 51,-22 17,9 21,34 9,56 z"
   class="fil57"
   id="path163" />
    <path
   style="fill:#52a842;fill-rule:nonzero"
   d="m 370,328 c -12,20 -34,30 -50,21 -16,-9 -19,-33 -8,-53 11,-20 33,-31 49,-21 16,9 20,32 9,53 z"
   class="fil57"
   id="path165" />
    <path
   style="fill:#54aa44;fill-rule:nonzero"
   d="m 368,327 c -11,20 -32,29 -47,20 -15,-8 -18,-31 -7,-50 10,-20 31,-29 46,-20 15,8 19,31 8,50 z"
   class="fil58"
   id="path167" />
    <path
   style="fill:#54aa44;fill-rule:nonzero"
   d="m 367,326 c -11,19 -30,27 -45,19 -14,-8 -17,-29 -7,-47 10,-19 30,-27 44,-19 15,8 18,29 8,47 z"
   class="fil58"
   id="path169" />
    <path
   style="fill:#56ac44;fill-rule:nonzero"
   d="m 365,326 c -9,17 -28,25 -42,17 -13,-7 -16,-27 -7,-45 10,-17 29,-25 42,-17 14,7 17,27 7,45 z"
   class="fil59"
   id="path171" />
    <path
   style="fill:#56ac44;fill-rule:nonzero"
   d="m 364,325 c -9,16 -27,24 -40,17 -12,-7 -15,-26 -6,-43 9,-16 27,-24 39,-17 13,7 16,26 7,43 z"
   class="fil59"
   id="path173" />
    <path
   style="fill:#57ae44;fill-rule:nonzero"
   d="m 362,324 c -8,15 -25,22 -37,16 -11,-7 -14,-25 -6,-40 9,-15 25,-22 37,-16 12,7 15,25 6,40 z"
   class="fil60"
   id="path175" />
    <path
   style="fill:#59af44;fill-rule:nonzero"
   d="m 361,323 c -8,14 -23,21 -35,15 -11,-6 -13,-23 -5,-37 8,-15 23,-21 34,-15 11,6 14,23 6,37 z"
   class="fil61"
   id="path177" />
    <path
   style="fill:#59af44;fill-rule:nonzero"
   d="m 359,322 c -7,14 -21,20 -32,14 -10,-6 -12,-21 -5,-34 7,-14 22,-20 32,-14 10,6 13,21 5,34 z"
   class="fil61"
   id="path179" />
    <path
   style="fill:#5bb144;fill-rule:nonzero"
   d="m 358,321 c -7,13 -20,18 -30,13 -9,-5 -11,-19 -4,-32 6,-12 20,-18 29,-12 10,5 12,19 5,31 z"
   class="fil62"
   id="path181" />
    <path
   style="fill:#5bb144;fill-rule:nonzero"
   d="m 357,321 c -7,11 -19,16 -27,11 -9,-5 -11,-18 -5,-29 6,-11 18,-16 27,-11 9,4 11,18 5,29 z"
   class="fil62"
   id="path183" />
    <path
   style="fill:#5db344;fill-rule:nonzero"
   d="m 355,320 c -5,10 -17,15 -24,10 -8,-4 -10,-16 -5,-26 6,-10 17,-15 25,-11 8,5 10,17 4,27 z"
   class="fil63"
   id="path185" />
    <path
   style="fill:#5db344;fill-rule:nonzero"
   d="m 354,319 c -5,9 -15,14 -22,10 -8,-4 -9,-15 -4,-24 5,-9 15,-14 22,-10 7,4 9,15 4,24 z"
   class="fil63"
   id="path187" />
    <path
   style="fill:#5db544;fill-rule:nonzero"
   d="m 352,318 c -4,8 -13,12 -19,9 -7,-4 -8,-13 -4,-21 5,-9 14,-12 20,-9 6,4 8,13 3,21 z"
   class="fil64"
   id="path189" />
    <path
   style="fill:#5eb644;fill-rule:nonzero"
   d="m 351,318 c -4,7 -12,10 -17,7 -6,-3 -7,-11 -3,-19 4,-7 11,-10 17,-7 6,3 7,11 3,19 z"
   class="fil65"
   id="path191" />
    <path
   style="fill:#60b644;fill-rule:nonzero"
   d="m 349,317 c -3,6 -10,9 -14,6 -5,-3 -6,-10 -3,-16 4,-6 10,-9 15,-6 5,2 6,10 2,16 z"
   class="fil66"
   id="path193" />
    <path
   style="fill:#60b844;fill-rule:nonzero"
   d="m 348,316 c -3,5 -8,7 -12,5 -4,-2 -5,-8 -2,-13 2,-5 8,-7 12,-5 4,2 5,8 2,13 z"
   class="fil67"
   id="path195" />
    <path
   style="fill:#62b846;fill-rule:nonzero"
   d="m 347,315 c -3,4 -7,6 -10,4 -4,-1 -4,-6 -2,-10 2,-4 7,-6 10,-4 3,1 4,6 2,10 z"
   class="fil68"
   id="path197" />
    <path
   style="fill:#62ba46;fill-rule:nonzero"
   d="m 345,314 c -2,3 -5,5 -7,3 -3,-1 -3,-4 -1,-7 1,-4 5,-5 7,-4 2,2 3,5 1,8 z"
   class="fil69"
   id="path199" />
    <path
   style="fill:#64ba46;fill-rule:nonzero"
   d="m 344,314 c -1,2 -4,3 -5,2 -2,-1 -2,-4 -1,-6 1,-2 3,-3 5,-2 1,1 2,3 1,6 z"
   class="fil70"
   id="path201" />
    <path
   style="fill:#64bc46;fill-rule:nonzero"
   d="m 342,313 c 0,1 -1,1 -2,1 -1,-1 -1,-2 -1,-3 1,-1 2,-1 3,-1 1,1 1,2 0,3 z"
   class="fil71"
   id="path203" />
   </g>
   <path
   style="fill:#ffffff"
   d="M 311,77 605,238 371,547 77,385 Z m 1,6 v 0 L 84,383 370,541 597,240 Z"
   class="fil72"
   id="path207" />
   <path
   style="fill:#ffffff"
   d="M 314,100 579,245 368,524 103,378 Z m 1,5 v 0 L 110,376 367,517 572,247 Z"
   class="fil72"
   id="path209" />
   <path
   style="fill:#ffffff"
   d="M 375,641 638,291 V 237 L 375,584 49,405 v 49 c 0,5 0,10 4,12 l 322,174 z"
   class="fil72"
   id="path211" />
   <path
   style="fill:url(#id1)"
   d="m 61,424 c -4,7 -7,14 -10,24 -14,54 -56,49 -56,49 0,0 18,16 45,4 0,0 -13,10 -29,11 0,0 49,20 58,-35 3,-22 6,-35 10,-43 L 61,424 Z"
   class="fil73"
   id="path213" />
   <line
   style="fill:none"
   y2="438"
   x2="86"
   y1="421"
   x1="55"
   class="fil74"
   id="line215" />
   <line
   style="fill:none"
   y2="463"
   x2="106"
   y1="446"
   x1="75"
   class="fil74"
   id="line217" />
   <line
   style="fill:none"
   y2="618"
   x2="375"
   y1="601"
   x1="344"
   class="fil74"
   id="line219" />
   <line
   style="fill:none"
   y2="631"
   x2="375"
   y1="614"
   x1="344"
   class="fil74"
   id="line221" />
   <line
   style="fill:none"
   y2="611"
   x2="375"
   y1="599"
   x1="353"
   class="fil74"
   id="line223" />
   <line
   style="fill:none"
   y2="624"
   x2="375"
   y1="612"
   x1="353"
   class="fil74"
   id="line225" />
   <line
   style="fill:none"
   y2="604"
   x2="375"
   y1="579"
   x1="395"
   class="fil74"
   id="line227" />
   <line
   style="fill:none"
   y2="604"
   x2="375"
   y1="587"
   x1="344"
   class="fil74"
   id="line229" />
   <line
   style="fill:none"
   y2="611"
   x2="375"
   y1="596"
   x1="386"
   class="fil74"
   id="line231" />
   <line
   style="fill:none"
   y2="618"
   x2="375"
   y1="592"
   x1="395"
   class="fil74"
   id="line233" />
   <line
   style="fill:none"
   y2="624"
   x2="375"
   y1="599"
   x1="395"
   class="fil74"
   id="line235" />
   <line
   style="fill:none"
   y2="631"
   x2="375"
   y1="610"
   x1="391"
   class="fil74"
   id="line237" />
   <line
   style="fill:none"
   y2="596"
   x2="375"
   y1="571"
   x1="395"
   class="fil74"
   id="line239" />
   <line
   style="fill:none"
   y2="596"
   x2="375"
   y1="579"
   x1="344"
   class="fil74"
   id="line241" />
   <g
   id="g152">
    <path
   style="fill:#ffffff"
   id="path138"
   d="m 377,400 c 2,-1 5,-2 7,-3 9,-4 17,-10 26,-16 4,-3 7,-6 10,-9 1,0 2,-1 2,-2 1,-1 2,-2 3,-3 1,-2 2,-3 3,-4 1,-2 3,-4 4,-5 2,-4 4,-9 6,-12 1,-2 2,-4 3,-6 1,-4 3,-8 4,-12 1,-2 1,-4 1,-6 1,-2 1,-3 1,-5 1,-1 1,-3 1,-4 0,0 0,0 0,-1 0,-2 0,-3 0,-4 1,-1 1,-3 1,-4 0,-5 0,-9 0,-13 -1,-2 -1,-4 -1,-5 0,-3 -1,-5 -1,-7 -2,-11 -5,-21 -10,-30 -3,-5 -7,-10 -11,-15 -9,-13 -21,-22 -35,-29 -34,-18 -78,-14 -112,12 -44,36 -51,103 -16,148 2,2 3,4 5,6 15,15 34,26 53,31 7,2 15,2 22,3 4,0 7,-1 10,-1 2,0 4,0 6,0 6,-1 12,-3 18,-4 z m 18,-26 c -7,5 -15,9 -23,12 -2,0 -5,1 -7,2 -2,0 -5,1 -7,1 -9,1 -19,1 -28,0 -21,-4 -41,-15 -56,-33 0,0 0,0 0,0 -31,-39 -25,-97 15,-129 26,-20 61,-24 90,-12 14,5 27,15 37,28 4,5 8,12 11,18 5,12 8,23 8,34 0,2 0,5 0,8 0,1 0,2 0,3 -1,8 -2,16 -5,23 -2,6 -5,12 -8,18 -3,6 -7,10 -11,14 -3,4 -6,7 -10,9 -2,2 -4,3 -6,4 z"
   class="fil72" />
    <path
   style="fill:#fefefe"
   id="path140"
   d="m 345,217 c 45,0 81,37 81,82 0,45 -36,82 -81,82 -45,0 -81,-37 -81,-82 0,-45 36,-82 81,-82 z"
   class="fil75" />
    <g
   id="g145"
   clip-path="url(#id0)">
     <g
   id="g143">
      <path
   style="fill:#eb6b71"
   d="m 342,350 c 0,-1 1,-3 2,-4 5,-7 9,-5 9,-1 1,1 -1,5 -3,7 -2,1 -6,-1 -8,-2 z m 21,-62 v 0 c 4,-1 7,-6 9,-7 -1,3 1,3 1,3 2,1 3,-3 1,-4 -3,-2 -4,3 -7,4 0,-3 1,-5 1,-7 -1,-3 -5,-2 -5,0 -1,1 2,2 2,3 1,1 0,4 -2,8 z m -15,-22 v 0 c 4,-1 6,-5 8,-5 0,2 1,3 1,3 3,0 3,-3 2,-4 -3,-2 -5,2 -8,3 1,-3 1,-5 1,-6 0,-4 -3,-3 -4,-1 0,2 1,3 2,3 0,2 0,4 -2,7 z m 1,-23 v 0 c 0,0 -1,0 -2,0 -2,-2 5,-5 7,-6 -14,2 -10,14 -5,6 z m 11,9 v 0 c -5,7 -9,-4 6,-6 -3,1 -10,4 -8,6 0,1 2,0 2,0 z m 21,13 v 0 c 0,0 -1,0 -1,0 -3,-1 3,-5 5,-6 -12,4 -7,12 -4,6 z m 13,36 v 0 c 0,0 -1,0 -2,0 -2,-2 4,-5 5,-6 -12,3 -7,12 -3,6 z m -43,1 v 0 c 0,0 -1,0 -2,0 -2,-2 5,-5 7,-5 -13,1 -10,11 -5,5 z m 19,4 v 0 c 0,0 -1,0 -1,0 -3,-2 4,-6 5,-7 -14,4 -8,13 -4,7 z m 11,28 v 0 c 0,0 -2,1 -2,0 -3,-1 5,-5 6,-6 -14,2 -9,13 -4,6 z m 15,21 v 0 c 0,0 -2,0 -2,0 -3,-2 5,-5 6,-6 -14,2 -9,12 -4,6 z m -42,6 v 0 c 0,0 -2,0 -2,0 -3,-2 4,-5 5,-6 -12,2 -8,13 -3,6 z m -25,7 v 0 c 0,0 -1,0 -2,0 -3,-3 4,-6 5,-7 -12,3 -6,13 -3,7 z m -50,-49 v 0 c 0,0 -1,0 -2,0 -2,-1 3,-5 4,-6 -11,3 -5,11 -2,6 z m -3,-31 v 0 c 0,0 -2,0 -2,0 -2,-3 4,-5 6,-6 -12,1 -9,11 -4,6 z m 13,19 v 0 c 3,-1 5,-4 7,-5 0,2 1,3 1,3 3,0 3,-3 2,-4 -3,-2 -5,2 -8,3 1,-2 1,-4 1,-6 0,-3 -3,-2 -3,0 -1,1 1,2 1,3 0,1 0,3 -1,6 z m 106,8 v 0 c 1,1 1,1 1,2 -1,1 -2,1 -2,1 0,-1 0,-2 1,-3 z m 18,9 v 0 l -3,8 c -1,2 -2,5 -4,6 v -4 c -10,9 -17,20 -29,30 -4,4 -7,7 -12,8 4,-4 9,-9 13,-13 8,-9 20,-21 28,-30 3,-4 1,-4 7,-5 z m -51,5 v 0 c 1,0 4,0 5,0 1,1 1,3 1,4 v 2 c 0,0 1,0 2,0 1,0 1,0 2,0 1,2 0,6 0,7 -7,2 -4,-1 -5,-6 h -5 c -1,-1 -1,-4 -1,-5 0,-1 1,-2 1,-2 z m -46,-56 v 0 c -1,2 -1,5 0,7 1,0 3,0 4,0 1,2 0,4 1,7 1,1 3,1 5,1 0,-3 0,-8 0,-9 -1,0 -2,1 -5,0 0,-1 1,-4 0,-6 -1,0 -4,0 -5,0 z m 47,-43 v 0 c 3,1 5,2 8,4 l 14,8 c 2,2 5,4 7,4 -2,-3 -18,-13 -21,-14 -1,-1 -2,-2 -4,-2 -1,-1 -2,-1 -3,0 v 0 z m -36,18 v 0 c 1,0 1,1 1,1 0,1 0,1 -1,2 0,-1 -1,-3 0,-3 z m -36,43 v 0 c 0,1 -1,5 -2,3 0,0 -1,-1 -1,-1 0,-3 3,-3 5,-3 2,0 12,6 14,7 2,1 6,3 7,4 -2,1 -8,-2 -12,-4 -2,-1 -3,-2 -5,-3 -2,-1 -4,-2 -6,-3 z m 21,71 v 0 c 2,-3 2,-5 2,-6 -1,-1 -2,-2 -2,-4 1,-2 4,-3 4,1 0,2 0,4 -1,6 3,-1 5,-5 8,-3 1,2 1,5 -2,4 0,0 -1,-1 -1,-3 -2,1 -4,4 -8,5 z m 1,-45 v 0 c 1,-2 1,-2 3,-3 1,2 1,3 0,5 -1,0 -2,-1 -3,-2 z m -5,-45 v 0 c -2,0 -3,2 -6,2 0,-1 4,-6 1,-7 -3,-1 -4,2 -2,4 0,1 -2,6 -2,6 3,-1 7,-3 9,-4 1,-1 1,0 1,0 0,7 5,-4 -1,-1 z m 84,5 v 0 c 0,1 1,1 1,2 0,4 -3,2 -4,0 z m -58,60 v 0 c 1,1 2,1 2,1 2,1 3,2 4,2 2,0 2,-1 1,-2 -5,-1 -2,-5 -1,-3 3,3 4,-1 -1,-2 -3,0 -2,2 -3,4 -1,0 -1,-1 -3,0 z m -44,-66 v 0 c 0,0 -2,0 -2,0 -3,-2 5,-5 6,-5 -13,0 -9,11 -4,5 z m 61,44 v 0 c 1,1 4,2 5,2 4,2 4,2 6,2 -2,-2 -4,-2 -6,-3 -4,-2 -3,-2 -5,-1 z m 58,-67 v 0 c -28,-36 -80,-41 -116,-14 -34,29 -40,81 -12,116 28,36 79,42 115,13 36,-27 41,-80 13,-115 z m -4,3 v 0 c -26,-34 -75,-39 -109,-13 -32,27 -38,76 -12,110 27,33 75,39 109,12 34,-26 39,-76 12,-109 z m -12,25 v 0 c -1,0 -4,1 -5,2 -1,2 0,4 2,4 4,2 7,-3 3,-6 z m -76,37 v 0 c -1,1 -4,1 -5,3 -2,1 0,3 2,4 4,2 6,-3 3,-7 z m 7,-62 v 0 c -3,1 -13,0 -16,-1 -2,0 -5,-1 -7,-1 2,1 5,1 7,2 5,1 6,2 11,2 1,0 1,0 2,0 1,0 1,0 2,0 0,0 0,0 1,0 v 0 c 1,2 0,2 0,3 2,-1 3,-2 3,-4 1,-1 3,-2 4,-3 1,-2 -4,-6 -6,-1 -1,1 -1,2 -1,3 z m 58,73 v 0 c -4,5 -6,6 -11,8 0,0 0,0 0,0 -1,0 5,-6 6,-6 2,-2 3,-4 5,-7 -2,-1 -5,-1 -8,-3 2,0 8,2 9,2 7,-6 17,-17 23,-25 3,-3 5,-6 9,-5 v 0 c -1,4 -5,10 -7,13 v -4 l -20,21 c 1,1 3,1 4,0 0,-1 1,-3 2,-4 2,-1 7,1 3,5 -2,1 -2,0 -5,2 -1,0 0,-1 -2,-1 -1,0 -2,0 -3,0 -1,0 -4,3 -5,4 z m -58,-19 v 0 c 2,1 1,2 0,3 -1,-1 -1,-2 0,-3 z m -44,-41 v 0 c 3,-2 7,-3 11,-4 5,-1 1,0 10,3 9,3 27,4 33,7 0,1 0,3 0,4 0,6 0,19 -4,23 -2,-1 -5,-1 -8,-3 -16,-9 -20,-15 -39,-17 -8,0 -8,-9 -3,-13 z m 53,-33 v 0 c -3,0 -8,0 -10,2 -2,0 -5,2 -4,4 0,2 2,0 4,2 -1,1 -4,1 -5,1 -6,0 -3,-2 -9,-1 -6,1 -12,3 -14,8 -1,2 -2,3 -1,5 2,7 36,13 41,12 -1,-3 -1,-27 -2,-33 z m -42,23 v 0 c 1,2 1,2 1,3 -1,1 -3,1 -4,2 -6,1 -11,4 -13,9 -2,5 -1,11 5,13 1,0 4,0 4,1 -6,6 -10,11 -10,17 1,8 7,13 12,18 -5,8 -10,19 5,21 3,1 7,1 11,1 l 6,1 c 6,1 10,2 16,6 2,1 11,6 12,7 0,1 0,2 -1,3 v 4 c -1,6 7,12 12,12 8,0 15,-10 22,-16 6,-7 13,-13 19,-20 4,-3 7,-7 10,-11 4,-3 7,-7 11,-10 0,1 -1,2 0,4 1,-2 3,-5 4,-7 l 2,-7 c -1,1 -3,0 -4,2 -15,15 -29,31 -43,45 -2,2 -16,17 -17,17 -3,1 -15,-6 -11,-14 1,-1 2,0 3,0 13,2 21,-15 12,-17 -2,0 -4,0 -6,1 -5,2 -7,6 -10,9 -1,0 -7,-3 -8,-4 -10,-5 -16,-8 -28,-8 -29,0 -18,-17 -15,-17 2,0 27,18 37,6 3,-3 5,-10 7,-11 1,1 0,2 1,3 1,-1 1,-2 1,-3 l 1,-8 c -1,0 -2,0 -4,1 -1,1 -1,1 -2,2 -2,5 -4,11 -7,15 -2,4 -4,1 -6,1 -1,0 -2,-1 -3,-1 -2,-1 -4,-1 -6,-2 -4,-1 -11,-4 -13,-6 2,-2 6,-3 9,-3 8,0 5,-1 6,-5 2,1 7,2 9,2 1,0 2,0 3,1 0,1 0,1 0,2 2,0 2,-1 2,-3 3,-1 5,-2 5,-5 -1,-2 -3,-2 -5,-1 -3,2 -2,3 -2,4 -2,1 -5,0 -7,0 -5,-1 -4,0 -6,-2 -7,-1 -5,0 -6,5 -2,1 -7,2 -10,3 -3,1 -11,-9 -12,-15 -1,-5 0,-9 4,-14 2,-2 3,-3 6,-2 13,2 21,13 32,16 2,1 5,2 7,1 6,-3 9,-10 9,-17 0,-1 0,0 0,-1 2,-4 0,29 1,34 0,1 1,4 1,5 0,1 -9,10 -11,12 -2,1 -4,2 -5,3 1,0 4,-1 5,-1 3,-2 6,-4 9,-6 1,-1 3,-4 4,-5 3,1 9,8 17,4 5,-4 12,-12 15,-16 7,-7 14,-15 21,-22 2,-2 4,-6 7,-8 0,1 0,1 0,2 0,1 0,1 1,3 2,-3 5,-12 6,-15 -3,0 -6,4 -8,6 -2,3 -5,5 -7,9 -12,12 -23,24 -35,36 -2,2 -3,2 -5,2 -3,-1 -5,-2 -7,-6 l 29,-30 c 1,2 0,3 1,4 2,-2 6,-12 6,-14 -3,1 -2,0 -5,3 -11,11 -22,23 -33,33 -2,-3 -1,-11 -1,-14 0,-6 -1,-24 0,-26 4,3 8,8 8,14 1,2 1,4 1,5 1,0 3,-1 4,-3 2,-1 1,-2 1,-3 -1,-10 4,-16 11,-23 l 1,3 c 1,-1 4,-9 4,-10 -12,2 -15,15 -20,19 -4,-5 -7,-7 -11,-9 -1,-1 -1,-2 -1,-3 l -2,-27 c 0,-3 -1,-7 -1,-10 v 0 c 7,1 55,30 59,39 1,2 0,4 -3,4 -5,0 -17,-3 -22,0 1,1 3,0 4,1 2,0 2,0 3,0 1,0 1,0 2,0 h 7 c 1,0 1,0 1,0 0,0 0,0 1,0 2,0 6,0 9,-1 4,-2 5,-4 3,-8 -7,-8 -52,-36 -61,-38 -3,-1 -8,4 -9,5 0,0 -7,0 -9,0 -3,1 -6,1 -9,4 -1,1 -2,3 -3,3 -10,1 -22,5 -21,17 z"
   class="fil76"
   id="1" />
     </g>
    </g>
    <path
   style="fill:none"
   id="path148"
   d="m 345,217 c 45,0 81,37 81,82 0,45 -36,82 -81,82 -45,0 -81,-37 -81,-82 0,-45 36,-82 81,-82 z"
   class="fil74" />
    <path
   style="fill:#ffffff"
   id="path150"
   d="m 377,400 c 2,-1 5,-2 7,-3 9,-4 17,-10 26,-16 4,-3 7,-6 10,-9 1,0 2,-1 2,-2 1,-1 2,-2 3,-3 1,-2 2,-3 3,-4 1,-2 3,-4 4,-5 2,-4 4,-9 6,-12 1,-2 2,-4 3,-6 1,-4 3,-8 4,-12 1,-2 1,-4 1,-6 1,-2 1,-3 1,-5 1,-1 1,-3 1,-4 0,0 0,0 0,-1 0,-2 0,-3 0,-4 1,-1 1,-3 1,-4 0,-5 0,-9 0,-13 -1,-2 -1,-4 -1,-5 0,-3 -1,-5 -1,-7 -2,-11 -5,-21 -10,-30 -3,-5 -7,-10 -11,-15 -9,-13 -21,-22 -35,-29 -34,-18 -78,-14 -112,12 -44,36 -51,103 -16,148 2,2 3,4 5,6 15,15 34,26 53,31 7,2 15,2 22,3 4,0 7,-1 10,-1 2,0 4,0 6,0 6,-1 12,-3 18,-4 z m 18,-26 c -7,5 -15,9 -23,12 -2,0 -5,1 -7,2 -2,0 -5,1 -7,1 -9,1 -19,1 -28,0 -21,-4 -41,-15 -56,-33 0,0 0,0 0,0 -31,-39 -25,-97 15,-129 26,-20 61,-24 90,-12 14,5 27,15 37,28 4,5 8,12 11,18 5,12 8,23 8,34 0,2 0,5 0,8 0,1 0,2 0,3 -1,8 -2,16 -5,23 -2,6 -5,12 -8,18 -3,6 -7,10 -11,14 -3,4 -6,7 -10,9 -2,2 -4,3 -6,4 z"
   class="fil72" />
   </g>
  </g>
 </g>
</svg>