<?xml version="1.0" encoding="UTF-8" standalone="no"?>
<svg
   xmlns:dc="http://purl.org/dc/elements/1.1/"
   xmlns:cc="http://creativecommons.org/ns#"
   xmlns:rdf="http://www.w3.org/1999/02/22-rdf-syntax-ns#"
   xmlns:svg="http://www.w3.org/2000/svg"
   xmlns="http://www.w3.org/2000/svg"
   id="svg41"
   viewBox="0 0 1048.6841 1036.3176"
   style="clip-rule:evenodd;fill-rule:evenodd;image-rendering:optimizeQuality;shape-rendering:geometricPrecision;text-rendering:geometricPrecision"
   version="1.1"
   height="1.0363078in"
   width="1.04835in"
   xml:space="preserve"><metadata
   id="metadata45"><rdf:RDF><cc:Work
       rdf:about=""><dc:format>image/svg+xml</dc:format><dc:type
         rdf:resource="http://purl.org/dc/dcmitype/StillImage" /></cc:Work></rdf:RDF></metadata>
 <defs
   id="defs4">
  <style
   id="style2"
   type="text/css">
   <![CDATA[
    .fil1 {fill:#FEFEFE}
    .fil0 {fill:#A8518A}
   ]]>
  </style>
 </defs>
 <g
   transform="translate(-1.6309014,-1.5242398)"
   id="Layer_x0020_1">
  <metadata
   id="CorelCorpID_0Corel-Layer" />
  <g
   id="_3242086890112">
   <g
   id="g23">
    <g
   id="g11">
     <g
   id="g9">
      <path
   style="fill:#a8518a"
   id="path7"
   d="M 451,638 421,624 357,498 c -15,-30 -60,-36 -85,-12 l -31,-61 c -15,-30 -60,-36 -85,-12 -4,-6 -8,-26 -34,-35 -43,-14 -85,24 -66,61 v 0 c -34,-2 -63,27 -52,60 0,2 -2,-2 24,50 4,7 13,10 21,7 7,-3 11,-11 8,-18 -7,-14 -15,-29 -24,-47 -3,-9 2,-20 13,-24 11,-4 24,1 29,11 1,3 58,113 58,113 16,33 44,48 64,68 15,13 36,17 55,12 5,0 26,-12 26,-17 2,-4 1,-10 -4,-14 0,0 -7,-6 -6,-6 -15,-14 -31,-20 -31,-39 0,-6 3,-13 4,-14 1,-2 3,-4 5,-6 7,1 4,-1 92,41 104,49 98,46 104,50 49,32 41,79 42,83 v 53 67 H 323 v -52 c 0,-11 -6,-22 -17,-29 -41,-28 -89,-23 -129,-59 -24,-23 -45,-32 -56,-60 -2,-6 1,1 -40,-81 -3,-7 -12,-10 -20,-7 -8,3 -11,11 -8,18 40,81 37,74 39,79 12,29 29,41 62,70 47,41 98,38 134,62 7,5 2,8 4,72 0,29 0,101 0,125 0,17 16,31 37,31 h 149 c 20,0 37,-14 37,-31 0,-24 0,-95 0,-125 V 738 c 0,-44 -28,-82 -64,-100 z m -214,8 c -6,0 -13,-2 -18,-6 -65,-61 -27,0 -135,-212 -2,-5 -2,-10 0,-14 6,-16 31,-16 38,-1 l 86,170 c -10,38 26,59 29,63 z m -10,-92 c 0,0 0,0 0,0 L 175,451 c -8,-15 9,-31 26,-25 6,2 10,5 12,10 l 49,97 v 0 c 0,1 0,1 11,21 -16,-7 -33,-10 -46,0 z m 90,21 -26,-53 c -6,-14 10,-28 27,-23 5,2 9,6 11,10 l 48,94 z m 167,432 c 0,2 -3,4 -6,4 H 329 c -4,0 -6,-2 -6,-4 v -37 h 161 z m 0,-64 H 323 v -47 h 161 z"
   class="fil0" />
     </g>
    </g>
    <g
   id="g17">
     <g
   id="g15">
      <path
   style="fill:#a8518a"
   id="path13"
   d="m 996,439 v 0 c 19,-37 -23,-75 -66,-61 -26,9 -30,29 -34,35 -25,-24 -70,-18 -86,12 l -30,61 c -25,-24 -71,-18 -86,12 l -64,126 -29,14 c -36,18 -64,56 -64,100 v 144 c 0,29 0,101 0,125 0,17 17,31 37,31 h 149 c 20,0 37,-14 37,-31 0,-24 0,-95 0,-125 1,-64 -3,-67 4,-72 36,-24 87,-21 133,-62 33,-29 51,-41 62,-70 2,-5 -1,2 40,-79 3,-7 0,-15 -8,-18 -8,-3 -17,0 -21,7 -40,82 -37,75 -40,81 -11,28 -31,37 -55,60 -41,36 -88,31 -130,59 -10,7 -16,18 -16,29 v 52 H 568 c 0,-13 0,-109 0,-120 1,-4 -8,-51 41,-83 7,-4 1,-1 105,-50 88,-42 85,-40 91,-41 2,2 4,4 6,6 0,1 4,8 4,14 0,19 -17,25 -31,39 1,0 -6,6 -7,6 -4,4 -5,10 -3,14 0,5 20,17 25,17 19,5 41,1 55,-12 20,-20 48,-35 65,-68 l 33,-66 c 31,-60 23,-43 25,-47 4,-10 18,-15 29,-11 11,4 16,15 13,24 -9,18 -17,33 -24,47 -3,7 0,15 8,18 8,3 17,0 20,-7 27,-52 25,-48 25,-50 11,-33 -19,-62 -52,-60 z M 568,896 h 161 v 47 H 568 Z m 0,74 h 161 v 37 c 0,2 -3,4 -6,4 H 574 c -3,0 -6,-2 -6,-4 z m 193,-448 -27,53 -59,28 48,-94 c 2,-4 6,-8 11,-10 17,-5 33,9 27,23 z m 18,32 c 10,-20 10,-20 11,-21 v 0 l 49,-97 c 2,-5 6,-8 11,-10 18,-6 34,10 27,25 l -52,103 c 0,0 0,0 0,0 -14,-10 -31,-7 -46,0 z M 968,428 c -108,212 -71,151 -136,212 -4,4 -11,6 -17,6 3,-4 39,-25 29,-63 l 86,-170 c 7,-15 31,-15 38,1 2,4 2,9 0,14 z"
   class="fil0" />
     </g>
    </g>
    <polygon
   style="fill:#a8518a"
   id="polygon19"
   points="1028,541 999,599 972,586 998,533 "
   class="fil0" />
    <polygon
   style="fill:#a8518a"
   id="polygon21"
   points="89,603 54,532 26,545 59,611 "
   class="fil0" />
   </g>
   <g
   id="g37">
    <rect
   style="fill:#a8518a"
   id="rect25"
   height="378"
   width="378"
   y="70"
   x="338"
   class="fil0" />
    <rect
   style="fill:#a8518a"
   y="0"
   x="0"
   id="rect27"
   height="5990"
   width="5990"
   transform="matrix(0.0422811,0.0422811,-0.0422811,0.0422811,526.941,1.36193)"
   class="fil0" />
    <g
   id="g35">
     <g
   id="g33">
      <path
   style="fill:#fefefe"
   id="path29"
   d="m 622,206 v -4 l -2,-18 -3,2 c -1,1 -2,2 -3,3 -18,15 -18,15 -14,41 v 1 c 3,22 3,46 3,68 0,6 0,11 0,17 v 4 l 3,-3 c 22,-25 18,-78 16,-111 z"
   class="fil1" />
      <path
   style="fill:#fefefe"
   id="path31"
   d="m 577,240 c 0,-2 1,-4 1,-6 0,-19 0,-38 -5,-48 l -1,-2 -1,2 c -3,2 -5,4 -6,6 -9,9 -11,11 -8,27 2,9 8,47 -3,61 -3,3 -6,4 -10,4 v 0 c -1,0 -2,0 -3,0 -9,-1 -9,-27 -8,-49 0,-20 1,-39 -4,-49 l -1,-2 -2,2 c -2,2 -4,4 -6,6 -9,9 -11,11 -7,27 4,21 3,42 2,59 -1,4 -6,6 -11,6 -4,0 -7,-1 -9,-3 -7,-8 -8,-19 -9,-31 -1,-10 -2,-21 -8,-29 l -1,-2 c 0,0 -6,1 -7,8 -2,6 -1,17 -21,29 -2,1 -5,3 -7,4 -14,10 -13,20 -12,25 3,10 15,18 26,18 9,0 17,-5 21,-15 5,13 20,24 32,24 5,0 13,-2 17,-13 3,9 10,13 19,13 15,0 33,-14 33,-33 0,-7 0,-17 0,-24 0,-10 0,-14 -1,-15 z m -110,40 c -2,1 -3,1 -5,1 -3,0 -8,-1 -15,-7 7,-6 15,-11 24,-13 1,5 -1,17 -4,19 z"
   class="fil1" />
     </g>
    </g>
   </g>
  </g>
 </g>
</svg>