<?xml version="1.0" encoding="UTF-8" standalone="no"?>
<svg
   xmlns:dc="http://purl.org/dc/elements/1.1/"
   xmlns:cc="http://creativecommons.org/ns#"
   xmlns:rdf="http://www.w3.org/1999/02/22-rdf-syntax-ns#"
   xmlns:svg="http://www.w3.org/2000/svg"
   xmlns="http://www.w3.org/2000/svg"
   id="svg21"
   viewBox="0 0 395.99998 474.27935"
   style="clip-rule:evenodd;fill-rule:evenodd;image-rendering:optimizeQuality;shape-rendering:geometricPrecision;text-rendering:geometricPrecision"
   version="1.1"
   height="0.47460437in"
   width="0.39567015in"
   xml:space="preserve"><metadata
   id="metadata25"><rdf:RDF><cc:Work
       rdf:about=""><dc:format>image/svg+xml</dc:format><dc:type
         rdf:resource="http://purl.org/dc/dcmitype/StillImage" /></cc:Work></rdf:RDF></metadata>
 <defs
   id="defs4">
  <style
   id="style2"
   type="text/css">
   <![CDATA[
    .fil0 {fill:#F58634}
   ]]>
  </style>
 </defs>
 <g
   transform="translate(-7,-4.3669628)"
   id="Layer_x0020_1">
  <metadata
   id="CorelCorpID_0Corel-Layer" />
  <g
   id="_3242082806176">
   <g
   id="g15">
    <path
   style="fill:#f58634"
   id="path7"
   d="m 51,415 c 0,3 2,5 5,5 h 294 c 3,0 5,-2 5,-5 0,-3 -2,-5 -5,-5 H 56 c -3,0 -5,2 -5,5 z"
   class="fil0" />
    <path
   style="fill:#f58634"
   id="path9"
   d="M 350,428 H 56 c -3,0 -5,2 -5,5 0,3 2,5 5,5 h 294 c 3,0 5,-2 5,-5 0,-3 -2,-5 -5,-5 z"
   class="fil0" />
    <path
   style="fill:#f58634"
   id="path11"
   d="M 398,4 H 52 C 27,4 7,24 7,48 v 375 c 0,42 29,56 54,56 h 337 c 3,0 5,-2 5,-5 V 9 c 0,-2 -2,-5 -5,-5 z M 61,470 c -7,0 -44,-3 -44,-47 V 48 C 17,29 32,14 52,14 h 4 v 303 c 0,3 3,5 5,5 3,0 5,-2 5,-5 V 14 H 393 V 370 H 66 v -15 c 0,-3 -2,-5 -5,-5 -2,0 -5,2 -5,5 v 15 h -1 c -8,0 -17,3 -25,8 -2,2 -3,5 -1,7 1,1 3,2 4,2 1,0 2,0 3,-1 6,-4 13,-7 19,-7 h 338 v 10 H 373 351 63 c -19,0 -35,16 -35,34 0,19 16,34 35,34 h 310 c 2,0 5,-2 5,-5 v -53 h 15 v 71 z m 290,-71 h 17 v 48 H 63 c -14,0 -25,-10 -25,-24 0,-13 11,-24 25,-24 z"
   class="fil0" />
    <path
   style="fill:#f58634"
   id="path13"
   d="m 56,314 v 50 h 10 v -51 c 0,0 -10,0 -10,1 z"
   class="fil0" />
   </g>
   <path
   style="fill:#f58634"
   id="path17"
   d="m 366,183 c 0,-1 0,-1 -1,-2 -1,-1 -1,-1 -2,-2 -4,-4 -9,-6 -13,-6 -9,0 -14,8 -20,17 -2,3 -4,6 -6,9 -2,2 -6,3 -9,3 -8,0 -17,-4 -21,-8 14,-2 16,-5 22,-19 l 2,-5 -4,2 c 0,0 -13,3 -24,3 -5,0 -9,-1 -12,-2 -2,-1 -5,-2 -8,-4 -9,-4 -19,-9 -26,-9 -3,0 -5,0 -7,2 -4,3 -15,20 -13,27 1,2 3,3 5,3 1,0 1,0 2,0 h 1 v -1 c 3,-5 6,-7 11,-7 6,0 13,3 20,5 1,1 2,2 4,2 -9,4 -22,10 -35,10 -2,0 -5,-1 -8,-1 -6,-1 -11,-7 -17,-12 -6,-6 -15,-13 -22,-13 -6,1 -14,12 -14,12 -5,7 -10,13 -16,13 0,0 -1,0 -1,0 -9,-2 -11,-12 -13,-22 -1,-9 -3,-18 -9,-23 l -1,-2 -2,2 c -1,1 -2,3 -3,4 -7,9 -8,10 -2,22 0,1 1,2 1,3 1,1 1,2 2,3 2,3 5,9 4,11 0,1 -1,1 -2,2 -3,1 -10,3 -17,3 -2,0 -5,-1 -6,-1 -5,-2 -6,-6 -6,-6 v -2 h -2 c -5,0 -6,10 -7,21 -1,1 -1,2 -1,3 v 1 l 1,1 c 5,4 11,7 18,7 11,0 22,-7 27,-16 4,8 10,12 17,12 6,0 12,-3 17,-9 5,7 11,12 18,12 5,0 11,-2 17,-12 6,7 13,11 22,11 19,0 41,-16 55,-25 1,-1 1,-1 1,-1 6,11 20,26 34,26 4,0 10,-2 15,-10 7,7 13,10 19,10 v 0 c 6,0 11,-4 15,-10 7,-11 7,-23 0,-32 z m -171,22 c -4,0 -12,-2 -14,-6 0,-1 -1,-2 1,-4 1,-2 2,-3 3,-3 2,0 4,1 6,3 2,3 5,7 5,10 0,0 0,0 -1,0 z m 161,0 c -5,0 -12,-2 -14,-6 -1,-1 -1,-2 0,-4 1,-2 2,-3 4,-3 1,0 3,1 5,3 3,3 5,7 5,10 0,0 0,0 0,0 z"
   class="fil0" />
  </g>
 </g>
</svg>