<?xml version="1.0" encoding="UTF-8" standalone="no"?>
<svg
   xmlns:dc="http://purl.org/dc/elements/1.1/"
   xmlns:cc="http://creativecommons.org/ns#"
   xmlns:rdf="http://www.w3.org/1999/02/22-rdf-syntax-ns#"
   xmlns:svg="http://www.w3.org/2000/svg"
   xmlns="http://www.w3.org/2000/svg"
   id="svg46"
   viewBox="0 0 553.51974 670.41534"
   style="clip-rule:evenodd;fill-rule:evenodd;image-rendering:optimizeQuality;shape-rendering:geometricPrecision;text-rendering:geometricPrecision"
   version="1.1"
   height="0.67040747in"
   width="0.55385107in"
   xml:space="preserve"><metadata
   id="metadata50"><rdf:RDF><cc:Work
       rdf:about=""><dc:format>image/svg+xml</dc:format><dc:type
         rdf:resource="http://purl.org/dc/dcmitype/StillImage" /></cc:Work></rdf:RDF></metadata>
 <defs
   id="defs4">
  <style
   id="style2"
   type="text/css">
   <![CDATA[
    .str0 {stroke:#11623A;stroke-width:20.8307}
    .fil1 {fill:none}
    .fil5 {fill:#089E53}
    .fil6 {fill:#0C9450}
    .fil4 {fill:#11623A}
    .fil3 {fill:#11623A}
    .fil0 {fill:#157D49}
    .fil2 {fill:#E7ECED}
    .fil7 {fill:#EBF0F3}
   ]]>
  </style>
 </defs>
 <g
   transform="translate(0.8312526,-1.58465)"
   id="Layer_x0020_1">
  <metadata
   id="CorelCorpID_0Corel-Layer" />
  <g
   id="_1743178447264">
   <rect
   style="fill:#157d49"
   y="0"
   x="0"
   id="rect7"
   height="119.118"
   width="61.2677"
   transform="matrix(0.539156,0.522283,-0.522283,0.539156,494.421,129.651)"
   class="fil0" />
   <ellipse
   style="fill:none;stroke:#11623a;stroke-width:20.83069992"
   id="ellipse9"
   ry="38"
   rx="39"
   cy="50"
   cx="271"
   class="fil1 str0" />
   <rect
   style="fill:#157d49"
   id="rect11"
   ry="36"
   rx="26"
   height="90.705002"
   width="51.489101"
   y="60"
   x="245"
   class="fil0" />
   <circle
   style="fill:#e7eced"
   id="circle13"
   r="244"
   cy="395"
   cx="271"
   class="fil2" />
   <g
   id="g17">
    <path
   style="fill:#11623a"
   id="path15"
   d="M 271,167 C 400,167 504,272 504,401 504,530 400,635 271,635 142,635 37,530 37,401 37,272 142,167 271,167 Z m 0,-37 C 121,130 -1,251 -1,401 -1,551 121,672 271,672 420,672 542,551 542,401 542,251 420,130 271,130 Z"
   class="fil3" />
   </g>
   <g
   id="_1743178450240">
    <path
   style="fill:#157d49"
   id="path19"
   d="m 271,185 c -6,0 -10,4 -10,9 v 10 c 0,5 4,9 10,9 5,0 9,-4 9,-9 v -10 c 0,-5 -4,-9 -9,-9 z"
   class="fil0" />
    <path
   style="fill:#157d49"
   id="path21"
   d="m 271,587 c -6,0 -10,4 -10,9 v 10 c 0,5 4,9 10,9 5,0 9,-4 9,-9 v -10 c 0,-5 -4,-9 -9,-9 z"
   class="fil0" />
    <path
   style="fill:#157d49"
   id="path23"
   d="m 476,391 h -9 c -5,0 -9,4 -9,9 0,5 4,9 9,9 h 9 c 6,0 10,-4 10,-9 0,-5 -4,-9 -10,-9 z"
   class="fil0" />
    <path
   style="fill:#157d49"
   id="path25"
   d="m 74,391 h -9 c -5,0 -9,4 -9,9 0,5 4,9 9,9 h 9 c 5,0 10,-4 10,-9 0,-5 -5,-9 -10,-9 z"
   class="fil0" />
    <path
   style="fill:#157d49"
   id="path27"
   d="m 410,248 -7,7 c -4,3 -4,9 0,13 2,2 4,3 7,3 2,0 4,-1 6,-3 l 7,-7 c 3,-3 3,-9 0,-13 -4,-4 -10,-4 -13,0 z"
   class="fil0" />
    <path
   style="fill:#157d49"
   id="path29"
   d="m 125,532 -6,7 c -4,4 -4,10 0,13 1,2 4,3 6,3 3,0 5,-1 7,-3 l 6,-6 c 4,-4 4,-10 0,-14 -3,-3 -9,-3 -13,0 z"
   class="fil0" />
    <path
   style="fill:#157d49"
   id="path31"
   d="m 416,532 c -4,-3 -9,-3 -13,0 -4,4 -4,10 0,14 l 7,6 c 1,2 4,3 6,3 3,0 5,-1 7,-3 3,-3 3,-9 0,-13 z"
   class="fil0" />
    <path
   style="fill:#157d49"
   id="path33"
   d="m 132,248 c -4,-4 -10,-4 -13,0 -4,4 -4,10 0,13 l 6,7 c 2,2 4,3 7,3 2,0 5,-1 6,-3 4,-4 4,-10 0,-13 z"
   class="fil0" />
   </g>
   <rect
   style="fill:#11623a"
   y="0"
   x="0"
   id="rect36"
   ry="21"
   rx="21"
   height="110.614"
   width="42.543301"
   transform="matrix(0.682826,-0.676795,0.676795,0.682826,457.289,124.02)"
   class="fil4" />
   <path
   style="fill:#089e53"
   id="path38"
   d="m 370,295 c -53,-53 -138,-53 -190,0 -47,47 -52,118 -16,170 41,61 123,78 186,37 71,-48 79,-148 20,-207 z"
   class="fil5" />
   <path
   style="fill:#0c9450"
   id="path40"
   d="m 394,327 c -2,-2 -4,-4 -6,-5 -16,-7 -34,-10 -51,-10 -102,0 -166,108 -119,197 1,2 3,4 5,5 42,17 89,13 127,-12 59,-40 75,-116 44,-175 z"
   class="fil6" />
   <path
   style="fill:#ebf0f3"
   id="path42"
   d="m 263,350 c 11,-11 29,-3 29,12 0,6 5,11 11,11 6,0 11,-5 11,-11 0,-18 -12,-33 -28,-38 v -7 c 0,-6 -5,-11 -11,-11 -6,0 -11,5 -11,11 v 7 c -19,6 -31,25 -27,45 3,12 11,22 23,27 l 22,9 c 10,4 13,17 5,25 -10,11 -29,3 -29,-12 0,-6 -5,-11 -11,-11 -6,0 -11,5 -11,11 0,17 11,33 28,37 v 8 c 0,6 5,11 11,11 6,0 11,-5 11,-11 v -8 c 6,-1 12,-5 16,-9 20,-19 13,-52 -12,-62 l -22,-9 c -10,-4 -13,-17 -5,-25 z"
   class="fil7" />
  </g>
 </g>
</svg>