<?xml version="1.0" encoding="utf-8"?>
<!-- Generator: Adobe Illustrator 16.0.0, SVG Export Plug-In . SVG Version: 6.00 Build 0)  -->
<!DOCTYPE svg PUBLIC "-//W3C//DTD SVG 1.1//EN" "http://www.w3.org/Graphics/SVG/1.1/DTD/svg11.dtd">
<svg version="1.1" id="Layer_1" xmlns="http://www.w3.org/2000/svg" xmlns:xlink="http://www.w3.org/1999/xlink" x="0px" y="0px"
	 width="811.574px" height="560px" viewBox="0 0 811.574 560" enable-background="new 0 0 811.574 560" xml:space="preserve">
<g>
	<linearGradient id="SVGID_1_" gradientUnits="userSpaceOnUse" x1="396.1055" y1="94.1763" x2="133.3174" y2="549.3386">
		<stop  offset="0" style="stop-color:#2EC425"/>
		<stop  offset="0.1756" style="stop-color:#2CBE27"/>
		<stop  offset="0.4049" style="stop-color:#28AE2B"/>
		<stop  offset="0.6638" style="stop-color:#209332"/>
		<stop  offset="0.9427" style="stop-color:#156E3D"/>
		<stop  offset="1" style="stop-color:#13653F"/>
	</linearGradient>
	<path fill="url(#SVGID_1_)" d="M390.704,413.345l0.329-1.12l-0.119-276.957c0.294-2.483,0.436-8.915-4.575-14.988
		c-5.81-7.031-16.111-10.6-30.623-10.6c-8.462,0-15.648,1.14-21.416,3.396l-0.035-37.485c0.225-2.137,0.526-9.628-5.08-16.199
		c-5.27-6.164-13.746-9.294-25.17-9.294c-6.092,0-11.495,0.892-16.111,2.652l-0.015-7.027c0.296-2.471,0.448-8.88-4.574-14.992
		c-5.811-7.031-16.112-10.596-30.608-10.596c-14.82,0-25.543,3.421-31.886,10.164c-5.775,6.14-5.664,12.732-5.636,13.354v9.357
		c-5.256-1.934-11.669-2.912-19.135-2.912c-14.828,0-25.564,3.421-31.914,10.168c-6.105,6.462-5.628,13.336-5.62,13.336v109.582
		c-1.615-0.41-3.138-0.688-4.598-0.835c-20.418-2.115-34.53,14.374-35.071,15.021l-1.936,2.266v181.634l54.697,54.695v19.423
		h-54.697v84.479h16.161v-68.318H374.88v68.318h16.153v-84.479h-28.378l-0.048-11.501
		C382.522,438.819,389.896,416.034,390.704,413.345z M374.88,409.791c-1.438,3.974-7.727,18.952-20.371,18.952h-8.111l0.113,26.644
		H187.762v-26.124l-54.689-54.699V205.923c3.248-2.955,10.573-8.315,19.233-7.509c9.731,0.958,19.282,9.46,28.391,25.262v94.226
		l82.451,0.769c3.396,1.302,16.538,7.326,28.125,26.3l1.331,2.176l13.769-8.425l-1.318-2.172
		c-16.448-26.96-36.203-33.128-38.398-33.742l-69.792-0.895v-82.475l-1.018-1.797c-6.448-11.623-13.55-20.489-21.177-26.44V73.51
		c0.021-1.533,3.726-7.262,21.381-7.262c8.912,0,15.486,1.68,18.033,4.606c0.941,1.08,1.094,2.122,1.151,2.631l-0.147,0.758
		l0.105,145.89l16.161-0.035l-0.016-176.547c0.022-1.533,3.728-7.267,21.368-7.267c8.918,0,15.501,1.681,18.055,4.617
		c1.22,1.39,1.13,2.698,1.136,2.632l-0.139,0.758l0.104,175.82h16.146l-0.015-27.311h0.015V73.482c0-0.074,0.063-1.772,1.684-3.39
		c2.478-2.48,7.559-3.845,14.322-3.845c6.245,0,10.799,1.263,12.828,3.561c1.543,1.74,1.381,3.888,1.389,3.898l-0.113,0.67
		l0.084,145.734h16.161l-0.015-87.029c0.029-1.529,3.755-7.238,21.367-7.238c8.94,0,15.523,1.674,18.068,4.593
		c1.215,1.386,1.117,2.673,1.138,2.631l-0.14,0.755L374.88,409.791z"/>
	<linearGradient id="SVGID_2_" gradientUnits="userSpaceOnUse" x1="170.333" y1="491.1621" x2="155.3621" y2="517.0925">
		<stop  offset="0" style="stop-color:#2EC425"/>
		<stop  offset="0.1756" style="stop-color:#2CBE27"/>
		<stop  offset="0.4049" style="stop-color:#28AE2B"/>
		<stop  offset="0.6638" style="stop-color:#209332"/>
		<stop  offset="0.9427" style="stop-color:#156E3D"/>
		<stop  offset="1" style="stop-color:#13653F"/>
	</linearGradient>
	<rect x="151.891" y="493.166" fill="url(#SVGID_2_)" width="21.914" height="21.922"/>
	<linearGradient id="SVGID_3_" gradientUnits="userSpaceOnUse" x1="699.0449" y1="88.8506" x2="434.1215" y2="547.7114">
		<stop  offset="0" style="stop-color:#2EC425"/>
		<stop  offset="0.1756" style="stop-color:#2CBE27"/>
		<stop  offset="0.4049" style="stop-color:#28AE2B"/>
		<stop  offset="0.6638" style="stop-color:#209332"/>
		<stop  offset="0.9427" style="stop-color:#156E3D"/>
		<stop  offset="1" style="stop-color:#13653F"/>
	</linearGradient>
	<path fill="url(#SVGID_3_)" d="M694.663,381.269V199.628l-1.93-2.245c-0.554-0.663-14.777-17.174-35.071-15.034
		c-1.474,0.147-2.982,0.421-4.61,0.835L653.03,74.036c0.084-1.758-0.099-7.939-5.6-13.768c-6.351-6.75-17.087-10.171-31.913-10.171
		c-7.48,0-13.901,0.979-19.171,2.916v-8.873c0.049-0.755,0.309-7.562-5.593-13.827c-6.33-6.754-17.059-10.179-31.906-10.179
		c-14.497,0-24.784,3.562-30.581,10.586c-4.982,6.066-4.869,12.5-4.61,14.696l-0.007,7.33c-4.617-1.758-10.014-2.649-16.111-2.649
		c-11.438,0-19.9,3.13-25.164,9.294c-5.408,6.33-5.36,13.424-5.101,15.933l-0.021,37.752c-5.773-2.257-12.953-3.396-21.43-3.396
		c-14.498,0-24.784,3.568-30.595,10.6c-5.01,6.084-4.855,12.511-4.582,14.69l-0.07,276.496l0.295,1.867
		c0.31,1.061,7.502,25.308,28.075,30.553l-0.042,11.501h-28.37v84.479h16.139v-68.318h241.824v68.318h16.167v-84.479h-54.705
		v-19.423L694.663,381.269z M457.057,428.743c-12.7,0-18.945-14.981-20.377-18.95l0.104-275.462l-0.104-0.993
		c-0.008-0.06-0.126-1.483,1.108-2.905c2.541-2.919,9.108-4.589,18.034-4.589c16.068,0,21.347,4.968,21.382,7.337v86.931h16.145
		l0.071-145.293l-0.063-0.855c-0.013-0.099-0.231-2.361,1.369-4.157c2.021-2.295,6.568-3.558,12.813-3.558
		c7.156,0,12.371,1.501,14.708,4.245c1.278,1.477,1.313,2.943,1.313,3.104v116.656l0.013,2.329l-0.013,27.528h16.146l0.105-175.336
		l-0.112-1.021c0-0.057-0.085-1.415,1.017-2.756c2.47-2.995,9.08-4.715,18.133-4.715c16.056,0,21.332,4.993,21.367,7.368v176.459
		l16.146,0.021l0.104-145.381l-0.092-0.905c-0.034-0.372-0.041-1.688,1.088-2.986c2.563-2.933,9.144-4.612,18.056-4.612
		c16.04,0,21.331,4.985,21.38,7.35V191.19c-7.612,5.947-14.729,14.816-21.177,26.444l-1.01,1.81v82.462l-68.087,0.638l-1.713,0.263
		c-2.196,0.614-21.949,6.782-38.411,33.742l-1.32,2.172l13.769,8.425l1.333-2.176c11.563-18.961,24.722-24.994,28.125-26.3
		l82.457-0.769v-94.226c9.074-15.76,18.603-24.258,28.349-25.262c8.709-0.888,15.992,4.554,19.284,7.536v168.613l-54.705,54.699
		v26.124H465.042l0.127-26.644H457.057z"/>
	<linearGradient id="SVGID_4_" gradientUnits="userSpaceOnUse" x1="656.2021" y1="491.1611" x2="641.2295" y2="517.0945">
		<stop  offset="0" style="stop-color:#2EC425"/>
		<stop  offset="0.1756" style="stop-color:#2CBE27"/>
		<stop  offset="0.4049" style="stop-color:#28AE2B"/>
		<stop  offset="0.6638" style="stop-color:#209332"/>
		<stop  offset="0.9427" style="stop-color:#156E3D"/>
		<stop  offset="1" style="stop-color:#13653F"/>
	</linearGradient>
	<rect x="637.755" y="493.166" fill="url(#SVGID_4_)" width="21.921" height="21.922"/>
</g>
</svg>
