<?xml version="1.0" encoding="UTF-8" standalone="no"?>
<svg
   xmlns:dc="http://purl.org/dc/elements/1.1/"
   xmlns:cc="http://creativecommons.org/ns#"
   xmlns:rdf="http://www.w3.org/1999/02/22-rdf-syntax-ns#"
   xmlns:svg="http://www.w3.org/2000/svg"
   xmlns="http://www.w3.org/2000/svg"
   id="svg33"
   enable-background="new 0 0 811.574 560"
   viewBox="0 0 6800.0998 5046.0591"
   style="clip-rule:evenodd;fill-rule:evenodd;image-rendering:optimizeQuality;shape-rendering:geometricPrecision;text-rendering:geometricPrecision"
   version="1.1"
   height="5.0460591in"
   width="6.8000998in"
   xml:space="preserve"><metadata
   id="metadata37"><rdf:RDF><cc:Work
       rdf:about=""><dc:format>image/svg+xml</dc:format><dc:type
         rdf:resource="http://purl.org/dc/dcmitype/StillImage" /></cc:Work></rdf:RDF></metadata>
 <defs
   id="defs4">
  <style
   id="style2"
   type="text/css">
   <![CDATA[
    .fil0 {fill:white}
   ]]>
  </style>
 </defs>
 <g
   transform="translate(-849.95004,-2976.9977)"
   id="Layer_x0020_1">
  <metadata
   id="CorelCorpID_0Corel-Layer" />
  <g
   id="_2986488285968">
   <path
   style="fill:#ffffff"
   id="path7"
   d="m 1959,6371 c 8,-36 17,-72 26,-108 98,-363 431,-619 819,-624 194,-3 388,-1 583,-1 20,0 40,0 64,0 13,218 95,401 252,553 -547,205 -767,600 -722,1153 -356,-15 -691,-91 -1022,-188 0,-261 0,-523 0,-785 z"
   class="fil0" />
   <path
   style="fill:#ffffff"
   id="path9"
   d="m 5428,7426 c 0,114 -1,229 1,343 1,34 -11,52 -42,66 -192,85 -394,132 -602,160 -546,72 -1077,0 -1600,-154 -36,-11 -49,-26 -49,-64 3,-213 0,-426 2,-639 3,-456 379,-824 850,-829 231,-3 464,-9 693,10 406,35 735,389 746,784 3,108 0,215 0,323 1,0 1,0 1,0 z"
   class="fil0" />
   <path
   style="fill:#ffffff"
   id="path11"
   d="m 6224,4984 c 197,0 389,-3 581,1 73,2 148,13 218,32 368,97 623,421 626,790 2,213 -1,426 1,639 1,35 -13,51 -43,64 -230,100 -474,149 -723,173 -59,6 -118,9 -187,14 0,-60 -1,-114 0,-169 3,-122 -11,-243 -54,-359 -109,-291 -313,-493 -611,-606 -19,-7 -38,-14 -62,-23 159,-155 242,-339 254,-556 z"
   class="fil0" />
   <path
   style="fill:#ffffff"
   id="path13"
   d="m 5585,7353 c 0,-105 9,-202 -2,-297 -47,-412 -277,-691 -673,-845 -10,-4 -21,-7 -31,-11 -4,-1 -7,-3 -15,-7 155,-152 239,-334 252,-555 18,0 36,0 53,0 167,0 333,0 500,0 494,3 868,362 871,840 2,206 -1,412 1,618 1,36 -11,55 -44,69 -203,88 -417,136 -636,163 -88,11 -176,16 -276,25 z"
   class="fil0" />
   <path
   style="fill:#ffffff"
   id="path15"
   d="m 4980,3684 c 0,389 -332,708 -733,705 -402,-2 -727,-318 -726,-706 1,-389 326,-705 727,-706 402,-1 732,318 732,707 z"
   class="fil0" />
   <path
   style="fill:#ffffff"
   id="path17"
   d="m 3613,5612 c 1,-360 303,-650 677,-648 365,2 666,295 666,649 1,359 -304,652 -676,651 -369,-1 -668,-293 -667,-652 z"
   class="fil0" />
   <path
   style="fill:#ffffff"
   id="path19"
   d="m 2433,4945 c -1,-357 294,-647 663,-651 369,-5 672,277 678,635 1,25 -15,59 -35,76 -140,124 -231,272 -272,452 -5,23 -30,49 -52,60 -445,228 -980,-85 -982,-572 z"
   class="fil0" />
   <path
   style="fill:#ffffff"
   id="path21"
   d="m 7179,4288 c -4,453 -469,766 -907,611 -37,-13 -53,-31 -60,-71 -39,-218 -153,-393 -339,-522 -29,-20 -41,-38 -38,-74 22,-305 294,-571 609,-591 345,-23 649,193 716,509 9,45 12,92 19,138 z"
   class="fil0" />
   <path
   style="fill:#ffffff"
   id="path23"
   d="m 2276,4984 c -197,0 -389,-3 -581,1 -73,2 -148,13 -218,32 -368,97 -623,421 -626,790 -2,213 1,426 -1,639 -1,35 13,51 43,64 230,100 474,149 723,173 59,6 118,9 187,14 0,-60 1,-114 0,-169 -3,-122 11,-243 54,-359 109,-291 313,-493 611,-606 19,-7 38,-14 62,-23 -159,-155 -242,-339 -254,-556 z"
   class="fil0" />
   <path
   style="fill:#ffffff"
   id="path25"
   d="m 1321,4288 c 4,453 469,766 907,611 37,-13 53,-31 60,-71 39,-218 153,-393 339,-522 29,-20 41,-38 38,-74 -22,-305 -294,-571 -609,-591 -345,-23 -649,193 -716,509 -9,45 -12,92 -19,138 z"
   class="fil0" />
   <path
   style="fill:#ffffff"
   id="path27"
   d="m 6069,4917 c -1,477 -470,792 -906,636 -37,-13 -53,-32 -60,-72 -37,-214 -149,-387 -331,-514 -38,-27 -50,-54 -45,-97 34,-300 301,-555 604,-574 343,-22 639,179 716,488 13,52 17,106 22,133 z"
   class="fil0" />
   <path
   style="fill:#ffffff"
   id="path29"
   d="m 4600,4867 c -237,-89 -467,-81 -697,32 -9,-161 -53,-306 -158,-449 342,-23 668,-18 1011,-2 -96,135 -145,269 -156,419 z"
   class="fil0" />
  </g>
 </g>
</svg>