<?xml version="1.0" encoding="utf-8"?>
<!-- Generator: Adobe Illustrator 16.0.0, SVG Export Plug-In . SVG Version: 6.00 Build 0)  -->
<!DOCTYPE svg PUBLIC "-//W3C//DTD SVG 1.1//EN" "http://www.w3.org/Graphics/SVG/1.1/DTD/svg11.dtd">
<svg version="1.1" id="Layer_1" xmlns="http://www.w3.org/2000/svg" xmlns:xlink="http://www.w3.org/1999/xlink" x="0px" y="0px"
	 width="811.574px" height="560px" viewBox="0 0 811.574 560" enable-background="new 0 0 811.574 560" xml:space="preserve">
<g>
	<linearGradient id="SVGID_1_" gradientUnits="userSpaceOnUse" x1="569.1201" y1="7.0762" x2="242.4619" y2="572.8647">
		<stop  offset="0" style="stop-color:#2EC425"/>
		<stop  offset="0.1756" style="stop-color:#2CBE27"/>
		<stop  offset="0.4049" style="stop-color:#28AE2B"/>
		<stop  offset="0.6638" style="stop-color:#209332"/>
		<stop  offset="0.9427" style="stop-color:#156E3D"/>
		<stop  offset="1" style="stop-color:#13653F"/>
	</linearGradient>
	<path fill="url(#SVGID_1_)" d="M615.445,51.297h-6.799c-0.205-11.162-11.211-20.188-24.688-20.188s-24.467,9.025-24.68,20.188
		h-21.908c-0.211-11.162-11.195-20.188-24.666-20.188c-13.477,0-24.467,9.025-24.68,20.188h-21.326
		c-0.221-11.162-11.471-20.188-25.275-20.188c-13.477,0-24.469,9.025-24.672,20.188H395.41
		c-0.211-11.162-11.463-20.188-25.26-20.188c-13.477,0-24.455,9.025-24.674,20.188h-21.328
		c-0.217-11.162-11.469-20.188-25.266-20.188c-13.477,0-24.469,9.025-24.68,20.188h-21.328
		c-0.213-11.162-11.195-20.188-24.672-20.188c-13.799,0-25.043,9.025-25.26,20.188h-6.213c-51.928,0-94.174,33.467-94.174,74.592
		V453.73c0,41.439,42.246,75.16,94.174,75.16h418.715c51.6,0,93.572-33.721,93.572-75.16V125.889
		C709.018,84.764,667.045,51.297,615.445,51.297z M615.445,516.355H196.73c-45.018,0-81.639-28.086-81.639-62.625V125.889
		c0-34.215,36.621-62.057,81.639-62.057h15.4l0.301,21.922H196.73c-27.043,0-49.033,18.002-49.033,40.135V453.73
		c0,22.119,21.99,40.123,49.033,40.123h418.715c27.035,0,49.033-18.004,49.033-40.123V125.889c0-22.133-21.998-40.135-49.033-40.135
		h-15.701V63.832h15.701c44.689,0,81.045,27.842,81.045,62.057V453.73C696.49,488.27,660.135,516.355,615.445,516.355z
		 M228.203,174.908c19.498,0,34.77-12.672,34.77-28.838c0-8.145-3.408-15.279-10.098-20.441c-2-1.541-9.367-4.791-9.367-4.791
		l-0.137-22.748l40.451,0.191l-0.131,22.557c0,0-6.963,2.84-9.488,4.936c-6.588,5.455-10.098,12.684-10.098,20.297
		c0,15.9,15.867,28.838,35.371,28.838c19.17,0,34.777-12.938,34.777-28.838c0-7.605-3.381-14.992-10.098-20.291
		c-3.195-2.525-9.502-4.941-9.502-4.941l0.197-22.557h40.129v22.557c0,0-6.541,2.73-9.504,4.936
		c-6.867,5.092-10.098,12.672-10.098,20.297c0,15.9,15.602,28.838,34.771,28.838c19.506,0,35.377-12.938,35.377-28.838
		c0-7.619-3.795-15.758-10.111-20.303c-2.9-2.084-9.496-4.93-9.496-4.93V98.281h40.328v22.557c0,0-6.725,2.525-9.504,4.936
		c-6.744,5.852-10.082,12.678-10.082,20.297c0,16.166,15.271,28.838,34.762,28.838c19.498,0,35.357-12.938,35.357-28.838
		c0-7.619-3.57-14.76-10.082-20.297c-2.84-2.41-9.504-4.936-9.504-4.936V98.281h40.334v22.557c0,0-6.924,2.84-9.504,4.791
		c-6.744,5.094-10.111,12.289-10.111,20.441c0,16.166,15.287,28.838,34.791,28.838c19.492,0,35.357-12.938,35.357-28.838
		c0-7.619-3.521-14.828-10.098-20.297c-3.652-3.045-9.502-4.936-9.502-4.936V98.281h40.328v22.557c0,0-7.211,2.84-9.52,4.779
		c-6.703,5.646-10.67,12.615-10.67,20.453c0,15.9,15.859,28.838,35.357,28.838c19.512,0,35.379-12.938,35.379-28.838
		c0-7.85-5.313-16.07-10.686-20.467c-2.498-2.035-8.908-4.766-8.908-4.766V98.281h15.701c20.127,0,36.498,12.383,36.498,27.607
		V453.73c0,15.211-16.371,27.588-36.498,27.588H196.73c-20.133,0-36.512-12.377-36.512-27.588V125.889
		c0-15.225,16.379-27.607,36.512-27.607h15.482l-0.068,22.557c0,0-6.076,2.525-9.201,4.936
		c-6.779,5.223-10.105,12.684-10.105,20.297C192.838,161.971,208.703,174.908,228.203,174.908z M599.744,146.07v-11.469
		c3.371,2.32,7.064,6.076,7.064,11.469c0,8.998-10.246,16.303-22.85,16.303c-12.588,0-22.83-7.305-22.83-16.303
		c0-5.707,4.139-9.592,7.662-11.865v11.865c0,7.51,6.662,13.395,15.168,13.395C592.957,159.465,599.744,153.709,599.744,146.07z
		 M583.959,146.93c-1.584,0-2.525-0.676-2.635-0.859l-0.082-93.98c0.184-0.369,1.256-1.311,2.717-1.311
		c1.98,0,3.162,0.982,3.25,0.846l0.027,94.309C587.1,146.193,586.014,146.93,583.959,146.93z M568.791,85.754h-40.328V63.832h40
		L568.791,85.754z M535.529,146.07c0,8.998-10.242,16.303-22.824,16.303c-12.486,0-22.262-7.154-22.262-16.303
		c0-4.832,2.389-8.834,7.086-11.857v11.857c0,7.51,6.664,13.395,15.176,13.395c8.979,0,15.758-5.756,15.758-13.395v-11.838
		C533.029,137.535,535.529,141.729,535.529,146.07z M512.705,146.93c-1.59,0-2.531-0.682-2.643-0.859l-0.08-93.98
		c0.178-0.369,1.256-1.311,2.723-1.311c1.967,0,3.141,0.969,3.223,0.846l0.027,94.309
		C515.813,146.193,514.746,146.93,512.705,146.93z M497.529,85.754h-40.334V63.832h40.02L497.529,85.754z M457.195,134.238
		c4.553,3.313,7.059,7.504,7.059,11.832c0,8.998-10.24,16.303-22.83,16.303c-12.465,0-22.229-7.154-22.229-16.303
		c0-4.342,2.498-8.535,7.053-11.838v11.838c0,7.51,6.67,13.395,15.176,13.395c8.992,0,15.771-5.756,15.771-13.395V134.238z
		 M441.424,146.93c-1.582,0-2.539-0.682-2.641-0.859l-0.076-93.98c0.178-0.369,1.25-1.311,2.717-1.311
		c1.98,0,3.148,0.982,3.236,0.846l0.035,94.309C444.551,146.193,443.473,146.93,441.424,146.93z M426.248,85.754H385.92V63.832
		h40.014L426.248,85.754z M385.92,134.232c4.568,3.318,7.08,7.51,7.08,11.838c0,8.998-10.246,16.303-22.85,16.303
		c-11.846,0-22.236-7.619-22.236-16.303c0-4.342,2.506-8.52,7.066-11.838v11.838c0,7.51,6.664,13.395,15.17,13.395
		c8.984,0,15.77-5.756,15.77-13.395V134.232z M370.15,146.93c-1.584,0-2.527-0.676-2.637-0.859l-0.074-93.98
		c0.178-0.377,1.25-1.311,2.711-1.311c1.967,0,3.141,0.982,3.236,0.846l0.027,94.309C373.277,146.193,372.197,146.93,370.15,146.93z
		 M354.98,85.754h-40.326V63.832h40.012L354.98,85.754z M314.654,134.246c4.566,3.311,7.064,7.496,7.064,11.824
		c0,8.684-10.391,16.303-22.242,16.303c-12.596,0-22.844-7.305-22.844-16.303c0-4.328,2.5-8.506,7.072-11.838v11.838
		c0,7.639,6.773,13.395,15.771,13.395c8.506,0,15.178-5.885,15.178-13.395V134.246z M299.477,146.93
		c-2.049,0-3.127-0.736-3.236-0.859l-0.096-93.955c0.191-0.354,1.326-1.336,3.332-1.336c1.461,0,2.539,0.914,2.648,0.846
		l0.014,94.336C302.016,146.248,301.061,146.93,299.477,146.93z M283.705,85.754h-40.334V63.832h40.014L283.705,85.754z
		 M243.371,134.219c4.691,3.031,7.072,7.02,7.072,11.852c0,9.148-9.775,16.303-22.24,16.303c-12.59,0-22.83-7.305-22.83-16.303
		c0-4.322,2.498-8.506,7.059-11.824v11.824c0,7.639,6.773,13.395,15.771,13.395c8.506,0,15.168-5.885,15.168-13.395V134.219z
		 M228.203,146.93c-2.057,0-3.129-0.736-3.244-0.859l-0.088-93.955c0.191-0.354,1.324-1.336,3.332-1.336
		c1.461,0,2.553,0.914,2.641,0.846l0.021,94.344C230.729,146.248,229.787,146.93,228.203,146.93z"/>
	<g id="path9_1_">
		<linearGradient id="SVGID_2_" gradientUnits="userSpaceOnUse" x1="566.0879" y1="310.7012" x2="486.4023" y2="448.7206">
			<stop  offset="0" style="stop-color:#2EC425"/>
			<stop  offset="0.1756" style="stop-color:#2CBE27"/>
			<stop  offset="0.4049" style="stop-color:#28AE2B"/>
			<stop  offset="0.6638" style="stop-color:#209332"/>
			<stop  offset="0.9427" style="stop-color:#156E3D"/>
			<stop  offset="1" style="stop-color:#13653F"/>
		</linearGradient>
		<path fill="url(#SVGID_2_)" d="M579.809,318.91c-2.363-0.594-4.752-1.781-6.525-2.969c-14.256-5.352-31.488-8.916-46.943-8.916
			c-27.295,0-58.195,9.502-75.412,32.074c-20.201,26.734-21.375,62.971,2.963,87.316c50.492,52.254,166.307,24.332,164.512-55.824
			C617.814,346.225,600.596,329.008,579.809,318.91z M500.211,440.658c-39.193-9.49-68.891-43.941-49.871-84.93
			c5.34-10.09,12.467-21.969,22.557-27.916c11.879-7.119,25.541-12.465,39.201-14.248c16.631-1.789,31.486,3.564,46.93,9.504
			c11.871,4.15,23.17,8.314,33.836,14.842c19.025,12.48,19.025,39.801,10.703,58.215
			C586.342,435.92,539.414,450.174,500.211,440.658z"/>
	</g>
	<g id="path11_1_">
		<linearGradient id="SVGID_3_" gradientUnits="userSpaceOnUse" x1="254.9688" y1="203.5078" x2="212.436" y2="277.1766">
			<stop  offset="0" style="stop-color:#2EC425"/>
			<stop  offset="0.1756" style="stop-color:#2CBE27"/>
			<stop  offset="0.4049" style="stop-color:#28AE2B"/>
			<stop  offset="0.6638" style="stop-color:#209332"/>
			<stop  offset="0.9427" style="stop-color:#156E3D"/>
			<stop  offset="1" style="stop-color:#13653F"/>
		</linearGradient>
		<path fill="url(#SVGID_3_)" d="M262.645,255.357c-7.121-8.314-14.85-16.029-21.969-23.758c6.541-7.127,13.66-14.256,18.412-22.557
			c1.775-2.402-2.375-5.953-4.752-3.57c-6.541,7.119-13.074,13.646-19.594,20.188c-5.346-5.939-11.291-11.865-16.645-17.818
			c-0.588-0.588-1.18-1.201-1.775-1.775h-0.586c-2.377-0.594-4.752,1.775-4.164,4.15c2.963,8.316,10.098,15.443,16.631,21.969
			c-1.189,1.189-2.963,2.984-4.166,4.166c-6.527,7.141-24.338,21.969-23.156,32.674c0,1.775,2.389,3.551,4.15,2.369
			c5.359-2.971,7.729-8.309,11.887-12.48c5.344-7.119,11.285-14.262,17.824-20.787c7.115,8.328,14.242,19.02,24.346,23.17
			C262.645,262.479,265.027,257.734,262.645,255.357z"/>
	</g>
	<g id="path13_1_">
		<linearGradient id="SVGID_4_" gradientUnits="userSpaceOnUse" x1="339.3047" y1="203.5088" x2="296.7725" y2="277.1768">
			<stop  offset="0" style="stop-color:#2EC425"/>
			<stop  offset="0.1756" style="stop-color:#2CBE27"/>
			<stop  offset="0.4049" style="stop-color:#28AE2B"/>
			<stop  offset="0.6638" style="stop-color:#209332"/>
			<stop  offset="0.9427" style="stop-color:#156E3D"/>
			<stop  offset="1" style="stop-color:#13653F"/>
		</linearGradient>
		<path fill="url(#SVGID_4_)" d="M346.992,255.357c-7.135-8.314-14.254-16.029-21.982-23.758
			c6.527-7.127,13.668-14.256,18.42-22.557c1.775-2.402-2.391-5.953-4.752-3.57c-5.939,7.119-13.074,13.646-19.607,20.188
			c-5.338-5.939-11.279-11.865-16.617-17.818c0-0.588-0.607-1.201-1.795-1.775c0,0,0,0-0.594,0c-2.377-0.594-4.752,1.775-4.158,4.15
			c2.977,8.316,10.096,15.443,16.637,21.969c-1.195,1.189-2.375,2.984-4.164,4.166c-6.533,7.141-24.346,21.969-23.156,32.674
			c0,1.775,2.375,3.551,4.156,2.369c5.346-2.971,8.309-8.309,11.873-12.48c5.346-7.119,11.885-14.262,17.818-20.787
			c7.127,8.328,14.262,19.02,24.359,23.17C346.992,262.479,349.361,257.734,346.992,255.357z"/>
	</g>
	<g id="path15_1_">
		<linearGradient id="SVGID_5_" gradientUnits="userSpaceOnUse" x1="423.916" y1="203.5957" x2="381.373" y2="277.2823">
			<stop  offset="0" style="stop-color:#2EC425"/>
			<stop  offset="0.1756" style="stop-color:#2CBE27"/>
			<stop  offset="0.4049" style="stop-color:#28AE2B"/>
			<stop  offset="0.6638" style="stop-color:#209332"/>
			<stop  offset="0.9427" style="stop-color:#156E3D"/>
			<stop  offset="1" style="stop-color:#13653F"/>
		</linearGradient>
		<path fill="url(#SVGID_5_)" d="M431.32,255.357c-7.127-8.314-14.242-16.029-21.969-23.758c7.127-7.127,13.66-14.256,18.412-22.557
			c1.789-2.402-2.369-5.953-4.158-3.57c-6.527,7.119-13.072,13.646-19.594,20.188c-5.945-5.939-11.291-11.865-17.225-17.818
			c0-0.588-0.594-1.201-1.795-1.775l0,0c-2.361-0.594-5.34,1.775-4.15,4.15c2.969,8.316,9.516,15.443,16.631,21.969
			c-1.789,1.189-2.977,2.984-4.158,4.166c-6.527,7.141-24.939,21.969-23.758,32.674c0,1.775,2.383,3.551,4.752,2.369
			c4.752-2.971,7.727-8.309,11.297-12.48c5.934-7.119,11.867-14.262,17.805-20.787c7.123,8.328,14.242,19.02,24.947,23.17
			C431.908,262.479,433.695,257.734,431.32,255.357z"/>
	</g>
	<g id="path17_1_">
		<linearGradient id="SVGID_6_" gradientUnits="userSpaceOnUse" x1="249.4238" y1="287.084" x2="206.8677" y2="360.7934">
			<stop  offset="0" style="stop-color:#2EC425"/>
			<stop  offset="0.1756" style="stop-color:#2CBE27"/>
			<stop  offset="0.4049" style="stop-color:#28AE2B"/>
			<stop  offset="0.6638" style="stop-color:#209332"/>
			<stop  offset="0.9427" style="stop-color:#156E3D"/>
			<stop  offset="1" style="stop-color:#13653F"/>
		</linearGradient>
		<path fill="url(#SVGID_6_)" d="M257.299,338.512c-7.715-7.729-14.85-15.443-22.557-23.164
			c7.115-7.121,13.648-14.262,18.398-22.578c1.789-2.977-1.781-5.939-4.156-3.557c-6.535,6.535-13.055,13.074-19.588,19.602
			c-5.945-5.354-11.299-11.293-16.637-17.232c-0.594-1.182-1.188-1.789-2.369-1.789l0,0c-2.369-1.174-4.752,1.789-4.158,3.578
			c2.977,8.916,9.504,16.029,16.617,22.57c-1.775,1.188-2.955,2.969-4.15,4.15c-6.533,7.127-24.945,21.381-23.752,32.086
			c0,2.363,2.369,3.551,4.752,2.963c5.332-2.963,7.715-8.32,11.285-13.08c5.934-7.121,11.865-13.646,17.818-20.193
			c7.715,7.734,14.242,19.014,24.934,22.582C257.299,346.225,259.088,340.881,257.299,338.512z"/>
	</g>
	<g id="path19_1_">
		<linearGradient id="SVGID_7_" gradientUnits="userSpaceOnUse" x1="333.8271" y1="286.9756" x2="291.2611" y2="360.7021">
			<stop  offset="0" style="stop-color:#2EC425"/>
			<stop  offset="0.1756" style="stop-color:#2CBE27"/>
			<stop  offset="0.4049" style="stop-color:#28AE2B"/>
			<stop  offset="0.6638" style="stop-color:#209332"/>
			<stop  offset="0.9427" style="stop-color:#156E3D"/>
			<stop  offset="1" style="stop-color:#13653F"/>
		</linearGradient>
		<path fill="url(#SVGID_7_)" d="M341.654,338.512c-7.143-7.729-14.855-15.443-21.984-23.164
			c6.527-7.121,13.068-14.262,18.414-22.578c1.773-2.977-2.383-5.939-4.752-3.557c-6.533,6.535-13.074,13.074-19.6,19.602
			c-5.941-5.354-11.279-11.293-16.645-17.232c-0.588-1.182-1.182-1.789-1.775-1.789c-0.588,0-0.588,0-0.588,0
			c-2.389-1.174-4.752,1.789-4.15,3.578c2.963,8.916,10.084,16.029,16.631,22.57c-1.203,1.188-2.977,2.969-4.166,4.15
			c-6.539,7.127-24.35,21.381-23.771,32.086c0.607,2.363,2.383,3.551,4.766,2.963c5.346-2.963,7.715-8.32,11.279-13.08
			c5.939-7.121,11.893-13.646,17.824-20.193c7.729,7.734,14.85,19.014,24.947,22.582
			C341.654,346.225,343.43,340.881,341.654,338.512z"/>
	</g>
	<g id="path21_1_">
		<linearGradient id="SVGID_8_" gradientUnits="userSpaceOnUse" x1="418.2393" y1="287.0225" x2="375.7489" y2="360.6179">
			<stop  offset="0" style="stop-color:#2EC425"/>
			<stop  offset="0.1756" style="stop-color:#2CBE27"/>
			<stop  offset="0.4049" style="stop-color:#28AE2B"/>
			<stop  offset="0.6638" style="stop-color:#209332"/>
			<stop  offset="0.9427" style="stop-color:#156E3D"/>
			<stop  offset="1" style="stop-color:#13653F"/>
		</linearGradient>
		<path fill="url(#SVGID_8_)" d="M425.982,338.512c-7.129-7.729-14.842-15.443-21.971-23.164
			c6.521-7.121,13.641-14.262,18.406-22.578c1.775-2.977-2.383-5.939-4.766-3.557c-6.512,6.535-13.053,13.074-19.586,19.602
			c-5.346-5.354-11.279-11.293-16.625-17.232c-0.6-1.182-1.201-1.789-1.789-1.789h-0.592c-2.371-1.174-4.752,1.789-4.16,3.578
			c2.979,8.916,10.092,16.029,16.639,22.57c-1.182,1.188-2.977,2.969-4.158,4.15c-6.539,7.127-24.359,21.381-23.17,32.086
			c0,2.363,2.369,3.551,4.164,2.963c5.34-2.963,7.715-8.32,11.865-13.08c5.365-7.121,11.299-13.646,17.826-20.193
			c7.133,7.734,14.262,19.014,24.352,22.582C425.982,346.225,428.357,340.881,425.982,338.512z"/>
	</g>
	<g id="path23_1_">
		<linearGradient id="SVGID_9_" gradientUnits="userSpaceOnUse" x1="239.625" y1="370.207" x2="197.1603" y2="443.7581">
			<stop  offset="0" style="stop-color:#2EC425"/>
			<stop  offset="0.1756" style="stop-color:#2CBE27"/>
			<stop  offset="0.4049" style="stop-color:#28AE2B"/>
			<stop  offset="0.6638" style="stop-color:#209332"/>
			<stop  offset="0.9427" style="stop-color:#156E3D"/>
			<stop  offset="1" style="stop-color:#13653F"/>
		</linearGradient>
		<path fill="url(#SVGID_9_)" d="M247.217,421.664c-7.148-7.729-14.25-16.043-21.977-23.758
			c7.119-6.527,13.652-13.668,18.404-21.982c1.783-2.965-2.383-5.941-4.15-3.572c-6.527,6.549-13.074,13.074-19.6,19.615
			c-5.947-5.953-11.299-11.879-17.24-17.818c0-0.602-0.586-1.189-1.773-1.189v-0.607c-2.375-0.58-5.34,1.797-4.15,4.158
			c2.969,8.916,9.502,16.045,16.629,21.982c-1.787,1.797-2.969,2.965-4.15,4.752c-6.555,6.549-24.959,21.385-23.764,32.082
			c0,2.369,2.367,3.557,4.752,2.369c4.75-2.977,7.713-7.729,11.283-12.48c5.934-7.113,11.879-13.662,17.818-20.195
			c7.715,7.736,14.256,19.02,24.934,22.584C247.795,428.791,249.584,424.039,247.217,421.664z"/>
	</g>
	<g id="path25_1_">
		<linearGradient id="SVGID_10_" gradientUnits="userSpaceOnUse" x1="324.1572" y1="370.1475" x2="281.6741" y2="443.7304">
			<stop  offset="0" style="stop-color:#2EC425"/>
			<stop  offset="0.1756" style="stop-color:#2CBE27"/>
			<stop  offset="0.4049" style="stop-color:#28AE2B"/>
			<stop  offset="0.6638" style="stop-color:#209332"/>
			<stop  offset="0.9427" style="stop-color:#156E3D"/>
			<stop  offset="1" style="stop-color:#13653F"/>
		</linearGradient>
		<path fill="url(#SVGID_10_)" d="M332.137,421.664c-7.127-7.729-14.855-16.043-21.969-23.758
			c6.539-6.527,13.053-13.668,18.406-21.982c1.201-2.965-2.377-5.941-4.752-3.572c-6.541,6.549-13.068,13.074-19.594,19.615
			c-5.939-5.953-11.293-11.879-16.631-17.818c-0.6-0.602-1.182-1.189-2.375-1.189v-0.607c-2.377-0.58-4.752,1.797-4.166,4.158
			c2.977,8.916,10.098,16.045,16.631,21.982c-1.781,1.797-2.963,2.965-4.15,4.752c-6.539,6.549-24.352,21.385-23.758,32.082
			c0.588,2.369,2.369,3.557,4.75,2.369c5.346-2.977,7.717-7.729,11.279-12.48c5.939-7.113,11.879-13.662,17.826-20.195
			c7.713,7.736,14.836,19.02,24.939,22.584C332.137,428.791,333.926,424.039,332.137,421.664z"/>
	</g>
	<g id="path27_1_">
		<linearGradient id="SVGID_11_" gradientUnits="userSpaceOnUse" x1="408.6279" y1="370.1123" x2="366.0967" y2="443.7786">
			<stop  offset="0" style="stop-color:#2EC425"/>
			<stop  offset="0.1756" style="stop-color:#2CBE27"/>
			<stop  offset="0.4049" style="stop-color:#28AE2B"/>
			<stop  offset="0.6638" style="stop-color:#209332"/>
			<stop  offset="0.9427" style="stop-color:#156E3D"/>
			<stop  offset="1" style="stop-color:#13653F"/>
		</linearGradient>
		<path fill="url(#SVGID_11_)" d="M416.479,421.664c-7.127-7.729-14.855-16.043-21.982-23.758
			c6.533-6.527,13.666-13.668,18.434-21.982c1.76-2.965-2.396-5.941-4.768-3.572c-6.539,6.549-13.053,13.074-19.6,19.615
			c-5.346-5.953-11.285-11.879-16.623-17.818c-0.609-0.602-1.201-1.189-1.789-1.189c-0.594,0-0.594-0.607-0.594-0.607
			c-2.369-0.58-4.738,1.797-4.164,4.158c2.982,8.916,10.098,16.045,16.643,21.982c-1.193,1.797-2.975,2.965-4.156,4.752
			c-6.549,6.549-24.359,21.385-23.758,32.082c0.586,2.369,2.361,3.557,4.75,2.369c5.34-2.977,7.709-7.729,11.867-12.48
			c5.352-7.113,11.297-13.662,17.217-20.195c7.729,7.736,14.863,19.02,24.975,22.584
			C416.479,428.791,418.854,424.039,416.479,421.664z"/>
	</g>
	<g id="path29_1_">
		<linearGradient id="SVGID_12_" gradientUnits="userSpaceOnUse" x1="508.4541" y1="203.543" x2="465.8916" y2="277.2634">
			<stop  offset="0" style="stop-color:#2EC425"/>
			<stop  offset="0.1756" style="stop-color:#2CBE27"/>
			<stop  offset="0.4049" style="stop-color:#28AE2B"/>
			<stop  offset="0.6638" style="stop-color:#209332"/>
			<stop  offset="0.9427" style="stop-color:#156E3D"/>
			<stop  offset="1" style="stop-color:#13653F"/>
		</linearGradient>
		<path fill="url(#SVGID_12_)" d="M516.264,255.357c-7.143-8.314-14.857-16.029-21.977-23.758
			c6.52-7.127,13.059-14.256,18.418-22.557c1.168-2.402-2.383-5.953-4.75-3.57c-6.549,7.119-13.074,13.646-19.615,20.188
			c-5.926-5.939-11.279-11.865-16.623-17.818c-0.594-0.588-1.195-1.201-2.369-1.775l0,0c-2.383-0.594-4.752,1.775-4.166,4.15
			c2.963,8.316,10.092,15.443,16.631,21.969c-1.773,1.189-2.977,2.984-4.164,4.166c-6.525,7.141-24.352,21.969-23.758,32.674
			c0.594,1.775,2.383,3.551,4.752,2.369c5.359-2.971,7.729-8.309,11.277-12.48c5.953-7.119,11.893-14.262,17.834-20.787
			c7.721,8.328,14.842,19.02,24.951,23.17C516.264,262.479,518.037,257.734,516.264,255.357z"/>
	</g>
	<g id="path31_1_">
		<linearGradient id="SVGID_13_" gradientUnits="userSpaceOnUse" x1="592.916" y1="203.5078" x2="550.3087" y2="277.3058">
			<stop  offset="0" style="stop-color:#2EC425"/>
			<stop  offset="0.1756" style="stop-color:#2CBE27"/>
			<stop  offset="0.4049" style="stop-color:#28AE2B"/>
			<stop  offset="0.6638" style="stop-color:#209332"/>
			<stop  offset="0.9427" style="stop-color:#156E3D"/>
			<stop  offset="1" style="stop-color:#13653F"/>
		</linearGradient>
		<path fill="url(#SVGID_13_)" d="M600.596,255.357c-7.119-8.314-14.848-16.029-21.982-23.758
			c6.549-7.127,13.662-14.256,18.412-22.557c1.789-2.402-2.361-5.953-4.75-3.57c-6.527,7.119-13.068,13.646-19.58,20.188
			c-5.367-5.939-11.307-11.865-16.645-17.818c-0.588-0.588-1.188-1.201-1.775-1.775c-0.594,0-0.594,0-0.594,0
			c-2.369-0.594-4.766,1.775-4.158,4.15c2.963,8.316,10.092,15.443,16.625,21.969c-1.168,1.189-2.957,2.984-4.158,4.166
			c-6.527,7.141-24.346,21.969-23.744,32.674c0.586,1.775,2.361,3.551,4.752,2.369c5.324-2.971,7.713-8.309,11.865-12.48
			c5.352-7.119,11.285-14.262,17.217-20.787c7.729,8.328,14.869,19.02,24.945,23.17C600.596,262.479,602.98,257.734,600.596,255.357
			z"/>
	</g>
	<g id="path33_1_">
		<linearGradient id="SVGID_14_" gradientUnits="userSpaceOnUse" x1="545.1611" y1="333.3584" x2="497.1479" y2="416.5197">
			<stop  offset="0" style="stop-color:#2EC425"/>
			<stop  offset="0.1756" style="stop-color:#2CBE27"/>
			<stop  offset="0.4049" style="stop-color:#28AE2B"/>
			<stop  offset="0.6638" style="stop-color:#209332"/>
			<stop  offset="0.9427" style="stop-color:#156E3D"/>
			<stop  offset="1" style="stop-color:#13653F"/>
		</linearGradient>
		<path fill="url(#SVGID_14_)" d="M518.625,348.615c0,0,13.668,20.188,27.922,11.271c14.256-8.91,17.826-15.438,17.826-15.438
			s-5.346,26.723-21.984,29.098c-16.049,1.789-23.764-14.254-23.764-14.254s15.455,42.777,15.455,55.832
			c0,13.666-9.502,17.23-9.502,17.23s-16.029-73.063-27.322-83.74c-2.375-1.795,13.066-9.516,13.066-9.516L518.625,348.615z"/>
	</g>
</g>
</svg>
