<?xml version="1.0" encoding="utf-8"?>
<!-- Generator: Adobe Illustrator 16.0.0, SVG Export Plug-In . SVG Version: 6.00 Build 0)  -->
<!DOCTYPE svg PUBLIC "-//W3C//DTD SVG 1.1//EN" "http://www.w3.org/Graphics/SVG/1.1/DTD/svg11.dtd">
<svg version="1.1" id="Layer_1" xmlns="http://www.w3.org/2000/svg" xmlns:xlink="http://www.w3.org/1999/xlink" x="0px" y="0px"
	 width="811.574px" height="560px" viewBox="0 0 811.574 560" enable-background="new 0 0 811.574 560" xml:space="preserve">
<g>
	<path fill-rule="evenodd" clip-rule="evenodd" fill="#FFFFFF" d="M251.19,340.773c0.598-2.517,1.149-5.045,1.799-7.548
		c6.574-25.354,29.055-43.153,55.232-43.529c13.106-0.188,26.219-0.041,39.328-0.046c1.354,0,2.708,0,4.336,0
		c0.855,15.148,6.396,27.918,16.979,38.562c-36.854,14.271-51.76,41.799-48.663,80.382c-24.066-1.052-46.675-6.333-69.011-13.077
		C251.19,377.269,251.19,359.021,251.19,340.773z"/>
	<path fill-rule="evenodd" clip-rule="evenodd" fill="#FFFFFF" d="M485.288,414.298c0,7.996-0.088,15.994,0.055,23.988
		c0.043,2.339-0.721,3.572-2.84,4.55c-12.938,5.967-26.609,9.245-40.631,11.167c-36.83,5.045-72.668-0.006-107.945-10.745
		c-2.431-0.739-3.296-1.786-3.27-4.415c0.146-14.867-0.021-29.736,0.094-44.604c0.244-31.794,25.559-57.446,57.346-57.813
		c15.602-0.181,31.295-0.627,46.801,0.728c27.39,2.394,49.566,27.116,50.3,54.657c0.199,7.49,0.03,14.992,0.03,22.488
		C485.248,414.298,485.269,414.298,485.288,414.298z"/>
	<path fill-rule="evenodd" clip-rule="evenodd" fill="#FFFFFF" d="M538.986,244.007c13.245,0,26.22-0.197,39.183,0.1
		c4.934,0.113,9.979,0.861,14.737,2.174c24.771,6.829,41.997,29.407,42.208,55.102c0.123,14.86-0.041,29.723,0.094,44.583
		c0.022,2.427-0.905,3.546-2.932,4.463c-15.532,7.023-31.954,10.423-48.803,12.093c-3.96,0.393-7.939,0.604-12.59,0.949
		c0-4.141-0.059-7.944,0.012-11.746c0.158-8.556-0.75-16.957-3.675-25.043c-7.342-20.307-21.093-34.405-41.192-42.305
		c-1.271-0.498-2.547-0.982-4.168-1.608C532.548,272.01,538.175,259.159,538.986,244.007z"/>
	<path fill-rule="evenodd" clip-rule="evenodd" fill="#FFFFFF" d="M495.845,409.247c0-7.309,0.622-14.084-0.107-20.709
		c-3.17-28.75-18.738-48.182-45.42-58.928c-0.693-0.279-1.413-0.493-2.114-0.756c-0.229-0.086-0.437-0.231-1.009-0.542
		c10.463-10.573,16.149-23.266,17.016-38.669c1.223,0,2.402,0,3.581,0c11.247,0,22.495-0.041,33.743,0.009
		c33.347,0.149,58.532,25.216,58.763,58.546c0.1,14.37-0.054,28.743,0.087,43.114c0.023,2.519-0.777,3.809-3.014,4.817
		c-13.677,6.17-28.096,9.515-42.898,11.362C508.567,408.229,502.621,408.62,495.845,409.247z"/>
	<path fill-rule="evenodd" clip-rule="evenodd" fill="#FFFFFF" d="M455.052,153.314c-0.015,27.131-22.402,49.398-49.485,49.22
		c-27.124-0.178-49.022-22.225-48.952-49.284c0.07-27.139,21.965-49.121,49.021-49.218
		C432.761,103.937,455.067,126.181,455.052,153.314z"/>
	<path fill-rule="evenodd" clip-rule="evenodd" fill="#FFFFFF" d="M362.788,287.811c0.067-25.136,20.495-45.351,45.689-45.216
		c24.617,0.132,44.92,20.588,44.973,45.31c0.053,25.004-20.509,45.449-45.627,45.37
		C382.886,333.195,362.721,312.838,362.788,287.811z"/>
	<path fill-rule="evenodd" clip-rule="evenodd" fill="#FFFFFF" d="M283.223,241.283c-0.095-24.918,19.781-45.112,44.698-45.413
		c24.909-0.301,45.342,19.362,45.779,44.275c0.031,1.801-1.018,4.144-2.357,5.361c-9.459,8.596-15.636,18.964-18.366,31.488
		c-0.352,1.612-2.021,3.408-3.555,4.221C319.449,297.083,283.353,275.261,283.223,241.283z"/>
	<path fill-rule="evenodd" clip-rule="evenodd" fill="#FFFFFF" d="M603.368,195.473c-0.26,31.563-31.643,53.452-61.172,42.592
		c-2.491-0.916-3.573-2.146-4.052-4.929c-2.614-15.207-10.323-27.387-22.868-36.386c-1.947-1.397-2.742-2.696-2.568-5.174
		c1.492-21.289,19.882-39.813,41.125-41.245c23.266-1.568,43.789,13.49,48.277,35.519
		C602.754,189.011,602.959,192.263,603.368,195.473z"/>
	<path fill-rule="evenodd" clip-rule="evenodd" fill="#FFFFFF" d="M272.588,244.007c-13.245,0-26.22-0.197-39.183,0.1
		c-4.934,0.113-9.979,0.861-14.737,2.174c-24.771,6.829-41.997,29.407-42.208,55.102c-0.123,14.86,0.041,29.723-0.094,44.583
		c-0.022,2.427,0.905,3.546,2.932,4.463c15.532,7.023,31.954,10.423,48.803,12.093c3.96,0.393,7.939,0.604,12.59,0.949
		c0-4.141,0.059-7.944-0.012-11.746c-0.158-8.556,0.75-16.957,3.675-25.043c7.342-20.307,21.093-34.405,41.192-42.305
		c1.271-0.498,2.547-0.982,4.168-1.608C279.026,272.01,273.399,259.159,272.588,244.007z"/>
	<path fill-rule="evenodd" clip-rule="evenodd" fill="#FFFFFF" d="M208.206,195.473c0.26,31.563,31.643,53.452,61.172,42.592
		c2.491-0.916,3.573-2.146,4.052-4.929c2.614-15.207,10.323-27.387,22.868-36.386c1.947-1.397,2.742-2.696,2.568-5.174
		c-1.492-21.289-19.882-39.813-41.125-41.245c-23.266-1.568-43.789,13.49-48.277,35.519
		C208.82,189.011,208.615,192.263,208.206,195.473z"/>
	<path fill-rule="evenodd" clip-rule="evenodd" fill="#FFFFFF" d="M528.48,239.308c-0.051,33.275-31.713,55.283-61.087,44.379
		c-2.496-0.926-3.602-2.241-4.063-5c-2.507-14.965-10.042-26.996-22.3-35.895c-2.586-1.877-3.402-3.709-3.063-6.766
		c2.326-20.919,20.327-38.649,40.78-40.004c23.112-1.53,43.078,12.487,48.281,34.042
		C527.901,233.682,528.195,237.438,528.48,239.308z"/>
	<path fill-rule="evenodd" clip-rule="evenodd" fill="#FFFFFF" d="M429.391,235.875c-16.003-6.225-31.481-5.643-47.012,2.175
		c-0.63-11.167-3.55-21.325-10.652-31.276c23.038-1.577,45.075-1.265,68.175-0.176C433.431,216.011,430.13,225.365,429.391,235.875z
		"/>
</g>
</svg>
