<?xml version="1.0" encoding="utf-8"?>
<!-- Generator: Adobe Illustrator 16.0.0, SVG Export Plug-In . SVG Version: 6.00 Build 0)  -->
<!DOCTYPE svg PUBLIC "-//W3C//DTD SVG 1.1//EN" "http://www.w3.org/Graphics/SVG/1.1/DTD/svg11.dtd">
<svg version="1.1" id="Layer_1" xmlns="http://www.w3.org/2000/svg" xmlns:xlink="http://www.w3.org/1999/xlink" x="0px" y="0px"
	 width="811.574px" height="560px" viewBox="0 0 811.574 560" enable-background="new 0 0 811.574 560" xml:space="preserve">
<g>
	<path fill="#FF0000" d="M485.905,428.707c0,44.245-35.872,80.108-80.118,80.108c-44.236,0-80.108-35.863-80.108-80.108
		c0-44.246,35.872-80.118,80.108-80.118C450.033,348.589,485.905,384.461,485.905,428.707z"/>
	<path fill="#FFFFFF" d="M284.666,426.366c0.057-0.402,0.114-0.806,0.172-1.208c-0.364,0.221-0.738,0.44-1.112,0.661
		C284.042,426.002,284.349,426.194,284.666,426.366z"/>
	<g>
		<g>
			<path fill="#FFFFFF" d="M638.746,522.186c-51.555,0-93.488-41.934-93.488-93.479c0-51.555,41.934-93.488,93.488-93.488
				c51.545,0,93.479,41.934,93.479,93.488C732.225,480.252,690.291,522.186,638.746,522.186z M638.746,339.918
				c-48.965,0-88.789,39.834-88.789,88.789s39.824,88.788,88.789,88.788c48.955,0,88.788-39.833,88.788-88.788
				S687.701,339.918,638.746,339.918z"/>
		</g>
	</g>
	<g>
		<path fill="#FFFFFF" d="M405.787,283.453c-67.726,0-122.819-55.094-122.819-122.819S338.062,37.814,405.787,37.814
			s122.829,55.094,122.829,122.819S473.513,283.453,405.787,283.453z M405.787,43.981c-64.32,0-116.652,52.332-116.652,116.652
			s52.332,116.643,116.652,116.643s116.652-52.322,116.652-116.643S470.107,43.981,405.787,43.981z"/>
	</g>
	<g>
		<polygon fill="#FFFFFF" points="634.132,340.916 488.466,248.281 491.938,242.813 637.604,335.438 		"/>
	</g>
	<g>
		<polygon fill="#FFFFFF" points="191.686,340.829 187.954,335.525 319.502,242.891 323.242,248.194 		"/>
	</g>
	<g>
		<g>
			<path fill="#FFFFFF" d="M329.717,233.376v-0.01c-0.01,0-0.01-0.01-0.01-0.01l0,0
				C329.707,233.356,329.707,233.366,329.717,233.376z"/>
			<path fill="#FFFFFF" d="M405.787,55.386c-58.125,0-105.248,47.123-105.248,105.248c0,28.209,11.098,53.827,29.168,72.723
				c0.278-2.004,0.643-4.316,0.931-6.35l0.183-1.199c0.892-6.119,1.793-12.238,2.666-18.367c0.096-0.614,1.793-12.114,2.101-14.263
				c0.259-1.804,1.218-3.089,2.868-3.847c9.303-4.248,18.578-8.546,28.371-11.605c4.182-1.305,8.316-2.877,11.922-5.429
				c1.545-1.103,2.801-2.608,4.201-3.913c0.288-0.269,0.634-0.479,1.123-0.844c-0.125,1.956-0.336,3.577-0.326,5.188
				c0.086,7.549-0.049,15.126,0.402,22.655c0.738,12.133,1.861,24.229,2.83,36.342c0,0.115,0.316,3.396,0.738,7.855l2.503,25.159
				c2.293,0.335,4.604,0.595,6.944,0.786l-0.02-3.443c-0.086-8.488-0.239-29.705-0.22-29.896c0.681-6.628,1.132-10.561,1.803-17.188
				c0.02-0.24,0.557-4.633,0.988-6.446c1.142-4.872,3.271-13.044,3.75-14.54c0.115-0.375,0.115-0.912-0.067-1.238
				c-1.765-3.155-3.597-6.301-5.524-9.668c1.928-1.132,4.028-2.379,6.292-3.712c-0.537-0.288-1.017-0.556-1.486-0.815
				c-5.42-2.973-10.369-6.531-14.311-11.365c-1.353-1.66-2.417-3.3-1.89-5.679c0.441-1.938,0.105-3.884-0.509-5.86
				c-0.681-2.148-0.776-4.479-1.122-6.733c-0.048-0.307-0.096-0.623-0.144-0.931c-2.763,0.279-4.537-1.074-4.997-3.836
				c-0.202-1.257-0.221-2.552-0.441-3.817c-0.163-0.94-0.547-1.842-0.738-2.772c-0.298-1.534-0.69-3.06-0.72-4.604
				c-0.058-2.196,0.738-2.647,2.839-1.803c-1.765-6.168-3.606-12.297-1.554-18.887c-0.336,0.288-0.652,0.566-0.969,0.825
				c-0.316-1.88,0.893-5.745,2.801-8.795c-0.336,0.067-0.585,0.124-0.844,0.182c0.863-1.784,2.982-3.73,5.994-5.697
				c-0.738,0.048-1.486,0.097-2.225,0.144c-0.049-0.086-0.087-0.162-0.135-0.239c1.688-0.863,3.29-1.957,5.074-2.513
				c2.436-0.768,4.613-1.774,6.561-3.492c1.535-1.371,3.52-2.081,5.783-2.493c-0.45,0.565-0.767,0.979-1.093,1.381
				c3.501-1.841,6.982-3.577,11.202-3.136c-0.758,0.623-1.409,1.16-2.052,1.697c0.048,0.067,0.105,0.125,0.153,0.191
				c2.071-0.201,4.144-0.402,6.513-0.643c-0.835,0.797-1.438,1.353-2.043,1.919c0.067,0.096,0.114,0.191,0.173,0.278
				c2.676-0.586,5.342-1.151,8.027-0.077c-1.41,0.364-2.954,0.316-4.287,1.631c2.101-0.02,4.019-0.087,5.611,1.343
				c-0.748,0.211-1.41,0.402-2.063,0.604c-0.02,0.097-0.048,0.192-0.067,0.288c4.854,0.566,8.21,3.108,10.359,7.597
				c-0.528-0.058-0.883-0.135-1.247-0.135c-0.374,0-0.738,0.067-1.189,0.097c0.125,0.229,0.144,0.354,0.221,0.412
				c2.57,1.794,3.491,4.489,4.038,7.396c0.758,4.066-0.115,8.018-1.026,11.941c-0.633,2.704-1.506,5.352-2.273,8.018
				c-0.058,0.202-0.096,0.403-0.191,0.815c0.488-0.287,0.834-0.47,1.18-0.661c1.563-0.893,2.522-0.489,2.6,1.313
				c0.066,1.468,0,3.031-0.471,4.412c-0.729,2.148-1.122,4.326-1.314,6.57c-0.066,0.796-0.307,1.621-0.651,2.341
				c-0.921,1.976-2.216,2.58-4.422,2.148c-0.153,1.16-0.298,2.312-0.47,3.453c-0.115,0.814-0.173,1.611-0.365,2.407
				c-0.115,0.47-0.268,0.931-0.518,1.381c-0.518,0.959-0.585,2.235-0.613,3.366c-0.029,1.525,0.229,3.061,0.259,4.595
				c0.009,0.624-0.077,1.362-0.403,1.88c-2.887,4.498-6.857,7.885-11.27,10.791c-1.372,0.91-2.811,1.755-4.259,2.599
				c-0.566,0.336-1.132,0.672-1.708,1.017c0.48,0.288,0.96,0.557,1.439,0.844c1.649,0.979,3.299,1.947,5.016,2.955
				c-0.565,0.796-1.112,1.448-1.534,2.168c-1.486,2.513-2.954,5.035-4.384,7.576c-0.134,0.24-0.047,0.662,0.049,0.969
				c0.316,0.988,1.419,5.046,2.369,8.652c0.738,2.839,1.381,5.381,1.486,5.946c0.364,2.053,0.748,4.115,0.969,6.187
				c0.633,5.842,1.189,11.692,1.765,17.543c0.02,0.173,0.672,32.774,0.652,33.168c2.494-0.221,4.959-0.528,7.396-0.921l1.516-24.372
				c0.44-7.396,0.824-13.851,0.92-14.887c0.614-7.462,1.314-14.914,1.804-22.377c0-0.096,0.009-0.191,0.019-0.287
				c0.441-6.906,0.768-13.831,0.95-20.756c0.115-4.115-0.163-8.249-0.259-12.383c0-0.029-0.01-0.077-0.01-0.105
				c-0.01-0.595-0.02-1.18-0.029-1.766c0.441,0.375,0.959,0.682,1.305,1.123c3.031,3.951,7.395,5.831,11.826,7.539
				c5.084,1.946,10.302,3.558,15.356,5.602c1.784,0.729,3.559,1.486,5.323,2.254c3.875,1.697,7.721,3.472,11.596,5.179
				c0.394,0.173,0.738,0.374,1.056,0.604c1.083,0.796,1.717,1.918,1.918,3.386c0.163,1.17,0.768,5.448,1.323,9.313
				c0.527,3.606,0.998,6.848,1.036,6.857c0.786,5.353,1.611,10.935,2.417,16.459h0.02l1.074,7.453
				c18.08-18.896,29.178-44.523,29.178-72.732C511.035,102.509,463.912,55.386,405.787,55.386z"/>
			<path fill="#FFFFFF" d="M415.273,265.46c0.01,0,0.019,0,0.028,0v-0.01C415.292,265.45,415.283,265.45,415.273,265.46
				L415.273,265.46z"/>
		</g>
	</g>
	<g>
		<g>
			<path fill="#FFFFFF" d="M172.828,522.186c-51.545,0-93.479-41.934-93.479-93.479c0-51.555,41.934-93.488,93.479-93.488
				c51.555,0,93.488,41.934,93.488,93.488C266.316,480.252,224.383,522.186,172.828,522.186z M172.828,339.918
				c-48.955,0-88.788,39.834-88.788,88.789s39.833,88.788,88.788,88.788s88.789-39.833,88.789-88.788
				S221.783,339.918,172.828,339.918z"/>
		</g>
		<g>
			<g>
				<path fill="#FFFFFF" d="M114.828,484.3v-0.01c0,0,0-0.01-0.01-0.01l0,0C114.828,484.29,114.828,484.29,114.828,484.3z"/>
				<path fill="#FFFFFF" d="M172.828,348.589c-44.313,0-80.242,35.93-80.242,80.252c0,21.504,8.46,41.033,22.232,55.439
					c0.221-1.525,0.499-3.29,0.72-4.834l0.135-0.912c0.681-4.67,1.371-9.332,2.033-14.003c0.077-0.47,1.372-9.237,1.611-10.877
					c0.192-1.381,0.921-2.359,2.177-2.935c7.089-3.242,14.167-6.513,21.629-8.854c3.194-0.997,6.34-2.187,9.094-4.134
					c1.18-0.844,2.129-1.985,3.203-2.983c0.221-0.211,0.479-0.364,0.854-0.643c-0.096,1.497-0.259,2.725-0.249,3.952
					c0.067,5.755-0.038,11.529,0.307,17.274c0.556,9.246,1.419,18.473,2.158,27.71c0,0.086,0.239,2.59,0.565,5.985l1.899,19.183
					c1.755,0.259,3.521,0.46,5.304,0.604l-0.019-2.629c-0.058-6.474-0.183-22.654-0.163-22.789
					c0.518-5.055,0.863-8.057,1.371-13.111c0.02-0.183,0.422-3.529,0.748-4.911c0.873-3.722,2.504-9.946,2.868-11.088
					c0.087-0.287,0.087-0.69-0.058-0.939c-1.343-2.417-2.733-4.806-4.211-7.366c1.468-0.873,3.07-1.822,4.806-2.83
					c-0.422-0.239-0.776-0.432-1.142-0.633c-4.134-2.273-7.903-4.978-10.905-8.661c-1.036-1.266-1.851-2.513-1.438-4.325
					c0.336-1.478,0.076-2.965-0.394-4.471c-0.518-1.64-0.595-3.414-0.854-5.131c-0.038-0.24-0.067-0.479-0.105-0.72
					c-2.11,0.221-3.463-0.815-3.808-2.915c-0.163-0.969-0.183-1.957-0.346-2.916c-0.115-0.72-0.422-1.4-0.557-2.12
					c-0.229-1.16-0.527-2.331-0.556-3.511c-0.038-1.668,0.565-2.004,2.167-1.371c-1.342-4.7-2.752-9.371-1.188-14.396
					c-0.25,0.229-0.499,0.422-0.739,0.623c-0.239-1.43,0.691-4.374,2.13-6.705c-0.249,0.059-0.432,0.097-0.634,0.145
					c0.652-1.362,2.273-2.839,4.576-4.345c-0.566,0.038-1.133,0.076-1.698,0.105c-0.038-0.058-0.067-0.115-0.105-0.183
					c1.285-0.643,2.513-1.486,3.865-1.908c1.86-0.586,3.521-1.362,4.997-2.667c1.18-1.046,2.695-1.592,4.412-1.899
					c-0.336,0.432-0.585,0.739-0.824,1.056c2.666-1.4,5.323-2.733,8.536-2.389c-0.575,0.47-1.074,0.883-1.563,1.285
					c0.038,0.048,0.076,0.097,0.115,0.145c1.582-0.145,3.165-0.308,4.969-0.479c-0.643,0.604-1.104,1.025-1.555,1.467
					c0.039,0.067,0.087,0.135,0.125,0.211c2.043-0.45,4.076-0.882,6.119-0.066c-1.074,0.277-2.244,0.239-3.271,1.246
					c1.611-0.01,3.069-0.066,4.278,1.018c-0.566,0.172-1.065,0.316-1.563,0.47c-0.02,0.067-0.039,0.144-0.058,0.211
					c3.702,0.432,6.263,2.379,7.903,5.793c-0.403-0.048-0.681-0.096-0.96-0.096c-0.277-0.01-0.556,0.038-0.892,0.077
					c0.087,0.172,0.097,0.268,0.163,0.307c1.957,1.361,2.666,3.414,3.069,5.63c0.585,3.108-0.086,6.12-0.776,9.112
					c-0.48,2.063-1.151,4.076-1.736,6.109c-0.039,0.154-0.077,0.307-0.145,0.633c0.375-0.221,0.643-0.364,0.902-0.518
					c1.189-0.672,1.918-0.364,1.976,0.998c0.058,1.131,0,2.32-0.354,3.376c-0.557,1.64-0.863,3.29-1.008,5.007
					c-0.048,0.604-0.23,1.237-0.488,1.783c-0.711,1.506-1.698,1.967-3.377,1.641c-0.115,0.883-0.221,1.756-0.354,2.628
					c-0.087,0.624-0.135,1.237-0.278,1.842c-0.086,0.354-0.201,0.71-0.394,1.056c-0.394,0.729-0.45,1.697-0.47,2.561
					c-0.02,1.17,0.173,2.33,0.191,3.501c0.02,0.479-0.057,1.045-0.307,1.438c-2.187,3.424-5.218,6.014-8.584,8.22
					c-1.056,0.7-2.139,1.333-3.252,1.995c-0.432,0.25-0.863,0.499-1.305,0.768c0.375,0.221,0.739,0.432,1.104,0.643
					c1.256,0.738,2.513,1.477,3.817,2.254c-0.422,0.613-0.844,1.104-1.17,1.649c-1.132,1.919-2.245,3.837-3.338,5.784
					c-0.105,0.182-0.038,0.498,0.038,0.738c0.24,0.748,1.084,3.837,1.803,6.59c0.566,2.158,1.065,4.104,1.133,4.536
					c0.287,1.563,0.575,3.137,0.748,4.71c0.479,4.46,0.901,8.92,1.342,13.38c0.01,0.134,0.509,24.985,0.499,25.293
					c1.899-0.173,3.779-0.413,5.64-0.71l1.151-18.579c0.336-5.64,0.633-10.56,0.7-11.356c0.47-5.678,1.007-11.365,1.381-17.053
					c0-0.077,0-0.145,0.01-0.221c0.336-5.266,0.585-10.541,0.729-15.816c0.076-3.146-0.125-6.302-0.202-9.448
					c0-0.019-0.01-0.048-0.01-0.077c-0.009-0.45-0.009-0.9-0.019-1.352c0.336,0.287,0.729,0.527,0.987,0.863
					c2.313,3.012,5.65,4.44,9.026,5.745c3.875,1.486,7.855,2.714,11.701,4.269c1.362,0.556,2.715,1.131,4.058,1.717
					c2.964,1.295,5.889,2.646,8.844,3.951c0.297,0.135,0.565,0.288,0.805,0.461c0.825,0.604,1.314,1.457,1.468,2.58
					c0.115,0.892,0.585,4.152,1.007,7.098c0.394,2.752,0.758,5.227,0.787,5.227c0.595,4.077,1.228,8.346,1.842,12.556h0.019
					l0.815,5.679c13.783-14.406,22.252-33.936,22.252-55.449C253.08,384.519,217.15,348.589,172.828,348.589z"/>
				<path fill="#FFFFFF" d="M180.061,508.758c0.01,0,0.02,0,0.028,0l0,0C180.08,508.758,180.07,508.758,180.061,508.758
					L180.061,508.758z"/>
			</g>
		</g>
	</g>
	<g>
		<g>
			<path fill="#FFFFFF" d="M405.787,522.186c-51.545,0-93.479-41.934-93.479-93.479c0-51.555,41.934-93.488,93.479-93.488
				c51.555,0,93.488,41.934,93.488,93.488C499.275,480.252,457.342,522.186,405.787,522.186z M405.787,339.918
				c-48.955,0-88.789,39.834-88.789,88.789s39.834,88.788,88.789,88.788s88.789-39.833,88.789-88.788
				S454.742,339.918,405.787,339.918z"/>
		</g>
		<g>
			<g>
				<path fill="#FFFFFF" d="M347.787,484.3v-0.01l-0.01-0.01l0,0C347.777,484.29,347.787,484.29,347.787,484.3z"/>
				<path fill="#FFFFFF" d="M405.787,348.589c-44.313,0-80.242,35.93-80.242,80.252c0,21.504,8.459,41.033,22.232,55.439
					c0.221-1.525,0.489-3.29,0.72-4.834l0.134-0.912c0.682-4.67,1.372-9.332,2.033-14.003c0.077-0.47,1.372-9.237,1.611-10.877
					c0.192-1.381,0.912-2.359,2.178-2.935c7.088-3.242,14.167-6.513,21.629-8.854c3.185-0.997,6.34-2.187,9.093-4.134
					c1.17-0.844,2.13-1.985,3.194-2.983c0.23-0.211,0.488-0.364,0.863-0.643c-0.096,1.497-0.26,2.725-0.25,3.952
					c0.067,5.755-0.038,11.529,0.307,17.274c0.557,9.246,1.42,18.473,2.149,27.71c0.009,0.086,0.249,2.59,0.565,5.985l1.909,19.183
					c1.755,0.259,3.52,0.46,5.304,0.604l-0.02-2.629c-0.057-6.474-0.182-22.654-0.162-22.789c0.518-5.055,0.854-8.057,1.371-13.111
					c0.02-0.183,0.422-3.529,0.748-4.911c0.873-3.722,2.504-9.946,2.868-11.088c0.086-0.287,0.086-0.69-0.058-0.939
					c-1.353-2.417-2.734-4.806-4.211-7.366c1.468-0.873,3.069-1.822,4.796-2.83c-0.413-0.239-0.768-0.432-1.132-0.633
					c-4.134-2.273-7.903-4.978-10.905-8.661c-1.036-1.266-1.852-2.513-1.438-4.325c0.325-1.478,0.076-2.965-0.403-4.471
					c-0.509-1.64-0.585-3.414-0.845-5.131c-0.038-0.24-0.076-0.479-0.114-0.72c-2.101,0.221-3.463-0.815-3.808-2.915
					c-0.154-0.969-0.173-1.957-0.336-2.916c-0.115-0.72-0.422-1.4-0.566-2.12c-0.23-1.16-0.527-2.331-0.547-3.511
					c-0.038-1.668,0.557-2.004,2.158-1.371c-1.343-4.7-2.752-9.371-1.18-14.396c-0.259,0.229-0.498,0.422-0.738,0.623
					c-0.24-1.43,0.681-4.374,2.129-6.705c-0.249,0.059-0.432,0.097-0.633,0.145c0.652-1.362,2.264-2.839,4.565-4.345
					c-0.556,0.038-1.132,0.076-1.688,0.105c-0.038-0.058-0.077-0.115-0.105-0.183c1.285-0.643,2.503-1.486,3.865-1.908
					c1.86-0.586,3.52-1.362,4.997-2.667c1.18-1.046,2.686-1.592,4.412-1.899c-0.346,0.432-0.585,0.739-0.834,1.056
					c2.666-1.4,5.332-2.733,8.545-2.389c-0.575,0.47-1.074,0.883-1.572,1.285c0.048,0.048,0.076,0.097,0.125,0.145
					c1.582-0.145,3.165-0.308,4.968-0.479c-0.643,0.604-1.103,1.025-1.563,1.467c0.048,0.067,0.096,0.135,0.135,0.211
					c2.043-0.45,4.076-0.882,6.119-0.066c-1.074,0.277-2.244,0.239-3.271,1.246c1.602-0.01,3.069-0.066,4.277,1.018
					c-0.565,0.172-1.074,0.316-1.573,0.47c-0.009,0.067-0.028,0.144-0.048,0.211c3.702,0.432,6.264,2.379,7.894,5.793
					c-0.393-0.048-0.671-0.096-0.949-0.096c-0.277-0.01-0.565,0.038-0.901,0.077c0.087,0.172,0.105,0.268,0.163,0.307
					c1.967,1.361,2.666,3.414,3.079,5.63c0.585,3.108-0.087,6.12-0.786,9.112c-0.471,2.063-1.151,4.076-1.727,6.109
					c-0.049,0.154-0.077,0.307-0.145,0.633c0.374-0.221,0.633-0.364,0.893-0.518c1.198-0.672,1.928-0.364,1.985,0.998
					c0.048,1.131,0,2.32-0.355,3.376c-0.556,1.64-0.863,3.29-1.007,5.007c-0.048,0.604-0.23,1.237-0.499,1.783
					c-0.7,1.506-1.688,1.967-3.366,1.641c-0.115,0.883-0.221,1.756-0.355,2.628c-0.096,0.624-0.134,1.237-0.287,1.842
					c-0.077,0.354-0.201,0.71-0.384,1.056c-0.394,0.729-0.451,1.697-0.47,2.561c-0.029,1.17,0.172,2.33,0.191,3.501
					c0.01,0.479-0.058,1.045-0.307,1.438c-2.197,3.424-5.228,6.014-8.585,8.22c-1.055,0.7-2.148,1.333-3.251,1.995
					c-0.432,0.25-0.863,0.499-1.305,0.768c0.374,0.221,0.729,0.432,1.104,0.643c1.246,0.738,2.513,1.477,3.816,2.254
					c-0.432,0.613-0.844,1.104-1.16,1.649c-1.142,1.919-2.264,3.837-3.348,5.784c-0.105,0.182-0.038,0.498,0.039,0.738
					c0.239,0.748,1.084,3.837,1.803,6.59c0.566,2.158,1.055,4.104,1.132,4.536c0.278,1.563,0.575,3.137,0.739,4.71
					c0.488,4.46,0.91,8.92,1.352,13.38c0.01,0.134,0.509,24.985,0.489,25.293c1.909-0.173,3.789-0.413,5.649-0.71l1.151-18.579
					c0.335-5.64,0.623-10.56,0.69-11.356c0.479-5.678,1.007-11.365,1.381-17.053c0.01-0.077,0.01-0.145,0.02-0.221
					c0.336-5.266,0.585-10.541,0.719-15.816c0.087-3.146-0.124-6.302-0.201-9.448c0-0.019,0-0.048,0-0.077
					c-0.01-0.45-0.02-0.9-0.028-1.352c0.335,0.287,0.738,0.527,0.997,0.863c2.312,3.012,5.641,4.44,9.025,5.745
					c3.875,1.486,7.846,2.714,11.702,4.269c1.362,0.556,2.714,1.131,4.058,1.717c2.953,1.295,5.889,2.646,8.843,3.951
					c0.298,0.135,0.565,0.288,0.796,0.461c0.835,0.604,1.324,1.457,1.468,2.58c0.125,0.892,0.585,4.152,1.017,7.098
					c0.394,2.752,0.758,5.227,0.787,5.227c0.594,4.077,1.218,8.346,1.841,12.556h0.01l0.825,5.679
					c13.783-14.406,22.242-33.936,22.242-55.449C486.029,384.519,450.1,348.589,405.787,348.589z"/>
				<rect x="413.028" y="508.758" fill="#FFFFFF" width="0.01" height="0"/>
			</g>
			<g>
				<path fill="#FFFFFF" d="M405.787,510.455c-45.07,0-81.748-36.678-81.748-81.748c0-45.08,36.678-81.749,81.748-81.749
					c45.08,0,81.748,36.669,81.748,81.749C487.535,473.777,450.867,510.455,405.787,510.455z M405.787,351.658
					c-42.48,0-77.039,34.567-77.039,77.049c0,42.48,34.559,77.039,77.039,77.039s77.039-34.559,77.039-77.039
					C482.826,386.226,448.268,351.658,405.787,351.658z"/>
			</g>
		</g>
	</g>
	<g>
		<g>
			<path fill="#FFFFFF" d="M580.746,484.3v-0.01l-0.01-0.01l0,0C580.736,484.29,580.746,484.29,580.746,484.3z"/>
			<path fill="#FFFFFF" d="M638.746,348.589c-44.322,0-80.243,35.93-80.243,80.252c0,21.504,8.46,41.033,22.233,55.439
				c0.221-1.525,0.489-3.29,0.719-4.834l0.135-0.912c0.681-4.67,1.371-9.332,2.033-14.003c0.077-0.47,1.362-9.237,1.602-10.877
				c0.192-1.381,0.921-2.359,2.188-2.935c7.088-3.242,14.157-6.513,21.629-8.854c3.184-0.997,6.33-2.187,9.083-4.134
				c1.18-0.844,2.139-1.985,3.203-2.983c0.23-0.211,0.489-0.364,0.854-0.643c-0.097,1.497-0.26,2.725-0.24,3.952
				c0.058,5.755-0.038,11.529,0.307,17.274c0.557,9.246,1.42,18.473,2.148,27.71c0.01,0.086,0.24,2.59,0.566,5.985l1.908,19.183
				c1.746,0.259,3.521,0.46,5.295,0.604l-0.01-2.629c-0.067-6.474-0.182-22.654-0.163-22.789c0.519-5.055,0.854-8.057,1.362-13.111
				c0.02-0.183,0.432-3.529,0.758-4.911c0.873-3.722,2.493-9.946,2.857-11.088c0.087-0.287,0.087-0.69-0.047-0.939
				c-1.354-2.417-2.734-4.806-4.221-7.366c1.477-0.873,3.079-1.822,4.805-2.83c-0.412-0.239-0.776-0.432-1.131-0.633
				c-4.135-2.273-7.904-4.978-10.916-8.661c-1.035-1.266-1.841-2.513-1.438-4.325c0.336-1.478,0.087-2.965-0.394-4.471
				c-0.518-1.64-0.584-3.414-0.844-5.131c-0.038-0.24-0.076-0.479-0.115-0.72c-2.1,0.221-3.462-0.815-3.808-2.915
				c-0.153-0.969-0.173-1.957-0.335-2.916c-0.125-0.72-0.423-1.4-0.566-2.12c-0.23-1.16-0.527-2.331-0.557-3.511
				c-0.038-1.668,0.566-2.004,2.168-1.371c-1.343-4.7-2.753-9.371-1.18-14.396c-0.259,0.229-0.499,0.422-0.738,0.623
				c-0.24-1.43,0.681-4.374,2.129-6.705c-0.249,0.059-0.441,0.097-0.643,0.145c0.662-1.362,2.273-2.839,4.575-4.345
				c-0.565,0.038-1.132,0.076-1.698,0.105c-0.028-0.058-0.066-0.115-0.096-0.183c1.285-0.643,2.504-1.486,3.865-1.908
				c1.861-0.586,3.521-1.362,4.998-2.667c1.18-1.046,2.686-1.592,4.412-1.899c-0.346,0.432-0.586,0.739-0.835,1.056
				c2.667-1.4,5.323-2.733,8.536-2.389c-0.565,0.47-1.064,0.883-1.563,1.285c0.047,0.048,0.076,0.097,0.114,0.145
				c1.593-0.145,3.175-0.308,4.969-0.479c-0.633,0.604-1.094,1.025-1.554,1.467c0.048,0.067,0.096,0.135,0.134,0.211
				c2.043-0.45,4.077-0.882,6.11-0.066c-1.074,0.277-2.244,0.239-3.271,1.246c1.611-0.01,3.079-0.066,4.288,1.018
				c-0.575,0.172-1.074,0.316-1.573,0.47c-0.01,0.067-0.028,0.144-0.048,0.211c3.692,0.432,6.254,2.379,7.894,5.793
				c-0.402-0.048-0.671-0.096-0.949-0.096c-0.278-0.01-0.566,0.038-0.901,0.077c0.086,0.172,0.105,0.268,0.163,0.307
				c1.966,1.361,2.666,3.414,3.078,5.63c0.586,3.108-0.096,6.12-0.786,9.112c-0.479,2.063-1.151,4.076-1.727,6.109
				c-0.048,0.154-0.077,0.307-0.144,0.633c0.374-0.221,0.633-0.364,0.892-0.518c1.199-0.672,1.928-0.364,1.985,0.998
				c0.049,1.131,0,2.32-0.354,3.376c-0.557,1.64-0.863,3.29-1.007,5.007c-0.058,0.604-0.23,1.237-0.499,1.783
				c-0.7,1.506-1.688,1.967-3.366,1.641c-0.125,0.883-0.23,1.756-0.355,2.628c-0.096,0.624-0.135,1.237-0.287,1.842
				c-0.077,0.354-0.202,0.71-0.394,1.056c-0.394,0.729-0.441,1.697-0.461,2.561c-0.028,1.17,0.173,2.33,0.192,3.501
				c0.01,0.479-0.058,1.045-0.307,1.438c-2.197,3.424-5.229,6.014-8.595,8.22c-1.046,0.7-2.139,1.333-3.241,1.995
				c-0.432,0.25-0.873,0.499-1.305,0.768c0.364,0.221,0.729,0.432,1.093,0.643c1.257,0.738,2.514,1.477,3.827,2.254
				c-0.432,0.613-0.844,1.104-1.17,1.649c-1.132,1.919-2.244,3.837-3.338,5.784c-0.115,0.182-0.038,0.498,0.038,0.738
				c0.24,0.748,1.074,3.837,1.804,6.59c0.565,2.158,1.055,4.104,1.132,4.536c0.278,1.563,0.565,3.137,0.738,4.71
				c0.479,4.46,0.901,8.92,1.343,13.38c0.02,0.134,0.518,24.985,0.499,25.293c1.908-0.173,3.778-0.413,5.64-0.71l1.15-18.579
				c0.336-5.64,0.634-10.56,0.701-11.356c0.47-5.678,1.007-11.365,1.381-17.053c0.01-0.077,0.01-0.145,0.01-0.221
				c0.345-5.266,0.585-10.541,0.729-15.816c0.086-3.146-0.125-6.302-0.201-9.448c0-0.019,0-0.048,0-0.077
				c-0.01-0.45-0.02-0.9-0.029-1.352c0.336,0.287,0.729,0.527,0.998,0.863c2.312,3.012,5.64,4.44,9.025,5.745
				c3.865,1.486,7.846,2.714,11.692,4.269c1.362,0.556,2.714,1.131,4.066,1.717c2.954,1.295,5.89,2.646,8.844,3.951
				c0.288,0.135,0.556,0.288,0.796,0.461c0.825,0.604,1.314,1.457,1.468,2.58c0.124,0.892,0.585,4.152,1.007,7.098
				c0.402,2.752,0.768,5.227,0.796,5.227c0.595,4.077,1.218,8.346,1.842,12.556h0.01l0.825,5.679
				c13.773-14.406,22.242-33.936,22.242-55.449C718.988,384.519,683.059,348.589,638.746,348.589z"/>
			<path fill="#FFFFFF" d="M645.978,508.758c0.01,0,0.02,0,0.02,0l0,0C645.997,508.758,645.987,508.758,645.978,508.758
				L645.978,508.758z"/>
		</g>
		<g>
			<path fill="#FFFFFF" d="M638.746,510.455c-45.08,0-81.749-36.678-81.749-81.748c0-45.08,36.669-81.749,81.749-81.749
				c45.07,0,81.748,36.669,81.748,81.749C720.494,473.777,683.816,510.455,638.746,510.455z M638.746,351.658
				c-42.481,0-77.039,34.567-77.039,77.049c0,42.48,34.558,77.039,77.039,77.039c42.48,0,77.039-34.559,77.039-77.039
				C715.785,386.226,681.227,351.658,638.746,351.658z"/>
		</g>
	</g>
	<g>
		<rect x="402.545" y="280.364" fill="#FFFFFF" width="6.484" height="57.809"/>
	</g>
</g>
</svg>
