<?xml version="1.0" encoding="utf-8"?>
<!-- Generator: Adobe Illustrator 16.0.0, SVG Export Plug-In . SVG Version: 6.00 Build 0)  -->
<!DOCTYPE svg PUBLIC "-//W3C//DTD SVG 1.1//EN" "http://www.w3.org/Graphics/SVG/1.1/DTD/svg11.dtd">
<svg version="1.1" id="Layer_1" xmlns="http://www.w3.org/2000/svg" xmlns:xlink="http://www.w3.org/1999/xlink" x="0px" y="0px"
	 width="811.574px" height="560px" viewBox="0 0 811.574 560" enable-background="new 0 0 811.574 560" xml:space="preserve">
<g>
	<linearGradient id="SVGID_1_" gradientUnits="userSpaceOnUse" x1="470.6777" y1="307.0186" x2="340.6183" y2="532.2881">
		<stop  offset="0" style="stop-color:#2EC425"/>
		<stop  offset="0.1756" style="stop-color:#2CBE27"/>
		<stop  offset="0.4049" style="stop-color:#28AE2B"/>
		<stop  offset="0.6638" style="stop-color:#209332"/>
		<stop  offset="0.9427" style="stop-color:#156E3D"/>
		<stop  offset="1" style="stop-color:#13653F"/>
	</linearGradient>
	<path fill="url(#SVGID_1_)" d="M405.766,282.404c-45.897,0-83.237,37.348-83.237,83.252c0,9.342,2.022,20.947,4.922,28.209
		c9.705,24.48,39.369,77.045,57.846,108.994c-16.259,1.676-43.859,6.789-43.859,22.129c0,17.072,34.654,23.129,64.329,23.129
		c29.696,0,64.365-6.057,64.365-23.129c0-15.223-27.232-20.369-43.286-22.076c18.246-31.904,47.577-84.436,57.267-109.025
		c2.897-7.363,4.916-18.973,4.916-28.23C489.027,319.752,451.68,282.404,405.766,282.404z M412.517,527.746
		c0.435-0.746,2.733-4.68,6.273-10.797c20.518,1.379,32.01,5.695,35.697,8.029c-4.251,2.66-18.819,7.971-45.274,8.398
		L412.517,527.746z M393.462,516.904l9.713,16.486c-26.964-0.328-41.796-5.717-46.09-8.408
		C360.833,522.611,372.539,518.234,393.462,516.904z M409.548,503.518l-3.422,5.928l-3.459-5.953
		c-15.073-25.92-51.241-89.018-61.568-115.043c-1.923-4.859-3.87-14.246-3.87-22.793c0-37.799,30.744-68.553,68.537-68.553
		c37.801,0,68.562,30.754,68.562,68.553c0,8.494-1.953,17.92-3.886,22.836C460.115,414.648,424.416,477.648,409.548,503.518z"/>
	<linearGradient id="SVGID_2_" gradientUnits="userSpaceOnUse" x1="429.123" y1="324.877" x2="382.4221" y2="405.7653">
		<stop  offset="0" style="stop-color:#2EC425"/>
		<stop  offset="0.1756" style="stop-color:#2CBE27"/>
		<stop  offset="0.4049" style="stop-color:#28AE2B"/>
		<stop  offset="0.6638" style="stop-color:#209332"/>
		<stop  offset="0.9427" style="stop-color:#156E3D"/>
		<stop  offset="1" style="stop-color:#13653F"/>
	</linearGradient>
	<path fill="url(#SVGID_2_)" d="M405.766,318.629c-25.777,0-46.683,20.895-46.683,46.686c0,25.787,20.905,46.703,46.683,46.703
		c25.788,0,46.706-20.916,46.706-46.703C452.472,339.523,431.554,318.629,405.766,318.629z"/>
	<linearGradient id="SVGID_3_" gradientUnits="userSpaceOnUse" x1="431.2842" y1="45.8765" x2="399.3726" y2="101.149">
		<stop  offset="0" style="stop-color:#2EC425"/>
		<stop  offset="0.1756" style="stop-color:#2CBE27"/>
		<stop  offset="0.4049" style="stop-color:#28AE2B"/>
		<stop  offset="0.6638" style="stop-color:#209332"/>
		<stop  offset="0.9427" style="stop-color:#156E3D"/>
		<stop  offset="1" style="stop-color:#13653F"/>
	</linearGradient>
	<polygon fill="url(#SVGID_3_)" points="408.657,74.956 397.186,99.886 417.36,81.271 437.562,99.892 426.06,74.956 449.949,61.515 
		422.738,64.708 417.354,37.833 411.971,64.708 384.791,61.518 	"/>
	<linearGradient id="SVGID_4_" gradientUnits="userSpaceOnUse" x1="570.2139" y1="109.7412" x2="311.2473" y2="558.2844">
		<stop  offset="0" style="stop-color:#2EC425"/>
		<stop  offset="0.1756" style="stop-color:#2CBE27"/>
		<stop  offset="0.4049" style="stop-color:#28AE2B"/>
		<stop  offset="0.6638" style="stop-color:#209332"/>
		<stop  offset="0.9427" style="stop-color:#156E3D"/>
		<stop  offset="1" style="stop-color:#13653F"/>
	</linearGradient>
	<path fill="url(#SVGID_4_)" d="M583.427,347.992l-3.146,0.184l-45.797-0.021v-12.738l-13.781,0.012
		c1.22-5.633,1.613-11.115,1.168-16.299c-0.305-5.209-1.729-10.127-2.822-13.527l-0.416-1.102c-0.658-1.76-1.321-3.516-2.154-5.102
		l-0.427-0.871c-0.343-0.732-0.693-1.459-1.118-2.199l-1.642-2.762c-4.221-6.871-9.953-13.425-17.065-19.488
		c-6.045-5.126-12.083-10.163-18.189-15.164c-7.23-5.917-14.612-11.674-21.954-17.403c-5.033-3.928-10.041-7.84-14.967-11.771
		c-5.677-4.577-11.622-9.498-16.491-14.865c-4.71-5.148-8.326-10.811-11.064-17.314l-1.539-3.637
		c1.417-1.543,2.225-3.562,2.225-5.683c0-2.366-0.974-4.565-2.675-6.151l-0.759-20.821c0.836-1.092,1.297-2.435,1.297-3.821
		c0-1.581-0.574-3.054-1.584-4.19l-0.401-10.806c18.875,1.105,37.104-5.873,50.436-19.217c9.192-9.179,15.416-20.759,18.001-33.491
		l-6.112-1.643c-2.715,8.08-7.186,15.268-13.27,21.355c-10.452,10.44-24.332,16.188-39.101,16.188
		c-14.762,0-28.644-5.748-39.088-16.185c-10.441-10.447-16.2-24.33-16.2-39.099c0-14.764,5.759-28.645,16.2-39.083
		c6.098-6.104,13.286-10.571,21.365-13.281l-1.636-6.116c-12.713,2.569-24.304,8.792-33.524,18
		c-25.715,25.748-25.715,67.625,0,93.352c9.453,9.456,21.262,15.704,34.287,18.177l-0.42,11.843
		c-1.023,1.136-1.604,2.609-1.604,4.196c0,1.396,0.473,2.738,1.316,3.834l-0.755,20.803c-1.705,1.583-2.684,3.781-2.684,6.157
		c0,2.08,0.774,4.062,2.135,5.588l-1.536,3.931c-2.675,6.803-6.131,12.542-10.579,17.55c-4.383,4.958-9.708,9.456-16.359,14.677
		c-4.583,3.571-9.234,7.119-13.911,10.684c-7.719,5.881-15.69,11.964-23.378,18.189c-6.177,4.967-12.239,10.028-18.304,15.157
		c-7.164,6.101-12.912,12.657-17.098,19.489c-1.168,1.91-2.303,3.861-3.157,5.783c-0.881,1.68-1.562,3.463-2.231,5.26l-0.422,1.145
		c-1.663,5.088-2.549,9.34-2.784,13.299c-0.459,5.258-0.069,10.77,1.149,16.426h-16.598v12.756l-53.809-0.184l-3.172,0.184v155.857
		h14.035V362.221h57.293v-11.973h22.646l-3.521-10.031c-2.423-6.838-3.346-13.521-2.734-19.943c0.244-3.418,1.231-6.75,2.099-9.363
		l0.463-1.16c0.448-1.139,0.88-2.273,1.616-3.598c0.649-1.42,1.467-2.742,2.439-4.34c3.417-5.369,8.17-10.586,14.114-15.498
		c5.986-4.924,12.063-9.825,18.189-14.618c7.481-5.941,15.073-11.674,22.716-17.443c4.859-3.668,9.729-7.35,14.629-11.124
		c6.566-5.124,12.934-10.257,18.622-16.67c2.192-2.42,4.253-5.07,6.149-7.923c1.938,2.739,4.01,5.311,6.202,7.684
		c5.726,6.222,11.994,11.364,18.463,16.534c5.333,4.199,10.671,8.327,15.985,12.443c7.076,5.463,14.113,10.905,21.07,16.465
		c6.094,4.858,12.164,9.764,18.138,14.682c5.915,4.896,10.66,10.113,14.058,15.447l1.428,2.373c0.239,0.377,0.432,0.785,0.633,1.191
		l0.518,1.023c0.593,1.078,1.03,2.211,1.48,3.344l0.412,1.02c0.941,2.844,1.938,6.203,2.178,9.656
		c0.593,6.203-0.357,13.061-2.741,19.83l-3.521,10.002l19.747,0.016v12.002l60.167-0.041v141.826h14.038V347.992H583.427z"/>
	<linearGradient id="SVGID_5_" gradientUnits="userSpaceOnUse" x1="311.9707" y1="395.7324" x2="246.9493" y2="508.3527">
		<stop  offset="0" style="stop-color:#2EC425"/>
		<stop  offset="0.1756" style="stop-color:#2CBE27"/>
		<stop  offset="0.4049" style="stop-color:#28AE2B"/>
		<stop  offset="0.6638" style="stop-color:#209332"/>
		<stop  offset="0.9427" style="stop-color:#156E3D"/>
		<stop  offset="1" style="stop-color:#13653F"/>
	</linearGradient>
	<path fill="url(#SVGID_5_)" d="M297.403,390.713h-1.289c-7.84,0-14.248,3.262-17.826,8.422c-3.403-5.125-9.421-8.422-16.629-8.422
		h-1.272c-12.115,0-20.919,7.705-20.919,18.322v94.998h35.73h6.069h35.755v-94.998C317.022,398.588,308.593,390.713,297.403,390.713
		z M286.337,409.035c0-4.361,3.842-7.178,9.777-7.178h1.289c4.081,0,8.479,2.244,8.479,7.178v83.857h-19.545V409.035z
		 M250.607,409.035c0-4.361,3.842-7.178,9.779-7.178h1.272c4.084,0,8.469,2.244,8.469,7.178v83.857h-19.521V409.035z"/>
	<linearGradient id="SVGID_6_" gradientUnits="userSpaceOnUse" x1="567.0518" y1="395.7275" x2="502.0238" y2="508.3593">
		<stop  offset="0" style="stop-color:#2EC425"/>
		<stop  offset="0.1756" style="stop-color:#2CBE27"/>
		<stop  offset="0.4049" style="stop-color:#28AE2B"/>
		<stop  offset="0.6638" style="stop-color:#209332"/>
		<stop  offset="0.9427" style="stop-color:#156E3D"/>
		<stop  offset="1" style="stop-color:#13653F"/>
	</linearGradient>
	<path fill="url(#SVGID_6_)" d="M552.491,390.713h-1.286c-7.841,0-14.243,3.256-17.82,8.41c-3.403-5.117-9.43-8.41-16.634-8.41
		h-1.262c-12.141,0-20.958,7.705-20.958,18.322v94.998h35.756h6.082h35.744v-94.998
		C572.113,398.588,563.683,390.713,552.491,390.713z M541.429,409.035c0-4.361,3.839-7.178,9.776-7.178h1.286
		c4.085,0,8.469,2.244,8.469,7.178v83.857h-19.531V409.035z M505.673,409.035c0-4.361,3.857-7.178,9.816-7.178h1.262
		c4.08,0,8.479,2.244,8.479,7.178v83.857h-19.557V409.035z"/>
</g>
</svg>
