<?xml version="1.0" encoding="utf-8"?>
<!-- Generator: Adobe Illustrator 16.0.0, SVG Export Plug-In . SVG Version: 6.00 Build 0)  -->
<!DOCTYPE svg PUBLIC "-//W3C//DTD SVG 1.1//EN" "http://www.w3.org/Graphics/SVG/1.1/DTD/svg11.dtd">
<svg version="1.1" id="Layer_1" xmlns="http://www.w3.org/2000/svg" xmlns:xlink="http://www.w3.org/1999/xlink" x="0px" y="0px"
	 width="811.574px" height="560px" viewBox="0 0 811.574 560" enable-background="new 0 0 811.574 560" xml:space="preserve">
<g>
	<path fill="#FF0000" d="M252.945,428.705c0,44.246-35.871,80.109-80.117,80.109c-44.236,0-80.107-35.863-80.107-80.109
		c0-44.244,35.871-80.117,80.107-80.117C217.074,348.588,252.945,384.461,252.945,428.705z"/>
	<path fill="#FFFFFF" d="M284.666,426.365c0.059-0.402,0.113-0.805,0.172-1.209c-0.363,0.221-0.738,0.441-1.111,0.662
		C284.043,426,284.35,426.193,284.666,426.365z"/>
	<g>
		<g>
			<path fill="#FFFFFF" d="M638.746,522.186c-51.557,0-93.488-41.934-93.488-93.48c0-51.553,41.932-93.488,93.488-93.488
				c51.545,0,93.479,41.936,93.479,93.488C732.225,480.252,690.291,522.186,638.746,522.186z M638.746,339.918
				c-48.965,0-88.789,39.834-88.789,88.787c0,48.955,39.824,88.789,88.789,88.789c48.953,0,88.787-39.834,88.787-88.789
				C727.533,379.752,687.699,339.918,638.746,339.918z"/>
		</g>
	</g>
	<g>
		<path fill="#FFFFFF" d="M405.787,283.453c-67.727,0-122.82-55.094-122.82-122.82c0-67.725,55.094-122.818,122.82-122.818
			c67.725,0,122.828,55.094,122.828,122.818C528.615,228.359,473.512,283.453,405.787,283.453z M405.787,43.982
			c-64.32,0-116.652,52.332-116.652,116.65c0,64.322,52.332,116.643,116.652,116.643s116.652-52.32,116.652-116.643
			C522.439,96.314,470.107,43.982,405.787,43.982z"/>
	</g>
	<g>
		<polygon fill="#FFFFFF" points="634.131,340.916 488.465,248.279 491.938,242.814 637.604,335.439 		"/>
	</g>
	<g>
		<polygon fill="#FFFFFF" points="191.688,340.83 187.955,335.525 319.502,242.891 323.242,248.193 		"/>
	</g>
	<g>
		<g>
			<path fill="#FFFFFF" d="M329.717,233.375v-0.01c-0.008,0-0.008-0.01-0.008-0.01l0,0
				C329.709,233.355,329.709,233.365,329.717,233.375z"/>
			<path fill="#FFFFFF" d="M405.787,55.387c-58.123,0-105.248,47.123-105.248,105.246c0,28.209,11.098,53.828,29.17,72.723
				c0.277-2.004,0.641-4.316,0.93-6.348l0.182-1.199c0.891-6.121,1.795-12.24,2.666-18.369c0.096-0.613,1.795-12.113,2.102-14.262
				c0.258-1.803,1.219-3.088,2.867-3.846c9.303-4.25,18.578-8.547,28.371-11.607c4.184-1.303,8.314-2.877,11.922-5.43
				c1.545-1.102,2.803-2.607,4.201-3.91c0.289-0.27,0.635-0.482,1.123-0.844c-0.125,1.955-0.336,3.576-0.326,5.188
				c0.088,7.549-0.049,15.125,0.402,22.654c0.738,12.135,1.861,24.229,2.83,36.342c0,0.117,0.316,3.396,0.738,7.857l2.504,25.156
				c2.291,0.336,4.604,0.596,6.943,0.789l-0.02-3.445c-0.086-8.486-0.238-29.703-0.219-29.895c0.68-6.629,1.131-10.563,1.801-17.189
				c0.02-0.24,0.557-4.633,0.99-6.447c1.143-4.871,3.271-13.043,3.748-14.539c0.117-0.375,0.117-0.91-0.066-1.236
				c-1.766-3.156-3.596-6.303-5.523-9.67c1.928-1.131,4.027-2.379,6.291-3.713c-0.537-0.285-1.016-0.555-1.488-0.814
				c-5.416-2.973-10.367-6.531-14.309-11.365c-1.354-1.658-2.418-3.301-1.889-5.678c0.439-1.938,0.105-3.885-0.51-5.861
				c-0.68-2.148-0.777-4.479-1.121-6.732c-0.049-0.307-0.098-0.623-0.145-0.93c-2.762,0.277-4.537-1.076-4.996-3.838
				c-0.203-1.256-0.221-2.551-0.443-3.816c-0.162-0.941-0.547-1.842-0.736-2.773c-0.299-1.533-0.691-3.057-0.721-4.604
				c-0.057-2.195,0.738-2.646,2.84-1.803c-1.766-6.168-3.607-12.295-1.555-18.887c-0.336,0.289-0.65,0.568-0.969,0.826
				c-0.316-1.881,0.893-5.744,2.803-8.795c-0.336,0.068-0.588,0.123-0.846,0.182c0.863-1.783,2.982-3.73,5.994-5.697
				c-0.738,0.049-1.486,0.096-2.225,0.145c-0.049-0.086-0.086-0.162-0.135-0.242c1.688-0.861,3.291-1.955,5.074-2.512
				c2.436-0.768,4.613-1.773,6.561-3.49c1.533-1.373,3.52-2.082,5.783-2.494c-0.449,0.566-0.768,0.979-1.094,1.381
				c3.5-1.842,6.984-3.578,11.203-3.137c-0.756,0.625-1.408,1.16-2.053,1.699c0.049,0.066,0.105,0.123,0.154,0.191
				c2.072-0.201,4.143-0.404,6.512-0.643c-0.834,0.795-1.438,1.352-2.043,1.918c0.066,0.096,0.115,0.191,0.174,0.277
				c2.676-0.584,5.342-1.15,8.027-0.076c-1.408,0.363-2.953,0.316-4.287,1.629c2.102-0.018,4.018-0.086,5.611,1.346
				c-0.748,0.209-1.41,0.402-2.063,0.604c-0.02,0.096-0.049,0.191-0.068,0.287c4.855,0.566,8.211,3.107,10.359,7.596
				c-0.525-0.057-0.881-0.133-1.246-0.133c-0.373,0-0.738,0.066-1.189,0.096c0.125,0.23,0.143,0.354,0.221,0.412
				c2.568,1.793,3.49,4.488,4.037,7.395c0.758,4.068-0.113,8.018-1.025,11.941c-0.633,2.705-1.504,5.352-2.273,8.02
				c-0.057,0.201-0.096,0.402-0.191,0.814c0.488-0.287,0.834-0.469,1.178-0.662c1.564-0.891,2.525-0.488,2.602,1.314
				c0.066,1.469,0,3.031-0.473,4.412c-0.727,2.148-1.119,4.326-1.311,6.57c-0.068,0.797-0.309,1.621-0.654,2.34
				c-0.92,1.977-2.215,2.582-4.422,2.148c-0.152,1.16-0.297,2.313-0.469,3.453c-0.115,0.814-0.174,1.611-0.365,2.408
				c-0.115,0.469-0.268,0.93-0.518,1.381c-0.518,0.959-0.584,2.234-0.613,3.367c-0.031,1.525,0.229,3.061,0.258,4.594
				c0.01,0.623-0.076,1.361-0.4,1.881c-2.889,4.498-6.859,7.883-11.271,10.789c-1.373,0.91-2.811,1.756-4.26,2.6
				c-0.564,0.336-1.131,0.672-1.707,1.016c0.48,0.287,0.959,0.557,1.439,0.844c1.648,0.98,3.301,1.949,5.016,2.955
				c-0.566,0.797-1.111,1.447-1.533,2.17c-1.488,2.512-2.955,5.035-4.385,7.574c-0.135,0.24-0.047,0.662,0.049,0.969
				c0.316,0.99,1.42,5.047,2.369,8.652c0.738,2.84,1.381,5.383,1.486,5.945c0.365,2.053,0.748,4.115,0.969,6.189
				c0.633,5.84,1.189,11.691,1.764,17.541c0.02,0.172,0.674,32.775,0.654,33.17c2.492-0.223,4.959-0.529,7.393-0.924l1.518-24.371
				c0.439-7.395,0.824-13.85,0.922-14.887c0.611-7.461,1.313-14.914,1.803-22.375c0-0.098,0.008-0.193,0.018-0.289
				c0.441-6.906,0.768-13.83,0.949-20.756c0.115-4.115-0.162-8.248-0.26-12.381c0-0.031-0.008-0.08-0.008-0.105
				c-0.01-0.596-0.018-1.18-0.029-1.768c0.441,0.375,0.959,0.682,1.305,1.123c3.031,3.953,7.395,5.832,11.826,7.539
				c5.084,1.947,10.303,3.559,15.357,5.604c1.783,0.729,3.557,1.484,5.322,2.252c3.875,1.697,7.721,3.473,11.596,5.18
				c0.393,0.174,0.738,0.375,1.055,0.604c1.084,0.797,1.719,1.92,1.92,3.387c0.162,1.17,0.766,5.447,1.322,9.313
				c0.527,3.605,0.998,6.848,1.035,6.857c0.787,5.354,1.613,10.936,2.418,16.459h0.02l1.074,7.453
				c18.08-18.895,29.176-44.523,29.176-72.732C511.033,102.51,463.91,55.387,405.787,55.387z"/>
			<path fill="#FFFFFF" d="M415.273,265.459c0.01,0,0.02,0,0.029,0v-0.008C415.293,265.451,415.283,265.451,415.273,265.459
				L415.273,265.459z"/>
		</g>
	</g>
	<g>
		<g>
			<path fill="#FFFFFF" d="M172.828,522.186c-51.545,0-93.479-41.934-93.479-93.48c0-51.553,41.934-93.488,93.479-93.488
				c51.555,0,93.488,41.936,93.488,93.488C266.316,480.252,224.383,522.186,172.828,522.186z M172.828,339.918
				c-48.953,0-88.787,39.834-88.787,88.787c0,48.955,39.834,88.789,88.787,88.789c48.955,0,88.789-39.834,88.789-88.789
				C261.617,379.752,221.783,339.918,172.828,339.918z"/>
		</g>
		<g>
			<g>
				<path fill="#FFFFFF" d="M114.828,484.299v-0.012c0,0,0-0.008-0.008-0.008l0,0C114.828,484.287,114.828,484.287,114.828,484.299z
					"/>
				<path fill="#FFFFFF" d="M172.828,348.588c-44.313,0-80.24,35.932-80.24,80.252c0,21.504,8.459,41.033,22.232,55.439
					c0.221-1.525,0.498-3.291,0.717-4.834l0.137-0.912c0.682-4.67,1.371-9.332,2.033-14.002c0.076-0.471,1.371-9.238,1.611-10.877
					c0.191-1.383,0.92-2.359,2.176-2.936c7.09-3.242,14.168-6.512,21.631-8.854c3.191-0.998,6.338-2.186,9.09-4.133
					c1.182-0.844,2.131-1.986,3.205-2.984c0.221-0.209,0.479-0.365,0.855-0.643c-0.098,1.498-0.26,2.725-0.25,3.951
					c0.066,5.758-0.041,11.529,0.305,17.273c0.559,9.248,1.422,18.475,2.16,27.713c0,0.084,0.238,2.588,0.564,5.984l1.9,19.182
					c1.756,0.26,3.52,0.461,5.303,0.605l-0.02-2.627c-0.057-6.477-0.182-22.656-0.162-22.791c0.518-5.055,0.863-8.057,1.371-13.111
					c0.02-0.182,0.422-3.529,0.748-4.91c0.873-3.721,2.504-9.947,2.869-11.09c0.086-0.285,0.086-0.689-0.059-0.938
					c-1.344-2.418-2.732-4.807-4.211-7.367c1.469-0.873,3.07-1.822,4.807-2.83c-0.422-0.238-0.777-0.432-1.143-0.633
					c-4.135-2.273-7.902-4.977-10.904-8.66c-1.035-1.268-1.852-2.516-1.441-4.326c0.338-1.479,0.078-2.965-0.391-4.471
					c-0.518-1.639-0.596-3.414-0.854-5.131c-0.039-0.238-0.066-0.48-0.107-0.721c-2.107,0.223-3.459-0.814-3.807-2.914
					c-0.164-0.969-0.182-1.957-0.344-2.916c-0.117-0.721-0.422-1.4-0.559-2.121c-0.229-1.16-0.527-2.328-0.555-3.51
					c-0.039-1.668,0.564-2.004,2.168-1.373c-1.344-4.699-2.754-9.369-1.191-14.396c-0.248,0.232-0.498,0.424-0.738,0.625
					c-0.238-1.428,0.691-4.373,2.131-6.705c-0.25,0.059-0.434,0.096-0.633,0.145c0.652-1.361,2.273-2.84,4.574-4.344
					c-0.566,0.037-1.133,0.076-1.697,0.104c-0.039-0.055-0.068-0.113-0.105-0.182c1.285-0.643,2.514-1.486,3.865-1.908
					c1.861-0.584,3.521-1.361,4.996-2.668c1.18-1.043,2.697-1.59,4.412-1.898c-0.334,0.434-0.584,0.74-0.824,1.055
					c2.666-1.398,5.322-2.732,8.537-2.387c-0.576,0.471-1.076,0.881-1.564,1.285c0.039,0.047,0.078,0.096,0.115,0.145
					c1.582-0.145,3.164-0.307,4.969-0.48c-0.643,0.605-1.104,1.025-1.553,1.467c0.037,0.068,0.084,0.135,0.123,0.213
					c2.043-0.453,4.076-0.885,6.119-0.068c-1.074,0.279-2.244,0.24-3.27,1.248c1.611-0.012,3.068-0.066,4.277,1.016
					c-0.566,0.172-1.066,0.316-1.564,0.469c-0.02,0.07-0.037,0.145-0.055,0.213c3.701,0.432,6.262,2.379,7.9,5.793
					c-0.4-0.049-0.682-0.098-0.957-0.098c-0.279-0.008-0.557,0.039-0.893,0.078c0.086,0.172,0.096,0.27,0.162,0.307
					c1.957,1.361,2.666,3.414,3.068,5.629c0.586,3.109-0.086,6.119-0.775,9.113c-0.479,2.063-1.15,4.076-1.736,6.109
					c-0.039,0.154-0.076,0.307-0.145,0.635c0.375-0.221,0.645-0.365,0.902-0.52c1.189-0.672,1.918-0.365,1.977,0.998
					c0.057,1.131,0,2.32-0.355,3.375c-0.557,1.641-0.863,3.291-1.006,5.008c-0.049,0.604-0.232,1.236-0.49,1.785
					c-0.709,1.504-1.697,1.965-3.375,1.639c-0.117,0.883-0.223,1.756-0.355,2.629c-0.086,0.621-0.135,1.238-0.279,1.84
					c-0.086,0.355-0.201,0.711-0.393,1.057c-0.395,0.729-0.451,1.697-0.471,2.561c-0.02,1.17,0.172,2.332,0.193,3.5
					c0.02,0.48-0.059,1.047-0.309,1.439c-2.188,3.424-5.219,6.014-8.584,8.219c-1.055,0.701-2.139,1.334-3.252,1.996
					c-0.432,0.25-0.863,0.5-1.305,0.768c0.375,0.221,0.74,0.434,1.104,0.643c1.258,0.738,2.514,1.479,3.818,2.254
					c-0.422,0.615-0.846,1.104-1.17,1.648c-1.131,1.92-2.244,3.838-3.338,5.785c-0.105,0.182-0.039,0.498,0.037,0.738
					c0.24,0.748,1.084,3.836,1.805,6.59c0.564,2.158,1.064,4.105,1.131,4.537c0.287,1.563,0.576,3.135,0.748,4.709
					c0.479,4.459,0.902,8.92,1.342,13.379c0.01,0.135,0.51,24.988,0.5,25.295c1.898-0.174,3.777-0.414,5.639-0.711l1.152-18.578
					c0.334-5.641,0.633-10.561,0.701-11.355c0.467-5.68,1.006-11.369,1.381-17.055c0-0.076,0-0.145,0.008-0.221
					c0.336-5.266,0.586-10.543,0.729-15.816c0.078-3.146-0.123-6.301-0.201-9.447c0-0.02-0.008-0.049-0.008-0.078
					c-0.012-0.449-0.012-0.9-0.02-1.352c0.336,0.287,0.729,0.527,0.986,0.863c2.313,3.012,5.65,4.439,9.025,5.744
					c3.875,1.488,7.857,2.715,11.703,4.27c1.363,0.557,2.715,1.131,4.057,1.717c2.965,1.293,5.891,2.646,8.844,3.951
					c0.297,0.135,0.564,0.289,0.805,0.461c0.826,0.605,1.314,1.457,1.467,2.58c0.117,0.891,0.586,4.152,1.01,7.098
					c0.393,2.754,0.758,5.229,0.785,5.229c0.594,4.074,1.229,8.344,1.842,12.553h0.02l0.814,5.678
					c13.783-14.404,22.254-33.934,22.254-55.447C253.082,384.52,217.15,348.588,172.828,348.588z"/>
				<path fill="#FFFFFF" d="M180.063,508.758c0.008,0,0.018,0,0.027,0l0,0C180.08,508.758,180.07,508.758,180.063,508.758
					L180.063,508.758z"/>
			</g>
		</g>
	</g>
	<g>
		<g>
			<path fill="#FFFFFF" d="M405.787,522.186c-51.545,0-93.479-41.934-93.479-93.48c0-51.553,41.934-93.488,93.479-93.488
				c51.555,0,93.488,41.936,93.488,93.488C499.275,480.252,457.342,522.186,405.787,522.186z M405.787,339.918
				c-48.955,0-88.789,39.834-88.789,88.787c0,48.955,39.834,88.789,88.789,88.789s88.789-39.834,88.789-88.789
				C494.576,379.752,454.742,339.918,405.787,339.918z"/>
		</g>
		<g>
			<g>
				<path fill="#FFFFFF" d="M347.787,484.299v-0.012l-0.012-0.008l0,0C347.775,484.287,347.787,484.287,347.787,484.299z"/>
				<path fill="#FFFFFF" d="M405.787,348.588c-44.313,0-80.242,35.932-80.242,80.252c0,21.504,8.459,41.033,22.23,55.439
					c0.225-1.525,0.492-3.291,0.723-4.834l0.133-0.912c0.682-4.67,1.371-9.332,2.033-14.002c0.078-0.471,1.373-9.238,1.613-10.877
					c0.189-1.383,0.91-2.359,2.176-2.936c7.088-3.242,14.168-6.512,21.629-8.854c3.184-0.998,6.34-2.186,9.092-4.133
					c1.17-0.844,2.129-1.986,3.195-2.984c0.23-0.209,0.488-0.365,0.863-0.643c-0.096,1.498-0.26,2.725-0.25,3.951
					c0.068,5.758-0.039,11.529,0.309,17.273c0.555,9.248,1.418,18.475,2.148,27.713c0.01,0.084,0.248,2.588,0.564,5.984
					l1.908,19.182c1.756,0.26,3.521,0.461,5.305,0.605l-0.02-2.627c-0.057-6.477-0.182-22.656-0.162-22.791
					c0.518-5.055,0.854-8.057,1.371-13.111c0.02-0.182,0.422-3.529,0.748-4.91c0.873-3.721,2.504-9.947,2.867-11.09
					c0.088-0.285,0.088-0.689-0.059-0.938c-1.352-2.418-2.732-4.807-4.209-7.367c1.469-0.873,3.07-1.822,4.797-2.83
					c-0.414-0.238-0.768-0.432-1.133-0.633c-4.135-2.273-7.904-4.977-10.906-8.66c-1.035-1.268-1.85-2.516-1.438-4.326
					c0.326-1.479,0.076-2.965-0.402-4.471c-0.51-1.639-0.586-3.414-0.844-5.131c-0.041-0.238-0.078-0.48-0.115-0.721
					c-2.102,0.223-3.463-0.814-3.809-2.914c-0.154-0.969-0.174-1.957-0.336-2.916c-0.115-0.721-0.424-1.4-0.566-2.121
					c-0.23-1.16-0.527-2.328-0.547-3.51c-0.037-1.668,0.557-2.004,2.158-1.373c-1.342-4.699-2.752-9.369-1.18-14.396
					c-0.26,0.232-0.498,0.424-0.736,0.625c-0.242-1.428,0.68-4.373,2.129-6.705c-0.25,0.059-0.434,0.096-0.635,0.145
					c0.652-1.361,2.264-2.84,4.566-4.344c-0.557,0.037-1.133,0.076-1.688,0.104c-0.039-0.055-0.078-0.113-0.107-0.182
					c1.287-0.643,2.504-1.486,3.865-1.908c1.861-0.584,3.52-1.361,4.998-2.668c1.18-1.043,2.686-1.59,4.412-1.898
					c-0.346,0.434-0.586,0.74-0.834,1.055c2.666-1.398,5.334-2.732,8.545-2.387c-0.574,0.471-1.074,0.881-1.572,1.285
					c0.047,0.047,0.076,0.096,0.125,0.145c1.584-0.145,3.164-0.307,4.967-0.48c-0.641,0.605-1.102,1.025-1.563,1.467
					c0.049,0.068,0.096,0.135,0.135,0.213c2.043-0.453,4.076-0.885,6.119-0.068c-1.074,0.279-2.244,0.24-3.271,1.248
					c1.604-0.012,3.07-0.066,4.277,1.016c-0.564,0.172-1.072,0.316-1.572,0.469c-0.008,0.07-0.029,0.145-0.049,0.213
					c3.703,0.432,6.264,2.379,7.895,5.793c-0.393-0.049-0.67-0.098-0.949-0.098c-0.277-0.008-0.564,0.039-0.9,0.078
					c0.086,0.172,0.104,0.27,0.162,0.307c1.967,1.361,2.668,3.414,3.078,5.629c0.586,3.109-0.086,6.119-0.787,9.113
					c-0.469,2.063-1.15,4.076-1.727,6.109c-0.047,0.154-0.076,0.307-0.143,0.635c0.375-0.221,0.633-0.365,0.893-0.52
					c1.197-0.672,1.928-0.365,1.984,0.998c0.049,1.131,0,2.32-0.354,3.375c-0.557,1.641-0.863,3.291-1.01,5.008
					c-0.045,0.604-0.229,1.236-0.496,1.785c-0.701,1.504-1.688,1.965-3.367,1.639c-0.115,0.883-0.221,1.756-0.355,2.629
					c-0.094,0.621-0.135,1.238-0.287,1.84c-0.076,0.355-0.201,0.711-0.383,1.057c-0.395,0.729-0.451,1.697-0.471,2.561
					c-0.029,1.17,0.172,2.332,0.191,3.5c0.01,0.48-0.059,1.047-0.309,1.439c-2.195,3.424-5.225,6.014-8.582,8.219
					c-1.055,0.701-2.148,1.334-3.252,1.996c-0.432,0.25-0.863,0.5-1.305,0.768c0.375,0.221,0.73,0.434,1.104,0.643
					c1.246,0.738,2.514,1.479,3.818,2.254c-0.434,0.615-0.846,1.104-1.162,1.648c-1.143,1.92-2.264,3.838-3.348,5.785
					c-0.107,0.182-0.037,0.498,0.039,0.738c0.24,0.748,1.084,3.836,1.803,6.59c0.566,2.158,1.055,4.105,1.131,4.537
					c0.279,1.563,0.578,3.135,0.74,4.709c0.488,4.459,0.91,8.92,1.352,13.379c0.01,0.135,0.51,24.988,0.49,25.295
					c1.908-0.174,3.789-0.414,5.648-0.711l1.152-18.578c0.336-5.641,0.621-10.561,0.689-11.355
					c0.479-5.68,1.008-11.369,1.381-17.055c0.01-0.076,0.01-0.145,0.02-0.221c0.336-5.266,0.584-10.543,0.719-15.816
					c0.088-3.146-0.125-6.301-0.201-9.447c0-0.02,0-0.049,0-0.078c-0.01-0.449-0.02-0.9-0.027-1.352
					c0.334,0.287,0.738,0.527,0.996,0.863c2.313,3.012,5.641,4.439,9.025,5.744c3.875,1.488,7.848,2.715,11.703,4.27
					c1.361,0.557,2.715,1.131,4.057,1.717c2.953,1.293,5.889,2.646,8.842,3.951c0.299,0.135,0.566,0.289,0.797,0.461
					c0.834,0.605,1.324,1.457,1.467,2.58c0.127,0.891,0.586,4.152,1.018,7.098c0.393,2.754,0.756,5.229,0.787,5.229
					c0.594,4.074,1.219,8.344,1.842,12.553h0.008l0.826,5.678c13.783-14.404,22.242-33.934,22.242-55.447
					C486.029,384.52,450.1,348.588,405.787,348.588z"/>
				<rect x="413.027" y="508.758" fill="#FFFFFF" width="0.012" height="0"/>
			</g>
			<g>
				<path fill="#FFFFFF" d="M405.787,510.453c-45.07,0-81.748-36.678-81.748-81.748c0-45.078,36.678-81.748,81.748-81.748
					c45.08,0,81.748,36.67,81.748,81.748C487.535,473.775,450.867,510.453,405.787,510.453z M405.787,351.658
					c-42.48,0-77.039,34.568-77.039,77.047c0,42.482,34.559,77.041,77.039,77.041s77.039-34.559,77.039-77.041
					C482.826,386.227,448.268,351.658,405.787,351.658z"/>
			</g>
		</g>
	</g>
	<g>
		<g>
			<path fill="#FFFFFF" d="M580.746,484.299v-0.012l-0.01-0.008l0,0C580.736,484.287,580.746,484.287,580.746,484.299z"/>
			<path fill="#FFFFFF" d="M638.746,348.588c-44.324,0-80.244,35.932-80.244,80.252c0,21.504,8.461,41.033,22.234,55.439
				c0.221-1.525,0.488-3.291,0.721-4.834l0.133-0.912c0.68-4.67,1.371-9.332,2.033-14.002c0.076-0.471,1.361-9.238,1.602-10.877
				c0.191-1.383,0.922-2.359,2.188-2.936c7.088-3.242,14.156-6.512,21.629-8.854c3.184-0.998,6.33-2.186,9.082-4.133
				c1.18-0.844,2.141-1.986,3.203-2.984c0.232-0.209,0.49-0.365,0.855-0.643c-0.098,1.498-0.26,2.725-0.242,3.951
				c0.059,5.758-0.035,11.529,0.309,17.273c0.555,9.248,1.42,18.475,2.148,27.713c0.008,0.084,0.24,2.588,0.566,5.984l1.908,19.182
				c1.746,0.26,3.52,0.461,5.295,0.605l-0.01-2.627c-0.068-6.477-0.182-22.656-0.162-22.791c0.516-5.055,0.854-8.057,1.361-13.111
				c0.018-0.182,0.432-3.529,0.758-4.91c0.873-3.721,2.494-9.947,2.857-11.09c0.086-0.285,0.086-0.689-0.049-0.938
				c-1.352-2.418-2.732-4.807-4.221-7.367c1.479-0.873,3.08-1.822,4.807-2.83c-0.412-0.238-0.777-0.432-1.133-0.633
				c-4.133-2.273-7.902-4.977-10.914-8.66c-1.037-1.268-1.842-2.516-1.438-4.326c0.336-1.479,0.086-2.965-0.395-4.471
				c-0.518-1.639-0.586-3.414-0.846-5.131c-0.035-0.238-0.074-0.48-0.111-0.721c-2.104,0.223-3.465-0.814-3.811-2.914
				c-0.152-0.969-0.172-1.957-0.336-2.916c-0.123-0.721-0.422-1.4-0.564-2.121c-0.23-1.16-0.527-2.328-0.557-3.51
				c-0.037-1.668,0.564-2.004,2.168-1.373c-1.344-4.699-2.754-9.369-1.18-14.396c-0.258,0.232-0.5,0.424-0.74,0.625
				c-0.238-1.428,0.682-4.373,2.131-6.705c-0.25,0.059-0.441,0.096-0.643,0.145c0.662-1.361,2.271-2.84,4.574-4.344
				c-0.564,0.037-1.131,0.076-1.697,0.104c-0.029-0.055-0.066-0.113-0.096-0.182c1.283-0.643,2.502-1.486,3.865-1.908
				c1.861-0.584,3.52-1.361,4.998-2.668c1.18-1.043,2.684-1.59,4.41-1.898c-0.344,0.434-0.584,0.74-0.832,1.055
				c2.666-1.398,5.322-2.732,8.535-2.387c-0.564,0.471-1.064,0.881-1.564,1.285c0.049,0.047,0.078,0.096,0.115,0.145
				c1.592-0.145,3.176-0.307,4.969-0.48c-0.633,0.605-1.092,1.025-1.555,1.467c0.049,0.068,0.098,0.135,0.135,0.213
				c2.045-0.453,4.078-0.885,6.111-0.068c-1.074,0.279-2.246,0.24-3.273,1.248c1.613-0.012,3.08-0.066,4.289,1.016
				c-0.574,0.172-1.072,0.316-1.572,0.469c-0.008,0.07-0.029,0.145-0.049,0.213c3.693,0.432,6.254,2.379,7.895,5.793
				c-0.402-0.049-0.67-0.098-0.949-0.098c-0.279-0.008-0.566,0.039-0.902,0.078c0.086,0.172,0.105,0.27,0.164,0.307
				c1.965,1.361,2.666,3.414,3.078,5.629c0.586,3.109-0.096,6.119-0.787,9.113c-0.48,2.063-1.15,4.076-1.727,6.109
				c-0.047,0.154-0.074,0.307-0.143,0.635c0.373-0.221,0.631-0.365,0.891-0.52c1.199-0.672,1.93-0.365,1.986,0.998
				c0.049,1.131,0,2.32-0.355,3.375c-0.555,1.641-0.863,3.291-1.006,5.008c-0.059,0.604-0.23,1.236-0.498,1.785
				c-0.701,1.504-1.689,1.965-3.369,1.639c-0.123,0.883-0.229,1.756-0.355,2.629c-0.094,0.621-0.131,1.238-0.285,1.84
				c-0.078,0.355-0.203,0.711-0.395,1.057c-0.393,0.729-0.441,1.697-0.461,2.561c-0.027,1.17,0.174,2.332,0.191,3.5
				c0.01,0.48-0.057,1.047-0.305,1.439c-2.197,3.424-5.229,6.014-8.596,8.219c-1.045,0.701-2.139,1.334-3.242,1.996
				c-0.43,0.25-0.871,0.5-1.303,0.768c0.363,0.221,0.729,0.434,1.094,0.643c1.256,0.738,2.512,1.479,3.826,2.254
				c-0.432,0.615-0.844,1.104-1.17,1.648c-1.133,1.92-2.246,3.838-3.338,5.785c-0.115,0.182-0.039,0.498,0.037,0.738
				c0.24,0.748,1.074,3.836,1.805,6.59c0.566,2.158,1.055,4.105,1.131,4.537c0.279,1.563,0.566,3.135,0.738,4.709
				c0.48,4.459,0.902,8.92,1.344,13.379c0.02,0.135,0.52,24.988,0.498,25.295c1.908-0.174,3.779-0.414,5.641-0.711l1.15-18.578
				c0.336-5.641,0.633-10.561,0.699-11.355c0.473-5.68,1.008-11.369,1.383-17.055c0.01-0.076,0.01-0.145,0.01-0.221
				c0.346-5.266,0.584-10.543,0.729-15.816c0.086-3.146-0.125-6.301-0.201-9.447c0-0.02,0-0.049,0-0.078
				c-0.01-0.449-0.02-0.9-0.029-1.352c0.334,0.287,0.73,0.527,0.998,0.863c2.313,3.012,5.639,4.439,9.025,5.744
				c3.865,1.488,7.844,2.715,11.691,4.27c1.361,0.557,2.715,1.131,4.068,1.717c2.953,1.293,5.889,2.646,8.842,3.951
				c0.289,0.135,0.557,0.289,0.797,0.461c0.824,0.605,1.313,1.457,1.467,2.58c0.125,0.891,0.586,4.152,1.008,7.098
				c0.402,2.754,0.766,5.229,0.797,5.229c0.594,4.074,1.217,8.344,1.84,12.553h0.01l0.824,5.678
				c13.773-14.404,22.242-33.934,22.242-55.447C718.986,384.52,683.059,348.588,638.746,348.588z"/>
			<path fill="#FFFFFF" d="M645.977,508.758c0.01,0,0.02,0,0.02,0l0,0C645.996,508.758,645.986,508.758,645.977,508.758
				L645.977,508.758z"/>
		</g>
		<g>
			<path fill="#FFFFFF" d="M638.746,510.453c-45.08,0-81.748-36.678-81.748-81.748c0-45.078,36.668-81.748,81.748-81.748
				c45.07,0,81.748,36.67,81.748,81.748C720.494,473.775,683.816,510.453,638.746,510.453z M638.746,351.658
				c-42.48,0-77.039,34.568-77.039,77.047c0,42.482,34.559,77.041,77.039,77.041s77.039-34.559,77.039-77.041
				C715.785,386.227,681.227,351.658,638.746,351.658z"/>
		</g>
	</g>
	<g>
		<rect x="402.545" y="280.363" fill="#FFFFFF" width="6.484" height="57.809"/>
	</g>
</g>
</svg>
