<?xml version="1.0" encoding="utf-8"?>
<!-- Generator: Adobe Illustrator 16.0.0, SVG Export Plug-In . SVG Version: 6.00 Build 0)  -->
<!DOCTYPE svg PUBLIC "-//W3C//DTD SVG 1.1//EN" "http://www.w3.org/Graphics/SVG/1.1/DTD/svg11.dtd">
<svg version="1.1" id="Layer_1" xmlns="http://www.w3.org/2000/svg" xmlns:xlink="http://www.w3.org/1999/xlink" x="0px" y="0px"
	 width="811.574px" height="560px" viewBox="0 0 811.574 560" enable-background="new 0 0 811.574 560" xml:space="preserve">
<g>
	<linearGradient id="SVGID_1_" gradientUnits="userSpaceOnUse" x1="492.917" y1="80.834" x2="328.2505" y2="366.0447">
		<stop  offset="0" style="stop-color:#2EC425"/>
		<stop  offset="0.1756" style="stop-color:#2CBE27"/>
		<stop  offset="0.4049" style="stop-color:#28AE2B"/>
		<stop  offset="0.6638" style="stop-color:#209332"/>
		<stop  offset="0.9427" style="stop-color:#156E3D"/>
		<stop  offset="1" style="stop-color:#13653F"/>
	</linearGradient>
	<path fill="url(#SVGID_1_)" d="M678.557,188.354l-2.797-1.956L405.995,307.352L136.574,180.906l-2.979,2.907
		c-1.075,1.063-26.24,26.178-15.966,58.583l0.795,2.506l284.707,133.264l2.515,1.189L700.58,244.497l0.115-3.715
		C700.745,239.31,701.588,204.47,678.557,188.354z"/>
	<linearGradient id="SVGID_2_" gradientUnits="userSpaceOnUse" x1="200.0562" y1="450.0938" x2="420.5757" y2="450.0938">
		<stop  offset="0" style="stop-color:#2EC425"/>
		<stop  offset="0.1756" style="stop-color:#2CBE27"/>
		<stop  offset="0.4049" style="stop-color:#28AE2B"/>
		<stop  offset="0.6638" style="stop-color:#209332"/>
		<stop  offset="0.9427" style="stop-color:#156E3D"/>
		<stop  offset="1" style="stop-color:#13653F"/>
	</linearGradient>
	<polygon fill="none" stroke="url(#SVGID_2_)" stroke-width="12.0062" stroke-miterlimit="10" points="221.202,365.375 
		206.892,534.135 405.68,446.728 	"/>
	<linearGradient id="SVGID_3_" gradientUnits="userSpaceOnUse" x1="390.7837" y1="450.0938" x2="611.3047" y2="450.0938">
		<stop  offset="0" style="stop-color:#2EC425"/>
		<stop  offset="0.1756" style="stop-color:#2CBE27"/>
		<stop  offset="0.4049" style="stop-color:#28AE2B"/>
		<stop  offset="0.6638" style="stop-color:#209332"/>
		<stop  offset="0.9427" style="stop-color:#156E3D"/>
		<stop  offset="1" style="stop-color:#13653F"/>
	</linearGradient>
	<polygon fill="none" stroke="url(#SVGID_3_)" stroke-width="12.0062" stroke-miterlimit="10" points="590.153,365.375 
		604.469,534.135 405.68,446.728 	"/>
	<g>
		<polygon fill="none" points="412.987,318.172 413.01,325.055 412.96,325.012 412.96,435.907 764.824,280.764 627.301,43.044 
			600.681,52.392 683.62,191.188 		"/>
		<polygon fill="none" points="398.366,318.172 127.738,191.188 210.713,52.325 184.291,43.044 46.768,280.764 398.614,435.907 
			398.614,324.923 398.352,325.055 		"/>
		<linearGradient id="SVGID_4_" gradientUnits="userSpaceOnUse" x1="405.7949" y1="452.9512" x2="412.7275" y2="452.9512">
			<stop  offset="0" style="stop-color:#545400"/>
			<stop  offset="0.0989" style="stop-color:#626600"/>
			<stop  offset="0.7228" style="stop-color:#B8D300"/>
			<stop  offset="1" style="stop-color:#DAFF00"/>
		</linearGradient>
		<line fill="url(#SVGID_4_)" x1="412.728" y1="451.426" x2="405.795" y2="454.478"/>
		<linearGradient id="SVGID_5_" gradientUnits="userSpaceOnUse" x1="398.8428" y1="452.9512" x2="405.7949" y2="452.9512">
			<stop  offset="0" style="stop-color:#545400"/>
			<stop  offset="0.0989" style="stop-color:#626600"/>
			<stop  offset="0.7228" style="stop-color:#B8D300"/>
			<stop  offset="1" style="stop-color:#DAFF00"/>
		</linearGradient>
		<line fill="url(#SVGID_5_)" x1="405.795" y1="454.478" x2="398.843" y2="451.426"/>
		<linearGradient id="SVGID_6_" gradientUnits="userSpaceOnUse" x1="575.9619" y1="-7.4429" x2="311.0112" y2="451.4652">
			<stop  offset="0" style="stop-color:#2EC425"/>
			<stop  offset="0.1756" style="stop-color:#2CBE27"/>
			<stop  offset="0.4049" style="stop-color:#28AE2B"/>
			<stop  offset="0.6638" style="stop-color:#209332"/>
			<stop  offset="0.9427" style="stop-color:#156E3D"/>
			<stop  offset="1" style="stop-color:#13653F"/>
		</linearGradient>
		<path fill="url(#SVGID_6_)" d="M633.653,25.865l-42.935,15.077c1.142,0.478,2.201,1.005,3.195,1.639l1.438,0.893l5.329,8.918
			l26.62-9.348l137.523,237.72L412.96,435.907V325.012l-0.232-0.089v51.62l-7.048,2.813l-6.837-2.92v-51.63l-0.229,0.117v110.984
			L46.768,280.764l137.523-237.72l26.422,9.281l5.294-8.852l1.437-0.893c1.013-0.646,2.101-1.208,3.279-1.671l-42.787-15.045
			L26.682,287.308l372.161,164.118l6.952,3.052l6.933-3.052l372.165-164.118L633.653,25.865z"/>
		<linearGradient id="SVGID_7_" gradientUnits="userSpaceOnUse" x1="412.96" y1="295.1211" x2="412.9717" y2="295.1211">
			<stop  offset="0" style="stop-color:#545400"/>
			<stop  offset="0.0989" style="stop-color:#626600"/>
			<stop  offset="0.7228" style="stop-color:#B8D300"/>
			<stop  offset="1" style="stop-color:#DAFF00"/>
		</linearGradient>
		<polygon fill="url(#SVGID_7_)" points="412.96,287.63 412.96,302.611 412.972,302.611 		"/>
		<linearGradient id="SVGID_8_" gradientUnits="userSpaceOnUse" x1="412.96" y1="321.6133" x2="413.0098" y2="321.6133">
			<stop  offset="0" style="stop-color:#545400"/>
			<stop  offset="0.0989" style="stop-color:#626600"/>
			<stop  offset="0.7228" style="stop-color:#B8D300"/>
			<stop  offset="1" style="stop-color:#DAFF00"/>
		</linearGradient>
		<polygon fill="url(#SVGID_8_)" points="412.987,318.172 412.96,318.206 412.96,325.012 413.01,325.055 		"/>
		<linearGradient id="SVGID_9_" gradientUnits="userSpaceOnUse" x1="412.7275" y1="210.5698" x2="412.96" y2="210.5698">
			<stop  offset="0" style="stop-color:#545400"/>
			<stop  offset="0.0989" style="stop-color:#626600"/>
			<stop  offset="0.7228" style="stop-color:#B8D300"/>
			<stop  offset="1" style="stop-color:#DAFF00"/>
		</linearGradient>
		<polygon fill="url(#SVGID_9_)" points="412.728,302.736 412.96,302.611 412.96,287.63 412.728,118.403 412.728,123.254 		"/>
		<linearGradient id="SVGID_10_" gradientUnits="userSpaceOnUse" x1="412.7275" y1="321.6094" x2="412.96" y2="321.6094">
			<stop  offset="0" style="stop-color:#545400"/>
			<stop  offset="0.0989" style="stop-color:#626600"/>
			<stop  offset="0.7228" style="stop-color:#B8D300"/>
			<stop  offset="1" style="stop-color:#DAFF00"/>
		</linearGradient>
		<polygon fill="url(#SVGID_10_)" points="412.96,318.206 412.728,318.305 412.728,324.923 412.96,325.012 		"/>
		<linearGradient id="SVGID_11_" gradientUnits="userSpaceOnUse" x1="412.4795" y1="213.0527" x2="412.7275" y2="213.0527">
			<stop  offset="0" style="stop-color:#545400"/>
			<stop  offset="0.0989" style="stop-color:#626600"/>
			<stop  offset="0.7228" style="stop-color:#B8D300"/>
			<stop  offset="1" style="stop-color:#DAFF00"/>
		</linearGradient>
		<polygon fill="url(#SVGID_11_)" points="412.479,302.852 412.728,302.736 412.728,123.254 		"/>
		<linearGradient id="SVGID_12_" gradientUnits="userSpaceOnUse" x1="398.8428" y1="108.0723" x2="402.4209" y2="108.0723">
			<stop  offset="0" style="stop-color:#545400"/>
			<stop  offset="0.0989" style="stop-color:#626600"/>
			<stop  offset="0.7228" style="stop-color:#B8D300"/>
			<stop  offset="1" style="stop-color:#DAFF00"/>
		</linearGradient>
		<path fill="url(#SVGID_12_)" d="M402.421,107.106l-3.578,1.257v0.675l3.495-1.882C402.354,107.14,402.399,107.122,402.421,107.106
			z"/>
		<linearGradient id="SVGID_13_" gradientUnits="userSpaceOnUse" x1="398.3516" y1="321.6133" x2="398.6143" y2="321.6133">
			<stop  offset="0" style="stop-color:#545400"/>
			<stop  offset="0.0989" style="stop-color:#626600"/>
			<stop  offset="0.7228" style="stop-color:#B8D300"/>
			<stop  offset="1" style="stop-color:#DAFF00"/>
		</linearGradient>
		<polygon fill="url(#SVGID_13_)" points="398.366,318.172 398.352,325.055 398.614,324.923 398.614,318.305 		"/>
		<linearGradient id="SVGID_14_" gradientUnits="userSpaceOnUse" x1="398.3838" y1="213.0845" x2="398.6143" y2="213.0845">
			<stop  offset="0" style="stop-color:#545400"/>
			<stop  offset="0.0989" style="stop-color:#626600"/>
			<stop  offset="0.7228" style="stop-color:#B8D300"/>
			<stop  offset="1" style="stop-color:#DAFF00"/>
		</linearGradient>
		<polygon fill="url(#SVGID_14_)" points="398.614,123.449 398.384,302.611 398.614,302.72 		"/>
		<linearGradient id="SVGID_15_" gradientUnits="userSpaceOnUse" x1="398.6143" y1="321.6133" x2="398.8428" y2="321.6133">
			<stop  offset="0" style="stop-color:#545400"/>
			<stop  offset="0.0989" style="stop-color:#626600"/>
			<stop  offset="0.7228" style="stop-color:#B8D300"/>
			<stop  offset="1" style="stop-color:#DAFF00"/>
		</linearGradient>
		<polygon fill="url(#SVGID_15_)" points="398.614,318.305 398.614,324.923 398.843,324.806 398.843,318.404 		"/>
		<linearGradient id="SVGID_16_" gradientUnits="userSpaceOnUse" x1="398.6143" y1="210.6016" x2="398.8428" y2="210.6016">
			<stop  offset="0" style="stop-color:#545400"/>
			<stop  offset="0.0989" style="stop-color:#626600"/>
			<stop  offset="0.7228" style="stop-color:#B8D300"/>
			<stop  offset="1" style="stop-color:#DAFF00"/>
		</linearGradient>
		<polygon fill="url(#SVGID_16_)" points="398.614,302.72 398.843,302.834 398.843,285.743 398.631,118.369 398.614,123.449 		"/>
		<linearGradient id="SVGID_17_" gradientUnits="userSpaceOnUse" x1="398.8428" y1="294.2969" x2="398.876" y2="294.2969">
			<stop  offset="0" style="stop-color:#545400"/>
			<stop  offset="0.0989" style="stop-color:#626600"/>
			<stop  offset="0.7228" style="stop-color:#B8D300"/>
			<stop  offset="1" style="stop-color:#DAFF00"/>
		</linearGradient>
		<polygon fill="url(#SVGID_17_)" points="398.876,302.852 398.843,285.743 398.843,302.834 		"/>
		<linearGradient id="SVGID_18_" gradientUnits="userSpaceOnUse" x1="408.5264" y1="110.1758" x2="412.7275" y2="110.1758">
			<stop  offset="0" style="stop-color:#545400"/>
			<stop  offset="0.0989" style="stop-color:#626600"/>
			<stop  offset="0.7228" style="stop-color:#B8D300"/>
			<stop  offset="1" style="stop-color:#DAFF00"/>
		</linearGradient>
		<path fill="url(#SVGID_18_)" d="M412.711,109.143l0.017,4.317v-5.097l-4.201-1.472c0.21,0.1,0.396,0.194,0.495,0.265
			L412.711,109.143z"/>
		<linearGradient id="SVGID_19_" gradientUnits="userSpaceOnUse" x1="412.96" y1="310.4082" x2="412.9873" y2="310.4082">
			<stop  offset="0" style="stop-color:#545400"/>
			<stop  offset="0.0989" style="stop-color:#626600"/>
			<stop  offset="0.7228" style="stop-color:#B8D300"/>
			<stop  offset="1" style="stop-color:#DAFF00"/>
		</linearGradient>
		<polygon fill="url(#SVGID_19_)" points="412.972,302.611 412.96,302.611 412.96,318.206 412.987,318.172 		"/>
		<linearGradient id="SVGID_20_" gradientUnits="userSpaceOnUse" x1="405.1016" y1="105.6406" x2="406.3574" y2="105.6406">
			<stop  offset="0" style="stop-color:#545400"/>
			<stop  offset="0.0989" style="stop-color:#626600"/>
			<stop  offset="0.7228" style="stop-color:#B8D300"/>
			<stop  offset="1" style="stop-color:#DAFF00"/>
		</linearGradient>
		<path fill="url(#SVGID_20_)" d="M405.795,105.916l0.563-0.199c-0.215-0.115-0.434-0.236-0.678-0.352
			c-0.215,0.115-0.398,0.219-0.578,0.318L405.795,105.916z"/>
		<linearGradient id="SVGID_21_" gradientUnits="userSpaceOnUse" x1="398.3662" y1="310.458" x2="398.6143" y2="310.458">
			<stop  offset="0" style="stop-color:#545400"/>
			<stop  offset="0.0989" style="stop-color:#626600"/>
			<stop  offset="0.7228" style="stop-color:#B8D300"/>
			<stop  offset="1" style="stop-color:#DAFF00"/>
		</linearGradient>
		<polygon fill="url(#SVGID_21_)" points="398.384,302.611 398.366,318.172 398.614,318.305 398.614,302.72 		"/>
		<linearGradient id="SVGID_22_" gradientUnits="userSpaceOnUse" x1="402.4209" y1="106.395" x2="405.7949" y2="106.395">
			<stop  offset="0" style="stop-color:#545400"/>
			<stop  offset="0.0989" style="stop-color:#626600"/>
			<stop  offset="0.7228" style="stop-color:#B8D300"/>
			<stop  offset="1" style="stop-color:#DAFF00"/>
		</linearGradient>
		<path fill="url(#SVGID_22_)" d="M405.102,105.684c-1.358,0.712-2.268,1.208-2.681,1.423l3.374-1.19L405.102,105.684z"/>
		<linearGradient id="SVGID_23_" gradientUnits="userSpaceOnUse" x1="398.6309" y1="197.3906" x2="398.8428" y2="197.3906">
			<stop  offset="0" style="stop-color:#545400"/>
			<stop  offset="0.0989" style="stop-color:#626600"/>
			<stop  offset="0.7228" style="stop-color:#B8D300"/>
			<stop  offset="1" style="stop-color:#DAFF00"/>
		</linearGradient>
		<polygon fill="url(#SVGID_23_)" points="398.843,109.038 398.647,109.143 398.631,118.369 398.843,285.743 		"/>
		<linearGradient id="SVGID_24_" gradientUnits="userSpaceOnUse" x1="398.6143" y1="310.5625" x2="398.8428" y2="310.5625">
			<stop  offset="0" style="stop-color:#545400"/>
			<stop  offset="0.0989" style="stop-color:#626600"/>
			<stop  offset="0.7228" style="stop-color:#B8D300"/>
			<stop  offset="1" style="stop-color:#DAFF00"/>
		</linearGradient>
		<polygon fill="url(#SVGID_24_)" points="398.614,318.305 398.843,318.404 398.843,302.834 398.614,302.72 		"/>
		<linearGradient id="SVGID_25_" gradientUnits="userSpaceOnUse" x1="412.7275" y1="118.3569" x2="412.7275" y2="118.3569">
			<stop  offset="0" style="stop-color:#545400"/>
			<stop  offset="0.0989" style="stop-color:#626600"/>
			<stop  offset="0.7228" style="stop-color:#B8D300"/>
			<stop  offset="1" style="stop-color:#DAFF00"/>
		</linearGradient>
		<polygon fill="url(#SVGID_25_)" points="412.728,118.403 412.728,113.46 412.728,123.254 		"/>
		<linearGradient id="SVGID_26_" gradientUnits="userSpaceOnUse" x1="412.7275" y1="310.458" x2="412.96" y2="310.458">
			<stop  offset="0" style="stop-color:#545400"/>
			<stop  offset="0.0989" style="stop-color:#626600"/>
			<stop  offset="0.7228" style="stop-color:#B8D300"/>
			<stop  offset="1" style="stop-color:#DAFF00"/>
		</linearGradient>
		<polygon fill="url(#SVGID_26_)" points="412.728,302.736 412.728,318.305 412.96,318.206 412.96,302.611 		"/>
		<linearGradient id="SVGID_27_" gradientUnits="userSpaceOnUse" x1="405.7949" y1="106.3042" x2="408.5264" y2="106.3042">
			<stop  offset="0" style="stop-color:#545400"/>
			<stop  offset="0.0989" style="stop-color:#626600"/>
			<stop  offset="0.7228" style="stop-color:#B8D300"/>
			<stop  offset="1" style="stop-color:#DAFF00"/>
		</linearGradient>
		<path fill="url(#SVGID_27_)" d="M406.357,105.717l-0.563,0.199l2.731,0.976C408.042,106.627,407.314,106.226,406.357,105.717z"/>
		<g>
			<linearGradient id="SVGID_28_" gradientUnits="userSpaceOnUse" x1="363.3647" y1="80.9346" x2="256.717" y2="265.6538">
				<stop  offset="0" style="stop-color:#2EC425"/>
				<stop  offset="0.1756" style="stop-color:#2CBE27"/>
				<stop  offset="0.4049" style="stop-color:#28AE2B"/>
				<stop  offset="0.6638" style="stop-color:#209332"/>
				<stop  offset="0.9427" style="stop-color:#156E3D"/>
				<stop  offset="1" style="stop-color:#13653F"/>
			</linearGradient>
			<path fill="url(#SVGID_28_)" d="M402.421,107.106c0.413-0.215,1.322-0.711,2.681-1.423c0.18-0.1,0.363-0.203,0.578-0.318
				c-20.715-11.003-127.679-66.609-171.954-66.609c-5.162,0-9.462,0.71-13.003,2.154c-1.179,0.463-2.267,1.025-3.279,1.671
				l-1.437,0.893l-5.294,8.852l-82.975,138.863l270.628,126.983l0.018-15.561L147.841,185.046l76.455-127.947l1.903-3.205
				c1.389-0.514,3.722-1.042,7.526-1.042c40.168,0,143.994,53.709,164.905,64.745v0.772l0.017-9.227l0.195-0.104v-0.675
				L402.421,107.106z"/>
			<linearGradient id="SVGID_29_" gradientUnits="userSpaceOnUse" x1="600.9736" y1="46.6377" x2="432.7625" y2="337.988">
				<stop  offset="0" style="stop-color:#2EC425"/>
				<stop  offset="0.1756" style="stop-color:#2CBE27"/>
				<stop  offset="0.4049" style="stop-color:#28AE2B"/>
				<stop  offset="0.6638" style="stop-color:#209332"/>
				<stop  offset="0.9427" style="stop-color:#156E3D"/>
				<stop  offset="1" style="stop-color:#13653F"/>
			</linearGradient>
			<path fill="url(#SVGID_29_)" d="M600.681,52.392l-5.329-8.918l-1.438-0.893c-0.994-0.634-2.054-1.161-3.195-1.639
				c-3.557-1.464-7.875-2.187-13.087-2.187c-44.294,0-151.237,55.606-171.952,66.609c0.244,0.115,0.463,0.236,0.678,0.352
				c0.957,0.509,1.685,0.91,2.169,1.175l4.201,1.472v5.097l-0.017-4.317l-3.689-1.986c-0.099-0.07-0.285-0.165-0.495-0.265
				l-2.731-0.976l-3.374,1.19c-0.021,0.016-0.066,0.033-0.083,0.05l-3.495,1.882v176.705l0.033,17.108l-0.033-0.018v15.57
				l6.837,3.208l7.048-3.308v-15.568l-0.248,0.115l0.248-179.598v-4.851v-0.807c20.914-11.053,124.717-64.745,164.904-64.745
				c3.807,0,6.139,0.528,7.526,1.042l1.939,3.28l76.422,127.872L412.972,302.611l0.016,15.561L683.62,191.188L600.681,52.392z"/>
		</g>
	</g>
	<g>
		<g>
			<g>
				<linearGradient id="SVGID_30_" gradientUnits="userSpaceOnUse" x1="316.1616" y1="83.752" x2="301.4915" y2="109.1614">
					<stop  offset="0" style="stop-color:#2EC425"/>
					<stop  offset="0.1756" style="stop-color:#2CBE27"/>
					<stop  offset="0.4049" style="stop-color:#28AE2B"/>
					<stop  offset="0.6638" style="stop-color:#209332"/>
					<stop  offset="0.9427" style="stop-color:#156E3D"/>
					<stop  offset="1" style="stop-color:#13653F"/>
				</linearGradient>
				<polygon fill="url(#SVGID_30_)" points="391.748,129.621 225.186,65.106 225.896,63.307 392.461,127.804 				"/>
			</g>
			<g>
				<linearGradient id="SVGID_31_" gradientUnits="userSpaceOnUse" x1="313.4766" y1="94.5615" x2="299.2131" y2="119.2665">
					<stop  offset="0" style="stop-color:#2EC425"/>
					<stop  offset="0.1756" style="stop-color:#2CBE27"/>
					<stop  offset="0.4049" style="stop-color:#28AE2B"/>
					<stop  offset="0.6638" style="stop-color:#209332"/>
					<stop  offset="0.9427" style="stop-color:#156E3D"/>
					<stop  offset="1" style="stop-color:#13653F"/>
				</linearGradient>
				<polygon fill="url(#SVGID_31_)" points="391.748,141.967 220.226,73.663 220.938,71.865 392.461,140.163 				"/>
			</g>
			<g>
				<linearGradient id="SVGID_32_" gradientUnits="userSpaceOnUse" x1="310.8403" y1="105.6006" x2="296.9463" y2="129.6658">
					<stop  offset="0" style="stop-color:#2EC425"/>
					<stop  offset="0.1756" style="stop-color:#2CBE27"/>
					<stop  offset="0.4049" style="stop-color:#28AE2B"/>
					<stop  offset="0.6638" style="stop-color:#209332"/>
					<stop  offset="0.9427" style="stop-color:#156E3D"/>
					<stop  offset="1" style="stop-color:#13653F"/>
				</linearGradient>
				<polygon fill="url(#SVGID_32_)" points="391.748,154.538 215.309,82.532 216.036,80.729 392.477,152.733 				"/>
			</g>
			<g>
				<linearGradient id="SVGID_33_" gradientUnits="userSpaceOnUse" x1="308.2617" y1="116.5913" x2="294.8347" y2="139.8476">
					<stop  offset="0" style="stop-color:#2EC425"/>
					<stop  offset="0.1756" style="stop-color:#2CBE27"/>
					<stop  offset="0.4049" style="stop-color:#28AE2B"/>
					<stop  offset="0.6638" style="stop-color:#209332"/>
					<stop  offset="0.9427" style="stop-color:#156E3D"/>
					<stop  offset="1" style="stop-color:#13653F"/>
				</linearGradient>
				<polygon fill="url(#SVGID_33_)" points="391.731,167.017 210.613,91.223 211.358,89.433 392.477,165.213 				"/>
			</g>
			<g>
				<linearGradient id="SVGID_34_" gradientUnits="userSpaceOnUse" x1="305.5469" y1="126.5439" x2="292.4778" y2="149.1803">
					<stop  offset="0" style="stop-color:#2EC425"/>
					<stop  offset="0.1756" style="stop-color:#2CBE27"/>
					<stop  offset="0.4049" style="stop-color:#28AE2B"/>
					<stop  offset="0.6638" style="stop-color:#209332"/>
					<stop  offset="0.9427" style="stop-color:#156E3D"/>
					<stop  offset="1" style="stop-color:#13653F"/>
				</linearGradient>
				<polygon fill="url(#SVGID_34_)" points="391.731,178.528 205.534,98.983 206.295,97.192 392.489,176.74 				"/>
			</g>
			<g>
				<linearGradient id="SVGID_35_" gradientUnits="userSpaceOnUse" x1="303.21" y1="137.5078" x2="290.5627" y2="159.4134">
					<stop  offset="0" style="stop-color:#2EC425"/>
					<stop  offset="0.1756" style="stop-color:#2CBE27"/>
					<stop  offset="0.4049" style="stop-color:#28AE2B"/>
					<stop  offset="0.6638" style="stop-color:#209332"/>
					<stop  offset="0.9427" style="stop-color:#156E3D"/>
					<stop  offset="1" style="stop-color:#13653F"/>
				</linearGradient>
				<polygon fill="url(#SVGID_35_)" points="391.716,190.838 201.281,107.867 202.06,106.076 392.489,189.054 				"/>
			</g>
			<g>
				<linearGradient id="SVGID_36_" gradientUnits="userSpaceOnUse" x1="300.5762" y1="148.5449" x2="288.3071" y2="169.7955">
					<stop  offset="0" style="stop-color:#2EC425"/>
					<stop  offset="0.1756" style="stop-color:#2CBE27"/>
					<stop  offset="0.4049" style="stop-color:#28AE2B"/>
					<stop  offset="0.6638" style="stop-color:#209332"/>
					<stop  offset="0.9427" style="stop-color:#156E3D"/>
					<stop  offset="1" style="stop-color:#13653F"/>
				</linearGradient>
				<polygon fill="url(#SVGID_36_)" points="391.716,203.398 196.368,116.715 197.162,114.949 392.509,201.623 				"/>
			</g>
			<g>
				<linearGradient id="SVGID_37_" gradientUnits="userSpaceOnUse" x1="298.4131" y1="157.8418" x2="285.77" y2="179.7402">
					<stop  offset="0" style="stop-color:#2EC425"/>
					<stop  offset="0.1756" style="stop-color:#2CBE27"/>
					<stop  offset="0.4049" style="stop-color:#28AE2B"/>
					<stop  offset="0.6638" style="stop-color:#209332"/>
					<stop  offset="0.9427" style="stop-color:#156E3D"/>
					<stop  offset="1" style="stop-color:#13653F"/>
				</linearGradient>
				<polygon fill="url(#SVGID_37_)" points="391.716,213.938 191.682,125.418 192.463,123.652 392.509,212.168 				"/>
			</g>
			<g>
				<linearGradient id="SVGID_38_" gradientUnits="userSpaceOnUse" x1="295.4458" y1="169.7451" x2="283.8691" y2="189.7965">
					<stop  offset="0" style="stop-color:#2EC425"/>
					<stop  offset="0.1756" style="stop-color:#2CBE27"/>
					<stop  offset="0.4049" style="stop-color:#28AE2B"/>
					<stop  offset="0.6638" style="stop-color:#209332"/>
					<stop  offset="0.9427" style="stop-color:#156E3D"/>
					<stop  offset="1" style="stop-color:#13653F"/>
				</linearGradient>
				<polygon fill="url(#SVGID_38_)" points="391.698,227.556 186.805,133.756 187.615,131.99 392.509,225.784 				"/>
			</g>
			<g>
				<linearGradient id="SVGID_39_" gradientUnits="userSpaceOnUse" x1="293.2471" y1="179.0151" x2="281.1697" y2="199.9338">
					<stop  offset="0" style="stop-color:#2EC425"/>
					<stop  offset="0.1756" style="stop-color:#2CBE27"/>
					<stop  offset="0.4049" style="stop-color:#28AE2B"/>
					<stop  offset="0.6638" style="stop-color:#209332"/>
					<stop  offset="0.9427" style="stop-color:#156E3D"/>
					<stop  offset="1" style="stop-color:#13653F"/>
				</linearGradient>
				<polygon fill="url(#SVGID_39_)" points="391.698,238.095 181.907,142.625 182.719,140.854 392.509,236.324 				"/>
			</g>
			<g>
				<linearGradient id="SVGID_40_" gradientUnits="userSpaceOnUse" x1="291.0732" y1="188.3643" x2="278.6436" y2="209.8931">
					<stop  offset="0" style="stop-color:#2EC425"/>
					<stop  offset="0.1756" style="stop-color:#2CBE27"/>
					<stop  offset="0.4049" style="stop-color:#28AE2B"/>
					<stop  offset="0.6638" style="stop-color:#209332"/>
					<stop  offset="0.9427" style="stop-color:#156E3D"/>
					<stop  offset="1" style="stop-color:#13653F"/>
				</linearGradient>
				<polygon fill="url(#SVGID_40_)" points="391.698,248.699 177.205,151.328 178.019,149.558 392.509,246.929 				"/>
			</g>
			<g>
				<linearGradient id="SVGID_41_" gradientUnits="userSpaceOnUse" x1="288.7783" y1="196.6455" x2="275.8909" y2="218.9672">
					<stop  offset="0" style="stop-color:#2EC425"/>
					<stop  offset="0.1756" style="stop-color:#2CBE27"/>
					<stop  offset="0.4049" style="stop-color:#28AE2B"/>
					<stop  offset="0.6638" style="stop-color:#209332"/>
					<stop  offset="0.9427" style="stop-color:#156E3D"/>
					<stop  offset="1" style="stop-color:#13653F"/>
				</linearGradient>
				<polygon fill="url(#SVGID_41_)" points="391.716,258.329 172.146,159.07 172.94,157.305 392.509,256.534 				"/>
			</g>
			<g>
				<linearGradient id="SVGID_42_" gradientUnits="userSpaceOnUse" x1="286.854" y1="205.9473" x2="273.5562" y2="228.9798">
					<stop  offset="0" style="stop-color:#2EC425"/>
					<stop  offset="0.1756" style="stop-color:#2CBE27"/>
					<stop  offset="0.4049" style="stop-color:#28AE2B"/>
					<stop  offset="0.6638" style="stop-color:#209332"/>
					<stop  offset="0.9427" style="stop-color:#156E3D"/>
					<stop  offset="1" style="stop-color:#13653F"/>
				</linearGradient>
				<polygon fill="url(#SVGID_42_)" points="391.716,268.719 167.894,167.976 168.704,166.188 392.509,266.947 				"/>
			</g>
			<g>
				<linearGradient id="SVGID_43_" gradientUnits="userSpaceOnUse" x1="284.6309" y1="215.2861" x2="270.8765" y2="239.1094">
					<stop  offset="0" style="stop-color:#2EC425"/>
					<stop  offset="0.1756" style="stop-color:#2CBE27"/>
					<stop  offset="0.4049" style="stop-color:#28AE2B"/>
					<stop  offset="0.6638" style="stop-color:#209332"/>
					<stop  offset="0.9427" style="stop-color:#156E3D"/>
					<stop  offset="1" style="stop-color:#13653F"/>
				</linearGradient>
				<polygon fill="url(#SVGID_43_)" points="391.716,279.341 162.996,176.824 163.791,175.057 392.509,277.569 				"/>
			</g>
		</g>
		<g>
			<g>
				<linearGradient id="SVGID_44_" gradientUnits="userSpaceOnUse" x1="537.999" y1="35.9077" x2="467.8208" y2="157.46">
					<stop  offset="0" style="stop-color:#2EC425"/>
					<stop  offset="0.1756" style="stop-color:#2CBE27"/>
					<stop  offset="0.4049" style="stop-color:#28AE2B"/>
					<stop  offset="0.6638" style="stop-color:#209332"/>
					<stop  offset="0.9427" style="stop-color:#156E3D"/>
					<stop  offset="1" style="stop-color:#13653F"/>
				</linearGradient>
				<polygon fill="url(#SVGID_44_)" points="419.975,129.836 419.28,128.032 585.838,63.527 586.533,65.347 				"/>
			</g>
			<g>
				<linearGradient id="SVGID_45_" gradientUnits="userSpaceOnUse" x1="541.918" y1="43.8657" x2="468.8606" y2="170.4048">
					<stop  offset="0" style="stop-color:#2EC425"/>
					<stop  offset="0.1756" style="stop-color:#2CBE27"/>
					<stop  offset="0.4049" style="stop-color:#28AE2B"/>
					<stop  offset="0.6638" style="stop-color:#209332"/>
					<stop  offset="0.9427" style="stop-color:#156E3D"/>
					<stop  offset="1" style="stop-color:#13653F"/>
				</linearGradient>
				<polygon fill="url(#SVGID_45_)" points="419.991,142.19 419.264,140.392 590.787,72.081 591.513,73.879 				"/>
			</g>
			<g>
				<linearGradient id="SVGID_46_" gradientUnits="userSpaceOnUse" x1="545.7813" y1="52.1338" x2="469.8972" y2="183.5688">
					<stop  offset="0" style="stop-color:#2EC425"/>
					<stop  offset="0.1756" style="stop-color:#2CBE27"/>
					<stop  offset="0.4049" style="stop-color:#28AE2B"/>
					<stop  offset="0.6638" style="stop-color:#209332"/>
					<stop  offset="0.9427" style="stop-color:#156E3D"/>
					<stop  offset="1" style="stop-color:#13653F"/>
				</linearGradient>
				<polygon fill="url(#SVGID_46_)" points="419.991,154.756 419.264,152.949 595.684,80.945 596.411,82.753 				"/>
			</g>
			<g>
				<linearGradient id="SVGID_47_" gradientUnits="userSpaceOnUse" x1="549.5293" y1="60.3008" x2="470.8506" y2="196.5763">
					<stop  offset="0" style="stop-color:#2EC425"/>
					<stop  offset="0.1756" style="stop-color:#2CBE27"/>
					<stop  offset="0.4049" style="stop-color:#28AE2B"/>
					<stop  offset="0.6638" style="stop-color:#209332"/>
					<stop  offset="0.9427" style="stop-color:#156E3D"/>
					<stop  offset="1" style="stop-color:#13653F"/>
				</linearGradient>
				<polygon fill="url(#SVGID_47_)" points="420.008,167.223 419.246,165.439 600.365,89.651 601.123,91.455 				"/>
			</g>
			<g>
				<linearGradient id="SVGID_48_" gradientUnits="userSpaceOnUse" x1="553.5098" y1="67.4365" x2="471.9353" y2="208.7276">
					<stop  offset="0" style="stop-color:#2EC425"/>
					<stop  offset="0.1756" style="stop-color:#2CBE27"/>
					<stop  offset="0.4049" style="stop-color:#28AE2B"/>
					<stop  offset="0.6638" style="stop-color:#209332"/>
					<stop  offset="0.9427" style="stop-color:#156E3D"/>
					<stop  offset="1" style="stop-color:#13653F"/>
				</linearGradient>
				<polygon fill="url(#SVGID_48_)" points="420.008,178.747 419.246,176.955 605.426,97.41 606.205,99.198 				"/>
			</g>
			<g>
				<linearGradient id="SVGID_49_" gradientUnits="userSpaceOnUse" x1="556.8965" y1="75.8311" x2="472.7827" y2="221.5204">
					<stop  offset="0" style="stop-color:#2EC425"/>
					<stop  offset="0.1756" style="stop-color:#2CBE27"/>
					<stop  offset="0.4049" style="stop-color:#28AE2B"/>
					<stop  offset="0.6638" style="stop-color:#209332"/>
					<stop  offset="0.9427" style="stop-color:#156E3D"/>
					<stop  offset="1" style="stop-color:#13653F"/>
				</linearGradient>
				<polygon fill="url(#SVGID_49_)" points="420.008,191.051 419.23,189.282 609.663,106.296 610.44,108.083 				"/>
			</g>
			<g>
				<linearGradient id="SVGID_50_" gradientUnits="userSpaceOnUse" x1="560.7656" y1="84.0967" x2="473.821" y2="234.6891">
					<stop  offset="0" style="stop-color:#2EC425"/>
					<stop  offset="0.1756" style="stop-color:#2CBE27"/>
					<stop  offset="0.4049" style="stop-color:#28AE2B"/>
					<stop  offset="0.6638" style="stop-color:#209332"/>
					<stop  offset="0.9427" style="stop-color:#156E3D"/>
					<stop  offset="1" style="stop-color:#13653F"/>
				</linearGradient>
				<polygon fill="url(#SVGID_50_)" points="420.021,203.627 419.23,201.84 614.576,115.164 615.355,116.945 				"/>
			</g>
			<g>
				<linearGradient id="SVGID_51_" gradientUnits="userSpaceOnUse" x1="564.0986" y1="92.0161" x2="475.1848" y2="246.0194">
					<stop  offset="0" style="stop-color:#2EC425"/>
					<stop  offset="0.1756" style="stop-color:#2CBE27"/>
					<stop  offset="0.4049" style="stop-color:#28AE2B"/>
					<stop  offset="0.6638" style="stop-color:#209332"/>
					<stop  offset="0.9427" style="stop-color:#156E3D"/>
					<stop  offset="1" style="stop-color:#13653F"/>
				</linearGradient>
				<polygon fill="url(#SVGID_51_)" points="420.021,214.17 419.23,212.379 619.26,123.863 620.056,125.653 				"/>
			</g>
			<g>
				<linearGradient id="SVGID_52_" gradientUnits="userSpaceOnUse" x1="568.2783" y1="99.959" x2="475.8699" y2="260.0151">
					<stop  offset="0" style="stop-color:#2EC425"/>
					<stop  offset="0.1756" style="stop-color:#2CBE27"/>
					<stop  offset="0.4049" style="stop-color:#28AE2B"/>
					<stop  offset="0.6638" style="stop-color:#209332"/>
					<stop  offset="0.9427" style="stop-color:#156E3D"/>
					<stop  offset="1" style="stop-color:#13653F"/>
				</linearGradient>
				<polygon fill="url(#SVGID_52_)" points="420.021,227.771 419.214,225.999 624.125,132.202 624.935,133.976 				"/>
			</g>
			<g>
				<linearGradient id="SVGID_53_" gradientUnits="userSpaceOnUse" x1="571.7051" y1="107.9824" x2="477.3511" y2="271.4083">
					<stop  offset="0" style="stop-color:#2EC425"/>
					<stop  offset="0.1756" style="stop-color:#2CBE27"/>
					<stop  offset="0.4049" style="stop-color:#28AE2B"/>
					<stop  offset="0.6638" style="stop-color:#209332"/>
					<stop  offset="0.9427" style="stop-color:#156E3D"/>
					<stop  offset="1" style="stop-color:#13653F"/>
				</linearGradient>
				<polygon fill="url(#SVGID_53_)" points="420.021,238.309 419.23,236.539 629.021,141.074 629.832,142.84 				"/>
			</g>
			<g>
				<linearGradient id="SVGID_54_" gradientUnits="userSpaceOnUse" x1="575.0576" y1="115.9077" x2="478.6973" y2="282.8087">
					<stop  offset="0" style="stop-color:#2EC425"/>
					<stop  offset="0.1756" style="stop-color:#2CBE27"/>
					<stop  offset="0.4049" style="stop-color:#28AE2B"/>
					<stop  offset="0.6638" style="stop-color:#209332"/>
					<stop  offset="0.9427" style="stop-color:#156E3D"/>
					<stop  offset="1" style="stop-color:#13653F"/>
				</linearGradient>
				<polygon fill="url(#SVGID_54_)" points="420.021,248.932 419.23,247.161 633.72,149.776 634.531,151.544 				"/>
			</g>
			<g>
				<linearGradient id="SVGID_55_" gradientUnits="userSpaceOnUse" x1="578.626" y1="122.7944" x2="480.1973" y2="293.278">
					<stop  offset="0" style="stop-color:#2EC425"/>
					<stop  offset="0.1756" style="stop-color:#2CBE27"/>
					<stop  offset="0.4049" style="stop-color:#28AE2B"/>
					<stop  offset="0.6638" style="stop-color:#209332"/>
					<stop  offset="0.9427" style="stop-color:#156E3D"/>
					<stop  offset="1" style="stop-color:#13653F"/>
				</linearGradient>
				<polygon fill="url(#SVGID_55_)" points="420.021,258.535 419.23,256.773 638.8,157.536 639.59,159.302 				"/>
			</g>
			<g>
				<linearGradient id="SVGID_56_" gradientUnits="userSpaceOnUse" x1="581.5996" y1="130.9492" x2="481.4485" y2="304.416">
					<stop  offset="0" style="stop-color:#2EC425"/>
					<stop  offset="0.1756" style="stop-color:#2CBE27"/>
					<stop  offset="0.4049" style="stop-color:#28AE2B"/>
					<stop  offset="0.6638" style="stop-color:#209332"/>
					<stop  offset="0.9427" style="stop-color:#156E3D"/>
					<stop  offset="1" style="stop-color:#13653F"/>
				</linearGradient>
				<polygon fill="url(#SVGID_56_)" points="420.021,268.951 419.23,267.163 643.035,166.42 643.825,168.186 				"/>
			</g>
			<g>
				<linearGradient id="SVGID_57_" gradientUnits="userSpaceOnUse" x1="585.0596" y1="138.959" x2="482.9231" y2="315.8646">
					<stop  offset="0" style="stop-color:#2EC425"/>
					<stop  offset="0.1756" style="stop-color:#2CBE27"/>
					<stop  offset="0.4049" style="stop-color:#28AE2B"/>
					<stop  offset="0.6638" style="stop-color:#209332"/>
					<stop  offset="0.9427" style="stop-color:#156E3D"/>
					<stop  offset="1" style="stop-color:#13653F"/>
				</linearGradient>
				<polygon fill="url(#SVGID_57_)" points="420.021,279.548 419.23,277.785 647.95,175.269 648.738,177.061 				"/>
			</g>
		</g>
	</g>
</g>
</svg>
