<?xml version="1.0" encoding="utf-8"?>
<!-- Generator: Adobe Illustrator 16.0.0, SVG Export Plug-In . SVG Version: 6.00 Build 0)  -->
<!DOCTYPE svg PUBLIC "-//W3C//DTD SVG 1.1//EN" "http://www.w3.org/Graphics/SVG/1.1/DTD/svg11.dtd">
<svg version="1.1" id="Layer_1" xmlns="http://www.w3.org/2000/svg" xmlns:xlink="http://www.w3.org/1999/xlink" x="0px" y="0px"
	 width="811.574px" height="560px" viewBox="0 0 811.574 560" enable-background="new 0 0 811.574 560" xml:space="preserve">
<g>
	<g>
		<linearGradient id="SVGID_1_" gradientUnits="userSpaceOnUse" x1="470.9854" y1="128.2627" x2="340.5953" y2="354.1048">
			<stop  offset="0" style="stop-color:#2EC425"/>
			<stop  offset="0.1756" style="stop-color:#2CBE27"/>
			<stop  offset="0.4049" style="stop-color:#28AE2B"/>
			<stop  offset="0.6638" style="stop-color:#209332"/>
			<stop  offset="0.9427" style="stop-color:#156E3D"/>
			<stop  offset="1" style="stop-color:#13653F"/>
		</linearGradient>
		<path fill="url(#SVGID_1_)" d="M310.331,336.632l55.921,0.011l39.536,39.541l39.536-39.541h55.921v-55.916l39.516-39.536
			l-39.516-39.541v-55.916h-55.921l-39.536-39.541l-39.552,39.541h-55.905v55.916l-39.536,39.541l39.536,39.531V336.632z
			 M323.686,207.19v-48.086h48.076l34.026-34.021l34,34.021h48.092v48.086l34.006,34l-34.006,34.005v48.103h-48.086l-34.005,33.994
			l-34.011-33.994l-48.091-0.026V275.18L289.68,241.19L323.686,207.19z"/>
		<linearGradient id="SVGID_2_" gradientUnits="userSpaceOnUse" x1="550.793" y1="20.7109" x2="287.3446" y2="477.0169">
			<stop  offset="0" style="stop-color:#2EC425"/>
			<stop  offset="0.1756" style="stop-color:#2CBE27"/>
			<stop  offset="0.4049" style="stop-color:#28AE2B"/>
			<stop  offset="0.6638" style="stop-color:#209332"/>
			<stop  offset="0.9427" style="stop-color:#156E3D"/>
			<stop  offset="1" style="stop-color:#13653F"/>
		</linearGradient>
		<path fill="url(#SVGID_2_)" d="M546.664,26.301v-7.658h-46.635v7.658h-248.93v429.79h248.93v85.267l23.318-27.529l23.316,27.529
			v-85.267h13.811V26.301H546.664z M523.348,487.87l-6.539,7.715v-39.494h13.076v39.494L523.348,487.87z M543.313,43.475v395.442
			h-275.05V43.475H543.313z"/>
	</g>
	<g>
		<linearGradient id="SVGID_3_" gradientUnits="userSpaceOnUse" x1="444.9136" y1="216.8594" x2="389.5039" y2="312.8317">
			<stop  offset="0" style="stop-color:#2EC425"/>
			<stop  offset="0.1756" style="stop-color:#2CBE27"/>
			<stop  offset="0.4049" style="stop-color:#28AE2B"/>
			<stop  offset="0.6638" style="stop-color:#209332"/>
			<stop  offset="0.9427" style="stop-color:#156E3D"/>
			<stop  offset="1" style="stop-color:#13653F"/>
		</linearGradient>
		<path fill-rule="evenodd" clip-rule="evenodd" fill="url(#SVGID_3_)" d="M480.532,257.622c-0.508,1.754-1.089,3.513-1.452,5.303
			c-0.271,1.354-1.007,2.023-2.231,2.376c-5.386,1.536-10.761,3.124-16.167,4.629c-6.693,1.867-13.438,3.549-20.09,5.546
			c-4.327,1.308-8.354,3.425-12.162,5.931c-1.66,1.11-1.691,1.333-0.851,3.149c2.48,5.359,7.067,7.954,12.452,9.516
			c0.561,0.166,1.131,0.358,1.702,0.399c1.338,0.13,1.795,0.918,1.764,2.106c-0.052,1.936-0.125,3.85-0.208,5.785
			c-0.031,0.788-0.374,1.126-1.204,0.985c-8.675-1.328-16.769-4.052-23.493-9.982c-5.188-4.586-8.271-10.449-10.283-16.971
			c-1.412-4.504-2.138-9.132-2.532-13.813c-0.031-0.316-0.093-0.643-0.208-1.375c-0.384,0.717-0.612,1.08-0.778,1.459
			c-2.262,5.162-5.25,9.894-9.246,13.821c-7.544,7.409-15.752,13.952-25.818,17.692c-4.026,1.489-8.146,1.775-12.265,0.068
			c-2.48-1.033-3.943-2.906-4.773-5.35c-1.318-3.887-1.038-7.824-0.28-11.772c1.297-6.786,4.047-12.919,7.575-18.782
			c0.072-0.146,0.208-0.26,0.519-0.307c-0.228,0.582-0.446,1.152-0.674,1.729c-1.723,4.379-3.622,8.727-5.137,13.188
			c-0.643,1.899-0.737,4.047-0.706,6.07c0.052,3.705,1.671,5.599,5.209,6.817c3.798,1.287,7.523,0.815,11.238-0.306
			c3.933-1.173,7.399-3.3,10.865-5.417c8.135-4.98,15.202-11.165,21.169-18.58c0.623-0.768,0.903-1.53,0.83-2.516
			c-0.737-9.08-2.003-18.076-4.192-26.918c-1.39-5.572-3.061-11.051-4.597-16.577c-0.104-0.384-0.187-0.83-0.093-1.219
			c0.529-2.356,1.12-4.69,1.753-7.337c0.996,1.743,1.951,3.248,2.729,4.846c3.238,6.684,5.427,13.724,6.589,21.029
			c1.495,9.344,2.729,18.725,4.057,28.101c0.042,0.259,0.125,0.529,0.416,0.835c0.28-0.658,0.571-1.328,0.82-2.018
			c2.366-6.258,6.558-11.067,12.245-14.367c5.209-3.01,10.719-5.5,16.115-8.192c2.542-1.271,2.117-0.939,1.255-3.171
			c-1.089-2.801-1.899-5.634-1.151-8.69c0.871-3.605,3.403-5.629,7.098-5.723c2.822-0.083,5.386,0.653,7.347,2.692
			c2.501,2.621,4.846,5.417,7.212,8.188c0.291,0.332,0.238,0.966,0.28,1.474c0.021,0.224-0.094,0.483-0.166,0.727
			c-1.712,5.396-1.712,5.35-7.212,6.61c-2.075,0.467-4.12,1.126-6.185,1.649c-0.986,0.26-1.515,0.722-1.411,1.812
			c0.052,0.44-0.104,0.907-0.177,1.391c-0.104-0.068-0.208-0.115-0.229-0.166c-0.799-1.998-0.809-2.023-2.822-1.359
			c-8.571,2.843-16.634,6.672-23.773,12.291c-0.478,0.379-0.913,0.819-1.608,1.432c0.602,0.135,0.924,0.233,1.256,0.265
			c14.631,1.536,29.304,1.666,43.987,1.079c5.563-0.213,11.124-0.727,16.676-1.079c0.332-0.031,0.664-0.005,1.017-0.005
			C480.532,256.953,480.532,257.28,480.532,257.622z M424.58,287.679c0.104-0.659,0.229-1.234,0.291-1.821
			c0.581-5.635,3.186-10.153,7.876-13.251c2.937-1.935,6.257-3.336,9.412-4.965c0.861-0.462,1.754-0.841,2.968-1.411
			c-11.84-0.582-23.286-1.121-34.731-1.666C409.783,271.823,418.219,285.765,424.58,287.679z M452.545,231.939
			c-1.038-0.819-1.806-1.505-2.667-2.08c-2.262-1.505-4.628-2.574-7.513-2.014c-1.204,0.249-1.38,0.768-0.882,1.691
			c0.789,1.484,1.577,2.942,2.438,4.374c0.197,0.306,0.747,0.556,1.152,0.571C447.803,234.726,450.055,233.517,452.545,231.939z"/>
		<linearGradient id="SVGID_4_" gradientUnits="userSpaceOnUse" x1="384.2432" y1="205.9355" x2="348.4453" y2="267.9392">
			<stop  offset="0" style="stop-color:#2EC425"/>
			<stop  offset="0.1756" style="stop-color:#2CBE27"/>
			<stop  offset="0.4049" style="stop-color:#28AE2B"/>
			<stop  offset="0.6638" style="stop-color:#209332"/>
			<stop  offset="0.9427" style="stop-color:#156E3D"/>
			<stop  offset="1" style="stop-color:#13653F"/>
		</linearGradient>
		<path fill-rule="evenodd" clip-rule="evenodd" fill="url(#SVGID_4_)" d="M331.042,252.839c0.343-0.919,0.695-1.837,1.038-2.75
			c0.062,0.026,0.114,0.036,0.187,0.067c-0.073,0.918-0.218,1.878-0.197,2.813c0.021,2.365,1.048,4.197,3.383,4.887
			c1.608,0.457,3.373,0.764,5.043,0.639c3.456-0.26,6.714-1.386,9.733-3.129c0.955-0.555,1.795-1.303,2.698-1.967
			c-0.021-0.15-0.041-0.321-0.052-0.477c-2.49-0.648-5.001-1.292-7.554-1.961c0.208-1.318,1.089-1.91,1.94-2.476
			c0.892-0.617,1.919-1.073,2.74-1.759c0.674-0.539,1.141-1.328,1.712-2.033c-0.342-0.271-0.425-0.39-0.529-0.416
			c-2.138-0.337-3.217-1.738-3.808-3.699c-0.446-1.494-0.976-1.785-2.242-0.908c-0.955,0.659-1.712,1.66-2.324,2.657
			c-0.706,1.146-1.048,2.495-1.764,3.61c-0.363,0.598-1.121,1.215-1.785,1.318c-0.924,0.15-1.577-0.602-1.94-1.494
			c-0.177-0.41-0.415-0.799-0.727-1.375c-0.674,0.539-1.276,1.012-2.075,1.635c0.27-0.893,0.477-1.599,0.695-2.314
			c0.197-0.706,0.384-1.427,0.664-2.412c0.436,0.918,0.716,1.618,1.079,2.256c0.332,0.576,0.727,1.111,1.172,1.604
			c0.602,0.659,1.276,0.617,1.827-0.063c0.602-0.788,1.172-1.645,1.66-2.5c0.591-1.018,1.048-2.107,1.65-3.104
			c0.342-0.617,0.789-1.214,1.308-1.649c2.034-1.712,2.688-1.536,3.528,0.929c0.415,1.188,0.872,2.257,2.189,2.714
			c0.903,0.321,1.412,0.077,1.546-0.81c0.156-1.079,0.322-2.174,0.291-3.254c-0.135-4.187-0.332-8.373-0.529-12.566
			c-0.021-0.389-0.176-0.788-0.363-1.598c-1.131,0.976-2.138,1.645-2.895,2.537c-1.525,1.774-2.906,3.668-4.358,5.511
			c-0.384,0.492-0.789,0.985-1.235,1.411c-1.484,1.447-3.04,1.12-3.829-0.81c-0.124-0.296-0.187-0.622-0.218-0.727
			c0.747,0.171,1.619,0.617,2.345,0.457c0.789-0.166,1.587-0.789,2.179-1.411c0.893-0.939,1.671-1.998,2.355-3.082
			c1.38-2.133,2.376-4.582,5.012-5.572c0.208-0.089,0.301-0.551,0.332-0.852c0.166-1.121,0.249-2.268,0.415-3.377
			c0.052-0.41,0.259-0.811,0.467-1.438c1.225,1.214,0.695,2.656,1.246,3.975c0.602,0,1.287-0.053,1.981,0.005
			c1.08,0.104,2.19,0.182,3.217,0.503c1.598,0.478,3.207-0.342,3.3-2.044c0.052-0.919-0.187-1.904-0.467-2.808
			c-0.664-2.049-1.463-4.057-2.158-6.111c-0.125-0.354,0.021-0.778,0.042-1.157c0.145-0.047,0.28-0.088,0.415-0.104
			c0.425,1.162,0.851,2.313,1.276,3.471c0.073-0.005,0.135-0.031,0.197-0.031c0-4.161,0-8.296,0-12.457
			c0.135-0.047,0.28-0.073,0.415-0.14c0.415,1.131,1.058,2.23,1.214,3.408c0.394,2.6,0.519,5.246,0.757,7.876
			c0.073,0.653,0.166,1.313,0.228,1.951c1.691,0.187,2.813-0.659,2.76-2.33c-0.052-2.251-0.363-4.487-0.571-6.745
			c-0.041-0.42-0.093-0.855-0.145-1.281c0.145-0.057,0.291-0.109,0.436-0.171c0.446,0.938,0.975,1.862,1.317,2.838
			c0.561,1.521,0.924,3.129,1.505,4.654c0.519,1.4,1.546,2.003,2.905,1.919c1.422-0.088,1.681-0.492,1.152-1.857
			c-0.789-1.961-1.712-3.912-2.293-5.94c-0.301-1.079-0.104-2.319,0.01-3.45c0.104-0.882,0.778-1.25,1.567-0.825
			c1.484,0.805,3.144,1.505,4.337,2.662c4.161,4.016,5.967,9.116,6.164,14.803c0.083,2.179,0.021,4.348,0.021,6.506
			c-0.249,0-0.487,0.005-0.736,0.005c0-1.525,0.052-3.056,0-4.592c-0.177-5.234-1.993-9.826-5.406-13.749
			c-1.193-1.406-2.615-2.579-4.649-3.294c0.561,2.101,1.152,3.963,1.557,5.862c0.27,1.245,0.415,2.553,0.415,3.854
			c-0.01,1.401-0.851,2.305-2.002,2.527c-1.391,0.285-2.833-0.316-3.466-1.463c-0.218-0.431-0.446-0.872-0.778-1.51
			c-0.446,0.576-0.778,1.012-1.131,1.457c-0.861,1.132-1.733,2.227-2.573,3.368c-0.208,0.27-0.343,0.675-0.312,0.98
			c0.104,1.178,1.37,2.553,2.584,2.553c1.038,0,1.951-0.54,2.459-1.614c0.332-0.71,0.861-1.322,1.432-2.158
			c0.207,0.457,0.29,0.561,0.29,0.659c-0.083,1.681,0.374,2.21,2.034,1.723c0.903-0.265,1.671-1.079,2.418-1.749
			c0.342-0.279,0.457-0.83,0.955-1.239c0.052,0.44-0.01,0.938,0.197,1.266c0.28,0.493,0.675,1.022,1.163,1.198
			c0.82,0.301,1.276-0.083,1.079-1.048c-0.114-0.55-0.176-1.136-0.259-1.691c0.155-0.057,0.311-0.108,0.457-0.15
			c0.187,0.27,0.457,0.519,0.54,0.81c0.125,0.623,0.249,1.261,0.197,1.883c-0.094,0.784-0.312,2.174-0.571,2.211
			c-0.955,0.088-1.961-0.285-2.937-0.498c-0.145-0.021-0.27-0.188-0.456-0.327c-0.26,0.218-0.519,0.436-0.758,0.648
			c-1.536,1.406-2.905,1.552-4.68,0.534c-0.28-0.15-0.831-0.213-1.038-0.057c-2.002,1.494-1.982,1.505-4.814,2.033
			c0.321,4.66,0.643,9.335,0.975,14.269c4.358-1.655,8.104-3.429,10.564-7.098c0.851-1.266,0.685-1.588-0.872-1.821
			c-1.038-0.15-2.085-0.223-3.123-0.332c-1.048-0.124-1.38-0.742-1.349-1.738c0.104-2.75,1.982-4.337,4.099-3.273
			c0.861,0.441,1.629,1.354,2.117,2.215c1.837,3.238,0.789,7.274-2.573,9.465c-2.127,1.4-4.42,2.553-6.703,3.678
			c-1.11,0.54-1.142,1.168-0.602,2.065c0.757,1.261,2.013,1.764,3.352,1.992c3.321,0.576,6.506-0.13,9.609-1.235
			c0.799-0.259,0.913-0.824,0.301-1.41c-0.633-0.613-1.318-1.168-1.972-1.765c-1.744-1.552-1.432-4.042,0.674-5.063
			c0.82-0.39,1.733-0.612,2.594-0.898c1.889-0.643,3.767-1.275,5.718-1.945c-0.01,0.088,0,0.42-0.125,0.644
			c-1.027,1.774-2.086,3.455-4.607,3.087c-0.934-0.14-1.93,0.078-2.895,0.172c-0.955,0.093-1.225,0.575-0.727,1.452
			c1.193,2.117,3.175,2.968,5.396,2.692c2.138-0.279,4.192-1.068,6.268-1.654c0.384-0.114,0.727-0.316,1.09-0.482
			c0.083,0.108,0.166,0.232,0.238,0.353c-1.287,1.012-2.521,2.138-3.891,3.04c-4.12,2.734-8.52,4.893-13.479,5.521
			c-1.474,0.187-3.02,0.146-4.483-0.119c-1.204-0.213-2.47-0.695-3.414-1.427c-0.944-0.742-1.494-1.936-2.272-2.994
			c-0.405,0.727-0.84,1.552-1.328,2.33c-0.363,0.561-0.778,1.1-1.256,1.557c-1.463,1.4-2.75,1.317-4.088-0.197
			c-0.322-0.374-0.643-0.752-0.955-1.115c-1.318,1.006-1.608,1.986-1.142,3.466c0.799,2.532,4.213,5.007,6.87,5.188
			c3.622,0.274,6.953-0.675,10.242-2.045c1.536-0.638,3.124-1.183,4.68-1.815c0.893-0.363,1.432-0.239,1.588,0.825
			c0.062,0.342,0.28,0.653,0.55,1.209c0.54-0.644,0.893-1.127,1.318-1.552c1.432-1.411,2.739-2.983,4.348-4.146
			c2.459-1.779,5.344-1.323,7.046,0.877c0.333,0.436,0.54,1.162,0.446,1.701c-0.519,3.27-3.279,5.619-6.88,5.879
			c-1.546,0.109-3.092,0-4.648,0.036c-0.747,0-1.484,0.109-2.345,0.182c-0.114-0.399-0.239-1.048-0.436-1.671
			c-0.425-1.416-0.581-1.416-1.94-0.897c-2.843,1.079-5.676,2.21-8.613,3.025c-2.387,0.689-4.888,0.726-7.347,0.155
			c-3.103-0.721-5.292-2.412-6.081-5.645c-0.114-0.529-0.291-1.033-0.56-1.957c-1.235,1.873-2.314,3.519-3.58,5.422
			c0.934,0.25,1.65,0.504,2.387,0.659c1.971,0.426,2.355,1.137,1.566,3.025c-0.736,1.748-1.981,3.118-3.569,4.109
			c-3.279,2.091-6.88,3.242-10.771,3.444c-2.013,0.094-3.964-0.389-5.604-1.53c-0.882-0.602-1.432-1.681-2.044-2.62
			c-0.312-0.457-0.384-1.084-0.561-1.635C331.042,254.344,331.042,253.602,331.042,252.839z M357.005,238.098
			c0.664,2.756,1.266,3.384,2.875,3.124c1.827-0.312,2.75-1.339,2.563-2.937c-0.944,0.28-1.889,0.555-2.833,0.835
			c-0.042-0.124-0.083-0.238-0.125-0.363c0.778-0.337,1.587-0.633,2.334-1.037c0.291-0.166,0.654-0.565,0.654-0.856
			c-0.042-4.016-0.093-8.047-0.259-12.058c-0.063-1.142-0.478-2.268-0.81-3.762c-0.747,1.017-1.245,1.634-1.681,2.288
			c-1.795,2.703-1.93,3.035-3.86,0.047c-0.457-0.711-0.976-1.386-2.242-1.121c0.166,5.967,0.363,11.959,0.529,17.941
			c0.135,0.042,0.28,0.089,0.415,0.135C355.366,239.604,356.155,238.882,357.005,238.098z M382.73,249.062
			c0.021,0.083,0.031,0.182,0.062,0.259c2.107-0.42,4.244-0.793,6.34-1.297c1.121-0.259,1.847-1.074,1.723-2.288
			c-0.135-1.136-0.934-1.712-2.013-1.972c-1.785-0.425-3.559-0.213-5.116,0.623c-1.09,0.576-2.148,1.494-2.812,2.517
			c-0.965,1.494-0.457,2.158,1.318,2.158C382.398,249.062,382.564,249.062,382.73,249.062z"/>
		<linearGradient id="SVGID_5_" gradientUnits="userSpaceOnUse" x1="411.2168" y1="173.9355" x2="392.2614" y2="206.7673">
			<stop  offset="0" style="stop-color:#2EC425"/>
			<stop  offset="0.1756" style="stop-color:#2CBE27"/>
			<stop  offset="0.4049" style="stop-color:#28AE2B"/>
			<stop  offset="0.6638" style="stop-color:#209332"/>
			<stop  offset="0.9427" style="stop-color:#156E3D"/>
			<stop  offset="1" style="stop-color:#13653F"/>
		</linearGradient>
		<path fill-rule="evenodd" clip-rule="evenodd" fill="url(#SVGID_5_)" d="M412.335,174.581c1.121,3.647,2.242,7.311,3.362,10.964
			c-0.104,0.077-0.197,0.119-0.301,0.176c-0.665-0.783-1.349-1.572-2.273-2.656c-5.24,10.05-13.791,16.494-22.663,22.663
			c0.54-0.742,1.059-1.51,1.64-2.236c1.577-2.039,2.916-4.208,3.56-6.724c0.487-1.951,0.363-3.809-1.048-5.428
			c-0.716-0.799-1.65-0.866-2.397-0.462c-0.706,0.379-1.183,1.178-1.702,1.837c-0.052,0.063,0.332,0.644,0.591,0.752
			c1.401,0.504,2.241-0.363,3.082-1.411c0.384,1.188,0.125,2.247-0.768,2.854c-0.82,0.534-1.889,0.721-2.854,0.98
			c-0.135,0.025-0.55-0.41-0.581-0.675c-0.197-1.749-0.156-3.497,0.726-5.121c0.841-1.588,1.837-2.185,3.29-1.925
			c0.924,0.182,2.003,1.521,2.2,2.817c0.425,2.734,0.083,5.427-0.571,8.089c-0.104,0.436-0.177,0.887,0,1.546
			c1.494-1.173,3.02-2.309,4.462-3.522c4.213-3.575,8.094-7.43,11.104-12.084c1.234-1.884,1.183-1.884-0.581-3.149
			c-0.747-0.545-1.91-1.282-1.91-1.931c-0.01-1.432,0.467-2.916,0.996-4.312c0.177-0.498,1.059-0.705,1.619-1.043
			C411.65,174.581,411.982,174.581,412.335,174.581z M412.532,180.289c0.374-1.972-0.187-3.207-1.536-3.362
			c-0.519-0.078-1.359,0.135-1.598,0.509c-0.425,0.643-0.093,1.4,0.644,1.764C410.799,179.599,411.609,179.895,412.532,180.289z"/>
		<linearGradient id="SVGID_6_" gradientUnits="userSpaceOnUse" x1="438.6943" y1="181.3154" x2="417.1317" y2="218.663">
			<stop  offset="0" style="stop-color:#2EC425"/>
			<stop  offset="0.1756" style="stop-color:#2CBE27"/>
			<stop  offset="0.4049" style="stop-color:#28AE2B"/>
			<stop  offset="0.6638" style="stop-color:#209332"/>
			<stop  offset="0.9427" style="stop-color:#156E3D"/>
			<stop  offset="1" style="stop-color:#13653F"/>
		</linearGradient>
		<path fill-rule="evenodd" clip-rule="evenodd" fill="url(#SVGID_6_)" d="M403.255,210.651c0.623-2.106,1.972-3.518,3.892-4.363
			c13.749-5.936,27.343-12.292,41.86-16.24c1.11-0.296,2.262-0.539,3.393-0.819c0.073,0.15,0.135,0.28,0.218,0.431
			c-0.778,0.436-1.504,0.985-2.334,1.281c-3.964,1.453-7.959,2.858-11.934,4.271c-11.052,3.933-21.875,8.42-32.272,13.879
			C405.133,209.582,404.2,210.127,403.255,210.651z"/>
		<linearGradient id="SVGID_7_" gradientUnits="userSpaceOnUse" x1="456.2295" y1="194.2441" x2="435.9506" y2="229.3683">
			<stop  offset="0" style="stop-color:#2EC425"/>
			<stop  offset="0.1756" style="stop-color:#2CBE27"/>
			<stop  offset="0.4049" style="stop-color:#28AE2B"/>
			<stop  offset="0.6638" style="stop-color:#209332"/>
			<stop  offset="0.9427" style="stop-color:#156E3D"/>
			<stop  offset="1" style="stop-color:#13653F"/>
		</linearGradient>
		<path fill-rule="evenodd" clip-rule="evenodd" fill="url(#SVGID_7_)" d="M458.398,206.08c-0.944-1.364-1.754-2.547-2.739-3.959
			c-7.202,9.766-15.68,17.891-26.461,23.349c1.162-0.95,2.355-1.878,3.549-2.838c4.535-3.689,9.225-7.265,13.604-11.146
			c2.553-2.257,4.701-4.996,6.921-7.627c1.391-1.645,1.276-2.152-0.457-3.419c-1.079-0.788-1.463-1.743-1.162-2.932
			c0.311-1.188,0.674-2.412,1.287-3.486c0.602-1.048,1.546-1.038,2.418-0.171c1.027,1.012,1.203,2.309,0.902,3.611
			c-0.311,1.297-0.072,2.313,0.695,3.372c0.944,1.292,2.106,2.589,1.671,4.426C458.584,205.447,458.523,205.635,458.398,206.08z
			 M455.928,199.097c-0.487-1.225-0.736-2.257-1.297-3.103c-0.27-0.389-1.162-0.54-1.733-0.473
			c-0.207,0.006-0.498,0.955-0.456,1.448C452.545,198.225,453.532,198.848,455.928,199.097z"/>
		<linearGradient id="SVGID_8_" gradientUnits="userSpaceOnUse" x1="466.6914" y1="281.9941" x2="459.0591" y2="295.2137">
			<stop  offset="0" style="stop-color:#2EC425"/>
			<stop  offset="0.1756" style="stop-color:#2CBE27"/>
			<stop  offset="0.4049" style="stop-color:#28AE2B"/>
			<stop  offset="0.6638" style="stop-color:#209332"/>
			<stop  offset="0.9427" style="stop-color:#156E3D"/>
			<stop  offset="1" style="stop-color:#13653F"/>
		</linearGradient>
		<path fill-rule="evenodd" clip-rule="evenodd" fill="url(#SVGID_8_)" d="M461.75,282.08c-1.494,0.234-2.988,0.463-4.482,0.68
			c0.229-2.121,3.093-3.19,6.402-2.511c-0.041,1.375-0.519,2.6-1.483,3.585c-1.287,1.318-2.729,2.48-3.943,3.855
			c-0.706,0.799-1.09,1.894-1.629,2.854c1.037,0.446,2.055,1.074,3.133,1.271c3.082,0.539,5.822-0.763,8.604-1.821
			c1.266-0.478,2.5-1.043,3.797-1.479c-2.064,2.351-4.68,3.854-7.637,4.758c-2.377,0.726-4.825,0.938-7.326,0.648
			c-0.893-0.104-1.234-0.493-1.308-1.333c-0.166-2.325,0.675-4.275,2.21-5.946c1.267-1.386,2.543-2.75,3.819-4.125
			C461.854,282.377,461.801,282.236,461.75,282.08z"/>
		<linearGradient id="SVGID_9_" gradientUnits="userSpaceOnUse" x1="423.7119" y1="211.2891" x2="416.4469" y2="223.8724">
			<stop  offset="0" style="stop-color:#2EC425"/>
			<stop  offset="0.1756" style="stop-color:#2CBE27"/>
			<stop  offset="0.4049" style="stop-color:#28AE2B"/>
			<stop  offset="0.6638" style="stop-color:#209332"/>
			<stop  offset="0.9427" style="stop-color:#156E3D"/>
			<stop  offset="1" style="stop-color:#13653F"/>
		</linearGradient>
		<path fill-rule="evenodd" clip-rule="evenodd" fill="url(#SVGID_9_)" d="M420.035,211.726c0.27,0.841,0.571,1.691,0.82,2.548
			c0.395,1.447,0.654,2.946,1.172,4.357c0.633,1.697,2.605,2.236,3.902,1.246c0.55-0.447,0.654-0.83,0.312-1.5
			c-0.737-1.4-1.442-2.844-2.034-4.301c-0.343-0.852-0.457-1.801-0.457-2.766c1.723,2.293,3.311,4.664,3.404,7.601
			c0.01,0.872-0.477,1.853-1.006,2.636c-0.83,1.235-1.816,1.365-3.176,0.706c-0.529-0.271-1.017-0.587-1.619-0.929
			c-0.467,0.565-0.903,1.105-1.359,1.64c-1.504,1.826-3.622,1.691-4.69-0.441c-0.56-1.095-0.809-2.366-1.027-3.58
			c-0.28-1.613-0.384-3.237-0.561-4.861c0.125-0.031,0.259-0.052,0.374-0.078c0.249,1.022,0.519,2.055,0.747,3.103
			c0.197,0.893,0.28,1.821,0.519,2.703c0.467,1.645,2.283,2.574,3.881,2.023c1.172-0.379,1.401-1.432,1.308-2.459
			c-0.187-2.111-0.509-4.229-0.758-6.346c-0.052-0.409-0.125-0.824-0.176-1.214C419.754,211.782,419.89,211.757,420.035,211.726z"/>
		<linearGradient id="SVGID_10_" gradientUnits="userSpaceOnUse" x1="429.6177" y1="225.0869" x2="417.4758" y2="246.1172">
			<stop  offset="0" style="stop-color:#2EC425"/>
			<stop  offset="0.1756" style="stop-color:#2CBE27"/>
			<stop  offset="0.4049" style="stop-color:#28AE2B"/>
			<stop  offset="0.6638" style="stop-color:#209332"/>
			<stop  offset="0.9427" style="stop-color:#156E3D"/>
			<stop  offset="1" style="stop-color:#13653F"/>
		</linearGradient>
		<path fill-rule="evenodd" clip-rule="evenodd" fill="url(#SVGID_10_)" d="M410.613,242.155c1.982-2.423,4.389-4.296,7.118-5.536
			c5.863-2.656,11.83-5.053,17.766-7.549c0.218-0.094,0.467-0.119,0.716-0.176c0.063,0.082,0.135,0.166,0.208,0.259
			c-0.81,0.706-1.515,1.562-2.438,2.07c-2.148,1.126-4.39,2.044-6.569,3.077c-5.23,2.448-10.46,4.902-15.679,7.347
			C411.37,241.823,410.986,241.975,410.613,242.155z"/>
		<linearGradient id="SVGID_11_" gradientUnits="userSpaceOnUse" x1="403.4995" y1="284.168" x2="391.6239" y2="304.7371">
			<stop  offset="0" style="stop-color:#2EC425"/>
			<stop  offset="0.1756" style="stop-color:#2CBE27"/>
			<stop  offset="0.4049" style="stop-color:#28AE2B"/>
			<stop  offset="0.6638" style="stop-color:#209332"/>
			<stop  offset="0.9427" style="stop-color:#156E3D"/>
			<stop  offset="1" style="stop-color:#13653F"/>
		</linearGradient>
		<path fill-rule="evenodd" clip-rule="evenodd" fill="url(#SVGID_11_)" d="M399.292,284.141c-0.664,0.072-1.349,0.13-2.096,0.202
			c-0.156-1.001,0.27-1.894,1.1-2.226c0.602-0.244,1.608-0.083,2.168,0.306c1.37,0.95,2.242,2.314,2.366,4.089
			c0.052,0.84-0.239,1.115-1.08,1.053c-1.515-0.119-3.009-0.213-4.514-0.171c-1.92,0.047-2.449,0.54-2.241,2.376
			c0.446,3.783,1.11,7.523,1.556,11.307c0.249,2.121,0.249,4.295,0.384,6.729c-0.882-5.313-1.744-10.309-2.511-15.306
			c-0.187-1.178-0.01-2.423-0.083-3.643c-0.083-1.634,0.768-2.578,2.169-3.149c0.944-0.404,1.909-0.736,2.875-1.109
			C399.364,284.446,399.323,284.291,399.292,284.141z"/>
		<linearGradient id="SVGID_12_" gradientUnits="userSpaceOnUse" x1="374.9092" y1="260.9316" x2="368.0149" y2="272.8729">
			<stop  offset="0" style="stop-color:#2EC425"/>
			<stop  offset="0.1756" style="stop-color:#2CBE27"/>
			<stop  offset="0.4049" style="stop-color:#28AE2B"/>
			<stop  offset="0.6638" style="stop-color:#209332"/>
			<stop  offset="0.9427" style="stop-color:#156E3D"/>
			<stop  offset="1" style="stop-color:#13653F"/>
		</linearGradient>
		<path fill-rule="evenodd" clip-rule="evenodd" fill="url(#SVGID_12_)" d="M372.924,272.248c0.218-1.649,0.405-3.305,0.654-4.939
			c0.238-1.587,0.238-3.283,1.474-4.57c0.975-1.002,2.802-0.686,3.154,0.628c0.104,0.404-0.01,0.991-0.249,1.364
			c-0.125,0.182-0.778,0.119-1.131,0c-1.37-0.446-1.889-0.233-2.21,1.261c-0.508,2.335-0.861,4.681-1.287,7.03
			c-0.156,0.799-0.374,1.588-0.841,2.434c-0.395-0.939-0.778-1.904-1.162-2.833c-0.519-1.225-1.007-2.47-1.588-3.679
			c-0.373-0.763-0.913-1.037-1.826-0.472c-1.297,0.804-2.138,0.353-2.096-1.163c0.021-0.777,0.291-1.748,0.831-2.226
			c0.332-0.29,1.504-0.03,2.013,0.354c0.83,0.628,1.588,1.474,2.065,2.392c0.747,1.406,1.255,2.968,1.857,4.451
			C372.695,272.279,372.81,272.27,372.924,272.248z"/>
		<linearGradient id="SVGID_13_" gradientUnits="userSpaceOnUse" x1="472.6787" y1="237.499" x2="465.976" y2="249.1085">
			<stop  offset="0" style="stop-color:#2EC425"/>
			<stop  offset="0.1756" style="stop-color:#2CBE27"/>
			<stop  offset="0.4049" style="stop-color:#28AE2B"/>
			<stop  offset="0.6638" style="stop-color:#209332"/>
			<stop  offset="0.9427" style="stop-color:#156E3D"/>
			<stop  offset="1" style="stop-color:#13653F"/>
		</linearGradient>
		<path fill-rule="evenodd" clip-rule="evenodd" fill="url(#SVGID_13_)" d="M469.605,251.204c-0.218-1.022-0.436-2.028-0.664-3.04
			c-0.591-2.475-1.837-4.416-4.368-5.235c-0.778-0.249-0.654-0.727-0.54-1.276c0.155-0.602,0.177-1.276,1.1-1.24
			c1.287,0.016,2.615,1.012,3.134,2.506c0.52,1.505,0.955,3.041,1.443,4.571c0.145,0.456,0.332,0.908,0.508,1.375
			c0.114,0,0.238,0.016,0.353,0.036c0.302-1.385,0.571-2.739,0.903-4.078c0.395-1.634,0.768-3.264,1.245-4.846
			c0.321-1.012,1.11-1.266,2.117-1.032c1.12,0.274,1.95,0.835,2.106,2.033c0.041,0.26-0.125,0.706-0.354,0.856
			c-0.207,0.135-0.643,0.016-0.902-0.104c-2.023-1.059-2.76-0.82-3.352,1.427c-0.478,1.857-0.664,3.808-1.121,5.665
			c-0.218,0.888-0.747,1.687-1.12,2.527C469.937,251.298,469.771,251.24,469.605,251.204z"/>
		<linearGradient id="SVGID_14_" gradientUnits="userSpaceOnUse" x1="359.0986" y1="203.2871" x2="352.532" y2="214.6609">
			<stop  offset="0" style="stop-color:#2EC425"/>
			<stop  offset="0.1756" style="stop-color:#2CBE27"/>
			<stop  offset="0.4049" style="stop-color:#28AE2B"/>
			<stop  offset="0.6638" style="stop-color:#209332"/>
			<stop  offset="0.9427" style="stop-color:#156E3D"/>
			<stop  offset="1" style="stop-color:#13653F"/>
		</linearGradient>
		<path fill-rule="evenodd" clip-rule="evenodd" fill="url(#SVGID_14_)" d="M352.191,208.057c0.321,1.547,0.56,3.113,1.006,4.629
			c0.166,0.592,0.965,1.566,1.193,1.494c0.726-0.244,1.64-0.768,1.889-1.396c0.571-1.604,0.716-3.347,1.235-4.976
			c0.415-1.282,1.121-2.455,1.723-3.669c0.052-0.104,0.28-0.124,0.809-0.306c-0.239,0.871-0.239,1.67-0.623,2.08
			c-1.66,1.765-1.868,3.954-2.221,6.148c-0.125,0.81-0.249,1.645-0.498,2.449c-0.498,1.546-2.075,1.889-3.051,0.576
			C352.056,212.971,351.848,210.532,352.191,208.057z"/>
		<linearGradient id="SVGID_15_" gradientUnits="userSpaceOnUse" x1="365.4775" y1="243.6465" x2="362.6687" y2="248.5115">
			<stop  offset="0" style="stop-color:#2EC425"/>
			<stop  offset="0.1756" style="stop-color:#2CBE27"/>
			<stop  offset="0.4049" style="stop-color:#28AE2B"/>
			<stop  offset="0.6638" style="stop-color:#209332"/>
			<stop  offset="0.9427" style="stop-color:#156E3D"/>
			<stop  offset="1" style="stop-color:#13653F"/>
		</linearGradient>
		<path fill-rule="evenodd" clip-rule="evenodd" fill="url(#SVGID_15_)" d="M362.422,245.549c1.006,0.052,2.138,0.389,2.594-1.043
			c0.042-0.119,0.519-0.182,0.778-0.14c0.436,0.077,0.882,0.265,1.318,0.409c0.519,0.166,1.276,0.188,0.893,1.096
			c-0.28,0.689-0.478,1.515-1.567,0.97c-0.363-0.187-0.799-0.229-1.183-0.399c-0.706-0.338-1.131-0.166-1.515,0.539
			c-0.571,1.085-2.802,1.027-3.466-0.052c-0.395-0.648,0-1.416,0.757-1.468C361.488,245.445,361.956,245.513,362.422,245.549z"/>
		<linearGradient id="SVGID_16_" gradientUnits="userSpaceOnUse" x1="465.5552" y1="220.6035" x2="462.9747" y2="225.073">
			<stop  offset="0" style="stop-color:#2EC425"/>
			<stop  offset="0.1756" style="stop-color:#2CBE27"/>
			<stop  offset="0.4049" style="stop-color:#28AE2B"/>
			<stop  offset="0.6638" style="stop-color:#209332"/>
			<stop  offset="0.9427" style="stop-color:#156E3D"/>
			<stop  offset="1" style="stop-color:#13653F"/>
		</linearGradient>
		<path fill-rule="evenodd" clip-rule="evenodd" fill="url(#SVGID_16_)" d="M462.57,218.881c0.249,1.244,0.436,2.174,0.602,3.117
			c0.363,1.946,1.65,2.657,3.456,1.904c0.238-0.093,0.436-0.238,0.664-0.379c0.218,1.375-0.706,2.418-2.076,2.361
			c-1.608-0.057-2.614-1.043-3.31-2.361C461.106,221.993,461.428,220.551,462.57,218.881z"/>
		<linearGradient id="SVGID_17_" gradientUnits="userSpaceOnUse" x1="343.667" y1="275.4414" x2="341.422" y2="279.3299">
			<stop  offset="0" style="stop-color:#2EC425"/>
			<stop  offset="0.1756" style="stop-color:#2CBE27"/>
			<stop  offset="0.4049" style="stop-color:#28AE2B"/>
			<stop  offset="0.6638" style="stop-color:#209332"/>
			<stop  offset="0.9427" style="stop-color:#156E3D"/>
			<stop  offset="1" style="stop-color:#13653F"/>
		</linearGradient>
		<path fill-rule="evenodd" clip-rule="evenodd" fill="url(#SVGID_17_)" d="M346.203,276.944c-0.529,0.892-0.965,1.884-1.629,2.683
			c-0.675,0.835-2.958,0.295-3.477-0.82c-0.685-1.453-0.799-2.999-0.125-4.648c0.197,0.492,0.457,0.98,0.592,1.494
			c0.685,2.412,2.034,2.854,4.016,1.328c0.125-0.072,0.27-0.15,0.384-0.213C346.047,276.819,346.13,276.887,346.203,276.944z"/>
		<linearGradient id="SVGID_18_" gradientUnits="userSpaceOnUse" x1="427.894" y1="185.9668" x2="425.3717" y2="190.3356">
			<stop  offset="0" style="stop-color:#2EC425"/>
			<stop  offset="0.1756" style="stop-color:#2CBE27"/>
			<stop  offset="0.4049" style="stop-color:#28AE2B"/>
			<stop  offset="0.6638" style="stop-color:#209332"/>
			<stop  offset="0.9427" style="stop-color:#156E3D"/>
			<stop  offset="1" style="stop-color:#13653F"/>
		</linearGradient>
		<path fill-rule="evenodd" clip-rule="evenodd" fill="url(#SVGID_18_)" d="M425.265,184.449c0.114,0.856,0.218,1.697,0.332,2.537
			c0.239,1.978,0.612,2.258,2.625,1.946c0.363-0.058,0.737-0.108,1.256-0.166c-0.28,1.079-0.592,2.081-1.64,2.36
			c-1.121,0.316-1.91-0.399-2.428-1.359C424.486,188.071,423.978,186.313,425.265,184.449z"/>
		<linearGradient id="SVGID_19_" gradientUnits="userSpaceOnUse" x1="382.3018" y1="184.7832" x2="380.4154" y2="188.0505">
			<stop  offset="0" style="stop-color:#2EC425"/>
			<stop  offset="0.1756" style="stop-color:#2CBE27"/>
			<stop  offset="0.4049" style="stop-color:#28AE2B"/>
			<stop  offset="0.6638" style="stop-color:#209332"/>
			<stop  offset="0.9427" style="stop-color:#156E3D"/>
			<stop  offset="1" style="stop-color:#13653F"/>
		</linearGradient>
		<path fill-rule="evenodd" clip-rule="evenodd" fill="url(#SVGID_19_)" d="M380.188,183.563c1.536,3.3,1.837,3.533,3.746,2.584
			c0.332,0.965-0.187,2.008-1.183,2.396c-0.944,0.379-2.2-0.072-2.449-1.084c-0.301-1.261-0.332-2.573-0.457-3.876
			C379.959,183.573,380.073,183.563,380.188,183.563z"/>
		<linearGradient id="SVGID_20_" gradientUnits="userSpaceOnUse" x1="350.3413" y1="231.1641" x2="348.5328" y2="234.2964">
			<stop  offset="0" style="stop-color:#2EC425"/>
			<stop  offset="0.1756" style="stop-color:#2CBE27"/>
			<stop  offset="0.4049" style="stop-color:#28AE2B"/>
			<stop  offset="0.6638" style="stop-color:#209332"/>
			<stop  offset="0.9427" style="stop-color:#156E3D"/>
			<stop  offset="1" style="stop-color:#13653F"/>
		</linearGradient>
		<path fill-rule="evenodd" clip-rule="evenodd" fill="url(#SVGID_20_)" d="M350.862,233.148c0.031,0.836-0.239,1.24-1.038,1.068
			c-0.322-0.072-0.674-0.088-0.986-0.072c-1.131,0-1.691-0.644-1.235-1.676c0.343-0.742,0.976-1.354,1.474-2.034
			c0.55,0.68,1.1,1.313,1.598,1.998C350.842,232.646,350.821,232.993,350.862,233.148z M347.947,232.267
			c0.778,0.509,1.411,0.907,2.168,1.411C350.001,232.24,349.41,231.856,347.947,232.267z"/>
		<linearGradient id="SVGID_21_" gradientUnits="userSpaceOnUse" x1="374.4351" y1="234.5723" x2="372.316" y2="238.2425">
			<stop  offset="0" style="stop-color:#2EC425"/>
			<stop  offset="0.1756" style="stop-color:#2CBE27"/>
			<stop  offset="0.4049" style="stop-color:#28AE2B"/>
			<stop  offset="0.6638" style="stop-color:#209332"/>
			<stop  offset="0.9427" style="stop-color:#156E3D"/>
			<stop  offset="1" style="stop-color:#13653F"/>
		</linearGradient>
		<path fill-rule="evenodd" clip-rule="evenodd" fill="url(#SVGID_21_)" d="M375.175,235.058c-0.467,1.349-0.934,2.688-1.4,4.026
			c-0.706-0.727-1.557-1.655-2.418-2.547c0.944-0.556,1.276-0.41,1.982,1.078c0.519-0.975,1.017-1.894,1.525-2.796
			C374.968,234.896,375.072,234.985,375.175,235.058z"/>
		<linearGradient id="SVGID_22_" gradientUnits="userSpaceOnUse" x1="341.8315" y1="251.127" x2="339.6133" y2="254.9691">
			<stop  offset="0" style="stop-color:#2EC425"/>
			<stop  offset="0.1756" style="stop-color:#2CBE27"/>
			<stop  offset="0.4049" style="stop-color:#28AE2B"/>
			<stop  offset="0.6638" style="stop-color:#209332"/>
			<stop  offset="0.9427" style="stop-color:#156E3D"/>
			<stop  offset="1" style="stop-color:#13653F"/>
		</linearGradient>
		<path fill-rule="evenodd" clip-rule="evenodd" fill="url(#SVGID_22_)" d="M338.493,253.43c1.089-1.463,1.712-0.482,2.345-0.124
			c0.571-0.617,1.11-1.209,1.64-1.806c0.155,0.13,0.301,0.26,0.467,0.389c-0.405,0.478-0.923,0.914-1.172,1.469
			c-0.312,0.67-0.395,1.447-0.654,2.48C340.33,254.764,340.61,252.979,338.493,253.43z"/>
		<linearGradient id="SVGID_23_" gradientUnits="userSpaceOnUse" x1="349.4204" y1="215.1426" x2="347.4481" y2="218.5587">
			<stop  offset="0" style="stop-color:#2EC425"/>
			<stop  offset="0.1756" style="stop-color:#2CBE27"/>
			<stop  offset="0.4049" style="stop-color:#28AE2B"/>
			<stop  offset="0.6638" style="stop-color:#209332"/>
			<stop  offset="0.9427" style="stop-color:#156E3D"/>
			<stop  offset="1" style="stop-color:#13653F"/>
		</linearGradient>
		<path fill-rule="evenodd" clip-rule="evenodd" fill="url(#SVGID_23_)" d="M347.106,218.361c-0.062-0.819-0.083-1.385-0.125-2.044
			c0.727,0.332,1.338,0.622,2.117,0.98c0.042-0.794,0.083-1.391,0.104-1.967c0.156-0.021,0.301-0.046,0.446-0.057
			c0.062,0.799,0.467,1.972,0.104,2.313C349.181,218.117,348.092,218.107,347.106,218.361z"/>
		<linearGradient id="SVGID_24_" gradientUnits="userSpaceOnUse" x1="343.3438" y1="245.4717" x2="339.7872" y2="251.6317">
			<stop  offset="0" style="stop-color:#2EC425"/>
			<stop  offset="0.1756" style="stop-color:#2CBE27"/>
			<stop  offset="0.4049" style="stop-color:#28AE2B"/>
			<stop  offset="0.6638" style="stop-color:#209332"/>
			<stop  offset="0.9427" style="stop-color:#156E3D"/>
			<stop  offset="1" style="stop-color:#13653F"/>
		</linearGradient>
		<path fill-rule="evenodd" clip-rule="evenodd" fill="url(#SVGID_24_)" d="M337.497,250.042c2.615-1.131,5.25-2.263,7.876-3.398
			c0.062,0.166,0.145,0.337,0.208,0.509c-2.615,1.09-5.23,2.194-7.855,3.289C337.653,250.312,337.57,250.172,337.497,250.042z"/>
		<linearGradient id="SVGID_25_" gradientUnits="userSpaceOnUse" x1="348.2432" y1="210.1836" x2="344.6425" y2="216.4202">
			<stop  offset="0" style="stop-color:#2EC425"/>
			<stop  offset="0.1756" style="stop-color:#2CBE27"/>
			<stop  offset="0.4049" style="stop-color:#28AE2B"/>
			<stop  offset="0.6638" style="stop-color:#209332"/>
			<stop  offset="0.9427" style="stop-color:#156E3D"/>
			<stop  offset="1" style="stop-color:#13653F"/>
		</linearGradient>
		<path fill-rule="evenodd" clip-rule="evenodd" fill="url(#SVGID_25_)" d="M342.592,214.922c2.49-1.225,4.96-2.47,7.44-3.705
			c0.083,0.177,0.166,0.338,0.239,0.504c-2.49,1.214-4.971,2.423-7.461,3.642C342.727,215.201,342.665,215.082,342.592,214.922z"/>
		<linearGradient id="SVGID_26_" gradientUnits="userSpaceOnUse" x1="375.3228" y1="252.7383" x2="373.5345" y2="255.8355">
			<stop  offset="0" style="stop-color:#2EC425"/>
			<stop  offset="0.1756" style="stop-color:#2CBE27"/>
			<stop  offset="0.4049" style="stop-color:#28AE2B"/>
			<stop  offset="0.6638" style="stop-color:#209332"/>
			<stop  offset="0.9427" style="stop-color:#156E3D"/>
			<stop  offset="1" style="stop-color:#13653F"/>
		</linearGradient>
		<path fill-rule="evenodd" clip-rule="evenodd" fill="url(#SVGID_26_)" d="M373.412,255.765c-0.125-1.571-0.239-2.796-0.332-4.021
			c0.145-0.011,0.311-0.026,0.457-0.037c0.031,0.566,0.083,1.105,0.093,1.65c0.01,1.645,0.363,1.898,1.961,1.562
			c0.363-0.077,0.737-0.13,1.09-0.197c0.031,0.136,0.052,0.26,0.083,0.399C375.715,255.318,374.657,255.516,373.412,255.765z"/>
		<linearGradient id="SVGID_27_" gradientUnits="userSpaceOnUse" x1="355.3799" y1="195.6758" x2="354.2151" y2="197.6933">
			<stop  offset="0" style="stop-color:#2EC425"/>
			<stop  offset="0.1756" style="stop-color:#2CBE27"/>
			<stop  offset="0.4049" style="stop-color:#28AE2B"/>
			<stop  offset="0.6638" style="stop-color:#209332"/>
			<stop  offset="0.9427" style="stop-color:#156E3D"/>
			<stop  offset="1" style="stop-color:#13653F"/>
		</linearGradient>
		<path fill-rule="evenodd" clip-rule="evenodd" fill="url(#SVGID_27_)" d="M354.567,196.104c-0.114-0.224-0.238-0.447-0.353-0.675
			c0.083-0.089,0.176-0.177,0.27-0.271c0.27,0.239,0.664,0.426,0.778,0.732c0.27,0.716,0.83,1.541-0.197,2.293
			c-0.457-0.519-0.882-1.017-1.359-1.577C354.027,196.42,354.287,196.264,354.567,196.104z"/>
		<linearGradient id="SVGID_28_" gradientUnits="userSpaceOnUse" x1="378.4897" y1="241.8809" x2="375.6206" y2="246.8504">
			<stop  offset="0" style="stop-color:#2EC425"/>
			<stop  offset="0.1756" style="stop-color:#2CBE27"/>
			<stop  offset="0.4049" style="stop-color:#28AE2B"/>
			<stop  offset="0.6638" style="stop-color:#209332"/>
			<stop  offset="0.9427" style="stop-color:#156E3D"/>
			<stop  offset="1" style="stop-color:#13653F"/>
		</linearGradient>
		<path fill-rule="evenodd" clip-rule="evenodd" fill="url(#SVGID_28_)" d="M380.405,243.271c-2.168,0.866-4.348,1.712-6.527,2.573
			c-0.042-0.13-0.104-0.291-0.156-0.415c2.179-0.846,4.348-1.697,6.527-2.532C380.302,243.032,380.354,243.152,380.405,243.271z"/>
		<linearGradient id="SVGID_29_" gradientUnits="userSpaceOnUse" x1="383.6274" y1="225.4297" x2="381.0929" y2="229.8197">
			<stop  offset="0" style="stop-color:#2EC425"/>
			<stop  offset="0.1756" style="stop-color:#2CBE27"/>
			<stop  offset="0.4049" style="stop-color:#28AE2B"/>
			<stop  offset="0.6638" style="stop-color:#209332"/>
			<stop  offset="0.9427" style="stop-color:#156E3D"/>
			<stop  offset="1" style="stop-color:#13653F"/>
		</linearGradient>
		<path fill-rule="evenodd" clip-rule="evenodd" fill="url(#SVGID_29_)" d="M379.389,228.552c1.909-0.758,3.829-1.505,5.738-2.257
			c0.062,0.145,0.114,0.295,0.187,0.436c-1.91,0.763-3.809,1.484-5.697,2.236C379.534,228.832,379.472,228.687,379.389,228.552z"/>
		<linearGradient id="SVGID_30_" gradientUnits="userSpaceOnUse" x1="367.4941" y1="194.5918" x2="365.7249" y2="197.6563">
			<stop  offset="0" style="stop-color:#2EC425"/>
			<stop  offset="0.1756" style="stop-color:#2CBE27"/>
			<stop  offset="0.4049" style="stop-color:#28AE2B"/>
			<stop  offset="0.6638" style="stop-color:#209332"/>
			<stop  offset="0.9427" style="stop-color:#156E3D"/>
			<stop  offset="1" style="stop-color:#13653F"/>
		</linearGradient>
		<path fill-rule="evenodd" clip-rule="evenodd" fill="url(#SVGID_30_)" d="M366.895,194.246c0.28,0.835,0.57,1.686,0.902,2.666
			c-1.204,0.058-2.158,0.114-3.082,0.161c-0.041-0.104-0.083-0.229-0.104-0.337c0.716-0.26,1.453-0.52,2.407-0.856
			c-0.124-0.332-0.321-0.893-0.508-1.463C366.646,194.37,366.77,194.303,366.895,194.246z"/>
		<linearGradient id="SVGID_31_" gradientUnits="userSpaceOnUse" x1="370.6328" y1="227.5986" x2="368.4182" y2="231.4344">
			<stop  offset="0" style="stop-color:#2EC425"/>
			<stop  offset="0.1756" style="stop-color:#2CBE27"/>
			<stop  offset="0.4049" style="stop-color:#28AE2B"/>
			<stop  offset="0.6638" style="stop-color:#209332"/>
			<stop  offset="0.9427" style="stop-color:#156E3D"/>
			<stop  offset="1" style="stop-color:#13653F"/>
		</linearGradient>
		<path fill-rule="evenodd" clip-rule="evenodd" fill="url(#SVGID_31_)" d="M372.01,228.687c-1.577,0.69-3.154,1.396-4.721,2.096
			c-0.073-0.171-0.156-0.327-0.218-0.487c1.587-0.664,3.175-1.344,4.763-2.003C371.886,228.427,371.938,228.552,372.01,228.687z"/>
		<linearGradient id="SVGID_32_" gradientUnits="userSpaceOnUse" x1="361.3345" y1="193.8174" x2="359.6693" y2="196.7015">
			<stop  offset="0" style="stop-color:#2EC425"/>
			<stop  offset="0.1756" style="stop-color:#2CBE27"/>
			<stop  offset="0.4049" style="stop-color:#28AE2B"/>
			<stop  offset="0.6638" style="stop-color:#209332"/>
			<stop  offset="0.9427" style="stop-color:#156E3D"/>
			<stop  offset="1" style="stop-color:#13653F"/>
		</linearGradient>
		<path fill-rule="evenodd" clip-rule="evenodd" fill="url(#SVGID_32_)" d="M361.561,195.787c-0.924,0.171-1.795,0.316-2.677,0.461
			c-0.031-0.145-0.052-0.28-0.083-0.404c0.623-0.238,1.245-0.482,1.951-0.763c-0.093-0.509-0.208-1.059-0.321-1.583
			c0.072-0.031,0.135-0.041,0.218-0.077C360.907,194.126,361.188,194.832,361.561,195.787z"/>
		<linearGradient id="SVGID_33_" gradientUnits="userSpaceOnUse" x1="348.5596" y1="208.2129" x2="346.6246" y2="211.5643">
			<stop  offset="0" style="stop-color:#2EC425"/>
			<stop  offset="0.1756" style="stop-color:#2CBE27"/>
			<stop  offset="0.4049" style="stop-color:#28AE2B"/>
			<stop  offset="0.6638" style="stop-color:#209332"/>
			<stop  offset="0.9427" style="stop-color:#156E3D"/>
			<stop  offset="1" style="stop-color:#13653F"/>
		</linearGradient>
		<path fill-rule="evenodd" clip-rule="evenodd" fill="url(#SVGID_33_)" d="M345.581,210.771c1.266-0.695,2.521-1.4,3.788-2.091
			c0.062,0.125,0.135,0.233,0.208,0.374c-1.235,0.689-2.47,1.39-3.715,2.069C345.778,211.015,345.674,210.891,345.581,210.771z"/>
		<linearGradient id="SVGID_34_" gradientUnits="userSpaceOnUse" x1="342.8906" y1="268.2861" x2="340.8834" y2="271.7627">
			<stop  offset="0" style="stop-color:#2EC425"/>
			<stop  offset="0.1756" style="stop-color:#2CBE27"/>
			<stop  offset="0.4049" style="stop-color:#28AE2B"/>
			<stop  offset="0.6638" style="stop-color:#209332"/>
			<stop  offset="0.9427" style="stop-color:#156E3D"/>
			<stop  offset="1" style="stop-color:#13653F"/>
		</linearGradient>
		<path fill-rule="evenodd" clip-rule="evenodd" fill="url(#SVGID_34_)" d="M342.716,268.212c-0.425,1.251-0.851,2.517-1.276,3.777
			c-0.166-0.073-0.321-0.13-0.498-0.192c0.488-1.261,0.955-2.526,1.432-3.809C342.488,268.062,342.592,268.145,342.716,268.212z"/>
		<linearGradient id="SVGID_35_" gradientUnits="userSpaceOnUse" x1="339.9219" y1="236.7617" x2="338.4872" y2="239.2467">
			<stop  offset="0" style="stop-color:#2EC425"/>
			<stop  offset="0.1756" style="stop-color:#2CBE27"/>
			<stop  offset="0.4049" style="stop-color:#28AE2B"/>
			<stop  offset="0.6638" style="stop-color:#209332"/>
			<stop  offset="0.9427" style="stop-color:#156E3D"/>
			<stop  offset="1" style="stop-color:#13653F"/>
		</linearGradient>
		<path fill-rule="evenodd" clip-rule="evenodd" fill="url(#SVGID_35_)" d="M338.939,236.194c0.27,1.344,0.488,2.351,0.685,3.352
			C338.586,239.748,338.472,239.313,338.939,236.194z"/>
		<linearGradient id="SVGID_36_" gradientUnits="userSpaceOnUse" x1="343.6631" y1="221.7002" x2="342.8729" y2="223.0688">
			<stop  offset="0" style="stop-color:#2EC425"/>
			<stop  offset="0.1756" style="stop-color:#2CBE27"/>
			<stop  offset="0.4049" style="stop-color:#28AE2B"/>
			<stop  offset="0.6638" style="stop-color:#209332"/>
			<stop  offset="0.9427" style="stop-color:#156E3D"/>
			<stop  offset="1" style="stop-color:#13653F"/>
		</linearGradient>
		<path fill-rule="evenodd" clip-rule="evenodd" fill="url(#SVGID_36_)" d="M344.076,223.763c-0.643-0.935-1.172-1.702-1.743-2.532
			C343.609,221.303,344.128,222.02,344.076,223.763z"/>
		<linearGradient id="SVGID_37_" gradientUnits="userSpaceOnUse" x1="364.4868" y1="188.1426" x2="363.861" y2="189.2266">
			<stop  offset="0" style="stop-color:#2EC425"/>
			<stop  offset="0.1756" style="stop-color:#2CBE27"/>
			<stop  offset="0.4049" style="stop-color:#28AE2B"/>
			<stop  offset="0.6638" style="stop-color:#209332"/>
			<stop  offset="0.9427" style="stop-color:#156E3D"/>
			<stop  offset="1" style="stop-color:#13653F"/>
		</linearGradient>
		<path fill-rule="evenodd" clip-rule="evenodd" fill="url(#SVGID_37_)" d="M365.058,189.918c-0.612-0.777-1.225-1.562-1.837-2.35
			C364.487,187.848,365.017,188.709,365.058,189.918z"/>
		<linearGradient id="SVGID_38_" gradientUnits="userSpaceOnUse" x1="359.2168" y1="230.2988" x2="355.7323" y2="236.3342">
			<stop  offset="0" style="stop-color:#2EC425"/>
			<stop  offset="0.1756" style="stop-color:#2CBE27"/>
			<stop  offset="0.4049" style="stop-color:#28AE2B"/>
			<stop  offset="0.6638" style="stop-color:#209332"/>
			<stop  offset="0.9427" style="stop-color:#156E3D"/>
			<stop  offset="1" style="stop-color:#13653F"/>
		</linearGradient>
		<path fill-rule="evenodd" clip-rule="evenodd" fill="url(#SVGID_38_)" d="M355.408,236.147c1.536-1.012,2.781-1.831,4.119-2.703
			c-1.338-1.469-2.635-0.321-3.953-0.15c-0.197-1.261,0.54-1.857,1.421-2.272c1.079-0.514,2.491-0.976,3.238-0.011
			c0.384,0.519-0.187,2.023-0.644,2.9C358.905,235.234,357.151,236.111,355.408,236.147z"/>
		<linearGradient id="SVGID_39_" gradientUnits="userSpaceOnUse" x1="359.4795" y1="226.2266" x2="357.3369" y2="229.9376">
			<stop  offset="0" style="stop-color:#2EC425"/>
			<stop  offset="0.1756" style="stop-color:#2CBE27"/>
			<stop  offset="0.4049" style="stop-color:#28AE2B"/>
			<stop  offset="0.6638" style="stop-color:#209332"/>
			<stop  offset="0.9427" style="stop-color:#156E3D"/>
			<stop  offset="1" style="stop-color:#13653F"/>
		</linearGradient>
		<path fill-rule="evenodd" clip-rule="evenodd" fill="url(#SVGID_39_)" d="M360.741,227.312c-1.504,0.669-2.999,1.333-4.493,1.997
			c-0.073-0.124-0.135-0.27-0.197-0.414c1.495-0.69,2.978-1.386,4.473-2.065C360.606,226.979,360.668,227.141,360.741,227.312z"/>
	</g>
</g>
</svg>
