<?xml version="1.0" encoding="utf-8"?>
<!-- Generator: Adobe Illustrator 16.0.0, SVG Export Plug-In . SVG Version: 6.00 Build 0)  -->
<!DOCTYPE svg PUBLIC "-//W3C//DTD SVG 1.1//EN" "http://www.w3.org/Graphics/SVG/1.1/DTD/svg11.dtd">
<svg version="1.1" id="Layer_1" xmlns="http://www.w3.org/2000/svg" xmlns:xlink="http://www.w3.org/1999/xlink" x="0px" y="0px"
	 width="811.574px" height="560px" viewBox="0 0 811.574 560" enable-background="new 0 0 811.574 560" xml:space="preserve">
<g>
	<linearGradient id="SVGID_1_" gradientUnits="userSpaceOnUse" x1="533.2334" y1="59.2363" x2="278.3344" y2="500.7342">
		<stop  offset="0" style="stop-color:#2EC425"/>
		<stop  offset="0.1756" style="stop-color:#2CBE27"/>
		<stop  offset="0.4049" style="stop-color:#28AE2B"/>
		<stop  offset="0.6638" style="stop-color:#209332"/>
		<stop  offset="0.9427" style="stop-color:#156E3D"/>
		<stop  offset="1" style="stop-color:#13653F"/>
	</linearGradient>
	<path fill="url(#SVGID_1_)" d="M592.388,202.719V93.389H483.091l-77.304-77.293l-77.305,77.293H219.175v109.295l-77.281,77.305
		l77.281,77.287v109.303l109.32,0.01l77.292,77.316l77.281-77.316h109.319V357.275L669.681,280L592.388,202.719z M405.787,519.102
		l-70.033-70.043h-99.036V350.01l-70.044-70.021l70.044-70.027v-99.02h99.014l70.056-70.055l70.039,70.055h99.03v99.031L644.889,280
		l-70.032,70.033v99.037l-99.036-0.012L405.787,519.102z"/>
	<g>
		<linearGradient id="SVGID_2_" gradientUnits="userSpaceOnUse" x1="423.0605" y1="260.0762" x2="334.7118" y2="413.1007">
			<stop  offset="0" style="stop-color:#2EC425"/>
			<stop  offset="0.1756" style="stop-color:#2CBE27"/>
			<stop  offset="0.4049" style="stop-color:#28AE2B"/>
			<stop  offset="0.6638" style="stop-color:#209332"/>
			<stop  offset="0.9427" style="stop-color:#156E3D"/>
			<stop  offset="1" style="stop-color:#13653F"/>
		</linearGradient>
		<path fill-rule="evenodd" clip-rule="evenodd" fill="url(#SVGID_2_)" d="M455.126,299.25c3.289,2.482,5.448,4.063,7.595,5.668
			c0.368-0.301,0.727-0.611,1.096-0.9c-3.265-10.803-8.817-20.381-15.742-29.5c-6.197,4.107-7.109,9.799-5.863,15.5
			c3.428,15.857,7.168,31.623,11.241,47.32c2.252,8.666,5.656,17.047,8.01,25.713c1.56,5.703-0.23,8.057-5.873,9.846
			c-9.893,3.094-23.765-3.475-28.266-13.793c-2.077-4.73-4.039-9.74-4.767-14.83c-1.708-11.83-2.354-23.844-3.947-35.721
			c-1.489-11.021-4.374-21.732-9.938-31.785c-6.763,13.77-7.743,17.313-5.263,26.926c4.028,15.639,5.045,31.521,4.154,47.471
			c-0.333,5.852-1.246,12.43-4.258,17.172c-10.94,17.094-34.128,16.287-44.861-0.99c-0.53-0.855-0.601-2.078-0.553-3.129
			c0.519-12.314,1.222-24.629,1.661-36.967c0.276-7.57,0.3-15.178,0.161-22.758c-0.022-1.514-0.912-3.846-1.985-4.26
			c-1.223-0.428-3.589,0.414-4.582,1.5c-2.55,2.746-5.009,5.725-6.82,9.002c-6.487,11.877-9.672,24.859-12.279,38.041
			c-2.113,10.664-3.902,21.443-6.995,31.854c-2.827,9.51-10.202,10.768-16.654,3.07c-3.428-4.133-5.967-9.303-7.801-14.404
			c-4.733-13.283-3.994-27.088-2.828-40.846c0.311-3.623,2.585-5.539,6.117-6.232c2.135-0.449,4.351-0.922,6.268-1.891
			c3.415-1.686,4.696-4.652,2.076-7.721c-3.531-4.168-7.42-8.068-11.495-11.693c-2.285-2.029-5.229-1.477-5.955,1.709
			c-1.12,4.836-3.036,10.318-1.743,14.635c1.558,5.193-0.461,7.523-3.636,9.705c-8.056,5.529-16.354,10.688-24.537,16.066
			c-2.48,1.604-4.904,3.277-7.352,4.939c0.301,0.508,0.601,0.98,0.912,1.5c10.549-5.285,21.109-10.525,32.755-16.33
			c-2.366,14.172-0.059,26.545,2.988,38.824c2.839,11.414,7.202,21.951,17.45,28.9c7.423,5.031,14.624,2.932,17.832-5.24
			c1.432-3.67,2.747-7.422,3.613-11.254c3.3-14.736,6.15-29.592,9.659-44.295c1.374-5.805,3.994-11.332,6.452-18.063
			c-0.958,14-2.251,26.568-2.493,39.148c-0.208,11.668,2.861,22.553,11.703,30.988c5.344,5.125,11.438,8.207,19.204,7.053
			c13.793-2.1,22.193-10.756,27.492-22.83c2.377-5.377,3.623-11.229,5.505-17.242c1.271,2.852,2.424,5.414,3.52,8.033
			c3.313,7.871,7.884,14.75,15.004,19.713c13.619,9.51,30.955,5.666,36.136-8.633c2.204-6.084,3.06-12.961,3.047-19.459
			c-0.046-12.58-3.174-24.664-7.559-36.414C460.055,315.154,457.908,307.803,455.126,299.25z M297.494,309.951
			c1.813,0.447,3.624,0.852,5.367,1.477c0.104,0.021-0.393,1.766-0.601,2.723c-1.812-0.529-3.623-1.051-5.424-1.545
			C297.056,311.715,297.275,310.826,297.494,309.951z"/>
		<linearGradient id="SVGID_3_" gradientUnits="userSpaceOnUse" x1="552.7588" y1="187.832" x2="450.0068" y2="365.8036">
			<stop  offset="0" style="stop-color:#2EC425"/>
			<stop  offset="0.1756" style="stop-color:#2CBE27"/>
			<stop  offset="0.4049" style="stop-color:#28AE2B"/>
			<stop  offset="0.6638" style="stop-color:#209332"/>
			<stop  offset="0.9427" style="stop-color:#156E3D"/>
			<stop  offset="1" style="stop-color:#13653F"/>
		</linearGradient>
		<path fill-rule="evenodd" clip-rule="evenodd" fill="url(#SVGID_3_)" d="M509.878,277.889
			c-1.234-16.863-2.666-33.701-4.085-50.529c-0.831-9.809-1.801-19.607-2.793-30.203c3.613,3.912,6.612,7.154,9.603,10.387
			c0.485-0.266,0.946-0.553,1.408-0.842c-3.912-17.15-9.477-33.793-15.686-50.297c-0.9,0.346-1.258,0.369-1.465,0.576
			c-0.462,0.416-0.843,0.936-1.213,1.441c-5.504,7.445-6.52,15.836-5.644,24.791c1.351,13.666,2.654,27.365,3.683,41.043
			c1.65,21.904,3.207,43.834,4.559,65.75c1.488,24.457,2.643,48.947,4.063,73.404c0.657,11.344,1.604,22.654,2.424,33.988
			c0.438,0,0.876,0.023,1.327,0.035c0.484-1.119,1.085-2.193,1.442-3.348c5.725-18.455,7.929-37.291,6.463-56.598
			C512.452,317.625,511.332,297.75,509.878,277.889z"/>
		<linearGradient id="SVGID_4_" gradientUnits="userSpaceOnUse" x1="318.0352" y1="222.834" x2="276.3444" y2="295.0446">
			<stop  offset="0" style="stop-color:#2EC425"/>
			<stop  offset="0.1756" style="stop-color:#2CBE27"/>
			<stop  offset="0.4049" style="stop-color:#28AE2B"/>
			<stop  offset="0.6638" style="stop-color:#209332"/>
			<stop  offset="0.9427" style="stop-color:#156E3D"/>
			<stop  offset="1" style="stop-color:#13653F"/>
		</linearGradient>
		<path fill-rule="evenodd" clip-rule="evenodd" fill="url(#SVGID_4_)" d="M282.859,289.926c3.601-1.893,6.822-4.559,10.053-7.064
			c4.052-3.115,7.941-6.439,11.716-9.51c3.415,4.813,6.404,9.025,9.348,13.158c9.048-5.01,17.197-10.227,25.945-14.104
			c5.493-2.436,8.609-4.859,8.391-11.391c-0.104-3.129-0.589-4.883-3.382-5.6c-6.405-1.615-12.812-3.703-19.344-4.361
			c-12.026-1.281-12.314-1.721-17.773,7.813c-0.103,0.174-0.52,0.174-1.096,0.381c-1.986-15.396,0.311-31.266-5.609-46.188
			c-0.831,2.701-1.42,5.459-1.432,8.182c-0.104,11.865-0.242,23.754,0.047,35.617c0.104,4.352-1.028,7.363-4.582,10.029
			c-4.525,3.475-8.483,7.629-12.707,11.473c0.311,0.322,0.623,0.67,0.935,1.016c8.84-2.066,14.427-8.311,19.527-15.547
			c-0.011,2.031-0.241,3.936-1.28,5.217c-6.567,8.125-14.819,13.734-25.241,15.58c-6.845,1.213-12.314-3.207-12.926-9.994
			c-0.313-3.555,1.176-6.301,4.351-7.709c3.047-1.316,5.943-0.762,7.894,2.25c2.459,3.844,6.129,2.713,9.429,2.031
			c3.117-0.611,5.321-2.563,5.541-6.174c0.266-4.455,0.703-8.922,1.062-13.377c0.508-0.346,1.016-0.727,1.512-1.084
			c1.132,2.25,2.24,4.477,3.358,6.693c0.762-0.576,1.536-1.154,2.297-1.742c-1.801-3.301-3.358-6.775-5.47-9.846
			c-3.267-4.744-4.952-9.844-4.882-15.547c0.058-3.023,0.403-6.082-0.105-8.99c-0.483-2.734-1.903-5.285-2.896-7.906
			c-0.59,0.174-1.166,0.357-1.743,0.543c0,5.518,0.046,11.01-0.035,16.482c-0.022,0.99-0.542,2.041-1.085,2.896
			c-0.126,0.195-1.776-0.082-1.973-0.52c-1.985-4.225-4.443-8.414-5.413-12.893c-0.427-2.008,1.951-4.928,3.636-6.947
			c3.947-4.779,3.89-8.957-1.419-13.02c-0.497,2.229-0.832,4.098-1.339,5.922c-1.305,4.709-1.386,10.248-8.414,10.723
			c-1.016,0.09-2.193,2.779-2.644,4.443c-0.266,0.945,0.462,2.572,1.258,3.369c4.04,4.211,8.645,7.916,12.314,12.418
			c5.344,6.578,9.049,14.08,9.141,22.887c0.047,3.52-0.529,6.809-5.021,7.168c-3.37,0.275-5.747-2.551-5.943-7.076
			c-0.138-3.012,0.127-6.023-0.092-9.025c-0.242-3.174-1.062-6.174-4.617-6.844c-1.489,3.602-2.02,7.699-4.339,9.996
			c-7.665,7.627-7.732,16.607-5.922,26.035C264.036,290.93,272.819,295.188,282.859,289.926z M334.865,268.424
			c-5.262,4.41-11.067,7.629-18.073,8.148c-0.186-0.416-0.381-0.842-0.555-1.246c6.014-2.736,12.038-5.459,18.063-8.195
			C334.485,267.57,334.681,268.008,334.865,268.424z M314.068,267.225c0-0.82,0-1.639,0-2.459c3.462-0.221,6.937-0.451,10.409-0.693
			c0.058,0.855,0.104,1.732,0.15,2.598C321.107,266.854,317.588,267.016,314.068,267.225z M332.695,259.422
			c-6.394-0.496-12.788-0.959-20.439-1.523C317.092,254.355,321.098,254.701,332.695,259.422z M273.085,255.082
			c-0.255,4.236-2.077,6.221-6.359,6.994C266.598,257.541,268.677,255.773,273.085,255.082z"/>
		<linearGradient id="SVGID_5_" gradientUnits="userSpaceOnUse" x1="435.0293" y1="129.6152" x2="380.1262" y2="224.7101">
			<stop  offset="0" style="stop-color:#2EC425"/>
			<stop  offset="0.1756" style="stop-color:#2CBE27"/>
			<stop  offset="0.4049" style="stop-color:#28AE2B"/>
			<stop  offset="0.6638" style="stop-color:#209332"/>
			<stop  offset="0.9427" style="stop-color:#156E3D"/>
			<stop  offset="1" style="stop-color:#13653F"/>
		</linearGradient>
		<path fill-rule="evenodd" clip-rule="evenodd" fill="url(#SVGID_5_)" d="M340.672,200.041c0.241,0.75,0.483,1.535,0.726,2.309
			c44.388-16.064,88.787-32.166,133.176-48.221c-0.253-0.727-0.519-1.418-0.762-2.123
			C427.531,162.809,383.328,179.232,340.672,200.041z"/>
		<linearGradient id="SVGID_6_" gradientUnits="userSpaceOnUse" x1="438.5166" y1="170.1592" x2="392.1152" y2="250.5287">
			<stop  offset="0" style="stop-color:#2EC425"/>
			<stop  offset="0.1756" style="stop-color:#2CBE27"/>
			<stop  offset="0.4049" style="stop-color:#28AE2B"/>
			<stop  offset="0.6638" style="stop-color:#209332"/>
			<stop  offset="0.9427" style="stop-color:#156E3D"/>
			<stop  offset="1" style="stop-color:#13653F"/>
		</linearGradient>
		<path fill-rule="evenodd" clip-rule="evenodd" fill="url(#SVGID_6_)" d="M469.403,187.992c-4.213,0.809-8.599,1.131-12.581,2.563
			c-22.252,7.951-44.491,15.961-66.559,24.375c-8.817,3.381-17.242,7.768-25.714,11.99c-1.546,0.764-2.424,2.91-4.271,5.229
			c37.497-14.529,73.438-28.494,109.39-42.426C469.576,189.146,469.483,188.582,469.403,187.992z"/>
		<linearGradient id="SVGID_7_" gradientUnits="userSpaceOnUse" x1="412.543" y1="239.5293" x2="398.7421" y2="263.4332">
			<stop  offset="0" style="stop-color:#2EC425"/>
			<stop  offset="0.1756" style="stop-color:#2CBE27"/>
			<stop  offset="0.4049" style="stop-color:#28AE2B"/>
			<stop  offset="0.6638" style="stop-color:#209332"/>
			<stop  offset="0.9427" style="stop-color:#156E3D"/>
			<stop  offset="1" style="stop-color:#13653F"/>
		</linearGradient>
		<path fill-rule="evenodd" clip-rule="evenodd" fill="url(#SVGID_7_)" d="M405.233,238.625c-3.947,5.723,0.023,13.271-5.979,19.4
			c-1.962-4.906-3.532-8.818-5.102-12.742c-0.301,0.035-0.623,0.047-0.936,0.047c0.255,3.543,0.301,7.121,0.773,10.605
			c0.428,3.105,0.993,6.938,5.021,6.846c2.701-0.07,5.366-1.939,8.055-3.002c1.108-0.635,2.494,0.404,4.063,1.063
			c3.289,1.373,6.175,0.16,6.302-3.254c0.161-4.768-0.67-9.604-1.501-14.346c-0.219-1.271-1.938-2.322-2.977-3.475
			c-0.636,0.264-1.271,0.553-1.905,0.807c1.039,4.49,2.078,8.945,3.324,14.301C406.664,251.619,409.919,243.125,405.233,238.625z"/>
		<linearGradient id="SVGID_8_" gradientUnits="userSpaceOnUse" x1="546.875" y1="269.4834" x2="533.2589" y2="293.0672">
			<stop  offset="0" style="stop-color:#2EC425"/>
			<stop  offset="0.1756" style="stop-color:#2CBE27"/>
			<stop  offset="0.4049" style="stop-color:#28AE2B"/>
			<stop  offset="0.6638" style="stop-color:#209332"/>
			<stop  offset="0.9427" style="stop-color:#156E3D"/>
			<stop  offset="1" style="stop-color:#13653F"/>
		</linearGradient>
		<path fill-rule="evenodd" clip-rule="evenodd" fill="url(#SVGID_8_)" d="M539.205,277.172c0.034-0.75,0.08-1.5,0.127-2.273
			c1.246-0.242,3.14-0.068,3.636-0.818c1.051-1.582,1.881-3.684,1.743-5.482c-0.07-0.74-3.013-2.09-4.328-1.789
			c-3.498,0.842-9.164,9.359-9.361,13.018c-0.184,3.844-0.519,7.676-0.784,11.496c4.813,0.242,19.678-7.34,21.813-11.898
			C547.745,278.66,543.475,277.91,539.205,277.172z"/>
		<linearGradient id="SVGID_9_" gradientUnits="userSpaceOnUse" x1="416.1797" y1="397.6934" x2="403.0166" y2="420.4925">
			<stop  offset="0" style="stop-color:#2EC425"/>
			<stop  offset="0.1756" style="stop-color:#2CBE27"/>
			<stop  offset="0.4049" style="stop-color:#28AE2B"/>
			<stop  offset="0.6638" style="stop-color:#209332"/>
			<stop  offset="0.9427" style="stop-color:#156E3D"/>
			<stop  offset="1" style="stop-color:#13653F"/>
		</linearGradient>
		<path fill-rule="evenodd" clip-rule="evenodd" fill="url(#SVGID_9_)" d="M422.36,401.346c-1.315-0.277-3.404,0.012-4.119,0.9
			c-1.756,2.146-2.979,4.756-4.271,7.26c-0.878,1.674-1.513,3.463-2.402,5.598c-3.277-5.795-5.286-11.842-13.225-13.064
			c0.288,2.377-0.082,4.42,0.784,5.574c4.64,6.23,9.579,12.244,15.385,19.516c0.426-3.936,0.97-7.236,1.107-10.561
			c0.174-4.455,1.177-7.998,6.141-9.416c1.199-0.359,2.343-2.021,2.85-3.326C424.808,403.318,423.284,401.508,422.36,401.346z"/>
		<linearGradient id="SVGID_10_" gradientUnits="userSpaceOnUse" x1="334.9902" y1="157.8604" x2="325.8273" y2="173.7311">
			<stop  offset="0" style="stop-color:#2EC425"/>
			<stop  offset="0.1756" style="stop-color:#2CBE27"/>
			<stop  offset="0.4049" style="stop-color:#28AE2B"/>
			<stop  offset="0.6638" style="stop-color:#209332"/>
			<stop  offset="0.9427" style="stop-color:#156E3D"/>
			<stop  offset="1" style="stop-color:#13653F"/>
		</linearGradient>
		<path fill-rule="evenodd" clip-rule="evenodd" fill="url(#SVGID_10_)" d="M331.461,174.859c5.39-1.328,8.045-7.145,4.998-11.762
			c-2.009-3.082-4.767-5.713-7.191-8.541c-0.577,0.012-1.165,0.012-1.72,0.047c-1.131,5.01-2.712,10.006-3.243,15.096
			C323.924,173.416,327.755,175.77,331.461,174.859z M327.329,165.072c1.847,0.576,3.716,1.131,5.505,1.857
			c0.092,0.057-0.496,1.789-0.784,2.723c-1.87-0.691-3.729-1.395-5.599-2.088C326.739,166.732,327.018,165.914,327.329,165.072z"/>
		<linearGradient id="SVGID_11_" gradientUnits="userSpaceOnUse" x1="392.2568" y1="139.0078" x2="384.1392" y2="153.068">
			<stop  offset="0" style="stop-color:#2EC425"/>
			<stop  offset="0.1756" style="stop-color:#2CBE27"/>
			<stop  offset="0.4049" style="stop-color:#28AE2B"/>
			<stop  offset="0.6638" style="stop-color:#209332"/>
			<stop  offset="0.9427" style="stop-color:#156E3D"/>
			<stop  offset="1" style="stop-color:#13653F"/>
		</linearGradient>
		<path fill-rule="evenodd" clip-rule="evenodd" fill="url(#SVGID_11_)" d="M393.865,158.422c0.104,0.543,1.696,1.225,2.572,1.191
			c0.497-0.025,0.981-1.281,0.878-1.109c-0.577-9.949-5.793-16.354-11.979-22.148c-1.801-1.695-3.268-4.996-6.326-2.746
			c-0.484,0.322,1.132,4.373,2.471,6.221C385.832,145.877,392.596,150.264,393.865,158.422z"/>
		<linearGradient id="SVGID_12_" gradientUnits="userSpaceOnUse" x1="466.7559" y1="223.9004" x2="453.4438" y2="246.9575">
			<stop  offset="0" style="stop-color:#2EC425"/>
			<stop  offset="0.1756" style="stop-color:#2CBE27"/>
			<stop  offset="0.4049" style="stop-color:#28AE2B"/>
			<stop  offset="0.6638" style="stop-color:#209332"/>
			<stop  offset="0.9427" style="stop-color:#156E3D"/>
			<stop  offset="1" style="stop-color:#13653F"/>
		</linearGradient>
		<path fill-rule="evenodd" clip-rule="evenodd" fill="url(#SVGID_12_)" d="M460.805,220.863c-4.2,6.59-7.04,13.732-7.663,21.639
			c-0.128,1.697,0.738,3.855,1.881,5.17c0.889,1.029,3.383,1.928,4.34,1.396c1.362-0.795,2.343-2.793,2.77-4.465
			c0.139-0.496-2.112-1.721-3.371-2.412c-0.784-0.404-1.788-0.371-3.3-0.648c2.435-7.131,4.674-13.664,6.891-20.186
			C461.833,221.186,461.323,221.023,460.805,220.863z"/>
		<linearGradient id="SVGID_13_" gradientUnits="userSpaceOnUse" x1="268.9922" y1="233.1367" x2="260.1372" y2="248.474">
			<stop  offset="0" style="stop-color:#2EC425"/>
			<stop  offset="0.1756" style="stop-color:#2CBE27"/>
			<stop  offset="0.4049" style="stop-color:#28AE2B"/>
			<stop  offset="0.6638" style="stop-color:#209332"/>
			<stop  offset="0.9427" style="stop-color:#156E3D"/>
			<stop  offset="1" style="stop-color:#13653F"/>
		</linearGradient>
		<path fill-rule="evenodd" clip-rule="evenodd" fill="url(#SVGID_13_)" d="M269.808,233.707c-0.785-0.83-2.563-1.107-3.855-0.992
			c-0.623,0.047-1.454,1.408-1.686,2.32c-1.154,4.396-2.146,8.828-3.336,13.896c3.278-3.926,6.51-7.561,9.361-11.461
			C270.868,236.674,270.534,234.48,269.808,233.707z"/>
		<linearGradient id="SVGID_14_" gradientUnits="userSpaceOnUse" x1="329.5225" y1="228.3428" x2="318.0164" y2="248.2719">
			<stop  offset="0" style="stop-color:#2EC425"/>
			<stop  offset="0.1756" style="stop-color:#2CBE27"/>
			<stop  offset="0.4049" style="stop-color:#28AE2B"/>
			<stop  offset="0.6638" style="stop-color:#209332"/>
			<stop  offset="0.9427" style="stop-color:#156E3D"/>
			<stop  offset="1" style="stop-color:#13653F"/>
		</linearGradient>
		<path fill-rule="evenodd" clip-rule="evenodd" fill="url(#SVGID_14_)" d="M311.863,244.719c8.911-2.377,17-6.604,24.895-11.299
			c-0.276-0.451-0.564-0.912-0.843-1.387c-8.298,3.59-16.596,7.168-24.895,10.746C311.311,243.426,311.586,244.072,311.863,244.719z
			"/>
		<linearGradient id="SVGID_15_" gradientUnits="userSpaceOnUse" x1="307.1133" y1="197.8945" x2="296.8391" y2="215.6899">
			<stop  offset="0" style="stop-color:#2EC425"/>
			<stop  offset="0.1756" style="stop-color:#2CBE27"/>
			<stop  offset="0.4049" style="stop-color:#28AE2B"/>
			<stop  offset="0.6638" style="stop-color:#209332"/>
			<stop  offset="0.9427" style="stop-color:#156E3D"/>
			<stop  offset="1" style="stop-color:#13653F"/>
		</linearGradient>
		<path fill-rule="evenodd" clip-rule="evenodd" fill="url(#SVGID_15_)" d="M312.694,202.305c-0.311-0.578-0.611-1.156-0.923-1.721
			c-7.271,2.736-14.682,5.217-20.509,10.688c0.3,0.564,0.611,1.154,0.9,1.719C299.006,209.424,305.851,205.869,312.694,202.305z"/>
		<linearGradient id="SVGID_16_" gradientUnits="userSpaceOnUse" x1="318.0156" y1="214.127" x2="312.7688" y2="223.2147">
			<stop  offset="0" style="stop-color:#2EC425"/>
			<stop  offset="0.1756" style="stop-color:#2CBE27"/>
			<stop  offset="0.4049" style="stop-color:#28AE2B"/>
			<stop  offset="0.6638" style="stop-color:#209332"/>
			<stop  offset="0.9427" style="stop-color:#156E3D"/>
			<stop  offset="1" style="stop-color:#13653F"/>
		</linearGradient>
		<path fill-rule="evenodd" clip-rule="evenodd" fill="url(#SVGID_16_)" d="M311.402,221.717c0.473,0.508,0.958,1.027,1.431,1.535
			c2.607-2.021,5.24-4.041,7.849-6.059c-1.663-1.467-4.063-4.479-4.848-4.086C312.464,214.711,310.929,217.885,311.402,221.717z"/>
		<linearGradient id="SVGID_17_" gradientUnits="userSpaceOnUse" x1="330.2441" y1="216.9941" x2="318.3931" y2="237.5208">
			<stop  offset="0" style="stop-color:#2EC425"/>
			<stop  offset="0.1756" style="stop-color:#2CBE27"/>
			<stop  offset="0.4049" style="stop-color:#28AE2B"/>
			<stop  offset="0.6638" style="stop-color:#209332"/>
			<stop  offset="0.9427" style="stop-color:#156E3D"/>
			<stop  offset="1" style="stop-color:#13653F"/>
		</linearGradient>
		<path fill-rule="evenodd" clip-rule="evenodd" fill="url(#SVGID_17_)" d="M336.123,220.389
			c-8.253,4.016-16.515,8.021-24.768,12.037c0.335,0.531,0.67,1.063,0.993,1.605c8.252-3.879,16.492-7.756,24.744-11.611
			C336.77,221.752,336.459,221.082,336.123,220.389z"/>
		<linearGradient id="SVGID_18_" gradientUnits="userSpaceOnUse" x1="339.3398" y1="239.4375" x2="334.2466" y2="248.2593">
			<stop  offset="0" style="stop-color:#2EC425"/>
			<stop  offset="0.1756" style="stop-color:#2CBE27"/>
			<stop  offset="0.4049" style="stop-color:#28AE2B"/>
			<stop  offset="0.6638" style="stop-color:#209332"/>
			<stop  offset="0.9427" style="stop-color:#156E3D"/>
			<stop  offset="1" style="stop-color:#13653F"/>
		</linearGradient>
		<path fill-rule="evenodd" clip-rule="evenodd" fill="url(#SVGID_18_)" d="M341.63,240.76c-2.748,0.15-5.344,0.254-9.649,0.473
			c2.7,3.764,4.594,6.395,7.006,9.764C340.104,246.656,340.81,243.934,341.63,240.76z"/>
		<linearGradient id="SVGID_19_" gradientUnits="userSpaceOnUse" x1="333.9277" y1="282.1602" x2="330.5803" y2="287.958">
			<stop  offset="0" style="stop-color:#2EC425"/>
			<stop  offset="0.1756" style="stop-color:#2CBE27"/>
			<stop  offset="0.4049" style="stop-color:#28AE2B"/>
			<stop  offset="0.6638" style="stop-color:#209332"/>
			<stop  offset="0.9427" style="stop-color:#156E3D"/>
			<stop  offset="1" style="stop-color:#13653F"/>
		</linearGradient>
		<path fill-rule="evenodd" clip-rule="evenodd" fill="url(#SVGID_19_)" d="M328.761,285.193c-0.058,1.098,2.297,3.428,2.873,3.219
			c1.628-0.576,2.874-2.203,4.259-3.426c-0.946-0.992-1.903-1.998-3.589-3.764C330.71,282.861,328.806,283.994,328.761,285.193z"/>
	</g>
</g>
</svg>
