<?xml version="1.0" encoding="utf-8"?>
<!-- Generator: Adobe Illustrator 16.0.0, SVG Export Plug-In . SVG Version: 6.00 Build 0)  -->
<!DOCTYPE svg PUBLIC "-//W3C//DTD SVG 1.1//EN" "http://www.w3.org/Graphics/SVG/1.1/DTD/svg11.dtd">
<svg version="1.1" id="Layer_1" xmlns="http://www.w3.org/2000/svg" xmlns:xlink="http://www.w3.org/1999/xlink" x="0px" y="0px"
	 width="811.574px" height="560px" viewBox="0 0 811.574 560" enable-background="new 0 0 811.574 560" xml:space="preserve">
<g>
	<g>
		<linearGradient id="SVGID_1_" gradientUnits="userSpaceOnUse" x1="320.7744" y1="394.6318" x2="263.4843" y2="493.8613">
			<stop  offset="0" style="stop-color:#2EC425"/>
			<stop  offset="0.1756" style="stop-color:#2CBE27"/>
			<stop  offset="0.4049" style="stop-color:#28AE2B"/>
			<stop  offset="0.6638" style="stop-color:#209332"/>
			<stop  offset="0.9427" style="stop-color:#156E3D"/>
			<stop  offset="1" style="stop-color:#13653F"/>
		</linearGradient>
		<path fill="url(#SVGID_1_)" d="M297.106,385.15h-13.448c-14.759,0-26.324,11.563-26.324,26.326v78.834h66.098v-78.834
			C323.432,396.713,311.865,385.15,297.106,385.15z M283.658,396.303h13.448c7.469,0,15.187,5.676,15.187,15.174v67.695h-43.808
			v-67.695C268.485,401.979,276.203,396.303,283.658,396.303z"/>
		<linearGradient id="SVGID_2_" gradientUnits="userSpaceOnUse" x1="246.2129" y1="394.582" x2="188.9208" y2="493.8149">
			<stop  offset="0" style="stop-color:#2EC425"/>
			<stop  offset="0.1756" style="stop-color:#2CBE27"/>
			<stop  offset="0.4049" style="stop-color:#28AE2B"/>
			<stop  offset="0.6638" style="stop-color:#209332"/>
			<stop  offset="0.9427" style="stop-color:#156E3D"/>
			<stop  offset="1" style="stop-color:#13653F"/>
		</linearGradient>
		<path fill="url(#SVGID_2_)" d="M222.608,385.15h-13.446c-15.243,0-26.313,11.072-26.313,26.326v78.834h66.123v-78.834
			C248.973,396.713,237.394,385.15,222.608,385.15z M209.162,396.303h13.446c7.469,0,15.187,5.676,15.187,15.174v67.695h-43.794
			v-67.695C194.001,402.26,199.953,396.303,209.162,396.303z"/>
	</g>
	<linearGradient id="SVGID_3_" gradientUnits="userSpaceOnUse" x1="406.8896" y1="34.1353" x2="335.2234" y2="158.2649">
		<stop  offset="0" style="stop-color:#2EC425"/>
		<stop  offset="0.1756" style="stop-color:#2CBE27"/>
		<stop  offset="0.4049" style="stop-color:#28AE2B"/>
		<stop  offset="0.6638" style="stop-color:#209332"/>
		<stop  offset="0.9427" style="stop-color:#156E3D"/>
		<stop  offset="1" style="stop-color:#13653F"/>
	</linearGradient>
	<path fill="url(#SVGID_3_)" d="M364.249,121.107v23.771h-13.446v22.381h37.549v-22.381h-13.09v-20.023
		c18.889,4.524,39.383-0.077,54.945-14.148c3.646-3.683,7.329-7.334,10.987-10.999c-25.632,12.21-56.183,7.316-75.733-14.657
		c-19.515-21.974-19.515-53.729-3.633-76.932c-4.906,2.444-9.789,6.105-13.421,8.546c-25.656,23.203-28.091,62.281-6.119,87.918
		C348.623,111.931,356.144,117.45,364.249,121.107z"/>
	<linearGradient id="SVGID_4_" gradientUnits="userSpaceOnUse" x1="512.083" y1="228.584" x2="300.0117" y2="595.9022">
		<stop  offset="0" style="stop-color:#2EC425"/>
		<stop  offset="0.1756" style="stop-color:#2CBE27"/>
		<stop  offset="0.4049" style="stop-color:#28AE2B"/>
		<stop  offset="0.6638" style="stop-color:#209332"/>
		<stop  offset="0.9427" style="stop-color:#156E3D"/>
		<stop  offset="1" style="stop-color:#13653F"/>
	</linearGradient>
	<path fill="url(#SVGID_4_)" d="M508.408,268.876c-7.564-18.994-19.444-37.462-34.413-53.502
		c-30.048-32.167-67.724-49.883-106.088-49.883c-37.88,0-75.377,17.713-105.584,49.876c-23.975,25.52-39.625,56.421-43.169,85.121
		h-6.162v15.645h5.391v3.107h4.359v30.615h-9.885c-26.791,0-49.42,22.629-49.42,49.41v117.785H413.83
		c25.949,22.467,59.298,34.83,94.01,34.83c77.359,0,140.297-63.479,140.297-141.504
		C648.137,332.543,585.512,269.185,508.408,268.876z M212.857,363.184h160.352c-2.523,7.15-4.474,14.518-5.811,21.967h-9.255
		c-14.771,0-26.338,11.563-26.338,26.326v78.834h58.088c3.129,4.57,6.64,9.057,10.489,13.393H176.782V399.266
		C176.782,379.709,193.307,363.184,212.857,363.184z M382.973,479.172h-39.99v-67.695c0-9.498,7.706-15.174,15.161-15.174h7.693
		c-0.472,4.713-0.714,9.439-0.714,14.074C365.123,434.531,371.284,458.227,382.973,479.172z M362.229,321.002v27.859h-9.113v-27.859
		H362.229z M340.256,321.002v27.859h-9.101v-27.859H340.256z M317.046,321.002v27.859h-9.073v-27.859H317.046z M295.061,321.002
		v27.859h-9.088v-27.859H295.061z M273.1,321.002v27.859h-9.113v-27.859H273.1z M251.102,321.002v27.859h-9.088v-27.859H251.102z
		 M232.575,300.488c7.877-56.852,67.742-121.666,135.332-121.666c34.61,0,68.82,16.212,96.325,45.651
		c12.516,13.386,22.795,28.911,29.856,45.062c-28.213,2.635-54.558,13.296-76.442,30.953H232.575z M498.243,271.524c0,0,0,0-0.007,0
		l0,0C498.243,271.524,498.243,271.524,498.243,271.524z M384.202,321.002v18.459c-1.828,3.154-3.511,6.311-5.009,9.4h-4.066
		v-27.859H384.202z M507.84,527.723c-65.385,0-118.577-52.641-118.577-117.346c0-64.719,53.192-117.367,118.577-117.367
		c64.034,0,116.131,52.648,116.131,117.367C623.971,475.082,571.874,527.723,507.84,527.723z"/>
	<g>
		<linearGradient id="SVGID_5_" gradientUnits="userSpaceOnUse" x1="577.1436" y1="343.252" x2="526.4082" y2="431.1282">
			<stop  offset="0" style="stop-color:#2EC425"/>
			<stop  offset="0.1756" style="stop-color:#2CBE27"/>
			<stop  offset="0.4049" style="stop-color:#28AE2B"/>
			<stop  offset="0.6638" style="stop-color:#209332"/>
			<stop  offset="0.9427" style="stop-color:#156E3D"/>
			<stop  offset="1" style="stop-color:#13653F"/>
		</linearGradient>
		<path fill="url(#SVGID_5_)" d="M559.486,340.4l-57.93,63.982c-0.943,1.074-1.599,2.279-1.79,3.123
			c-1.854,4.227-0.236,8.533,3.95,10.479l48.414,22.373c1.23,0.574,2.511,0.863,3.798,0.863c0.007,0,0.007,0,0.007,0
			c4.155,0,7.985-3.15,8.902-7.324c0.817-3.709-0.955-7.17-4.506-8.814l-38.14-17.629l49.783-55.018
			c2.392-2.645,2.964-6.141,1.536-9.354C571.077,337.604,563.545,335.914,559.486,340.4z"/>
		<linearGradient id="SVGID_6_" gradientUnits="userSpaceOnUse" x1="562.9219" y1="493.2861" x2="555.323" y2="506.4478">
			<stop  offset="0" style="stop-color:#2EC425"/>
			<stop  offset="0.1756" style="stop-color:#2CBE27"/>
			<stop  offset="0.4049" style="stop-color:#28AE2B"/>
			<stop  offset="0.6638" style="stop-color:#209332"/>
			<stop  offset="0.9427" style="stop-color:#156E3D"/>
			<stop  offset="1" style="stop-color:#13653F"/>
		</linearGradient>
		<path fill="url(#SVGID_6_)" d="M562.021,493.529c-1.517-2.549-5.092-3.432-7.697-1.906c-1.34,0.775-2.289,2.018-2.678,3.492
			c-0.381,1.436-0.184,2.916,0.561,4.188l4.028,6.842c0.968,1.68,2.804,2.723,4.779,2.723c1.026,0,2.039-0.275,2.925-0.795
			c1.346-0.775,2.288-2.018,2.684-3.498c0.376-1.436,0.172-2.92-0.573-4.178L562.021,493.529z"/>
		<linearGradient id="SVGID_7_" gradientUnits="userSpaceOnUse" x1="457.9102" y1="314.334" x2="450.3042" y2="327.5079">
			<stop  offset="0" style="stop-color:#2EC425"/>
			<stop  offset="0.1756" style="stop-color:#2CBE27"/>
			<stop  offset="0.4049" style="stop-color:#28AE2B"/>
			<stop  offset="0.6638" style="stop-color:#209332"/>
			<stop  offset="0.9427" style="stop-color:#156E3D"/>
			<stop  offset="1" style="stop-color:#13653F"/>
		</linearGradient>
		<path fill="url(#SVGID_7_)" d="M451.231,327.213c0.987,1.695,2.771,2.705,4.768,2.705c1.024,0,2.038-0.277,2.938-0.801
			c1.318-0.764,2.294-2.041,2.676-3.508c0.37-1.432,0.167-2.906-0.573-4.148l-4.027-6.863c-1.517-2.568-5.067-3.471-7.736-1.912
			c-2.678,1.574-3.614,5.012-2.077,7.68L451.231,327.213z"/>
		<linearGradient id="SVGID_8_" gradientUnits="userSpaceOnUse" x1="458.8838" y1="491.5918" x2="449.3481" y2="508.108">
			<stop  offset="0" style="stop-color:#2EC425"/>
			<stop  offset="0.1756" style="stop-color:#2CBE27"/>
			<stop  offset="0.4049" style="stop-color:#28AE2B"/>
			<stop  offset="0.6638" style="stop-color:#209332"/>
			<stop  offset="0.9427" style="stop-color:#156E3D"/>
			<stop  offset="1" style="stop-color:#13653F"/>
		</linearGradient>
		<path fill="url(#SVGID_8_)" d="M458.937,491.623c-2.646-1.535-6.202-0.643-7.699,1.912l-4.039,6.854
			c-0.747,1.26-0.95,2.744-0.574,4.178c0.383,1.479,1.325,2.725,2.651,3.5c0.897,0.525,1.918,0.801,2.943,0.801
			c2.002,0,3.793-1.012,4.793-2.711l4.027-6.855c0.752-1.287,0.95-2.805,0.535-4.268C461.179,493.6,460.236,492.389,458.937,491.623
			z"/>
		<linearGradient id="SVGID_9_" gradientUnits="userSpaceOnUse" x1="563.8965" y1="312.6543" x2="554.3741" y2="329.1475">
			<stop  offset="0" style="stop-color:#2EC425"/>
			<stop  offset="0.1756" style="stop-color:#2CBE27"/>
			<stop  offset="0.4049" style="stop-color:#28AE2B"/>
			<stop  offset="0.6638" style="stop-color:#209332"/>
			<stop  offset="0.9427" style="stop-color:#156E3D"/>
			<stop  offset="1" style="stop-color:#13653F"/>
		</linearGradient>
		<path fill="url(#SVGID_9_)" d="M554.317,329.115c0.898,0.525,1.912,0.803,2.938,0.803c1.988,0,3.772-1.008,4.767-2.699
			l4.041-6.869c1.529-2.658,0.58-6.096-2.116-7.666c-2.625-1.541-6.245-0.609-7.698,1.914l-4.047,6.867
			c-0.744,1.266-0.936,2.752-0.555,4.188C552.043,327.127,552.998,328.359,554.317,329.115z"/>
		<linearGradient id="SVGID_10_" gradientUnits="userSpaceOnUse" x1="614.1875" y1="403.7695" x2="606.5485" y2="417.0007">
			<stop  offset="0" style="stop-color:#2EC425"/>
			<stop  offset="0.1756" style="stop-color:#2CBE27"/>
			<stop  offset="0.4049" style="stop-color:#28AE2B"/>
			<stop  offset="0.6638" style="stop-color:#209332"/>
			<stop  offset="0.9427" style="stop-color:#156E3D"/>
			<stop  offset="1" style="stop-color:#13653F"/>
		</linearGradient>
		<path fill="url(#SVGID_10_)" d="M614.354,404.699h-7.965c-3.06,0-5.545,2.557-5.545,5.693c0,3.131,2.485,5.676,5.545,5.676h7.965
			c3.053,0,5.532-2.545,5.532-5.676C619.887,407.256,617.407,404.699,614.354,404.699z"/>
		<linearGradient id="SVGID_11_" gradientUnits="userSpaceOnUse" x1="406.7031" y1="403.7686" x2="399.0608" y2="417.0055">
			<stop  offset="0" style="stop-color:#2EC425"/>
			<stop  offset="0.1756" style="stop-color:#2CBE27"/>
			<stop  offset="0.4049" style="stop-color:#28AE2B"/>
			<stop  offset="0.6638" style="stop-color:#209332"/>
			<stop  offset="0.9427" style="stop-color:#156E3D"/>
			<stop  offset="1" style="stop-color:#13653F"/>
		</linearGradient>
		<path fill="url(#SVGID_11_)" d="M412.415,410.393c0-3.137-2.492-5.693-5.557-5.693h-7.968c-3.058,0-5.543,2.557-5.543,5.693
			c0,3.131,2.485,5.676,5.543,5.676h7.968C409.923,416.068,412.415,413.523,412.415,410.393z"/>
		<linearGradient id="SVGID_12_" gradientUnits="userSpaceOnUse" x1="511.1416" y1="298.8086" x2="502.1078" y2="314.4556">
			<stop  offset="0" style="stop-color:#2EC425"/>
			<stop  offset="0.1756" style="stop-color:#2CBE27"/>
			<stop  offset="0.4049" style="stop-color:#28AE2B"/>
			<stop  offset="0.6638" style="stop-color:#209332"/>
			<stop  offset="0.9427" style="stop-color:#156E3D"/>
			<stop  offset="1" style="stop-color:#13653F"/>
		</linearGradient>
		<path fill="url(#SVGID_12_)" d="M506.617,316.162c3.143,0,5.697-2.488,5.697-5.543v-7.955c0-3.07-2.555-5.57-5.697-5.57
			c-3.135,0-5.685,2.5-5.685,5.57v7.955C500.933,313.674,503.482,316.162,506.617,316.162z"/>
		<linearGradient id="SVGID_13_" gradientUnits="userSpaceOnUse" x1="511.1406" y1="506.3027" x2="502.1086" y2="521.9466">
			<stop  offset="0" style="stop-color:#2EC425"/>
			<stop  offset="0.1756" style="stop-color:#2CBE27"/>
			<stop  offset="0.4049" style="stop-color:#28AE2B"/>
			<stop  offset="0.6638" style="stop-color:#209332"/>
			<stop  offset="0.9427" style="stop-color:#156E3D"/>
			<stop  offset="1" style="stop-color:#13653F"/>
		</linearGradient>
		<path fill="url(#SVGID_13_)" d="M506.617,504.592c-3.135,0-5.685,2.492-5.685,5.555v7.969c0,3.053,2.55,5.537,5.685,5.537
			c3.143,0,5.697-2.484,5.697-5.537v-7.969C512.314,507.084,509.76,504.592,506.617,504.592z"/>
		<linearGradient id="SVGID_14_" gradientUnits="userSpaceOnUse" x1="602.3242" y1="353.2656" x2="593.3671" y2="368.7799">
			<stop  offset="0" style="stop-color:#2EC425"/>
			<stop  offset="0.1756" style="stop-color:#2CBE27"/>
			<stop  offset="0.4049" style="stop-color:#28AE2B"/>
			<stop  offset="0.6638" style="stop-color:#209332"/>
			<stop  offset="0.9427" style="stop-color:#156E3D"/>
			<stop  offset="1" style="stop-color:#13653F"/>
		</linearGradient>
		<path fill="url(#SVGID_14_)" d="M594.466,368.553c0.91,0,1.81-0.232,2.58-0.664l7.036-3.787c2.677-1.473,3.639-4.9,2.147-7.645
			c-1.447-2.662-4.964-3.76-7.576-2.348l-7.005,3.779c-2.682,1.465-3.657,4.896-2.166,7.648
			C590.482,367.396,592.395,368.553,594.466,368.553z"/>
		<linearGradient id="SVGID_15_" gradientUnits="userSpaceOnUse" x1="419.8594" y1="452.0176" x2="410.8995" y2="467.5365">
			<stop  offset="0" style="stop-color:#2EC425"/>
			<stop  offset="0.1756" style="stop-color:#2CBE27"/>
			<stop  offset="0.4049" style="stop-color:#28AE2B"/>
			<stop  offset="0.6638" style="stop-color:#209332"/>
			<stop  offset="0.9427" style="stop-color:#156E3D"/>
			<stop  offset="1" style="stop-color:#13653F"/>
		</linearGradient>
		<path fill="url(#SVGID_15_)" d="M416.188,452.852l-7.01,3.799c-2.677,1.443-3.646,4.875-2.161,7.656
			c1.001,1.848,2.906,2.998,4.978,2.998c0.905,0,1.811-0.232,2.601-0.662l7.003-3.773c2.69-1.469,3.665-4.896,2.174-7.637
			C422.325,452.563,418.826,451.424,416.188,452.852z"/>
		<linearGradient id="SVGID_16_" gradientUnits="userSpaceOnUse" x1="418.291" y1="355.9775" x2="412.4917" y2="366.0222">
			<stop  offset="0" style="stop-color:#2EC425"/>
			<stop  offset="0.1756" style="stop-color:#2CBE27"/>
			<stop  offset="0.4049" style="stop-color:#28AE2B"/>
			<stop  offset="0.6638" style="stop-color:#209332"/>
			<stop  offset="0.9427" style="stop-color:#156E3D"/>
			<stop  offset="1" style="stop-color:#13653F"/>
		</linearGradient>
		<path fill="url(#SVGID_16_)" d="M409.178,364.107l6.997,3.773c0.79,0.439,1.694,0.672,2.601,0.672
			c2.078,0,3.988-1.156,4.996-3.016c1.485-2.752,0.51-6.184-2.181-7.652l-6.996-3.773c-2.62-1.426-6.132-0.324-7.585,2.355
			C405.532,359.219,406.501,362.645,409.178,364.107z"/>
		<linearGradient id="SVGID_17_" gradientUnits="userSpaceOnUse" x1="600.7656" y1="454.7402" x2="594.9657" y2="464.786">
			<stop  offset="0" style="stop-color:#2EC425"/>
			<stop  offset="0.1756" style="stop-color:#2CBE27"/>
			<stop  offset="0.4049" style="stop-color:#28AE2B"/>
			<stop  offset="0.6638" style="stop-color:#209332"/>
			<stop  offset="0.9427" style="stop-color:#156E3D"/>
			<stop  offset="1" style="stop-color:#13653F"/>
		</linearGradient>
		<path fill="url(#SVGID_17_)" d="M604.069,456.65l-7.018-3.799c-2.599-1.414-6.135-0.289-7.569,2.375
			c-1.497,2.746-0.522,6.174,2.172,7.646l6.999,3.766c0.803,0.438,1.7,0.666,2.612,0.666c2.051,0,3.964-1.146,4.982-3.008
			C607.728,461.535,606.745,458.105,604.069,456.65z"/>
	</g>
</g>
</svg>
