<?xml version="1.0" encoding="UTF-8" standalone="no"?>
<svg
   xmlns:dc="http://purl.org/dc/elements/1.1/"
   xmlns:cc="http://creativecommons.org/ns#"
   xmlns:rdf="http://www.w3.org/1999/02/22-rdf-syntax-ns#"
   xmlns:svg="http://www.w3.org/2000/svg"
   xmlns="http://www.w3.org/2000/svg"
   xmlns:xlink="http://www.w3.org/1999/xlink"
   id="svg124"
   viewBox="0 0 677.99998 683"
   style="clip-rule:evenodd;fill-rule:evenodd;image-rendering:optimizeQuality;shape-rendering:geometricPrecision;text-rendering:geometricPrecision"
   version="1.1"
   height="0.68333101in"
   width="0.67832857in"
   xml:space="preserve"><metadata
   id="metadata128"><rdf:RDF><cc:Work
       rdf:about=""><dc:format>image/svg+xml</dc:format><dc:type
         rdf:resource="http://purl.org/dc/dcmitype/StillImage" /></cc:Work></rdf:RDF></metadata>
 <defs
   id="defs24">
  <style
   id="style2"
   type="text/css">
   <![CDATA[
    .str0 {stroke:#424A60;stroke-width:13.8858;stroke-linecap:round;stroke-linejoin:round}
    .fil10 {fill:none}
    .fil2 {fill:#E6E7E8}
    .fil1 {fill:#0F5934}
    .fil3 {fill:#3A556A}
    .fil12 {fill:#424A60}
    .fil4 {fill:#64798A}
    .fil13 {fill:#7383BF}
    .fil11 {fill:#E7ECED}
    .fil9 {fill:url(#id2)}
    .fil5 {fill:url(#id3)}
    .fil7 {fill:url(#id4)}
    .fil6 {fill:url(#id5)}
    .fil8 {fill:url(#id6)}
    .fil0 {fill:url(#id7);fill-opacity:0.600000}
   ]]>
  </style>
    <clipPath
   id="id0">
     <path
   id="path4"
   d="M 683,342 C 683,153 532,0 344,0 157,0 5,153 5,342 5,530 157,683 344,683 532,683 683,530 683,342 Z" />
    </clipPath>
    <clipPath
   id="id1">
     <path
   id="path7"
   d="M 683,342 C 683,153 532,0 344,0 157,0 5,153 5,342 5,530 157,683 344,683 532,683 683,530 683,342 Z" />
    </clipPath>
  <radialGradient
   fy="622.84302"
   fx="159.209"
   r="799.37402"
   cy="622.84302"
   cx="159.209"
   gradientTransform="matrix(0.580606,0,0,1.00008,67,0)"
   gradientUnits="userSpaceOnUse"
   id="id2">
   <stop
   id="stop10"
   style="stop-opacity:1; stop-color:white"
   offset="0" />
   <stop
   id="stop12"
   style="stop-opacity:1; stop-color:#DEDEDE"
   offset="1" />
  </radialGradient>
  <radialGradient
   fy="622.84302"
   fx="540.69702"
   r="799.37402"
   cy="622.84302"
   cx="540.69702"
   xlink:href="#id2"
   gradientTransform="matrix(0.580606,0,0,1.00008,227,0)"
   gradientUnits="userSpaceOnUse"
   id="id3">
  </radialGradient>
  <radialGradient
   fy="622.84302"
   fx="349.953"
   r="799.37402"
   cy="622.84302"
   cx="349.953"
   xlink:href="#id2"
   gradientTransform="matrix(0.580633,0,0,1.00008,147,0)"
   gradientUnits="userSpaceOnUse"
   id="id4">
  </radialGradient>
  <radialGradient
   fy="622.84302"
   fx="445.323"
   r="799.37402"
   cy="622.84302"
   cx="445.323"
   xlink:href="#id2"
   gradientTransform="matrix(0.580606,0,0,1.00008,187,0)"
   gradientUnits="userSpaceOnUse"
   id="id5">
  </radialGradient>
  <radialGradient
   fy="622.84302"
   fx="254.58299"
   r="799.37402"
   cy="622.84302"
   cx="254.58299"
   xlink:href="#id2"
   gradientTransform="matrix(0.580606,0,0,1.00008,107,0)"
   gradientUnits="userSpaceOnUse"
   id="id6">
  </radialGradient>
  <radialGradient
   fy="287"
   fx="358.01599"
   r="341.66501"
   cy="287"
   cx="358.01599"
   gradientTransform="matrix(1.37296,0,0,1.38391,-134,-110)"
   gradientUnits="userSpaceOnUse"
   id="id7">
   <stop
   id="stop19"
   style="stop-opacity:1; stop-color:white"
   offset="0" />
   <stop
   id="stop21"
   style="stop-opacity:1; stop-color:#2CC970"
   offset="1" />
  </radialGradient>
 <radialGradient
   r="799.37402"
   fy="622.84302"
   fx="159.209"
   cy="622.84302"
   cx="159.209"
   gradientTransform="matrix(0.580606,0,0,1.00008,67,0)"
   gradientUnits="userSpaceOnUse"
   id="radialGradient130"
   xlink:href="#id2" /></defs>
 <g
   transform="translate(-5)"
   id="Layer_x0020_1">
  <metadata
   id="CorelCorpID_0Corel-Layer" />
  <g
   id="_1743178746304">
   <g
   id="g28"
   clip-path="url(#id0)">
    <polygon
   style="fill:url(#id7);fill-opacity:0.6"
   points="683,683 5,683 5,0 683,0 "
   class="fil0"
   id="circle17" />
   </g>
   <g
   id="g87"
   clip-path="url(#id1)">
    <g
   id="g85">
     <path
   style="fill:#0f5934"
   d="M 599,683 H 101 V 542 c 0,-31 25,-56 55,-56 h 388 c 30,0 55,25 55,56 z"
   class="fil1"
   id="1" />
     <rect
   style="fill:#e6e7e8"
   id="rect31"
   height="55.4776"
   width="364.034"
   y="431"
   x="172"
   class="fil2" />
     <g
   id="g63">
      <rect
   style="fill:#0f5934"
   id="rect33"
   height="41.421902"
   width="17.465401"
   y="438"
   x="501"
   class="fil1" />
      <rect
   style="fill:#0f5934"
   id="rect35"
   height="41.421902"
   width="17.465401"
   y="438"
   x="472"
   class="fil1" />
      <rect
   style="fill:#0f5934"
   id="rect37"
   height="41.421902"
   width="17.465401"
   y="438"
   x="444"
   class="fil1" />
      <rect
   style="fill:#0f5934"
   id="rect39"
   height="41.421902"
   width="17.465401"
   y="438"
   x="416"
   class="fil1" />
      <rect
   style="fill:#0f5934"
   id="rect41"
   height="41.421902"
   width="17.465401"
   y="438"
   x="388"
   class="fil1" />
      <rect
   style="fill:#0f5934"
   id="rect43"
   height="41.421902"
   width="17.465401"
   y="438"
   x="360"
   class="fil1" />
      <rect
   style="fill:#0f5934"
   id="rect45"
   height="41.421902"
   width="17.465401"
   y="438"
   x="331"
   class="fil1" />
      <rect
   style="fill:#0f5934"
   id="rect47"
   height="41.421902"
   width="17.465401"
   y="438"
   x="303"
   class="fil1" />
      <rect
   style="fill:#0f5934"
   id="rect49"
   height="41.421902"
   width="17.465401"
   y="438"
   x="275"
   class="fil1" />
      <rect
   style="fill:#0f5934"
   id="rect51"
   height="41.421902"
   width="17.465401"
   y="438"
   x="247"
   class="fil1" />
      <rect
   style="fill:#0f5934"
   id="rect53"
   height="41.421902"
   width="17.465401"
   y="438"
   x="218"
   class="fil1" />
      <rect
   style="fill:#0f5934"
   id="rect55"
   height="41.421902"
   width="17.465401"
   y="438"
   x="190"
   class="fil1" />
      <g
   id="g59">
       <path
   style="fill:#0f5934"
   id="path57"
   d="m 172,431 c 0,-76 82,-179 182,-179 101,0 182,103 182,179 z m 0,0 z"
   class="fil1" />
      </g>
      <rect
   style="fill:#0f5934"
   id="rect61"
   height="18.7078"
   width="75.897598"
   y="244"
   x="316"
   class="fil1" />
     </g>
     <path
   style="fill:#3a556a"
   id="path65"
   d="m 355,237 c -4,0 -7,-3 -7,-7 v -56 c 0,-4 3,-7 7,-7 4,0 7,3 7,7 v 56 c 0,4 -3,7 -7,7 z"
   class="fil3" />
     <rect
   style="fill:#64798a"
   id="rect67"
   height="28.507999"
   width="47.8195"
   y="216"
   x="331"
   class="fil4" />
     <g
   id="g79">
      <path
   style="fill:url(#id3)"
   id="path69"
   d="m 576,683 h -70 v -94 c 0,-15 11,-26 26,-26 h 17 c 15,0 27,11 27,26 z"
   class="fil5" />
      <path
   style="fill:url(#id5)"
   id="path71"
   d="m 480,683 h -70 v -94 c 0,-15 12,-26 27,-26 h 17 c 15,0 26,11 26,26 z"
   class="fil6" />
      <path
   style="fill:url(#id4)"
   id="path73"
   d="m 385,683 h -70 v -94 c 0,-15 12,-26 26,-26 h 18 c 14,0 26,11 26,26 z"
   class="fil7" />
      <path
   style="fill:url(#id6)"
   id="path75"
   d="m 290,683 h -70 v -94 c 0,-15 11,-26 26,-26 h 17 c 15,0 27,11 27,26 z"
   class="fil8" />
      <path
   style="fill:url(#radialGradient130)"
   id="path77"
   d="m 194,683 h -70 v -94 c 0,-15 12,-26 26,-26 h 18 c 14,0 26,11 26,26 z"
   class="fil9" />
     </g>
     <rect
   style="fill:#e6e7e8"
   id="rect81"
   height="14.0361"
   width="389.12601"
   y="419"
   x="159"
   class="fil2" />
     <path
   style="fill:#0f5934"
   id="path83"
   d="m 351,140 c -25,-28 -26,-69 -6,-98 -6,3 -11,7 -16,11 -33,29 -37,79 -8,112 29,33 79,37 112,8 5,-5 10,-10 13,-15 -31,16 -71,10 -95,-18 z"
   class="fil1" />
    </g>
   </g>
   <path
   style="fill:none"
   id="path89"
   d="M 683,342 C 683,153 532,0 344,0 157,0 5,153 5,342 5,530 157,683 344,683 532,683 683,530 683,342 Z"
   class="fil10" />
   <g
   id="_1743178749344">
    <circle
   style="fill:#e7eced"
   id="circle91"
   r="146"
   cy="530"
   cx="517"
   class="fil11" />
    <g
   id="g95">
     <path
   style="fill:#424a60"
   id="path93"
   d="m 517,404 c 69,0 125,56 125,126 0,69 -56,125 -125,125 -70,0 -126,-56 -126,-125 0,-70 56,-126 126,-126 z m 0,-20 c -81,0 -146,65 -146,146 0,80 65,145 146,145 80,0 145,-65 145,-145 0,-81 -65,-146 -145,-146 z"
   class="fil12" />
    </g>
    <g
   id="_1743178758016">
     <path
   style="fill:#7383bf"
   id="path97"
   d="m 517,413 c -3,0 -5,3 -5,6 v 5 c 0,2 2,5 5,5 2,0 5,-3 5,-5 v -5 c 0,-3 -3,-6 -5,-6 z"
   class="fil13" />
     <path
   style="fill:#7383bf"
   id="path99"
   d="m 517,629 c -3,0 -5,3 -5,5 v 6 c 0,2 2,5 5,5 2,0 5,-3 5,-5 v -6 c 0,-2 -3,-5 -5,-5 z"
   class="fil13" />
     <path
   style="fill:#7383bf"
   id="path101"
   d="m 627,524 h -5 c -3,0 -5,2 -5,5 0,3 2,5 5,5 h 5 c 3,0 5,-2 5,-5 0,-3 -2,-5 -5,-5 z"
   class="fil13" />
     <path
   style="fill:#7383bf"
   id="path103"
   d="m 411,524 h -5 c -3,0 -5,2 -5,5 0,3 2,5 5,5 h 5 c 3,0 5,-2 5,-5 0,-3 -2,-5 -5,-5 z"
   class="fil13" />
     <path
   style="fill:#7383bf"
   id="path105"
   d="m 591,447 -3,4 c -2,2 -2,5 0,7 1,1 2,1 3,1 2,0 3,0 4,-1 l 3,-4 c 2,-2 2,-5 0,-7 -2,-2 -5,-2 -7,0 z"
   class="fil13" />
     <path
   style="fill:#7383bf"
   id="path107"
   d="m 439,600 -4,4 c -2,2 -2,5 0,7 1,1 2,1 4,1 1,0 2,0 3,-1 l 4,-4 c 2,-2 2,-5 0,-7 -2,-2 -5,-2 -7,0 z"
   class="fil13" />
     <path
   style="fill:#7383bf"
   id="path109"
   d="m 595,600 c -2,-2 -5,-2 -7,0 -2,2 -2,5 0,7 l 3,4 c 1,1 3,1 4,1 1,0 2,0 3,-1 2,-2 2,-5 0,-7 z"
   class="fil13" />
     <path
   style="fill:#7383bf"
   id="path111"
   d="m 442,447 c -2,-2 -5,-2 -7,0 -2,2 -2,5 0,7 l 4,4 c 1,1 2,1 3,1 1,0 3,0 4,-1 2,-2 2,-5 0,-7 z"
   class="fil13" />
    </g>
    <g
   id="_1743178751232">
     <line
   style="fill:none;stroke:#424a60;stroke-width:13.88580036;stroke-linecap:round;stroke-linejoin:round"
   id="line114"
   y2="530"
   x2="461"
   y1="530"
   x1="501"
   class="fil10 str0" />
     <line
   style="fill:none;stroke:#424a60;stroke-width:13.88580036;stroke-linecap:round;stroke-linejoin:round"
   id="line116"
   y2="460"
   x2="516"
   y1="515"
   x1="516"
   class="fil10 str0" />
     <circle
   style="fill:none;stroke:#424a60;stroke-width:13.88580036;stroke-linecap:round;stroke-linejoin:round"
   id="circle118"
   r="15"
   cy="530"
   cx="516"
   class="fil10 str0" />
    </g>
   </g>
  </g>
 </g>
</svg>