<?xml version="1.0" encoding="UTF-8" standalone="no"?>
<svg
   xmlns:dc="http://purl.org/dc/elements/1.1/"
   xmlns:cc="http://creativecommons.org/ns#"
   xmlns:rdf="http://www.w3.org/1999/02/22-rdf-syntax-ns#"
   xmlns:svg="http://www.w3.org/2000/svg"
   xmlns="http://www.w3.org/2000/svg"
   id="svg37"
   viewBox="0 0 1016.6654 833.66537"
   style="clip-rule:evenodd;fill-rule:evenodd;image-rendering:optimizeQuality;shape-rendering:geometricPrecision;text-rendering:geometricPrecision"
   version="1.1"
   height="0.8336575in"
   width="1.0166558in"
   xml:space="preserve"><metadata
   id="metadata41"><rdf:RDF><cc:Work
       rdf:about=""><dc:format>image/svg+xml</dc:format><dc:type
         rdf:resource="http://purl.org/dc/dcmitype/StillImage" /></cc:Work></rdf:RDF></metadata>
 <defs
   id="defs4">
  <style
   id="style2"
   type="text/css">
   <![CDATA[
    .str0 {stroke:#00AFEF;stroke-width:16.6654}
    .fil0 {fill:none}
    .fil1 {fill:#00AFEF}
   ]]>
  </style>
 </defs>
 <g
   transform="translate(-16.6673,-14.6673)"
   id="Layer_x0020_1">
  <metadata
   id="CorelCorpID_0Corel-Layer" />
  <g
   id="_3242232207120">
   <path
   style="fill:none;stroke:#00afef;stroke-width:16.66539955"
   id="path7"
   d="M 878,57 H 856 V 47 C 856,34 842,23 825,23 808,23 794,34 794,47 V 57 H 736 V 47 C 736,34 722,23 705,23 688,23 674,34 674,47 V 57 H 617 V 47 C 617,34 603,23 585,23 568,23 554,34 554,47 V 57 H 497 V 47 C 497,34 483,23 465,23 448,23 434,34 434,47 V 57 H 377 V 47 C 377,34 363,23 345,23 328,23 314,34 314,47 V 57 H 257 V 47 C 257,34 243,23 226,23 208,23 194,34 194,47 V 57 H 173 C 92,57 25,108 25,172 v 552 c 0,64 67,116 148,116 h 705 c 81,0 147,-52 147,-116 V 172 C 1025,108 959,57 878,57 Z M 810,47 c 0,-6 7,-12 15,-12 9,0 16,6 16,12 v 159 c 0,7 -7,12 -16,12 -8,0 -15,-5 -15,-12 z m -120,0 c 0,-6 7,-12 15,-12 9,0 16,6 16,12 v 159 c 0,7 -7,12 -16,12 -8,0 -15,-5 -15,-12 z m -120,0 c 0,-6 7,-12 15,-12 9,0 16,6 16,12 v 159 c 0,7 -7,12 -16,12 -8,0 -15,-5 -15,-12 z m -120,0 c 0,-6 7,-12 15,-12 9,0 16,6 16,12 v 159 c 0,7 -7,12 -16,12 -8,0 -15,-5 -15,-12 z m -120,0 c 0,-6 7,-12 16,-12 8,0 15,6 15,12 v 159 c 0,7 -7,12 -15,12 -9,0 -16,-5 -16,-12 z m -120,0 c 0,-6 7,-12 16,-12 8,0 15,6 15,12 v 159 c 0,7 -7,12 -15,12 -9,0 -16,-5 -16,-12 z m 740,677 c 0,31 -32,57 -72,57 H 173 c -40,0 -72,-26 -72,-57 V 172 c 0,-31 32,-57 72,-57 h 21 v 62 c -10,7 -17,17 -17,29 0,21 22,38 49,38 27,0 48,-17 48,-38 0,-12 -6,-22 -17,-29 v -62 h 57 v 62 c -10,7 -17,17 -17,29 0,21 22,38 49,38 26,0 48,-17 48,-38 0,-12 -7,-22 -17,-29 v -62 h 57 v 62 c -10,7 -17,17 -17,29 0,21 22,38 48,38 27,0 49,-17 49,-38 0,-12 -7,-22 -17,-29 v -62 h 57 v 62 c -10,7 -17,17 -17,29 0,21 21,38 48,38 27,0 49,-17 49,-38 0,-12 -7,-22 -17,-29 v -62 h 57 v 62 c -11,7 -17,17 -17,29 0,21 21,38 48,38 27,0 49,-17 49,-38 0,-12 -7,-22 -17,-29 v -62 h 57 v 62 c -11,7 -18,17 -18,29 0,21 22,38 49,38 27,0 49,-17 49,-38 0,-12 -7,-22 -18,-29 v -62 h 22 c 40,0 72,26 72,57 z"
   class="fil0 str0" />
   <path
   style="fill:#00afef"
   id="path9"
   d="m 818,497 c -4,-1 -8,-3 -11,-5 -24,-9 -53,-15 -79,-15 -46,0 -98,16 -127,54 -34,45 -36,106 5,147 85,88 280,41 277,-94 -1,-41 -30,-70 -65,-87 z M 684,702 c -66,-16 -116,-74 -84,-143 9,-17 21,-37 38,-47 20,-12 43,-21 66,-24 28,-3 53,6 79,16 20,7 39,14 57,25 32,21 32,67 18,98 -29,67 -108,91 -174,75 z"
   class="fil1" />
   <path
   style="fill:#00afef"
   id="path11"
   d="m 284,390 c -12,-14 -25,-27 -37,-40 11,-12 23,-24 31,-38 3,-4 -4,-10 -8,-6 -11,12 -22,23 -33,34 -9,-10 -19,-20 -28,-30 -1,-1 -2,-2 -3,-3 0,0 -1,0 -1,0 -4,-1 -8,3 -7,7 5,14 17,26 28,37 -2,2 -5,5 -7,7 -11,12 -41,37 -39,55 0,3 4,6 7,4 9,-5 13,-14 20,-21 9,-12 19,-24 30,-35 12,14 24,32 41,39 6,2 10,-6 6,-10 z"
   class="fil1" />
   <path
   style="fill:#00afef"
   id="path13"
   d="m 426,390 c -12,-14 -24,-27 -37,-40 11,-12 23,-24 31,-38 3,-4 -4,-10 -8,-6 -10,12 -22,23 -33,34 -9,-10 -19,-20 -28,-30 0,-1 -1,-2 -3,-3 0,0 0,0 -1,0 -4,-1 -8,3 -7,7 5,14 17,26 28,37 -2,2 -4,5 -7,7 -11,12 -41,37 -39,55 0,3 4,6 7,4 9,-5 14,-14 20,-21 9,-12 20,-24 30,-35 12,14 24,32 41,39 6,2 10,-6 6,-10 z"
   class="fil1" />
   <path
   style="fill:#00afef"
   id="path15"
   d="m 568,390 c -12,-14 -24,-27 -37,-40 12,-12 23,-24 31,-38 3,-4 -4,-10 -7,-6 -11,12 -22,23 -33,34 -10,-10 -19,-20 -29,-30 0,-1 -1,-2 -3,-3 0,0 0,0 0,0 -4,-1 -9,3 -7,7 5,14 16,26 28,37 -3,2 -5,5 -7,7 -11,12 -42,37 -40,55 0,3 4,6 8,4 8,-5 13,-14 19,-21 10,-12 20,-24 30,-35 12,14 24,32 42,39 6,2 9,-6 5,-10 z"
   class="fil1" />
   <path
   style="fill:#00afef"
   id="path17"
   d="m 275,530 c -13,-13 -25,-26 -38,-39 12,-12 23,-24 31,-38 3,-5 -3,-10 -7,-6 -11,11 -22,22 -33,33 -10,-9 -19,-19 -28,-29 -1,-2 -2,-3 -4,-3 0,0 0,0 0,0 -4,-2 -8,3 -7,6 5,15 16,27 28,38 -3,2 -5,5 -7,7 -11,12 -42,36 -40,54 0,4 4,6 8,5 9,-5 13,-14 19,-22 10,-12 20,-23 30,-34 13,13 24,32 42,38 6,3 9,-6 6,-10 z"
   class="fil1" />
   <path
   style="fill:#00afef"
   id="path19"
   d="m 417,530 c -12,-13 -25,-26 -37,-39 11,-12 22,-24 31,-38 3,-5 -4,-10 -8,-6 -11,11 -22,22 -33,33 -10,-9 -19,-19 -28,-29 -1,-2 -2,-3 -3,-3 -1,0 -1,0 -1,0 -4,-2 -8,3 -7,6 5,15 17,27 28,38 -2,2 -5,5 -7,7 -11,12 -41,36 -40,54 1,4 4,6 8,5 9,-5 13,-14 19,-22 10,-12 20,-23 30,-34 13,13 25,32 42,38 6,3 9,-6 6,-10 z"
   class="fil1" />
   <path
   style="fill:#00afef"
   id="path21"
   d="m 559,530 c -12,-13 -25,-26 -37,-39 11,-12 23,-24 31,-38 3,-5 -4,-10 -8,-6 -11,11 -22,22 -33,33 -9,-9 -19,-19 -28,-29 -1,-2 -2,-3 -3,-3 0,0 -1,0 -1,0 -4,-2 -8,3 -7,6 5,15 17,27 28,38 -2,2 -5,5 -7,7 -11,12 -41,36 -39,54 0,4 4,6 7,5 9,-5 13,-14 20,-22 9,-12 19,-23 30,-34 12,13 24,32 41,38 6,3 10,-6 6,-10 z"
   class="fil1" />
   <path
   style="fill:#00afef"
   id="path23"
   d="m 258,670 c -12,-13 -24,-27 -37,-40 12,-11 23,-23 31,-37 3,-5 -4,-10 -7,-6 -11,11 -22,22 -33,33 -10,-10 -19,-20 -29,-30 0,-1 -1,-2 -3,-2 0,0 0,-1 0,-1 -4,-1 -9,3 -7,7 5,15 16,27 28,37 -3,3 -5,5 -7,8 -11,11 -42,36 -40,54 0,4 4,6 8,4 8,-5 13,-13 19,-21 10,-12 20,-23 30,-34 13,13 24,32 42,38 6,2 9,-6 5,-10 z"
   class="fil1" />
   <path
   style="fill:#00afef"
   id="path25"
   d="m 401,670 c -12,-13 -25,-27 -37,-40 11,-11 22,-23 31,-37 2,-5 -4,-10 -8,-6 -11,11 -22,22 -33,33 -10,-10 -19,-20 -28,-30 -1,-1 -2,-2 -4,-2 0,0 0,-1 0,-1 -4,-1 -8,3 -7,7 5,15 17,27 28,37 -3,3 -5,5 -7,8 -11,11 -41,36 -40,54 1,4 4,6 8,4 9,-5 13,-13 19,-21 10,-12 20,-23 30,-34 13,13 25,32 42,38 6,2 9,-6 6,-10 z"
   class="fil1" />
   <path
   style="fill:#00afef"
   id="path27"
   d="m 543,670 c -12,-13 -25,-27 -37,-40 11,-11 23,-23 31,-37 3,-5 -4,-10 -8,-6 -11,11 -22,22 -33,33 -9,-10 -19,-20 -28,-30 -1,-1 -2,-2 -3,-2 -1,0 -1,-1 -1,-1 -4,-1 -8,3 -7,7 5,15 17,27 28,37 -2,3 -5,5 -7,8 -11,11 -41,36 -40,54 1,4 4,6 8,4 9,-5 13,-13 20,-21 9,-12 19,-23 29,-34 13,13 25,32 42,38 6,2 10,-6 6,-10 z"
   class="fil1" />
   <path
   style="fill:#00afef"
   id="path29"
   d="m 711,390 c -12,-14 -25,-27 -37,-40 11,-12 22,-24 31,-38 2,-4 -4,-10 -8,-6 -11,12 -22,23 -33,34 -10,-10 -19,-20 -28,-30 -1,-1 -2,-2 -4,-3 0,0 0,0 0,0 -4,-1 -8,3 -7,7 5,14 17,26 28,37 -3,2 -5,5 -7,7 -11,12 -41,37 -40,55 1,3 4,6 8,4 9,-5 13,-14 19,-21 10,-12 20,-24 30,-35 13,14 25,32 42,39 6,2 9,-6 6,-10 z"
   class="fil1" />
   <path
   style="fill:#00afef"
   id="path31"
   d="m 853,390 c -12,-14 -25,-27 -37,-40 11,-12 23,-24 31,-38 3,-4 -4,-10 -8,-6 -11,12 -22,23 -33,34 -9,-10 -19,-20 -28,-30 -1,-1 -2,-2 -3,-3 -1,0 -1,0 -1,0 -4,-1 -8,3 -7,7 5,14 17,26 28,37 -2,2 -5,5 -7,7 -11,12 -41,37 -40,55 1,3 4,6 8,4 9,-5 13,-14 20,-21 9,-12 19,-24 29,-35 13,14 25,32 42,39 6,2 10,-6 6,-10 z"
   class="fil1" />
   <path
   style="fill:#00afef"
   id="path33"
   d="m 715,547 c 0,0 23,34 47,19 24,-15 30,-26 30,-26 0,0 -9,45 -37,49 -27,3 -40,-24 -40,-24 0,0 26,72 26,94 0,23 -16,29 -16,29 0,0 -27,-123 -46,-141 -4,-3 22,-16 22,-16 z"
   class="fil1" />
  </g>
 </g>
</svg>