<?xml version="1.0" encoding="UTF-8" standalone="no"?>
<svg
   xmlns:dc="http://purl.org/dc/elements/1.1/"
   xmlns:cc="http://creativecommons.org/ns#"
   xmlns:rdf="http://www.w3.org/1999/02/22-rdf-syntax-ns#"
   xmlns:svg="http://www.w3.org/2000/svg"
   xmlns="http://www.w3.org/2000/svg"
   id="svg125"
   viewBox="0 0 1035.3307 1184.664"
   style="clip-rule:evenodd;fill-rule:evenodd;image-rendering:optimizeQuality;shape-rendering:geometricPrecision;text-rendering:geometricPrecision"
   version="1.1"
   height="1.1846541in"
   width="1.0353209in"
   xml:space="preserve"><metadata
   id="metadata129"><rdf:RDF><cc:Work
       rdf:about=""><dc:format>image/svg+xml</dc:format><dc:type
         rdf:resource="http://purl.org/dc/dcmitype/StillImage" /></cc:Work></rdf:RDF></metadata>
 <defs
   id="defs4">
  <style
   id="style2"
   type="text/css">
   <![CDATA[
    .str2 {stroke:#00A859;stroke-width:13.3307}
    .str0 {stroke:#00A859;stroke-width:26.6654}
    .str3 {stroke:#00A859;stroke-width:16.6654}
    .str1 {stroke:#00A859;stroke-width:9.99606}
    .fil3 {fill:#FEFEFE}
    .fil0 {fill:#FEFEFE;fill-rule:nonzero}
    .fil2 {fill:#00A859;fill-rule:nonzero}
    .fil1 {fill:#00A859;fill-rule:nonzero}
   ]]>
  </style>
 </defs>
 <g
   transform="translate(-11.6673,-11.668021)"
   id="Layer_x0020_1">
  <metadata
   id="CorelCorpID_0Corel-Layer" />
  <g
   id="_3242159072704">
   <g
   id="g49">
    <polygon
   style="fill:#fefefe;fill-rule:nonzero;stroke:#00a859;stroke-width:26.66539955"
   id="polygon7"
   points="977,1175 632,1175 642,732 966,732 "
   class="fil0 str0" />
    <polygon
   style="fill:#fefefe;fill-rule:nonzero;stroke:#00a859;stroke-width:26.66539955"
   id="polygon9"
   points="636,587 978,587 978,442 636,442 "
   class="fil0 str0" />
    <path
   style="fill:#00a859;fill-rule:nonzero;stroke:#00a859;stroke-width:9.99606037"
   id="path11"
   d="m 673,466 h -1 c -6,0 -11,4 -11,10 v 70 h 24 v -70 c 0,-6 -5,-10 -12,-10 z"
   class="fil1 str1" />
    <path
   style="fill:#00a859;fill-rule:nonzero;stroke:#00a859;stroke-width:9.99606037"
   id="path13"
   d="m 722,469 h -1 c -7,0 -12,4 -12,10 v 70 h 24 v -70 c 0,-6 -5,-10 -11,-10 z"
   class="fil1 str1" />
    <path
   style="fill:#00a859;fill-rule:nonzero;stroke:#00a859;stroke-width:9.99606037"
   id="path15"
   d="m 767,466 h -1 c -6,0 -12,4 -12,10 v 71 h 24 v -71 c 0,-6 -5,-10 -11,-10 z"
   class="fil1 str1" />
    <path
   style="fill:#00a859;fill-rule:nonzero;stroke:#00a859;stroke-width:9.99606037"
   id="path17"
   d="m 808,466 h -1 c -6,0 -11,4 -11,10 v 71 h 23 v -71 c 0,-6 -5,-10 -11,-10 z"
   class="fil1 str1" />
    <path
   style="fill:#00a859;fill-rule:nonzero;stroke:#00a859;stroke-width:9.99606037"
   id="path19"
   d="m 849,466 h -1 c -6,0 -11,4 -11,10 v 71 h 23 v -71 c 0,-6 -5,-10 -11,-10 z"
   class="fil1 str1" />
    <path
   style="fill:#00a859;fill-rule:nonzero;stroke:#00a859;stroke-width:9.99606037"
   id="path21"
   d="m 890,466 h -1 c -6,0 -11,4 -11,10 v 71 h 24 v -71 c 0,-6 -6,-10 -12,-10 z"
   class="fil1 str1" />
    <path
   style="fill:#00a859;fill-rule:nonzero;stroke:#00a859;stroke-width:9.99606037"
   id="path23"
   d="m 931,466 h -1 c -6,0 -11,4 -11,10 v 71 h 24 v -71 c 0,-6 -5,-10 -12,-10 z"
   class="fil1 str1" />
    <polygon
   style="fill:#fefefe;fill-rule:nonzero;stroke:#00a859;stroke-width:26.66539955"
   id="polygon25"
   points="718,402 718,435 731,435 731,402 750,402 750,435 763,435 763,402 782,402 782,435 795,435 795,402 813,402 813,435 827,435 827,402 845,402 845,435 858,435 858,402 877,402 877,435 890,435 890,402 908,402 908,435 936,435 936,336 672,336 672,435 700,435 700,402 "
   class="fil0 str0" />
    <polygon
   style="fill:#00a859;fill-rule:nonzero;stroke:#00a859;stroke-width:9.99606037"
   id="polygon27"
   points="996,653 996,621 967,621 967,653 "
   class="fil1 str1" />
    <polygon
   style="fill:#00a859;fill-rule:nonzero;stroke:#00a859;stroke-width:9.99606037"
   id="polygon29"
   points="928,653 928,621 899,621 899,653 "
   class="fil1 str1" />
    <polygon
   style="fill:#00a859;fill-rule:nonzero;stroke:#00a859;stroke-width:9.99606037"
   id="polygon31"
   points="861,653 861,621 832,621 832,653 "
   class="fil1 str1" />
    <polygon
   style="fill:#00a859;fill-rule:nonzero;stroke:#00a859;stroke-width:9.99606037"
   id="polygon33"
   points="788,653 788,621 759,621 759,653 "
   class="fil1 str1" />
    <polygon
   style="fill:#00a859;fill-rule:nonzero;stroke:#00a859;stroke-width:9.99606037"
   id="polygon35"
   points="722,647 722,615 693,615 693,647 "
   class="fil1 str1" />
    <path
   style="fill:#fefefe;fill-rule:nonzero;stroke:#00a859;stroke-width:26.66539955"
   id="path37"
   d="m 759,117 46,11 49,-11 c 0,0 -24,-18 -38,-41 -11,-19 -12,-50 -12,-50 0,0 0,26 -11,50 -12,24 -34,41 -34,41 z"
   class="fil0 str0" />
    <path
   style="fill:#fefefe;fill-rule:nonzero;stroke:#00a859;stroke-width:26.66539955"
   id="path39"
   d="m 854,117 c 57,50 140,78 140,162 0,53 -60,96 -60,96 H 670 c 0,0 -49,-41 -49,-93 0,-100 80,-114 138,-165 z"
   class="fil0 str0" />
    <path
   style="fill:#fefefe;fill-rule:nonzero;stroke:#00a859;stroke-width:26.66539955"
   id="path41"
   d="m 793,34 c 0,-5 5,-9 11,-9 5,0 10,4 10,9 0,5 -5,10 -10,10 -6,0 -11,-5 -11,-10 z"
   class="fil0 str0" />
    <path
   style="fill:#fefefe;fill-rule:nonzero;stroke:#00a859;stroke-width:9.99606037"
   id="path43"
   d="M 1034,653 H 807 v 0 H 581 c -5,0 -8,5 -8,11 v 1 h 234 v 0 h 235 v -1 c 0,-6 -4,-11 -8,-11 z"
   class="fil0 str1" />
    <path
   style="fill:#fefefe;fill-rule:nonzero;stroke:#00a859;stroke-width:13.33069992"
   id="path45"
   d="M 1027,586 H 810 807 588 c -5,0 -8,9 -8,21 v 3 h 227 3 225 v -3 c 0,-12 -3,-21 -8,-21 z"
   class="fil0 str2" />
    <polygon
   style="fill:#fefefe;fill-rule:nonzero;stroke:#00a859;stroke-width:26.66539955"
   id="polygon47"
   points="1013,665 596,665 630,732 985,732 "
   class="fil0 str0" />
   </g>
   <g
   id="g117">
    <polygon
   style="fill:#fefefe;fill-rule:nonzero;stroke:#00a859;stroke-width:9.99606037"
   id="polygon51"
   points="685,623 685,588 654,588 654,623 "
   class="fil0 str1" />
    <polygon
   style="fill:#fefefe;fill-rule:nonzero;stroke:#00a859;stroke-width:26.66539955"
   id="polygon53"
   points="77,1122 686,1122 686,863 77,863 "
   class="fil0 str0" />
    <g
   id="g83">
     <g
   id="g57">
      <path
   style="fill:#00a859;fill-rule:nonzero;stroke:#00a859;stroke-width:9.99606037"
   id="path55"
   d="m 171,906 h -18 c -7,0 -12,5 -12,11 v 133 h 42 V 917 c 0,-6 -6,-11 -12,-11 z"
   class="fil1 str1" />
     </g>
     <g
   id="g61">
      <path
   style="fill:#00a859;fill-rule:nonzero;stroke:#00a859;stroke-width:9.99606037"
   id="path59"
   d="m 244,906 h -18 c -7,0 -12,5 -12,11 v 133 h 42 V 917 c 0,-6 -5,-11 -12,-11 z"
   class="fil1 str1" />
     </g>
     <g
   id="g65">
      <path
   style="fill:#00a859;fill-rule:nonzero;stroke:#00a859;stroke-width:9.99606037"
   id="path63"
   d="m 317,906 h -18 c -6,0 -12,5 -12,11 v 133 h 42 V 917 c 0,-6 -5,-11 -12,-11 z"
   class="fil1 str1" />
     </g>
     <g
   id="g69">
      <path
   style="fill:#00a859;fill-rule:nonzero;stroke:#00a859;stroke-width:9.99606037"
   id="path67"
   d="m 390,906 h -17 c -7,0 -13,5 -13,11 v 133 h 43 V 917 c 0,-6 -6,-11 -13,-11 z"
   class="fil1 str1" />
     </g>
     <g
   id="g73">
      <path
   style="fill:#00a859;fill-rule:nonzero;stroke:#00a859;stroke-width:9.99606037"
   id="path71"
   d="m 464,906 h -18 c -7,0 -12,5 -12,11 v 133 h 42 V 917 c 0,-6 -6,-11 -12,-11 z"
   class="fil1 str1" />
     </g>
     <g
   id="g77">
      <path
   style="fill:#00a859;fill-rule:nonzero;stroke:#00a859;stroke-width:9.99606037"
   id="path75"
   d="m 537,906 h -18 c -7,0 -12,5 -12,11 v 133 h 42 V 917 c 0,-6 -5,-11 -12,-11 z"
   class="fil1 str1" />
     </g>
     <g
   id="g81">
      <path
   style="fill:#00a859;fill-rule:nonzero;stroke:#00a859;stroke-width:9.99606037"
   id="path79"
   d="m 610,906 h -18 c -6,0 -12,5 -12,11 v 133 h 42 V 917 c 0,-6 -5,-11 -12,-11 z"
   class="fil1 str1" />
     </g>
    </g>
    <polygon
   style="fill:#fefefe;fill-rule:nonzero;stroke:#00a859;stroke-width:26.66539955"
   id="polygon85"
   points="222,792 222,850 246,850 246,792 279,792 279,850 303,850 303,792 335,792 335,850 359,850 359,792 392,792 392,850 416,850 416,792 448,792 448,850 472,850 472,792 505,792 505,850 529,850 529,792 561,792 561,850 611,850 611,674 141,674 141,850 190,850 190,792 "
   class="fil0 str0" />
    <polygon
   style="fill:#00a859;fill-rule:nonzero;stroke:#00a859;stroke-width:9.99606037"
   id="polygon87"
   points="561,850 561,792 529,792 529,850 "
   class="fil1 str1" />
    <polygon
   style="fill:#00a859;fill-rule:nonzero;stroke:#00a859;stroke-width:9.99606037"
   id="polygon89"
   points="505,850 505,792 472,792 472,850 "
   class="fil1 str1" />
    <polygon
   style="fill:#00a859;fill-rule:nonzero;stroke:#00a859;stroke-width:9.99606037"
   id="polygon91"
   points="448,850 448,792 416,792 416,850 "
   class="fil1 str1" />
    <polygon
   style="fill:#00a859;fill-rule:nonzero;stroke:#00a859;stroke-width:9.99606037"
   id="polygon93"
   points="392,850 392,792 359,792 359,850 "
   class="fil1 str1" />
    <polygon
   style="fill:#00a859;fill-rule:nonzero;stroke:#00a859;stroke-width:9.99606037"
   id="polygon95"
   points="335,850 335,792 303,792 303,850 "
   class="fil1 str1" />
    <polygon
   style="fill:#00a859;fill-rule:nonzero;stroke:#00a859;stroke-width:9.99606037"
   id="polygon97"
   points="279,850 279,792 246,792 246,850 "
   class="fil1 str1" />
    <polygon
   style="fill:#00a859;fill-rule:nonzero;stroke:#00a859;stroke-width:9.99606037"
   id="polygon99"
   points="222,850 222,792 190,792 190,850 "
   class="fil1 str1" />
    <path
   style="fill:#fefefe;fill-rule:nonzero;stroke:#00a859;stroke-width:26.66539955"
   id="path101"
   d="M 698,867 H 65 c -6,0 -10,-4 -10,-9 v -12 c 0,-5 4,-8 10,-8 h 633 c 6,0 10,3 10,8 v 12 c 0,5 -4,9 -10,9 z"
   class="fil0 str0" />
    <path
   style="fill:#fefefe;fill-rule:nonzero;stroke:#00a859;stroke-width:26.66539955"
   id="path103"
   d="m 295,285 81,19 88,-19 c 0,0 -41,-32 -67,-74 -20,-33 -22,-88 -22,-88 0,0 1,47 -20,89 -20,42 -60,73 -60,73 z"
   class="fil0 str0" />
    <path
   style="fill:#fefefe;fill-rule:nonzero;stroke:#00a859;stroke-width:26.66539955"
   id="path105"
   d="m 464,285 c 102,88 249,138 249,289 0,94 -107,171 -107,171 H 138 C 138,745 50,671 50,578 50,400 193,376 295,285 Z"
   class="fil0 str0" />
    <path
   style="fill:#fefefe;fill-rule:nonzero;stroke:#00a859;stroke-width:16.66539955"
   id="path107"
   d="m 355,137 c 0,-9 9,-17 20,-17 10,0 19,8 19,17 0,10 -9,17 -19,17 -11,0 -20,-7 -20,-17 z"
   class="fil0 str3" />
    <polygon
   style="fill:#fefefe;fill-rule:nonzero;stroke:#00a859;stroke-width:9.99606037"
   id="polygon109"
   points="372,121 376,121 376,81 372,82 "
   class="fil0 str1" />
    <path
   style="fill:#00a859;fill-rule:nonzero;stroke:#00a859;stroke-width:9.99606037"
   id="path111"
   d="m 372,17 c -1,0 -3,0 -4,0 18,2 32,15 32,31 0,17 -16,31 -35,31 -18,0 -33,-12 -35,-28 0,1 0,2 0,3 0,21 19,37 42,37 23,0 42,-16 42,-37 0,-20 -19,-37 -42,-37 z"
   class="fil2 str1" />
    <path
   style="fill:#fefefe;fill-rule:nonzero;stroke:#00a859;stroke-width:26.66539955"
   id="path113"
   d="M 655,707 H 385 381 108 c -5,0 -10,11 -10,25 v 4 h 283 4 280 v -4 c 0,-14 -5,-25 -10,-25 z"
   class="fil0 str0" />
    <path
   style="fill:#fefefe;fill-rule:nonzero;stroke:#00a859;stroke-width:26.66539955"
   id="path115"
   d="m 79,1018 h 600 c 30,0 54,22 54,48 v 117 H 25 v -117 c 0,-26 24,-48 54,-48 z"
   class="fil0 str0" />
   </g>
   <path
   style="fill:#fefefe"
   id="path119"
   d="m 276,316 c 4,-1 37,-28 74,-67 36,-39 50,-11 74,14 24,26 52,46 45,49 l -134,50 z"
   class="fil3" />
   <path
   style="fill:#fefefe"
   id="path121"
   d="m 757,137 c 0,0 32,-31 38,-37 7,-6 19,-5 19,-5 0,0 40,42 45,43 5,2 -102,-1 -102,-1 z"
   class="fil3" />
  </g>
 </g>
</svg>