<?xml version="1.0" encoding="UTF-8" standalone="no"?>
<svg
   xmlns:dc="http://purl.org/dc/elements/1.1/"
   xmlns:cc="http://creativecommons.org/ns#"
   xmlns:rdf="http://www.w3.org/1999/02/22-rdf-syntax-ns#"
   xmlns:svg="http://www.w3.org/2000/svg"
   xmlns="http://www.w3.org/2000/svg"
   id="svg26"
   viewBox="0 0 396.3999 396.65686"
   style="clip-rule:evenodd;fill-rule:evenodd;image-rendering:optimizeQuality;shape-rendering:geometricPrecision;text-rendering:geometricPrecision"
   version="1.1"
   height="0.39664891in"
   width="0.39639196in"
   xml:space="preserve"><metadata
   id="metadata30"><rdf:RDF><cc:Work
       rdf:about=""><dc:format>image/svg+xml</dc:format><dc:type
         rdf:resource="http://purl.org/dc/dcmitype/StillImage" /></cc:Work></rdf:RDF></metadata>
 <defs
   id="defs4">
  <style
   id="style2"
   type="text/css">
   <![CDATA[
    .fil0 {fill:#00A859}
   ]]>
  </style>
 </defs>
 <g
   transform="translate(-2.8013702,-2.3431458)"
   id="Layer_x0020_1">
  <metadata
   id="CorelCorpID_0Corel-Layer" />
  <path
   style="fill:#00a859"
   id="path7"
   d="m 31,206 h 22 c 3,0 6,-3 6,-6 v -16 c 0,-9 -7,-16 -16,-16 h -2 c -9,0 -16,7 -16,16 v 16 c 0,3 2,6 6,6 z m 6,-22 c 0,-2 1,-4 4,-4 h 2 c 2,0 4,2 4,4 v 10 H 37 Z m 0,0 z"
   class="fil0" />
  <path
   style="fill:#00a859"
   id="path9"
   d="m 31,276 h 22 c 3,0 6,-3 6,-6 v -16 c 0,-9 -7,-16 -16,-16 h -2 c -9,0 -16,7 -16,16 v 16 c 0,3 2,6 6,6 z m 6,-22 c 0,-2 1,-4 4,-4 h 2 c 2,0 4,2 4,4 v 10 H 37 Z m 0,0 z"
   class="fil0" />
  <path
   style="fill:#00a859"
   id="path11"
   d="m 31,346 h 22 c 3,0 6,-3 6,-6 v -17 c 0,-8 -7,-15 -16,-15 h -2 c -9,0 -16,7 -16,15 v 17 c 0,3 2,6 6,6 z m 6,-23 c 0,-2 1,-3 4,-3 h 2 c 2,0 4,1 4,3 v 11 H 37 Z m 0,0 z"
   class="fil0" />
  <path
   style="fill:#00a859"
   id="path13"
   d="m 372,206 c 3,0 6,-3 6,-6 v -16 c 0,-9 -7,-16 -16,-16 h -3 c -8,0 -15,7 -15,16 v 16 c 0,3 2,6 6,6 z m -16,-22 c 0,-2 1,-4 3,-4 h 3 c 2,0 4,2 4,4 v 10 h -10 z m 0,0 z"
   class="fil0" />
  <path
   style="fill:#00a859"
   id="path15"
   d="m 344,270 c 0,3 2,6 6,6 h 22 c 3,0 6,-3 6,-6 v -16 c 0,-9 -7,-16 -16,-16 h -3 c -8,0 -15,7 -15,16 z m 12,-16 c 0,-2 1,-4 3,-4 h 3 c 2,0 4,2 4,4 v 10 h -10 z m 0,0 z"
   class="fil0" />
  <path
   style="fill:#00a859"
   id="path17"
   d="m 344,340 c 0,3 2,6 6,6 h 22 c 3,0 6,-3 6,-6 v -17 c 0,-8 -7,-15 -16,-15 h -3 c -8,0 -15,7 -15,15 z m 12,-17 c 0,-2 1,-3 3,-3 h 3 c 2,0 4,1 4,3 v 11 h -10 z m 0,0 z"
   class="fil0" />
  <path
   style="fill:#00a859"
   id="path19"
   d="m 399,95 c -1,-7 -6,-14 -14,-20 0,0 -1,0 -1,0 -3,-2 -13,-8 -16,-12 -2,-2 -5,-3 -7,-3 0,0 0,0 0,0 -3,0 -5,1 -7,3 -4,4 -13,10 -17,12 0,0 0,0 0,0 -9,6 -14,13 -15,20 -1,7 2,13 4,16 v 20 c 0,3 3,5 6,5 3,0 6,-2 6,-5 v -16 h 46 V 387 H 338 V 167 c 0,-3 -3,-5 -6,-5 -3,0 -6,2 -6,5 v 61 h -31 v -15 c 0,-5 -4,-9 -9,-9 h -2 c 6,-8 14,-21 14,-36 1,-17 -7,-33 -23,-48 -2,-2 -15,-15 -46,-28 0,0 0,0 0,0 v -1 c -1,0 -9,-3 -15,-9 14,-4 25,-14 30,-28 1,-3 0,-5 -2,-7 -2,-2 -5,-2 -7,-1 -2,1 -5,1 -7,2 -17,4 -34,-7 -38,-23 -1,-5 -2,-10 -1,-15 1,-2 0,-5 -2,-6 -2,-2 -5,-2 -8,-1 -16,10 -24,29 -20,47 3,11 10,21 20,27 3,2 6,3 10,4 -6,7 -14,10 -15,10 v 1 c 0,0 -1,0 -1,0 -31,13 -43,26 -45,28 -16,15 -24,31 -24,48 1,15 8,28 15,36 h -2 c -5,0 -9,4 -9,9 v 15 H 77 V 111 c 2,-3 5,-9 4,-16 -1,-7 -6,-14 -15,-20 0,0 0,0 -1,0 -3,-2 -12,-8 -16,-12 -2,-2 -4,-3 -7,-3 -3,0 -5,1 -7,3 -4,4 -13,10 -17,12 0,0 0,0 0,0 -9,6 -14,13 -15,20 -1,7 2,13 4,16 v 282 c 0,3 3,6 6,6 h 377 c 3,0 6,-3 6,-6 V 111 c 1,-3 4,-9 3,-16 z M 65,387 H 19 V 115 H 65 Z M 67,103 H 16 c 0,-1 -1,-4 -1,-6 1,-4 4,-8 9,-12 2,-1 12,-6 18,-12 6,6 15,11 17,12 6,4 9,8 10,12 0,2 -1,5 -2,6 z m 41,284 H 77 V 240 h 31 z M 171,47 c -2,-9 0,-19 6,-26 0,2 1,4 1,6 5,20 23,33 43,33 2,0 4,0 6,0 -4,5 -10,9 -18,11 -2,0 -4,1 -7,1 -14,0 -28,-10 -31,-25 z m -55,120 c 0,-13 7,-26 20,-39 1,0 1,0 1,-1 0,0 11,-11 41,-25 h 1 c 3,-1 15,-7 22,-17 8,10 20,16 23,17 v 0 c 31,14 41,25 42,25 0,1 0,1 0,1 14,13 21,26 20,39 0,18 -14,32 -18,37 H 135 c -5,-5 -18,-19 -19,-37 z M 283,387 H 260 V 283 c 0,-8 -5,-15 -12,-18 l -41,-18 c -3,-2 -8,-2 -12,0 l -40,18 c -8,3 -13,10 -13,18 0,5 0,10 0,15 0,2 0,5 1,7 1,3 3,5 5,5 4,0 6,-3 6,-6 v -21 c 0,-3 2,-6 5,-7 l 41,-19 c 1,0 2,0 2,0 l 41,19 c 3,1 5,4 5,7 v 104 h -94 v -47 c 0,-3 -2,-6 -6,-6 -3,0 -6,3 -6,6 v 13 34 H 120 V 215 h 163 z m 43,0 H 295 V 240 h 31 z m 60,-284 h -51 c -1,-1 -1,-4 -1,-6 0,-4 4,-8 9,-12 2,-1 12,-6 18,-12 6,6 15,11 17,12 6,4 9,8 10,12 0,2 -1,5 -2,6 z"
   class="fil0" />
  <polygon
   style="fill:#00a859"
   id="polygon21"
   points="142,349 154,349 154,299 142,298 "
   class="fil0" />
  <polygon
   style="fill:#00a859"
   id="polygon23"
   points="326,176 338,176 338,131 326,131 "
   class="fil0" />
 </g>
</svg>