<?xml version="1.0" encoding="UTF-8" standalone="no"?>
<svg
   xmlns:dc="http://purl.org/dc/elements/1.1/"
   xmlns:cc="http://creativecommons.org/ns#"
   xmlns:rdf="http://www.w3.org/1999/02/22-rdf-syntax-ns#"
   xmlns:svg="http://www.w3.org/2000/svg"
   xmlns="http://www.w3.org/2000/svg"
   id="svg20"
   viewBox="0 0 677.99998 683"
   style="clip-rule:evenodd;fill-rule:evenodd;image-rendering:optimizeQuality;shape-rendering:geometricPrecision;text-rendering:geometricPrecision"
   version="1.1"
   height="0.68333101in"
   width="0.67832857in"
   xml:space="preserve"><metadata
   id="metadata24"><rdf:RDF><cc:Work
       rdf:about=""><dc:format>image/svg+xml</dc:format><dc:type
         rdf:resource="http://purl.org/dc/dcmitype/StillImage" /></cc:Work></rdf:RDF></metadata>
 <defs
   id="defs9">
  <style
   id="style2"
   type="text/css">
   <![CDATA[
    .str0 {stroke:#332C2B;stroke-width:7.87402}
    .fil2 {fill:#11623A}
    .fil3 {fill:#8AC890}
    .fil1 {fill:#A2B8AD}
    .fil0 {fill:url(#id0);fill-opacity:0.600000}
   ]]>
  </style>
  <radialGradient
   fy="287"
   fx="358.01599"
   r="341.66501"
   cy="287"
   cx="358.01599"
   gradientTransform="matrix(1.37296,0,0,1.38391,-134,-110)"
   gradientUnits="userSpaceOnUse"
   id="id0">
   <stop
   id="stop4"
   style="stop-opacity:1; stop-color:white"
   offset="0" />
   <stop
   id="stop6"
   style="stop-opacity:1; stop-color:#2CC970"
   offset="1" />
  </radialGradient>
 </defs>
 <g
   transform="translate(-5)"
   id="Layer_x0020_1">
  <metadata
   id="CorelCorpID_0Corel-Layer" />
  <path
   style="fill:url(#id0);fill-opacity:0.6"
   d="M 683,342 C 683,153 532,0 344,0 157,0 5,153 5,342 5,530 157,683 344,683 532,683 683,530 683,342 Z"
   class="fil0"
   id="circle17" />
  <g
   id="_1743178443616">
   <path
   style="fill:#a2b8ad"
   d="m 123,120 h 143 c 21,0 38,17 38,37 v 144 c 0,21 -17,38 -38,38 H 123 C 102,339 85,322 85,301 V 157 c 0,-20 17,-37 38,-37 z m 230,83 102,-102 c 15,-15 39,-15 53,0 l 102,102 c 14,14 14,38 0,53 L 508,357 c -14,15 -38,15 -53,0 L 353,256 c -14,-15 -14,-39 0,-53 z m 53,183 h 144 c 21,0 38,17 38,38 v 144 c 0,20 -17,37 -38,37 H 406 c -20,0 -37,-17 -37,-37 V 424 c 0,-21 17,-38 37,-38 z m -283,0 h 143 c 21,0 38,17 38,38 v 144 c 0,20 -17,37 -38,37 H 123 C 102,605 85,588 85,568 V 424 c 0,-21 17,-38 38,-38 z"
   class="fil1"
   id="path16" />
   <path
   style="fill:#11623a;stroke:#332c2b;stroke-width:7.8740201"
   d="m 150,386 h 144 c 21,0 38,17 38,38 v 144 c 0,20 -17,37 -38,37 H 150 c -20,0 -37,-17 -37,-37 V 424 c 0,-21 17,-38 37,-38 z"
   class="fil2 str0"
   id="path18" />
   <path
   style="fill:#11623a;stroke:#332c2b;stroke-width:7.8740201"
   d="m 434,386 h 144 c 20,0 37,17 37,38 v 144 c 0,20 -17,37 -37,37 H 434 c -21,0 -37,-17 -37,-37 V 424 c 0,-21 16,-38 37,-38 z"
   class="fil2 str0"
   id="path20" />
   <path
   style="fill:#8ac890;stroke:#332c2b;stroke-width:7.8740201"
   d="M 381,203 483,101 c 14,-15 38,-15 53,0 l 102,102 c 14,14 14,38 0,53 L 536,357 c -15,15 -39,15 -53,0 L 381,256 c -14,-15 -14,-39 0,-53 z"
   class="fil3 str0"
   id="path22" />
   <path
   style="fill:#11623a;stroke:#332c2b;stroke-width:7.8740201"
   d="m 150,120 h 144 c 21,0 38,17 38,37 v 144 c 0,21 -17,38 -38,38 H 150 c -20,0 -37,-17 -37,-38 V 157 c 0,-20 17,-37 37,-37 z"
   class="fil2 str0"
   id="path24" />
  </g>
 </g>
</svg>