<?xml version="1.0" encoding="UTF-8" standalone="no"?>
<svg
   xmlns:dc="http://purl.org/dc/elements/1.1/"
   xmlns:cc="http://creativecommons.org/ns#"
   xmlns:rdf="http://www.w3.org/1999/02/22-rdf-syntax-ns#"
   xmlns:svg="http://www.w3.org/2000/svg"
   xmlns="http://www.w3.org/2000/svg"
   id="svg24"
   viewBox="0 0 5233 5233"
   style="clip-rule:evenodd;fill-rule:evenodd;image-rendering:optimizeQuality;shape-rendering:geometricPrecision;text-rendering:geometricPrecision"
   version="1.1"
   height="5.2333298in"
   width="5.2333298in"
   xml:space="preserve"><metadata
   id="metadata28"><rdf:RDF><cc:Work
       rdf:about=""><dc:format>image/svg+xml</dc:format><dc:type
         rdf:resource="http://purl.org/dc/dcmitype/StillImage" /></cc:Work></rdf:RDF></metadata>
 <defs
   id="defs7">
  <style
   id="style2"
   type="text/css">
   <![CDATA[
    .fil1 {fill:none}
    .fil0 {fill:black}
   ]]>
  </style>
   <clipPath
   id="id0">
    <path
   id="path4"
   d="M 0,0 H 5233 V 5233 H 0 Z" />
   </clipPath>
 </defs>
 <g
   id="Layer_x0020_1">
  <metadata
   id="CorelCorpID_0Corel-Layer" />
  <g
   id="g10">
  </g>
  <g
   id="g19"
   clip-path="url(#id0)">
   <g
   id="g17">
    <g
   id="_2986314069664">
     <path
   style="fill:#000000"
   id="path12"
   d="m 3671,31 c -31,37 -73,69 -82,144 -15,120 14,616 -9,690 -39,17 -502,9 -586,7 -182,-6 -347,13 -519,31 -86,9 -162,21 -243,35 -52,9 -184,42 -224,41 -9,7 1,2 -18,11 -6,3 -14,6 -20,8 -13,4 -26,7 -39,10 -56,9 -110,33 -160,50 -42,15 -117,56 -152,56 l -256,152 c -101,56 -257,212 -329,302 -30,39 -57,83 -81,119 -20,56 -44,69 -69,130 l -63,127 c 0,-2 -2,4 -4,6 -3,43 -60,197 -73,273 -16,92 -43,204 -43,302 l -7,97 -3,134 2,139 c -1,58 13,88 4,144 13,14 54,220 56,233 9,54 43,108 40,163 9,11 1,-1 11,18 l 41,118 c 18,66 66,156 92,214 30,69 66,137 101,203 27,38 47,81 70,127 25,50 46,92 79,138 13,19 95,176 195,64 21,-23 28,-49 26,-93 -4,-71 -27,-140 -17,-211 -25,-31 -16,-122 -19,-170 -14,-172 0,-351 15,-517 8,-89 60,-390 109,-429 9,-98 131,-253 194,-320 49,-53 226,-205 299,-207 18,-21 10,-14 36,-24 39,-23 295,-106 343,-103 15,-13 38,-16 61,-19 26,-4 50,-8 73,-11 73,-2 168,-21 251,-28 112,-10 799,-29 822,-7 13,20 6,0 9,34 8,81 0,672 -1,682 31,29 19,51 67,94 27,23 71,40 104,55 167,13 235,-129 373,-269 l 423,-442 c 29,-30 68,-86 104,-105 16,-30 22,-37 46,-48 12,-25 197,-221 221,-232 12,-30 13,-34 46,-48 11,-34 116,-129 148,-166 53,-59 107,-92 118,-194 3,-64 -22,-112 -48,-153 -31,-47 -75,-69 -95,-115 L 4754,926 C 4593,748 4412,573 4257,400 L 4094,227 C 3895,29 3890,-49 3671,31 Z"
   class="fil0" />
     <path
   style="fill:#000000"
   id="path14"
   d="m 730,455 c -53,19 -87,23 -141,47 -53,23 -81,42 -128,65 C 359,662 309,658 175,854 40,1053 74,1087 14,1268 L 4,1409 3,2355 v 140 947 140 542 c -10,131 7,265 34,380 13,56 32,104 53,153 20,49 52,89 67,136 19,13 17,12 34,39 21,30 14,18 37,42 55,61 57,84 157,160 l 90,73 c 22,2 83,38 118,52 52,20 85,40 144,42 l 98,18 c 693,29 1515,4 2234,8 l 564,-1 c 49,-3 134,-19 173,-12 l 33,-17 c 14,-5 20,-5 35,-9 66,-17 139,-58 194,-79 36,-29 78,-50 115,-81 214,-185 263,-338 277,-352 l 51,-142 c 13,-47 26,-88 26,-141 21,-156 9,-343 10,-505 1,-176 -2,-352 -1,-528 l -5,-51 c -37,-21 -53,-50 -118,-46 -67,19 -134,133 -214,141 -17,33 -29,31 -56,46 -34,279 18,602 -20,891 -27,216 -237,431 -447,446 l -43,7 c -936,-8 -1883,23 -2813,-9 -163,-31 -310,-162 -373,-326 -41,-39 -41,-264 -43,-341 l -1,-124 v -420 -667 -420 -667 l 1,-416 c 9,-163 66,-327 198,-418 29,-28 64,-55 112,-72 3,-3 1,-4 13,-11 17,-10 -10,3 11,-5 14,-6 25,-7 40,-10 138,-55 450,9 558,-39 35,-16 68,-39 100,-57 l 207,-100 c 35,-16 72,-27 108,-40 44,-25 77,-16 90,-77 38,-182 -195,-142 -319,-142 -209,1 -418,-1 -627,1 l -50,3 z"
   class="fil0" />
    </g>
   </g>
  </g>
  <polygon
   style="fill:none"
   id="polygon21"
   points="5233,5233 0,5233 0,0 5233,0 "
   class="fil1" />
 </g>
</svg>