<?xml version="1.0" encoding="UTF-8" standalone="no"?>
<svg
   xmlns:dc="http://purl.org/dc/elements/1.1/"
   xmlns:cc="http://creativecommons.org/ns#"
   xmlns:rdf="http://www.w3.org/1999/02/22-rdf-syntax-ns#"
   xmlns:svg="http://www.w3.org/2000/svg"
   xmlns="http://www.w3.org/2000/svg"
   id="svg25"
   viewBox="0 0 1000.1937 1236.9583"
   style="clip-rule:evenodd;fill-rule:evenodd;image-rendering:optimizeQuality;shape-rendering:geometricPrecision;text-rendering:geometricPrecision"
   version="1.1"
   height="1.2369485in"
   width="1.0005132in"
   xml:space="preserve"><metadata
   id="metadata29"><rdf:RDF><cc:Work
       rdf:about=""><dc:format>image/svg+xml</dc:format><dc:type
         rdf:resource="http://purl.org/dc/dcmitype/StillImage" /></cc:Work></rdf:RDF></metadata>
 <defs
   id="defs4">
  <style
   id="style2"
   type="text/css">
   <![CDATA[
    .fil0 {fill:#3E4095}
   ]]>
  </style>
 </defs>
 <g
   transform="translate(-19.530884,-3.4512571)"
   id="Layer_x0020_1">
  <metadata
   id="CorelCorpID_0Corel-Layer" />
  <path
   style="fill:#3e4095"
   id="path7"
   d="m 185,928 c 35,25 83,18 109,-17 0,-1 0,-2 1,-2 4,15 13,29 27,38 32,24 77,16 100,-16 7,-9 11,-19 13,-30 2,3 5,5 8,7 30,22 72,15 93,-15 9,-12 13,-25 13,-38 28,19 68,12 88,-16 10,-14 13,-30 11,-45 26,14 58,7 75,-17 7,-8 10,-18 11,-29 5,8 12,14 18,19 17,12 54,29 85,40 20,6 38,10 51,10 41,13 63,26 66,41 4,21 -35,54 -73,85 -99,81 -208,186 -209,188 -2,2 -3,5 -2,9 13,52 109,97 113,99 4,3 10,1 12,-4 0,0 32,-59 89,-142 17,-26 34,-49 48,-69 66,-94 96,-137 86,-183 -10,-45 -79,-68 -97,-73 -5,-12 -14,-26 -26,-43 -19,-26 -47,-55 -64,-67 -7,-5 -14,-9 -22,-12 8,-4 16,-11 23,-19 17,-24 13,-57 -9,-76 16,-3 30,-12 40,-26 20,-28 14,-67 -13,-88 12,-4 23,-12 32,-24 21,-30 15,-72 -15,-94 -3,-2 -6,-3 -9,-5 9,-5 17,-12 24,-21 23,-33 16,-78 -16,-101 -14,-10 -30,-14 -45,-13 0,-1 0,-1 1,-2 C 847,142 839,93 804,68 774,46 732,50 706,74 704,53 693,32 674,18 639,-7 591,1 567,36 c -3,4 -6,8 -8,12 C 553,38 545,28 535,21 497,-6 445,2 418,40 405,58 400,81 404,102 363,78 309,88 281,128 c -18,25 -22,56 -13,83 -44,-19 -97,-6 -126,34 -29,40 -24,94 8,129 -29,1 -57,14 -75,39 -28,39 -21,94 15,125 -21,3 -41,15 -55,33 -27,38 -18,90 19,117 11,7 22,12 34,14 -3,3 -7,7 -10,11 -24,35 -17,83 18,108 19,13 42,17 63,12 -15,33 -5,73 26,95 z m 38,-520 c 33,1 66,-14 86,-43 21,-29 25,-65 13,-96 39,15 85,3 110,-32 16,-22 21,-50 16,-75 36,19 81,9 106,-25 3,-5 7,-11 9,-17 5,9 12,17 21,23 30,22 70,18 97,-5 1,22 12,43 32,57 16,11 34,16 52,14 -23,32 -15,77 17,100 4,3 8,5 12,7 -8,5 -15,11 -21,19 -21,30 -15,71 15,93 -11,4 -22,12 -29,22 -20,28 -15,67 12,88 -13,3 -24,11 -32,22 -19,26 -13,61 13,80 0,0 1,1 1,1 -11,3 -21,10 -28,20 -8,11 -11,26 -10,41 -1,-2 -3,-3 -5,-5 -25,-18 -61,-12 -80,13 -8,12 -11,25 -10,38 -29,-19 -67,-12 -87,16 -8,11 -12,23 -12,35 -30,-21 -72,-14 -93,16 -6,7 -10,16 -12,25 -3,-3 -6,-6 -10,-9 -32,-23 -77,-16 -100,15 -4,-17 -14,-33 -30,-44 -20,-14 -43,-18 -65,-13 15,-32 5,-72 -25,-93 -9,-7 -19,-11 -29,-13 5,-4 10,-9 14,-14 24,-34 19,-80 -10,-109 25,-2 50,-16 66,-38 25,-35 22,-82 -4,-114 z m 110,524 c -24,-17 -29,-50 -12,-74 13,-18 36,-25 57,-20 l -39,54 c -3,4 -2,10 2,13 5,3 11,2 14,-2 l 40,-56 c 23,17 28,50 12,73 -17,24 -50,29 -74,12 z m 188,-50 c -13,17 -35,24 -54,17 l 18,-25 c 3,-4 2,-10 -2,-13 -5,-3 -11,-2 -14,2 l -19,26 c -18,-16 -21,-43 -7,-63 15,-22 45,-27 67,-11 21,15 26,45 11,67 z m 100,-54 c -14,20 -42,25 -63,10 -20,-14 -24,-43 -10,-63 15,-20 43,-25 63,-10 20,14 25,43 10,63 z m 87,-62 c -13,17 -37,21 -54,9 -17,-12 -21,-36 -8,-53 12,-18 36,-21 53,-9 17,12 21,36 9,53 z m 56,-14 c -27,-19 -38,-60 -24,-80 16,-21 55,-17 80,1 6,5 13,11 22,20 l -36,51 c -3,4 -2,10 2,13 4,3 10,2 13,-2 l 34,-48 c 5,5 9,10 13,14 l -19,27 c -3,4 -2,10 2,13 4,3 10,2 13,-2 l 16,-22 c 27,36 29,54 26,58 -3,4 -20,8 -63,-7 -33,-10 -66,-27 -79,-36 z m 235,93 c 9,38 -20,79 -83,168 -14,20 -30,43 -48,69 -45,66 -75,117 -85,136 -6,-3 -13,-7 -21,-12 l 89,-123 c 3,-5 2,-11 -2,-14 -4,-3 -10,-2 -13,2 l -90,125 c -5,-3 -10,-7 -15,-10 l 44,-61 c 3,-4 2,-10 -3,-13 -4,-3 -10,-2 -13,2 l -43,60 c -3,-4 -7,-7 -10,-10 l 13,-18 c 3,-4 2,-10 -2,-13 -4,-3 -10,-2 -13,2 l -10,13 c -2,-2 -3,-5 -4,-8 21,-20 116,-111 203,-182 46,-38 86,-71 80,-104 -4,-18 -21,-33 -54,-46 1,-1 2,-1 2,-2 4,-5 5,-10 5,-17 26,9 67,29 73,56 z M 816,616 c -12,17 -36,21 -53,8 -17,-12 -21,-36 -9,-53 12,-17 36,-21 53,-9 18,13 21,37 9,54 z m 31,-102 c -14,20 -43,25 -63,11 -1,-1 -1,-2 -2,-2 l 17,-25 c 4,-4 3,-10 -2,-13 -4,-3 -10,-2 -13,2 l -14,20 c -7,-14 -6,-32 4,-45 15,-21 43,-25 63,-11 20,15 25,43 10,63 z m 19,-112 c -15,21 -45,26 -67,11 -21,-16 -26,-46 -10,-67 15,-22 45,-26 66,-11 3,1 4,3 6,5 l -20,28 c -3,4 -2,10 2,13 5,3 11,2 14,-2 l 15,-22 c 6,15 4,31 -6,45 z m 1,-121 c -17,24 -50,29 -74,12 -24,-17 -29,-50 -12,-73 17,-24 50,-29 74,-12 23,17 29,50 12,73 z M 793,84 c 0,0 0,0 0,0 l -29,40 c -3,5 -2,11 2,14 4,3 10,2 13,-3 l 28,-37 c 14,20 14,47 -1,68 -19,26 -56,32 -82,13 -26,-19 -32,-56 -13,-82 19,-26 56,-32 82,-13 z M 663,34 c 26,18 32,55 13,80 -19,26 -55,32 -81,14 C 569,109 563,73 582,47 601,21 637,15 663,34 Z M 434,51 c 20,-29 61,-35 89,-15 29,21 36,61 15,90 -21,29 -61,35 -90,15 -28,-21 -35,-61 -14,-90 z m -138,88 c 24,-33 71,-41 104,-17 33,24 41,71 17,104 -9,12 -20,20 -33,25 l 36,-49 c 3,-5 2,-11 -2,-14 -5,-3 -11,-2 -14,3 l -47,66 c -4,0 -8,-1 -12,-1 l 30,-43 c 3,-4 2,-10 -2,-13 -4,-3 -10,-2 -13,2 l -35,48 c -4,-2 -8,-5 -12,-7 -33,-24 -41,-71 -17,-104 z M 158,256 c 27,-38 79,-46 117,-19 37,27 46,79 19,117 -27,37 -80,46 -117,19 -1,0 -1,-1 -2,-1 l 18,-26 c 3,-4 2,-10 -2,-13 -4,-3 -10,-2 -13,2 l -17,23 c -4,-4 -7,-9 -10,-15 l 35,-48 c 3,-4 2,-10 -2,-13 -5,-3 -10,-2 -14,2 l -26,37 c -5,-22 0,-45 14,-65 z M 91,424 c 24,-33 70,-41 103,-17 8,5 14,12 18,18 l -45,63 c -3,5 -2,11 2,14 4,3 10,2 13,-3 l 40,-54 c 7,22 4,46 -11,66 -24,33 -70,41 -103,17 -8,-6 -14,-12 -19,-19 l 44,-60 c 3,-5 2,-11 -2,-14 -4,-3 -10,-2 -14,2 L 80,489 C 74,468 77,444 91,424 Z M 51,582 c 21,-28 61,-35 90,-14 28,21 35,61 14,90 -21,28 -61,35 -90,14 -1,-1 -3,-2 -4,-4 l 41,-56 c 3,-5 2,-11 -3,-14 -4,-3 -10,-2 -13,2 L 48,653 C 35,632 35,604 51,582 Z m 56,223 C 81,787 75,750 94,724 c 19,-25 55,-31 81,-13 26,19 31,55 13,81 -19,26 -55,32 -81,13 z m 75,26 c 19,-27 56,-33 83,-14 26,19 32,56 13,82 -19,27 -56,33 -82,14 -27,-19 -33,-56 -14,-82 z"
   class="fil0" />
  <g
   id="_3242236954960">
  </g>
  <g
   id="_3242236955600">
  </g>
  <g
   id="_3242236955664">
  </g>
  <g
   id="_3242236955824">
  </g>
  <g
   id="_3242236954096">
  </g>
  <g
   id="_3242236953872">
  </g>
  <g
   id="_3242236953616">
  </g>
  <g
   id="_3242236952752">
  </g>
  <g
   id="_3242236952944">
  </g>
  <g
   id="_3242236953904">
  </g>
  <g
   id="_3242236954128">
  </g>
  <g
   id="_3242236951376">
  </g>
  <g
   id="_3242236950288">
  </g>
  <g
   id="_3242236952112">
  </g>
  <g
   id="_3242236951312">
  </g>
 </g>
</svg>