<?xml version="1.0" encoding="UTF-8" standalone="no"?>
<svg
   xmlns:dc="http://purl.org/dc/elements/1.1/"
   xmlns:cc="http://creativecommons.org/ns#"
   xmlns:rdf="http://www.w3.org/1999/02/22-rdf-syntax-ns#"
   xmlns:svg="http://www.w3.org/2000/svg"
   xmlns="http://www.w3.org/2000/svg"
   id="svg41"
   viewBox="0 0 695.15303 623.40974"
   style="clip-rule:evenodd;fill-rule:evenodd;image-rendering:optimizeQuality;shape-rendering:geometricPrecision;text-rendering:geometricPrecision"
   version="1.1"
   height="0.62374097in"
   width="0.69481492in"
   xml:space="preserve"><metadata
   id="metadata45"><rdf:RDF><cc:Work
       rdf:about=""><dc:format>image/svg+xml</dc:format><dc:type
         rdf:resource="http://purl.org/dc/dcmitype/StillImage" /></cc:Work></rdf:RDF></metadata>
 <defs
   id="defs4">
  <style
   id="style2"
   type="text/css">
   <![CDATA[
    .fil1 {fill:#FEFEFE}
    .fil2 {fill:#F4F5F6}
    .fil0 {fill:#0F5934}
    .fil3 {fill:#1B7A4A}
    .fil4 {fill:#EBF0F3}
   ]]>
  </style>
 </defs>
 <g
   transform="translate(-1,1.7273247)"
   id="Layer_x0020_1">
  <metadata
   id="CorelCorpID_0Corel-Layer" />
  <g
   id="_1742617123568">
   <path
   style="fill:#0f5934"
   id="path7"
   d="M 358,-2 35,1 C 16,1 1,17 1,36 l 5,552 c 1,19 17,34 36,34 l 323,-3 c 19,0 35,-16 34,-36 L 394,32 C 393,13 378,-3 358,-2 Z"
   class="fil0" />
   <path
   style="fill:#fefefe"
   id="path9"
   d="m 41,529 c -1,0 -1,0 -1,0 L 35,61 c 0,-1 0,-1 1,-1 l 323,-3 c 0,0 1,0 1,1 l 5,467 c 0,1 -1,1 -1,1 z"
   class="fil1" />
   <g
   id="g15">
    <path
   style="fill:#f4f5f6"
   id="path11"
   d="m 203,607 c -17,0 -31,-14 -31,-31 -1,-17 13,-31 30,-32 18,0 32,14 32,31 0,18 -14,32 -31,32 z m 0,-51 c -11,0 -20,9 -20,20 0,11 9,20 20,20 11,0 20,-10 20,-21 0,-10 -9,-19 -20,-19 z"
   class="fil2" />
    <path
   style="fill:#f4f5f6"
   id="path13"
   d="m 250,36 -105,1 c -3,0 -5,-2 -5,-5 v -7 c 0,-3 2,-5 4,-5 l 106,-1 c 2,0 4,2 4,5 l 1,7 c 0,3 -3,5 -5,5 z"
   class="fil2" />
   </g>
   <g
   id="g25">
    <polygon
   style="fill:#0f5934"
   id="polygon17"
   points="114,222 117,234 57,248 54,236 "
   class="fil0" />
    <polygon
   style="fill:#0f5934"
   id="polygon19"
   points="123,266 126,278 58,295 55,283 "
   class="fil0" />
    <polygon
   style="fill:#0f5934"
   id="polygon21"
   points="131,310 134,321 58,341 55,330 "
   class="fil0" />
    <polygon
   style="fill:#0f5934"
   id="polygon23"
   points="139,350 142,362 59,388 55,376 "
   class="fil0" />
   </g>
   <rect
   style="fill:#1b7a4a"
   y="0"
   x="0"
   id="rect27"
   height="3293"
   width="6470"
   transform="matrix(-0.0796874,0.0161874,-0.0161874,-0.0796874,696.153,307.932)"
   class="fil3" />
   <path
   style="fill:#fefefe"
   id="path29"
   d="M 206,359 172,189 c 11,-2 18,-13 16,-23 L 593,83 c 3,11 13,18 24,16 l 35,170 c -11,2 -18,13 -16,24 l -406,82 c -2,-11 -13,-18 -24,-16 z"
   class="fil1" />
   <ellipse
   style="fill:#1b7a4a"
   cy="0"
   cx="0"
   id="ellipse31"
   ry="887"
   rx="1123"
   transform="matrix(-0.015078,-0.0742259,0.0742259,-0.015078,411.739,229.089)"
   class="fil3" />
   <circle
   style="fill:#1b7a4a"
   cy="0"
   cx="0"
   id="circle33"
   r="201"
   transform="matrix(0.106383,-0.00111354,0.00111354,0.106383,247.57,266.75)"
   class="fil3" />
   <path
   style="fill:#ebf0f3"
   id="path35"
   d="m 422,297 -3,-12 c -15,2 -29,-2 -43,-9 l 9,-17 c 11,6 21,9 31,8 l -7,-31 c -12,0 -22,-2 -29,-6 -6,-4 -11,-10 -13,-19 -1,-10 0,-18 6,-25 5,-8 13,-13 23,-15 l -1,-8 10,-2 2,8 c 12,-2 24,0 36,5 l -8,17 c -8,-3 -16,-5 -25,-5 l 6,31 h 1 c 13,0 23,2 30,6 6,4 11,11 13,20 2,9 0,18 -6,25 -5,7 -13,12 -24,15 l 2,12 z M 389,195 c -2,3 -3,6 -2,10 1,3 2,6 5,8 2,1 7,2 13,3 l -5,-28 c -5,2 -9,4 -11,7 z m 49,64 c 2,-3 3,-7 2,-10 0,-4 -2,-7 -5,-9 -3,-1 -8,-3 -15,-3 l 6,29 c 5,-2 9,-4 12,-7 z"
   class="fil4" />
   <circle
   style="fill:#1b7a4a"
   cy="0"
   cx="0"
   id="circle37"
   r="201"
   transform="matrix(0.106383,-0.00111354,0.00111354,0.106383,569.344,195.854)"
   class="fil3" />
  </g>
 </g>
</svg>