<?xml version="1.0" encoding="UTF-8" standalone="no"?>
<svg
   xmlns:dc="http://purl.org/dc/elements/1.1/"
   xmlns:cc="http://creativecommons.org/ns#"
   xmlns:rdf="http://www.w3.org/1999/02/22-rdf-syntax-ns#"
   xmlns:svg="http://www.w3.org/2000/svg"
   xmlns="http://www.w3.org/2000/svg"
   id="svg29"
   viewBox="0 0 675.99999 563.38637"
   style="clip-rule:evenodd;fill-rule:evenodd;image-rendering:optimizeQuality;shape-rendering:geometricPrecision;text-rendering:geometricPrecision"
   version="1.1"
   height="0.5637176in"
   width="0.6756615in"
   xml:space="preserve"><metadata
   id="metadata33"><rdf:RDF><cc:Work
       rdf:about=""><dc:format>image/svg+xml</dc:format><dc:type
         rdf:resource="http://purl.org/dc/dcmitype/StillImage" /></cc:Work></rdf:RDF></metadata>
 <defs
   id="defs4">
  <style
   id="style2"
   type="text/css">
   <![CDATA[
    .fil0 {fill:#11623A}
    .fil3 {fill:white}
    .fil2 {fill:#168557;fill-rule:nonzero}
    .fil1 {fill:#CFCFCF;fill-rule:nonzero}
   ]]>
  </style>
 </defs>
 <g
   transform="translate(4,-2.3066094)"
   id="Layer_x0020_1">
  <metadata
   id="CorelCorpID_0Corel-Layer" />
  <g
   id="_1742620618736">
   <g
   id="g11">
    <rect
   style="fill:#11623a"
   id="rect7"
   height="151"
   width="462"
   y="64"
   x="70"
   class="fil0" />
    <polygon
   style="fill:#11623a"
   id="polygon9"
   points="523,2 523,141 523,280 598,211 672,141 598,72 "
   class="fil0" />
   </g>
   <g
   id="g17">
    <rect
   style="fill:#11623a"
   id="rect13"
   height="151"
   width="462"
   y="349"
   x="137"
   class="fil0" />
    <polygon
   style="fill:#11623a"
   id="polygon15"
   points="146,288 146,427 146,566 71,497 -4,427 71,358 "
   class="fil0" />
   </g>
   <g
   id="g25">
    <path
   style="fill:#cfcfcf;fill-rule:nonzero"
   id="path19"
   d="m 478,286 c -3,23 -7,48 -20,69 -22,34 -59,62 -100,67 -7,4 -16,3 -23,3 -61,1 -119,-39 -140,-96 -10,-40 -10,-84 11,-120 27,-52 87,-80 143,-76 31,7 61,17 84,40 23,20 36,49 44,79 1,11 1,22 1,34 z"
   class="fil1" />
    <path
   style="fill:#168557;fill-rule:nonzero"
   id="path21"
   d="m 462,287 c -3,21 -6,43 -18,61 -19,31 -52,55 -89,60 -6,3 -13,1 -21,2 -53,1 -104,-35 -124,-85 -8,-36 -8,-75 10,-107 24,-46 78,-70 127,-67 28,6 55,15 74,36 21,17 32,44 40,69 1,10 1,20 1,31 z"
   class="fil2" />
    <path
   style="fill:#ffffff"
   id="path23"
   d="m 283,347 z m 64,-144 v -15 h -23 v 15 c -21,3 -45,15 -49,38 -6,21 7,45 28,51 17,4 33,6 47,15 -6,10 -19,10 -30,9 -12,-4 -24,-12 -36,-18 -5,13 -11,26 -16,39 l 15,10 c 13,4 26,6 38,8 v 16 c 9,0 17,0 26,0 v -17 c 17,-3 34,-9 45,-24 10,-18 10,-43 -6,-58 -17,-13 -39,-8 -56,-16 -5,-2 -5,-8 -5,-12 17,-7 35,-1 50,9 5,-13 11,-25 17,-37 -13,-9 -29,-11 -45,-13 z"
   class="fil3" />
   </g>
  </g>
 </g>
</svg>