<?xml version="1.0" encoding="UTF-8" standalone="no"?>
<svg
   xmlns:dc="http://purl.org/dc/elements/1.1/"
   xmlns:cc="http://creativecommons.org/ns#"
   xmlns:rdf="http://www.w3.org/1999/02/22-rdf-syntax-ns#"
   xmlns:svg="http://www.w3.org/2000/svg"
   xmlns="http://www.w3.org/2000/svg"
   id="svg49"
   viewBox="0 0 678.00001 682.32733"
   style="clip-rule:evenodd;fill-rule:evenodd;image-rendering:optimizeQuality;shape-rendering:geometricPrecision;text-rendering:geometricPrecision"
   version="1.1"
   height="0.68265802in"
   width="0.67766052in"
   xml:space="preserve"><metadata
   id="metadata53"><rdf:RDF><cc:Work
       rdf:about=""><dc:format>image/svg+xml</dc:format><dc:type
         rdf:resource="http://purl.org/dc/dcmitype/StillImage" /></cc:Work></rdf:RDF></metadata>
 <defs
   id="defs9">
  <style
   id="style2"
   type="text/css">
   <![CDATA[
    .str0 {stroke:#332C2B;stroke-width:7.87795}
    .fil5 {fill:#FEFEFE}
    .fil1 {fill:#11623A;fill-rule:nonzero}
    .fil3 {fill:#332C2B;fill-rule:nonzero}
    .fil2 {fill:#DFF5E9;fill-rule:nonzero}
    .fil6 {fill:#E62129;fill-rule:nonzero}
    .fil4 {fill:#FEFEFE;fill-rule:nonzero}
    .fil0 {fill:url(#id0);fill-opacity:0.600000}
   ]]>
  </style>
  <radialGradient
   fy="287"
   fx="354.681"
   r="341.66501"
   cy="287"
   cx="354.681"
   gradientTransform="matrix(1.37296,0,0,1.38391,-132,-110)"
   gradientUnits="userSpaceOnUse"
   id="id0">
   <stop
   id="stop4"
   style="stop-opacity:1; stop-color:white"
   offset="0" />
   <stop
   id="stop6"
   style="stop-opacity:1; stop-color:#2CC970"
   offset="1" />
  </radialGradient>
 </defs>
 <g
   transform="translate(-2,-0.33666981)"
   id="Layer_x0020_1">
  <metadata
   id="CorelCorpID_0Corel-Layer" />
  <g
   id="_1742621628720">
   <path
   style="fill:url(#id0);fill-opacity:0.6"
   d="M 680,342 C 680,153 528,0 341,0 154,0 2,153 2,342 2,530 154,683 341,683 528,683 680,530 680,342 Z"
   class="fil0"
   id="circle17" />
   <g
   id="g45">
    <path
   style="fill:#11623a;fill-rule:nonzero"
   d="m 287,94 c 18,15 38,29 57,45 -20,4 -40,7 -60,10 -18,-14 -37,-29 -56,-44 -3,-2 -5,-4 -8,-6 -1,0 -1,-1 -2,-1 l -2,-1 c -15,2 -29,5 -44,7 1,-5 7,-4 11,-5 11,-1 21,-4 32,-5 26,-1 51,-9 77,-14 16,-1 32,-7 49,-7 15,-1 30,-4 44,-7 20,-6 41,-12 62,-10 -15,3 -31,4 -46,9 1,1 4,3 5,3 l 3,3 c 1,1 2,1 3,2 18,15 37,29 56,44 -20,4 -40,7 -60,11 -18,-15 -37,-30 -56,-44 -3,-2 -5,-4 -8,-6 0,-1 -1,-1 -2,-1 l -2,-2 c -21,4 -43,6 -63,12 l 3,2 c 2,1 4,3 7,5 z M 533,48 c 0,0 1,1 1,1 19,15 38,31 57,46 -20,4 -40,7 -59,11 -19,-15 -37,-30 -55,-44 -3,-2 -6,-4 -9,-6 0,0 0,-1 -1,-1 l -2,-3 c -4,1 -8,1 -11,2 l -2,-2 c 27,-5 55,-8 81,-15 16,-3 31,-7 47,-5 -18,3 -37,6 -56,9 1,1 3,3 4,3 l 1,2 4,2 v 0 z"
   class="fil1"
   id="path16" />
    <path
   style="fill:#11623a;fill-rule:nonzero"
   d="m 528,191 c 0,-1 1,-1 1,-1 1,-2 4,-4 5,-6 l 3,-2 c 19,3 39,-2 57,3 -2,2 -4,5 -6,7 -16,17 -32,34 -47,52 -20,1 -41,0 -61,0 16,-18 32,-35 48,-53 z m -174,53 c 17,-18 33,-36 49,-54 l 1,-1 c 2,-2 5,-5 7,-7 19,2 39,0 58,2 -1,1 -3,3 -4,5 -1,1 -2,2 -4,4 -15,17 -31,34 -46,51 -20,0 -40,0 -61,0 z"
   class="fil1"
   id="path18" />
    <path
   style="fill:#dff5e9;fill-rule:nonzero"
   d="m 468,57 c 3,2 6,4 9,6 18,14 36,28 55,43 -22,4 -43,7 -64,11 -19,-15 -38,-29 -56,-44 -1,-1 -2,-1 -3,-2 l -3,-2 c 20,-7 41,-8 61,-13 1,0 1,1 2,1 z m 61,-11 c 17,-6 34,-8 52,-10 -1,1 -2,4 -3,5 -14,4 -29,5 -44,8 0,0 -1,-1 -1,-1 z"
   class="fil2"
   id="path20" />
    <path
   style="fill:#332c2b;fill-rule:nonzero"
   d="m 585,61 c 6,0 11,-1 16,-2 5,21 9,42 11,63 -107,18 -213,38 -320,56 -1,1 -4,1 -6,1 0,1 -1,3 -1,4 v 0 l -2,-2 c -4,-1 -8,-1 -12,-1 -20,0 -41,0 -61,1 -4,-5 -8,-10 -12,-15 2,-1 5,-2 8,-2 4,-2 9,-3 14,-4 21,-2 43,-7 64,-11 20,-3 40,-6 60,-10 21,-4 43,-8 64,-11 20,-4 40,-7 60,-11 21,-4 42,-7 64,-11 19,-4 39,-7 59,-11 -1,-11 -4,-22 -6,-34 v 0 z"
   class="fil3"
   id="path22" />
    <path
   style="fill:#332c2b;fill-rule:nonzero"
   d="m 598,207 c 7,0 14,0 22,1 0,21 0,42 -1,62 -4,1 -9,1 -14,1 0,3 0,6 0,9 0,97 0,195 0,292 0,9 -7,16 -16,16 -142,0 -285,0 -428,0 -6,0 -15,1 -20,-5 -5,-6 -4,-15 -3,-22 143,0 287,0 430,0 9,1 17,-9 15,-17 0,-100 0,-200 0,-299 5,-1 10,-1 15,-1 0,-12 0,-24 0,-37 z"
   class="fil3"
   id="path24" />
    <path
   style="fill:#fefefe;fill-rule:nonzero"
   d="m 342,77 c 1,0 2,0 2,1 3,2 5,4 8,6 19,14 38,29 56,44 -21,3 -43,7 -64,11 -19,-16 -38,-30 -57,-45 -3,-2 -5,-4 -7,-5 l -3,-2 c 20,-6 42,-8 63,-12 z m 129,105 c 11,-2 22,-1 34,-1 10,0 21,-1 32,1 l -3,2 c -21,1 -41,1 -62,0 z M 172,104 c 15,-2 29,-5 44,-7 l 2,1 c 1,0 1,1 2,1 3,2 5,4 8,6 19,15 38,30 56,44 -21,4 -43,9 -64,11 -20,-16 -41,-32 -61,-48 -2,-1 -5,-3 -6,-4 5,-1 10,-2 16,-3 1,0 2,-1 3,-1 v 0 z M 454,55 c 3,-1 7,-1 11,-2 l 2,3 c -20,5 -41,6 -61,12 -1,0 -4,-2 -5,-3 15,-5 31,-6 46,-9 2,0 5,-1 7,-1 z m -338,56 c 11,-1 23,-3 33,3 -11,-1 -22,-3 -33,-1 -7,2 -13,7 -19,11 -1,29 0,59 0,88 -1,10 1,21 7,29 7,5 15,8 23,8 1,100 0,200 1,300 2,-2 4,-5 5,-9 20,-61 60,-115 109,-156 5,-5 12,-8 12,-16 2,-21 12,-42 28,-57 27,-28 74,-35 108,-15 4,3 8,6 12,7 5,0 9,-2 14,-3 51,-11 104,-12 155,-5 0,-17 1,-34 0,-50 -10,-1 -20,-1 -30,-1 15,-18 31,-35 47,-52 2,-2 4,-5 6,-7 1,-1 3,-3 4,-5 -1,9 0,18 0,27 0,13 0,25 0,37 -5,0 -10,0 -15,1 0,99 0,199 0,299 2,8 -6,18 -15,17 -143,0 -287,0 -430,0 -10,2 -23,-3 -22,-15 0,-99 0,-198 0,-298 -6,-1 -12,-4 -16,-9 -3,-4 -6,-10 -5,-15 -1,-27 0,-53 -1,-80 0,-8 2,-17 -1,-24 2,0 4,1 6,1 5,-4 10,-9 17,-10 v 0 z m -3,13 c 13,-3 30,-5 39,7 15,17 30,35 45,52 10,11 12,27 11,41 0,7 -7,13 -14,12 -25,0 -51,1 -77,0 -9,0 -13,-9 -12,-17 0,-26 0,-53 0,-79 -1,-7 2,-13 8,-16 z m 101,64 v 0 c 21,3 43,1 64,2 -16,18 -33,36 -49,54 -7,0 -14,0 -20,0 3,-5 8,-9 9,-16 2,-13 0,-27 -4,-40 z m 115,12 c 4,-4 7,-8 11,-12 7,2 15,2 22,2 14,0 28,1 42,-1 l -1,1 c -16,18 -32,36 -49,54 -21,0 -42,1 -64,0 13,-15 26,-29 39,-44 z m 132,-7 c 2,-2 3,-3 4,-4 21,3 42,-1 63,2 -16,18 -32,35 -48,53 -22,1 -43,0 -65,0 15,-17 31,-34 46,-51 z m -86,119 c 0,-3 0,-5 1,-8 3,2 6,3 9,5 33,18 48,62 34,97 -14,36 -57,58 -94,47 -38,-10 -64,-51 -57,-89 1,-5 2,-9 3,-14 2,3 3,6 4,9 11,-7 22,-13 33,-19 1,-6 1,-12 6,-16 5,-2 11,3 16,5 15,-6 29,-13 45,-17 v 0 z M 524,41 c 19,-3 38,-6 56,-9 1,9 4,20 5,29 2,12 4,23 6,34 -19,-15 -38,-30 -57,-45 15,-3 30,-4 44,-8 1,-1 2,-4 3,-5 -18,2 -35,4 -52,10 l -1,-2 c -1,0 -3,-2 -4,-3 v 0 z M 314,338 v 0 c 0,27 0,55 0,82 0,3 1,5 4,6 23,-13 47,-27 70,-41 5,-2 10,-4 12,-9 -6,-5 -14,-9 -21,-13 -20,-11 -40,-24 -62,-35 -4,1 -2,7 -3,10 v 0 z M 125,136 v 0 c -4,3 -6,9 -3,13 2,7 16,6 16,-3 2,-7 -6,-13 -13,-10 z m 0,72 v 0 c -7,4 -6,15 2,17 5,2 11,-3 11,-8 1,-7 -8,-14 -13,-9 z m 62,18 v 0 c 12,0 11,-19 0,-20 -11,1 -11,20 0,20 z m 117,74 v 0 c -25,13 -42,39 -45,67 -4,30 10,62 34,80 23,17 54,22 81,12 23,-7 42,-25 51,-46 18,-38 4,-88 -32,-109 l 1,-1 c -27,-16 -63,-18 -90,-3 z M 171,498 v 0 c 0,1 -1,3 -1,4 30,0 60,0 89,0 1,13 0,26 0,39 2,0 4,0 5,0 0,-13 0,-26 0,-39 54,0 107,0 160,0 1,13 0,26 0,39 2,0 4,0 5,0 0,-13 0,-26 0,-39 30,0 60,0 90,0 0,-1 0,-3 0,-4 -116,0 -232,-1 -348,0 z"
   class="fil4"
   id="path26" />
    <g
   id="g30">
     <path
   style="fill:#11623a;fill-rule:nonzero"
   d="m 136,108 c 11,1 21,-4 33,-3 -6,1 -11,2 -16,3 1,1 4,3 6,4 20,16 41,32 61,48 -5,1 -10,2 -14,4 -4,0 -9,3 -11,-1 -10,-10 -19,-21 -28,-32 -5,-6 -10,-13 -18,-17 -10,-6 -22,-4 -33,-3 -7,1 -12,6 -17,10 -2,-1 -4,-1 -6,-1 3,7 1,16 1,24 1,27 0,53 1,80 -1,5 2,11 5,15 -5,-1 -7,-6 -7,-11 0,-31 0,-62 0,-93 0,-7 -2,-13 -1,-20 2,0 7,1 9,2 8,-11 23,-8 35,-9 v 0 z"
   class="fil1"
   id="path28" />
    </g>
    <g
   id="g36">
     <g
   id="g34">
      <path
   style="fill:#11623a;fill-rule:nonzero"
   d="m 116,113 c 11,-2 22,0 33,1 8,4 13,11 18,17 9,11 18,22 28,32 2,4 7,1 11,1 -3,0 -6,1 -8,2 4,5 8,10 12,15 1,2 2,5 4,7 4,13 6,27 4,40 -1,7 -6,11 -9,16 6,0 13,0 20,0 20,0 41,1 61,0 22,1 43,0 64,0 20,0 41,0 61,0 22,0 43,1 65,0 20,0 41,1 61,0 10,0 20,0 30,1 1,16 0,33 0,50 -51,-7 -104,-6 -155,5 -5,1 -9,3 -14,3 -4,-1 -8,-4 -12,-7 -34,-20 -81,-13 -109,15 -15,15 -25,36 -27,57 0,8 -7,11 -12,16 -49,41 -89,95 -109,156 -1,4 -3,7 -5,9 -1,-100 0,-200 -1,-300 -8,0 -16,-3 -23,-8 -6,-8 -8,-19 -7,-29 0,-29 -1,-59 0,-88 6,-4 12,-9 19,-11 v 0 z m -3,11 v 0 c -6,3 -9,9 -8,16 0,26 0,53 0,79 -1,8 3,17 12,17 26,1 52,0 77,0 7,1 14,-5 14,-12 1,-14 -1,-30 -11,-41 -15,-17 -30,-35 -45,-52 -9,-12 -26,-10 -39,-7 z m 56,136 v 0 c 3,1 6,2 9,1 110,0 220,0 330,0 2,1 4,0 7,-2 -4,-1 -7,-1 -10,-1 -110,0 -220,0 -329,0 -3,0 -6,0 -7,2 z"
   class="fil1"
   id="path32" />
     </g>
    </g>
    <g
   id="g40">
     <path
   style="fill:#11623a;fill-rule:nonzero"
   d="m 125,136 c 7,-3 15,3 13,10 0,9 -14,10 -16,3 -3,-4 -1,-10 3,-13 z"
   class="fil1"
   id="path38" />
    </g>
    <g
   id="g46">
     <path
   style="fill:#11623a;fill-rule:nonzero"
   d="m 210,181 c 20,-1 41,-1 61,-1 4,0 8,0 12,1 -21,-1 -41,0 -62,0 0,1 -2,2 -3,3 -1,2 -3,3 -4,4 v 0 c -2,-2 -3,-5 -4,-7 z"
   class="fil1"
   id="path42" />
     <path
   style="fill:#11623a;fill-rule:nonzero"
   d="m 171,498 c 116,-1 232,0 348,0 0,1 0,3 0,4 -30,0 -60,0 -90,0 0,13 0,26 0,39 -1,0 -3,0 -5,0 1,-13 1,-26 0,-39 -53,0 -106,0 -160,0 0,13 0,26 0,39 -1,0 -3,0 -5,0 0,-13 1,-26 0,-39 -29,0 -59,0 -89,0 0,-1 1,-3 1,-4 z"
   class="fil1"
   id="path44" />
    </g>
    <g
   id="g50">
     <path
   style="fill:#fefefe;fill-rule:nonzero"
   d="m 344,183 c 4,-3 9,-2 14,-2 17,0 34,-1 51,0 l 2,1 c -2,2 -5,5 -7,7 -14,2 -28,1 -42,1 -7,0 -15,0 -22,-2 1,-1 3,-4 4,-5 z"
   class="fil4"
   id="path48" />
    </g>
    <g
   id="g56">
     <path
   style="fill:#fefefe;fill-rule:nonzero"
   d="m 469,184 c 1,-1 1,-2 2,-2 l 1,2 c 21,1 41,1 62,0 -1,2 -4,4 -5,6 0,0 -1,0 -1,1 -21,-3 -42,1 -63,-2 1,-2 3,-4 4,-5 z"
   class="fil4"
   id="path52" />
     <path
   style="fill:#fefefe;fill-rule:nonzero"
   d="m 214,188 c 1,-1 3,-2 4,-4 15,1 31,0 46,1 7,0 14,0 21,-2 -3,2 -5,5 -7,7 v 0 c -21,-1 -43,2 -64,-2 z"
   class="fil4"
   id="path54" />
    </g>
    <path
   style="fill:#11623a;fill-rule:nonzero"
   d="m 285,183 v 0 c 0,-1 1,-3 1,-4 2,0 5,0 6,-1 16,1 31,2 47,1 21,-2 42,-1 63,-1 45,4 91,-3 136,0 20,4 41,-2 60,2 -1,2 -3,4 -4,5 -18,-5 -38,0 -57,-3 -11,-2 -22,-1 -32,-1 -12,0 -23,-1 -34,1 -1,0 -1,1 -2,2 -19,-2 -39,0 -58,-2 l -2,-1 c -17,-1 -34,0 -51,0 -5,0 -10,-1 -14,2 -1,1 -3,4 -4,5 -4,4 -7,8 -11,12 -13,15 -26,29 -39,44 -20,1 -41,0 -61,0 16,-18 33,-36 49,-54 v 0 c 2,-2 4,-5 7,-7 -7,2 -14,2 -21,2 -15,-1 -31,0 -46,-1 1,-1 3,-2 3,-3 21,0 41,-1 62,0 l 2,2 z"
   class="fil1"
   id="path58" />
    <path
   style="fill:#11623a;fill-rule:nonzero"
   d="m 125,208 c 5,-5 14,2 13,9 0,5 -6,10 -11,8 -8,-2 -9,-13 -2,-17 z"
   class="fil1"
   id="path60" />
    <g
   id="g64">
     <path
   style="fill:#11623a;fill-rule:nonzero"
   d="m 187,226 c -11,0 -11,-19 0,-20 11,1 12,20 0,20 z"
   class="fil1"
   id="path62" />
    </g>
    <g
   id="g68">
     <path
   style="fill:#fefefe;fill-rule:nonzero"
   d="m 169,260 c 1,-2 4,-2 7,-2 109,0 219,0 329,0 3,0 6,0 10,1 -3,2 -5,3 -8,2 -109,0 -219,0 -329,0 -3,1 -6,0 -9,-1 z"
   class="fil4"
   id="path66" />
    </g>
    <g
   id="g72">
     <path
   style="fill:#11623a;fill-rule:nonzero"
   d="m 323,301 c 17,-5 36,-4 53,3 -1,3 -1,5 -1,8 -16,4 -30,11 -45,17 -5,-2 -11,-7 -16,-5 -5,4 -5,10 -6,16 -11,6 -22,12 -33,19 -1,-3 -2,-6 -4,-9 9,-23 28,-42 52,-49 z"
   class="fil1"
   id="path70" />
    </g>
    <path
   style="fill:#fefefe;fill-rule:nonzero"
   d="m 393,304 c 36,21 50,71 32,109 -9,21 -28,39 -51,46 -27,10 -58,5 -81,-12 -24,-18 -38,-50 -34,-80 3,-28 20,-54 45,-67 27,-15 63,-13 90,3 z m -125,60 c -7,38 19,79 57,89 37,11 80,-11 94,-47 14,-35 -1,-79 -34,-97 -3,-2 -6,-3 -9,-5 -17,-7 -36,-8 -53,-3 -24,7 -43,26 -52,49 -1,5 -2,9 -3,14 z"
   class="fil4"
   id="path74" />
    <circle
   style="fill:#fefefe;stroke:#332c2b;stroke-width:7.87795019"
   r="84"
   cy="377"
   cx="345"
   class="fil5 str0"
   id="circle76" />
    <path
   style="fill:#e62129;fill-rule:nonzero"
   d="m 314,338 c 1,-3 -1,-9 3,-10 22,11 42,24 62,35 7,4 15,8 21,13 -2,5 -7,7 -12,9 -23,14 -47,28 -70,41 -3,-1 -4,-3 -4,-6 0,-27 0,-55 0,-82 v 0 z"
   class="fil6"
   id="path78" />
   </g>
  </g>
 </g>
</svg>