<?xml version="1.0" encoding="UTF-8" standalone="no"?>
<svg
   xmlns:dc="http://purl.org/dc/elements/1.1/"
   xmlns:cc="http://creativecommons.org/ns#"
   xmlns:rdf="http://www.w3.org/1999/02/22-rdf-syntax-ns#"
   xmlns:svg="http://www.w3.org/2000/svg"
   xmlns="http://www.w3.org/2000/svg"
   id="svg30"
   viewBox="0 0 5233 5233"
   style="clip-rule:evenodd;fill-rule:evenodd;image-rendering:optimizeQuality;shape-rendering:geometricPrecision;text-rendering:geometricPrecision"
   version="1.1"
   height="5.2333298in"
   width="5.2333298in"
   xml:space="preserve"><metadata
   id="metadata34"><rdf:RDF><cc:Work
       rdf:about=""><dc:format>image/svg+xml</dc:format><dc:type
         rdf:resource="http://purl.org/dc/dcmitype/StillImage" /></cc:Work></rdf:RDF></metadata>
 <defs
   id="defs7">
  <style
   id="style2"
   type="text/css">
   <![CDATA[
    .fil3 {fill:none}
    .fil0 {fill:#282626}
    .fil2 {fill:#454444}
    .fil1 {fill:white}
   ]]>
  </style>
   <clipPath
   id="id0">
    <path
   id="path4"
   d="M 0,0 H 5233 V 5233 H 0 Z" />
   </clipPath>
 </defs>
 <g
   id="Layer_x0020_1">
  <metadata
   id="CorelCorpID_0Corel-Layer" />
  <g
   id="g10">
  </g>
  <g
   id="g25"
   clip-path="url(#id0)">
   <g
   id="g23">
    <g
   id="_2986314032992">
     <path
   style="fill:#282626"
   id="path12"
   d="m 4967,5029 5,-855 -370,1 v 545 c -17,46 -15,25 -26,35 -50,226 -313,183 -584,183 l -3269,1 C 399,4938 412,4766 412,4531 V 2513 c 0,-206 -59,-468 143,-550 126,-51 1369,-23 1612,-23 h 2043 c 561,-1 310,351 375,712 l 395,2 c 26,-163 4,-455 4,-631 0,-228 -37,-355 -318,-374 L 4195,728 c -112,25 -2514,850 -2632,890 -239,80 -1122,-9 -1336,43 C -63,1732 8,2024 8,2246 L 7,4921 c -1,303 202,308 539,308 432,0 4079,12 4187,-5 107,-18 235,-98 234,-195 z"
   class="fil0" />
     <path
   style="fill:#282626"
   id="path14"
   d="m 3511,2786 c -295,50 -231,340 -231,530 0,119 0,238 0,356 -1,131 -8,210 85,290 98,85 174,75 341,75 1495,-1 1519,138 1519,-532 0,-188 45,-524 -75,-647 -120,-122 -547,-78 -777,-78 -190,0 -713,-20 -862,6 z"
   class="fil0" />
     <path
   style="fill:#282626"
   id="path16"
   d="M 531,1494 3988,326 C 3808,-124 3708,-38 3126,166 L 1028,878 c -111,39 -441,136 -514,182 -210,131 -29,270 17,434 z"
   class="fil0" />
     <path
   style="fill:#ffffff"
   id="path18"
   d="m 3831,3179 c -377,87 -223,525 137,453 366,-72 223,-536 -137,-453 z"
   class="fil1" />
     <path
   style="fill:#454444"
   id="path20"
   d="m 4576,4755 c 11,-10 9,11 26,-35 v -545 l 370,-1 -5,855 c 36,-17 19,-360 19,-420 0,-146 6,-301 -1,-445 l -405,-1 z"
   class="fil2" />
    </g>
   </g>
  </g>
  <polygon
   style="fill:none"
   id="polygon27"
   points="5233,5233 0,5233 0,0 5233,0 "
   class="fil3" />
 </g>
</svg>