<?xml version="1.0" encoding="UTF-8" standalone="no"?>
<svg
   xmlns:dc="http://purl.org/dc/elements/1.1/"
   xmlns:cc="http://creativecommons.org/ns#"
   xmlns:rdf="http://www.w3.org/1999/02/22-rdf-syntax-ns#"
   xmlns:svg="http://www.w3.org/2000/svg"
   xmlns="http://www.w3.org/2000/svg"
   id="svg25"
   viewBox="0 0 406.00002 495.00001"
   style="clip-rule:evenodd;fill-rule:evenodd;image-rendering:optimizeQuality;shape-rendering:geometricPrecision;text-rendering:geometricPrecision"
   version="1.1"
   height="0.49467543in"
   width="0.40573379in"
   xml:space="preserve"><metadata
   id="metadata29"><rdf:RDF><cc:Work
       rdf:about=""><dc:format>image/svg+xml</dc:format><dc:type
         rdf:resource="http://purl.org/dc/dcmitype/StillImage" /></cc:Work></rdf:RDF></metadata>
 <defs
   id="defs4">
  <style
   id="style2"
   type="text/css">
   <![CDATA[
    .fil1 {fill:#6EA533}
    .fil0 {fill:#8BC852}
    .fil3 {fill:#F6E266}
    .fil2 {fill:#F6F1F1}
   ]]>
  </style>
 </defs>
 <g
   transform="translate(-53,-13)"
   id="Layer_x0020_1">
  <metadata
   id="CorelCorpID_0Corel-Layer" />
  <g
   id="_3049196016720">
   <path
   style="fill:#8bc852"
   id="path7"
   d="M 459,13 V 437 L 97,468 53,472 V 51 C 53,30 70,13 91,13 Z"
   class="fil0" />
   <path
   style="fill:#6ea533"
   id="path9"
   d="m 97,13 v 455 l -44,4 V 51 C 53,30 70,13 91,13 Z"
   class="fil1" />
   <path
   style="fill:#f6f1f1"
   id="path11"
   d="m 459,437 v 71 H 88 c -17,0 -31,-12 -35,-28 0,-3 0,-5 0,-8 0,-10 4,-18 10,-25 6,-6 15,-10 25,-10 z"
   class="fil2" />
   <path
   style="fill:#6ea533"
   id="path13"
   d="m 459,480 v 28 H 88 C 71,508 57,496 53,480 Z"
   class="fil1" />
   <path
   style="fill:#6ea533"
   id="path15"
   d="m 419,100 v 250 c -26,0 -47,21 -47,47 H 175 c 0,-26 -21,-47 -47,-47 V 100 c 26,0 47,-21 47,-47 h 197 c 0,26 21,47 47,47 z"
   class="fil1" />
   <g
   id="g21">
    <path
   style="fill:#f6e266"
   id="path17"
   d="m 369,256 c 0,-1 0,-1 0,-1 7,-7 17,0 15,8 -5,18 -15,36 -29,50 -44,43 -115,43 -159,-1 -43,-44 -43,-114 0,-158 15,-14 32,-24 50,-29 8,-2 14,8 8,14 0,1 0,1 0,1 -32,32 -32,83 0,115 32,32 83,32 115,1 z"
   class="fil3" />
    <path
   style="fill:#f6e266"
   id="path19"
   d="m 329,140 9,19 c 1,3 4,4 6,5 l 22,3 c 7,1 9,9 4,14 l -15,15 c -2,2 -3,4 -3,7 l 4,21 c 1,7 -6,12 -12,9 l -19,-10 c -2,-2 -5,-2 -7,0 l -20,10 c -5,3 -12,-2 -11,-9 l 3,-21 c 1,-3 0,-5 -2,-7 l -15,-15 c -5,-5 -3,-13 4,-14 l 21,-3 c 3,-1 5,-2 7,-5 l 9,-19 c 3,-6 12,-6 15,0 z"
   class="fil3" />
   </g>
  </g>
 </g>
</svg>