<?xml version="1.0" encoding="UTF-8" standalone="no"?>
<svg
   xmlns:dc="http://purl.org/dc/elements/1.1/"
   xmlns:cc="http://creativecommons.org/ns#"
   xmlns:rdf="http://www.w3.org/1999/02/22-rdf-syntax-ns#"
   xmlns:svg="http://www.w3.org/2000/svg"
   xmlns="http://www.w3.org/2000/svg"
   id="svg41"
   viewBox="0 0 494.00003 494.00003"
   style="clip-rule:evenodd;fill-rule:evenodd;image-rendering:optimizeQuality;shape-rendering:geometricPrecision;text-rendering:geometricPrecision"
   version="1.1"
   height="0.4936761in"
   width="0.4936761in"
   xml:space="preserve"><metadata
   id="metadata45"><rdf:RDF><cc:Work
       rdf:about=""><dc:format>image/svg+xml</dc:format><dc:type
         rdf:resource="http://purl.org/dc/dcmitype/StillImage" /></cc:Work></rdf:RDF></metadata>
 <defs
   id="defs4">
  <style
   id="style2"
   type="text/css">
   <![CDATA[
    .fil6 {fill:#02998A}
    .fil5 {fill:#6CBBC7}
    .fil1 {fill:#A7D6DD}
    .fil2 {fill:#B3B3B3}
    .fil0 {fill:#E6E6E6}
    .fil7 {fill:#F5CF68}
    .fil4 {fill:#FDB62F}
    .fil3 {fill:#FF6536}
   ]]>
  </style>
 </defs>
 <g
   transform="translate(-20,-12)"
   id="Layer_x0020_1">
  <metadata
   id="CorelCorpID_0Corel-Layer" />
  <g
   id="Flat">
   <path
   style="fill:#e6e6e6"
   id="path7"
   d="m 37,506 h 375 c 9,-1 17,-8 17,-18 0,0 0,0 0,0 V 38 H 20 v 450 c 0,0 0,0 0,0 0,10 8,17 17,18 z"
   class="fil0" />
   <polygon
   style="fill:#a7d6dd"
   id="polygon9"
   points="361,191 361,463 89,463 89,106 276,106 "
   class="fil1" />
   <path
   style="fill:#b3b3b3"
   id="path11"
   d="M 20,63 H 429 V 29 c 0,-9 -8,-17 -17,-17 H 37 c -9,0 -17,8 -17,17 z"
   class="fil2" />
   <path
   style="fill:#ff6536"
   id="path13"
   d="m 46,46 c 0,-1 1,-2 2,-3 -1,1 -1,2 -2,3 z"
   class="fil3" />
   <path
   style="fill:#fdb62f"
   id="path15"
   d="m 72,46 c -1,0 -1,0 -1,0 -4,0 -8,-4 -8,-8 0,0 0,0 0,0 2,1 2,3 2,6 0,2 0,4 -2,6 2,-3 4,-4 7,-4 1,0 1,0 2,0 z"
   class="fil4" />
   <polygon
   style="fill:#6cbbc7"
   id="polygon17"
   points="276,191 361,191 276,106 "
   class="fil5" />
   <path
   style="fill:#02998a"
   id="path19"
   d="m 97,46 c 2,2 3,4 3,6 0,2 -1,5 -3,6 -1,-1 -2,-4 -2,-6 0,-2 1,-4 2,-6 z"
   class="fil6" />
   <rect
   style="fill:#6cbbc7"
   id="rect21"
   height="17.0161"
   width="119.114"
   y="148"
   x="123"
   class="fil5" />
   <rect
   style="fill:#6cbbc7"
   id="rect23"
   height="17.0161"
   width="119.114"
   y="199"
   x="123"
   class="fil5" />
   <rect
   style="fill:#6cbbc7"
   id="rect25"
   height="17.0161"
   width="161.655"
   y="250"
   x="123"
   class="fil5" />
   <rect
   style="fill:#6cbbc7"
   id="rect27"
   height="17.0161"
   width="110.606"
   y="301"
   x="123"
   class="fil5" />
   <rect
   style="fill:#6cbbc7"
   id="rect29"
   height="17.0161"
   width="68.064903"
   y="352"
   x="123"
   class="fil5" />
   <rect
   style="fill:#6cbbc7"
   id="rect31"
   height="17.0161"
   width="51.048801"
   y="403"
   x="123"
   class="fil5" />
   <path
   style="fill:#ff6536"
   id="path33"
   d="M 259,403 507,155 c 4,-4 7,-10 7,-17 0,0 0,0 0,0 v 0 c 0,-13 -11,-24 -24,-24 v 0 c 0,0 0,0 0,0 -7,0 -13,3 -17,7 l -248,248 -17,51 z"
   class="fil3" />
   <polygon
   style="fill:#f5cf68"
   id="polygon35"
   points="259,403 276,386 242,352 225,369 208,420 "
   class="fil7" />
   <path
   style="fill:#f5cf68"
   id="path37"
   d="m 454,140 19,-19 c 4,-4 10,-7 17,-7 0,0 0,0 0,0 v 0 c 13,0 24,11 24,24 v 0 c 0,0 0,0 0,0 0,7 -3,13 -7,17 l -19,19 z"
   class="fil7" />
  </g>
 </g>
</svg>