<?xml version="1.0" encoding="UTF-8" standalone="no"?>
<svg
   xmlns:dc="http://purl.org/dc/elements/1.1/"
   xmlns:cc="http://creativecommons.org/ns#"
   xmlns:rdf="http://www.w3.org/1999/02/22-rdf-syntax-ns#"
   xmlns:svg="http://www.w3.org/2000/svg"
   xmlns="http://www.w3.org/2000/svg"
   id="svg110"
   viewBox="0 0 400.00001 502.00001"
   style="clip-rule:evenodd;fill-rule:evenodd;image-rendering:optimizeQuality;shape-rendering:geometricPrecision;text-rendering:geometricPrecision"
   version="1.1"
   height="0.50167084in"
   width="0.39973772in"
   xml:space="preserve"><metadata
   id="metadata114"><rdf:RDF><cc:Work
       rdf:about=""><dc:format>image/svg+xml</dc:format><dc:type
         rdf:resource="http://purl.org/dc/dcmitype/StillImage" /></cc:Work></rdf:RDF></metadata>
 <defs
   id="defs4">
  <style
   id="style2"
   type="text/css">
   <![CDATA[
    .fil13 {fill:#0C0C0C}
    .fil4 {fill:#191919}
    .fil11 {fill:#2D170F}
    .fil9 {fill:#332016}
    .fil8 {fill:#876249}
    .fil7 {fill:#896045}
    .fil6 {fill:#9E6E4D}
    .fil3 {fill:#A07252}
    .fil5 {fill:#B27E5B}
    .fil2 {fill:#C2C2CC}
    .fil0 {fill:#D3D3E5}
    .fil1 {fill:#E2E2ED}
    .fil10 {fill:#EADAD0}
    .fil12 {fill:#EDEDF4}
   ]]>
  </style>
 </defs>
 <g
   transform="translate(-61,-8)"
   id="Layer_x0020_1">
  <metadata
   id="CorelCorpID_0Corel-Layer" />
  <g
   id="_3049328327824">
   <g
   id="g11">
    <path
   style="fill:#d3d3e5"
   id="path7"
   d="m 123,101 c 0,0 -4,21 -9,78 -4,44 -3,201 -3,201 l 117,32 3,-351 z"
   class="fil0" />
    <path
   style="fill:#d3d3e5"
   id="path9"
   d="m 409,178 c -6,-58 -9,-77 -9,-77 l -108,-40 3,351 117,-32 c 0,0 0,-159 -3,-202 z"
   class="fil0" />
   </g>
   <path
   style="fill:#e2e2ed"
   id="path13"
   d="m 452,383 c -10,-31 -91,-55 -191,-55 -101,0 -181,24 -191,55 -3,9 -6,25 -9,42 50,52 121,85 200,85 79,0 150,-33 200,-85 -3,-17 -6,-33 -9,-42 z"
   class="fil1" />
   <path
   style="fill:#c2c2cc"
   id="path15"
   d="m 261,291 c -14,0 -45,4 -63,16 v 36 c 18,-12 49,-16 63,-16 14,0 45,4 63,16 v -36 c -18,-12 -49,-16 -63,-16 z"
   class="fil2" />
   <g
   id="g23">
    <path
   style="fill:#a07252"
   id="path17"
   d="M 325,256 H 197 c 20,52 2,77 2,77 v 9 h 124 v -9 c 0,0 -18,-25 2,-77 z"
   class="fil3" />
    <path
   style="fill:#a07252"
   id="path19"
   d="m 164,154 c -10,1 -17,5 -11,36 5,32 12,33 21,31 z"
   class="fil3" />
    <path
   style="fill:#a07252"
   id="path21"
   d="m 358,154 -10,67 c 10,2 16,1 22,-31 5,-31 -2,-35 -12,-36 z"
   class="fil3" />
   </g>
   <path
   style="fill:#191919"
   id="path25"
   d="m 261,25 c -55,0 -99,22 -99,125 0,35 7,77 17,98 23,47 63,63 82,63 19,0 59,-16 82,-63 10,-21 17,-63 17,-98 C 360,47 316,25 261,25 Z"
   class="fil4" />
   <path
   style="fill:#b27e5b"
   id="path27"
   d="m 261,25 c -52,0 -95,23 -95,122 0,34 7,73 17,94 13,26 31,34 48,43 11,6 22,17 30,17 8,0 19,-11 31,-17 16,-9 34,-17 47,-43 10,-21 17,-60 17,-94 C 356,48 313,25 261,25 Z"
   class="fil5" />
   <g
   id="g37">
    <path
   style="fill:#191919"
   id="path29"
   d="m 261,235 c -28,0 -42,9 -42,27 0,22 21,45 42,45 21,0 42,-23 42,-45 0,-18 -14,-27 -42,-27 z m 0,61 c -17,0 -36,-16 -36,-34 0,-5 0,-20 36,-20 36,0 36,15 36,20 0,18 -19,34 -36,34 z"
   class="fil4" />
    <path
   style="fill:#191919"
   id="path31"
   d="m 267,280 c -1,-1 -1,-2 -2,-3 -1,-1 -2,-2 -3,-3 h -2 c -1,1 -2,2 -3,3 -1,1 -1,2 -2,3 0,1 0,2 0,3 1,0 1,1 2,2 0,2 1,4 1,6 1,2 2,4 2,5 h 2 c 0,-1 1,-3 2,-5 1,-2 1,-4 2,-6 0,-1 0,-1 1,-2 0,-1 0,-2 0,-3 z"
   class="fil4" />
    <path
   style="fill:#191919"
   id="path33"
   d="m 333,145 c -9,-8 -24,-10 -32,-10 -1,0 -3,0 -4,1 0,0 -1,1 -1,1 0,0 -1,-1 -1,-1 -6,0 -12,1 -14,2 h -1 c -3,2 -7,3 -5,8 0,2 2,4 4,4 1,0 1,0 2,0 1,-1 2,-1 2,-1 1,0 1,-1 2,-1 0,0 1,0 2,0 0,-1 2,-3 2,-3 0,0 2,2 3,1 4,0 8,-1 12,-1 11,0 21,3 23,4 2,1 3,1 4,1 2,0 3,-1 3,-2 0,-1 0,-2 -1,-3 z"
   class="fil4" />
    <path
   style="fill:#191919"
   id="path35"
   d="m 242,138 v 0 c -2,0 -4,-1 -6,-1 -1,0 -3,1 -3,1 0,0 -1,-2 -2,-2 -3,0 -6,0 -10,0 -8,0 -23,1 -32,9 -1,1 -1,2 -1,3 0,1 1,2 3,2 1,0 2,0 4,-1 2,-1 12,-4 23,-4 7,0 14,1 19,3 1,0 1,1 2,1 1,0 1,1 2,1 1,0 1,0 2,0 2,0 4,-1 5,-4 1,-5 -3,-6 -6,-8 z"
   class="fil4" />
   </g>
   <path
   style="fill:#9e6e4d"
   id="path39"
   d="m 275,246 c -4,-1 -14,3 -14,3 0,0 -10,-4 -14,-3 -6,1 -16,10 -16,12 0,3 14,8 30,8 16,0 30,-5 30,-8 0,0 -10,-11 -16,-12 z"
   class="fil6" />
   <path
   style="fill:#896045"
   id="path41"
   d="m 261,253 c -18,0 -30,5 -30,5 0,4 14,8 30,8 16,0 30,-4 30,-8 0,0 -12,-5 -30,-5 z"
   class="fil7" />
   <g
   id="g49">
    <path
   style="fill:#876249"
   id="path43"
   d="m 272,183 c 0,-13 -5,-16 -5,-16 3,9 3,17 3,24 0,10 5,16 5,16 -2,-4 -3,-11 -3,-24 z"
   class="fil8" />
    <path
   style="fill:#876249"
   id="path45"
   d="m 245,218 c 0,0 -7,14 6,13 0,0 -9,-3 -6,-13 z"
   class="fil8" />
    <path
   style="fill:#876249"
   id="path47"
   d="m 278,218 c 3,10 -5,13 -5,13 13,2 5,-13 5,-13 z"
   class="fil8" />
   </g>
   <path
   style="fill:#332016"
   id="path51"
   d="m 299,154 c -11,0 -19,12 -19,12 0,0 4,4 19,4 17,0 22,-6 22,-6 0,0 -9,-10 -22,-10 z"
   class="fil9" />
   <path
   style="fill:#eadad0"
   id="path53"
   d="m 299,154 c -11,0 -19,12 -19,12 0,0 8,3 19,2 13,0 22,-4 22,-4 0,0 -9,-10 -22,-10 z"
   class="fil10" />
   <circle
   style="fill:#2d170f"
   id="circle55"
   r="8"
   cy="161"
   cx="300"
   class="fil11" />
   <path
   style="fill:#9e6e4d"
   id="path57"
   d="m 308,153 c -2,0 -7,-1 -9,-1 -11,1 -19,14 -19,14 h 1 c 4,-3 14,-11 21,-11 13,0 19,9 19,9 0,0 -1,-9 -13,-11 z"
   class="fil6" />
   <g
   id="g63">
    <path
   style="fill:#191919"
   id="path59"
   d="m 306,153 c -11,0 -26,13 -26,13 h 1 c 4,-3 14,-11 21,-11 10,0 19,9 19,9 0,0 -2,-11 -15,-11 z"
   class="fil4" />
    <path
   style="fill:#191919"
   id="path61"
   d="m 299,168 c -11,1 -19,-2 -19,-2 0,0 4,4 19,4 17,0 22,-6 22,-6 0,0 -9,3 -22,4 z"
   class="fil4" />
   </g>
   <path
   style="fill:#332016"
   id="path65"
   d="m 223,154 c -13,0 -22,10 -22,10 0,0 5,6 22,6 16,0 19,-4 19,-4 0,0 -8,-12 -19,-12 z"
   class="fil9" />
   <path
   style="fill:#eadad0"
   id="path67"
   d="m 223,154 c -13,0 -22,10 -22,10 0,0 9,4 22,4 11,1 19,-2 19,-2 0,0 -8,-12 -19,-12 z"
   class="fil10" />
   <circle
   style="fill:#2d170f"
   id="circle69"
   r="8"
   cy="161"
   cx="222"
   class="fil11" />
   <path
   style="fill:#9e6e4d"
   id="path71"
   d="m 223,152 c -2,0 -7,1 -9,1 -12,2 -13,11 -13,11 0,0 6,-9 19,-9 7,0 17,8 21,12 l 1,-1 c 0,0 -8,-13 -19,-14 z"
   class="fil6" />
   <g
   id="g77">
    <path
   style="fill:#191919"
   id="path73"
   d="m 216,153 c -13,0 -15,11 -15,11 0,0 9,-9 19,-9 7,0 17,8 22,11 h 1 c -1,0 -16,-13 -27,-13 z"
   class="fil4" />
    <path
   style="fill:#191919"
   id="path75"
   d="m 223,168 c -13,-1 -22,-4 -22,-4 0,0 5,6 22,6 16,0 19,-4 19,-4 0,0 -8,3 -19,2 z"
   class="fil4" />
   </g>
   <path
   style="fill:#ededf4"
   id="path79"
   d="M 400,101 C 400,58 328,9 261,9 v 0 0 0 c -67,0 -138,49 -138,92 0,0 -11,94 -11,108 0,0 19,-21 51,-53 14,-14 32,-52 51,-52 16,-1 38,17 47,17 9,0 32,-18 48,-17 20,0 37,37 51,50 33,31 50,55 50,55 0,-14 -10,-108 -10,-108 z"
   class="fil12" />
   <path
   style="fill:#0c0c0c"
   id="path81"
   d="m 365,39 -21,6 c 0,1 1,2 1,3 0,18 -38,32 -84,32 -46,0 -83,-14 -83,-32 0,-1 0,-2 0,-3 l -21,-6 c -3,4 -10,14 -10,19 0,24 51,43 114,43 63,0 114,-19 114,-43 0,-5 -7,-15 -10,-19 z"
   class="fil13" />
   <path
   style="fill:#191919"
   id="path83"
   d="M 261,8 C 201,8 153,27 153,49 153,72 201,91 261,91 321,91 369,72 369,49 369,27 321,8 261,8 Z m 0,63 c -44,0 -79,-14 -79,-30 0,-17 35,-31 79,-31 44,0 79,14 79,31 0,16 -35,30 -79,30 z"
   class="fil4" />
   <path
   style="fill:#c2c2cc"
   id="path85"
   d="m 231,344 v 164 c 10,1 20,2 30,2 7,0 14,0 21,-1 V 344 Z"
   class="fil2" />
   <g
   id="g91">
    <path
   style="fill:#ededf4"
   id="path87"
   d="m 235,344 v 165 c 9,1 17,1 26,1 9,0 17,0 25,-1 V 344 Z"
   class="fil12" />
    <path
   style="fill:#ededf4"
   id="path89"
   d="m 261,323 c -14,0 -45,-4 -63,-16 v 36 c 18,12 49,16 63,16 14,0 45,-4 63,-16 v -36 c -18,12 -49,16 -63,16 z"
   class="fil12" />
   </g>
  </g>
  <g
   id="_3049328328112">
  </g>
  <g
   id="_3049328327056">
  </g>
  <g
   id="_3049328328432">
  </g>
  <g
   id="_3049328328624">
  </g>
  <g
   id="_3049328328304">
  </g>
  <g
   id="_3049328325744">
  </g>
  <g
   id="_3049328325488">
  </g>
  <g
   id="_3049328326608">
  </g>
  <g
   id="_3049328324976">
  </g>
  <g
   id="_3049328326128">
  </g>
  <g
   id="_3049328326288">
  </g>
  <g
   id="_3049328326064">
  </g>
  <g
   id="_3049328323696">
  </g>
  <g
   id="_3049328323856">
  </g>
  <g
   id="_3049328323216">
  </g>
 </g>
</svg>