<?xml version="1.0" encoding="UTF-8" standalone="no"?>
<svg
   xmlns:dc="http://purl.org/dc/elements/1.1/"
   xmlns:cc="http://creativecommons.org/ns#"
   xmlns:rdf="http://www.w3.org/1999/02/22-rdf-syntax-ns#"
   xmlns:svg="http://www.w3.org/2000/svg"
   xmlns="http://www.w3.org/2000/svg"
   id="svg59"
   viewBox="0 0 488.00001 488.00001"
   style="clip-rule:evenodd;fill-rule:evenodd;image-rendering:optimizeQuality;shape-rendering:geometricPrecision;text-rendering:geometricPrecision"
   version="1.1"
   height="0.48768002in"
   width="0.48768002in"
   xml:space="preserve"><metadata
   id="metadata63"><rdf:RDF><cc:Work
       rdf:about=""><dc:format>image/svg+xml</dc:format><dc:type
         rdf:resource="http://purl.org/dc/dcmitype/StillImage" /></cc:Work></rdf:RDF></metadata>
 <defs
   id="defs4">
  <style
   id="style2"
   type="text/css">
   <![CDATA[
    .fil10 {fill:#636363}
    .fil3 {fill:#669AF7}
    .fil7 {fill:#66D166}
    .fil6 {fill:#7AE57D}
    .fil2 {fill:#8DB0FF}
    .fil5 {fill:#EA4747}
    .fil1 {fill:#F9B3A7}
    .fil9 {fill:#F9C646}
    .fil0 {fill:#FECCC1}
    .fil4 {fill:#FF6969}
    .fil8 {fill:#FFD664}
   ]]>
  </style>
 </defs>
 <g
   transform="translate(-17,-15)"
   id="Layer_x0020_1">
  <metadata
   id="CorelCorpID_0Corel-Layer" />
  <g
   id="_3049199004368">
   <path
   style="fill:#feccc1"
   id="path7"
   d="m 458,355 c 0,-23 -19,-42 -42,-42 -23,0 -41,19 -41,42 v 20 c 0,23 18,41 41,41 23,0 42,-18 42,-41 z m 0,0 z"
   class="fil0" />
   <path
   style="fill:#f9b3a7"
   id="path9"
   d="m 416,313 c -2,0 -5,1 -8,1 19,4 33,21 33,41 v 20 c 0,20 -14,37 -33,41 3,0 6,0 8,0 23,0 42,-18 42,-41 v -20 c 0,-23 -19,-42 -42,-42 z m 0,0 z"
   class="fil1" />
   <path
   style="fill:#8db0ff"
   id="path11"
   d="m 505,493 v -19 c 0,-26 -16,-48 -40,-57 l -25,-8 c -5,-2 -9,-2 -13,-2 h -21 c -4,0 -9,0 -13,2 l -25,8 c -24,9 -40,31 -40,57 v 29 h 167 c 5,0 10,-5 10,-10 z m 0,0 z"
   class="fil2" />
   <path
   style="fill:#669af7"
   id="path13"
   d="m 465,417 -6,-1 c 15,11 24,28 24,47 v 40 h 12 c 5,0 10,-5 10,-10 v -19 c 0,-26 -16,-48 -40,-57 z m 0,0 z"
   class="fil3" />
   <path
   style="fill:#feccc1"
   id="path15"
   d="m 147,355 c 0,-23 -19,-42 -42,-42 -23,0 -42,19 -42,42 v 20 c 0,23 19,41 42,41 23,0 42,-18 42,-41 z m 0,0 z"
   class="fil0" />
   <path
   style="fill:#f9b3a7"
   id="path17"
   d="m 105,313 c -3,0 -6,1 -8,1 19,4 33,21 33,41 v 20 c 0,20 -14,37 -33,41 2,0 5,0 8,0 23,0 42,-18 42,-41 v -20 c 0,-23 -19,-42 -42,-42 z m 0,0 z"
   class="fil1" />
   <path
   style="fill:#8db0ff"
   id="path19"
   d="m 193,503 v -29 c 0,-26 -16,-48 -40,-57 l -25,-8 c -4,-2 -8,-2 -13,-2 H 95 c -4,0 -9,0 -13,2 l -25,8 c -24,9 -40,31 -40,57 v 19 c 0,5 4,10 10,10 z m 0,0 z"
   class="fil2" />
   <path
   style="fill:#669af7"
   id="path21"
   d="m 153,417 -3,-1 c 14,11 23,28 23,47 v 40 h 20 v -29 c 0,-26 -16,-48 -40,-57 z m 0,0 z"
   class="fil3" />
   <path
   style="fill:#feccc1"
   id="path23"
   d="m 302,355 c 0,-23 -18,-42 -41,-42 -23,0 -42,19 -42,42 v 20 c 0,23 19,41 42,41 23,0 41,-18 41,-41 z m 0,0 z"
   class="fil0" />
   <path
   style="fill:#f9b3a7"
   id="path25"
   d="m 261,313 c -3,0 -6,1 -9,1 19,4 34,21 34,41 v 20 c 0,20 -15,37 -34,41 3,0 6,0 9,0 23,0 41,-18 41,-41 v -20 c 0,-23 -18,-42 -41,-42 z m 0,0 z"
   class="fil1" />
   <path
   style="fill:#8db0ff"
   id="path27"
   d="m 349,503 v -29 c 0,-26 -16,-48 -40,-57 l -25,-8 c -4,-2 -9,-2 -13,-2 h -20 c -5,0 -9,0 -13,2 l -25,8 c -24,9 -40,31 -40,57 v 29 z m 0,0 z"
   class="fil2" />
   <path
   style="fill:#669af7"
   id="path29"
   d="m 309,417 -5,-1 c 14,11 23,28 23,47 v 40 h 22 v -29 c 0,-26 -16,-48 -40,-57 z m 0,0 z"
   class="fil3" />
   <path
   style="fill:#ff6969"
   id="path31"
   d="m 105,259 h 78 c 6,0 10,-5 10,-10 v -27 c 0,-33 -26,-59 -59,-59 H 76 c -33,0 -59,26 -59,59 v 27 c 0,5 4,10 10,10 z m 0,0 z"
   class="fil4" />
   <path
   style="fill:#ea4747"
   id="path33"
   d="m 139,163 c 16,10 28,29 28,50 v 46 h 16 c 6,0 10,-5 10,-10 v -27 c 0,-31 -24,-57 -54,-59 z m 0,0 z"
   class="fil5" />
   <path
   style="fill:#feccc1"
   id="path35"
   d="M 147,109 C 147,86 128,67 105,67 82,67 63,86 63,109 v 22 c 0,23 19,41 42,41 23,0 42,-18 42,-41 z m 0,0 z"
   class="fil0" />
   <path
   style="fill:#f9b3a7"
   id="path37"
   d="m 105,67 c -3,0 -6,1 -8,1 19,4 33,21 33,41 v 22 c 0,20 -14,37 -33,41 2,0 5,0 8,0 23,0 42,-18 42,-41 V 109 C 147,86 128,67 105,67 Z m 0,0 z"
   class="fil1" />
   <path
   style="fill:#7ae57d"
   id="path39"
   d="M 495,259 H 235 c -5,0 -10,-5 -10,-10 V 25 c 0,-6 5,-10 10,-10 h 260 c 5,0 10,4 10,10 v 224 c 0,5 -5,10 -10,10 z m 0,0 z"
   class="fil6" />
   <path
   style="fill:#66d166"
   id="path41"
   d="m 490,15 v 244 h 5 c 5,0 10,-5 10,-10 V 25 c 0,-6 -5,-10 -10,-10 z m 0,0 z"
   class="fil7" />
   <path
   style="fill:#ffd664"
   id="path43"
   d="m 225,249 v -24 h 280 v 24 c 0,5 -5,10 -10,10 H 235 c -5,0 -10,-5 -10,-10 z m 0,0 z"
   class="fil8" />
   <path
   style="fill:#f9c646"
   id="path45"
   d="m 490,225 v 9 c 0,5 -5,10 -10,10 H 225 v 5 c 0,5 5,10 10,10 h 260 c 5,0 10,-5 10,-10 v -24 z m 0,0 z"
   class="fil9" />
   <path
   style="fill:#ffd664"
   id="path47"
   d="m 340,84 c 0,22 -18,40 -40,40 -22,0 -40,-18 -40,-40 0,-22 18,-39 40,-39 22,0 40,17 40,39 z m 0,0 z"
   class="fil8" />
   <g
   id="g55">
    <path
   style="fill:#636363"
   id="path49"
   d="m 466,66 h -93 c -4,0 -8,-3 -8,-8 0,-4 4,-7 8,-7 h 93 c 4,0 8,3 8,7 0,5 -4,8 -8,8 z m 0,0 z"
   class="fil10" />
    <path
   style="fill:#636363"
   id="path51"
   d="m 466,117 h -93 c -4,0 -8,-3 -8,-7 0,-4 4,-7 8,-7 h 93 c 4,0 8,3 8,7 0,4 -4,7 -8,7 z m 0,0 z"
   class="fil10" />
    <path
   style="fill:#636363"
   id="path53"
   d="M 466,167 H 264 c -4,0 -8,-3 -8,-7 0,-5 4,-8 8,-8 h 202 c 4,0 8,3 8,8 0,4 -4,7 -8,7 z m 0,0 z"
   class="fil10" />
   </g>
  </g>
 </g>
</svg>